<?xml version="1.0" encoding="UTF-8" standalone="no"?>
<!DOCTYPE svg PUBLIC "-//W3C//DTD SVG 1.1//EN"
 "http://www.w3.org/Graphics/SVG/1.1/DTD/svg11.dtd">
<!-- Generated by graphviz version 8.0.2 (20230410.1723)
 -->
<!-- Pages: 1 -->
<svg width="371pt" height="139pt" viewBox="0.00 0.00 371.00 139.00" xmlns="http://www.w3.org/2000/svg" xmlns:xlink="http://www.w3.org/1999/xlink">
<g id="graph0" class="graph" transform="scale(1 1) rotate(0) translate(4 135)">
<polygon fill="white" stroke="none" points="-4,4 -4,-135 367,-135 367,4 -4,4"/>
<g id="clust1" class="cluster">
<title>cluster__block</title>
<polygon fill="white" stroke="black" stroke-dasharray="1,5" points="8,-12 8,-123 214,-123 214,-12 8,-12"/>
<text text-anchor="middle" x="111" y="-107.8" font-family="Times,serif" font-size="14.00">Block</text>
</g>
<!-- block__seq -->
<g id="node1" class="node">
<title>block__seq</title>
<polygon fill="#e6007a4f" stroke="none" points="24,-66.5 24,-87.5 49,-87.5 49,-66.5 24,-66.5"/>
<polygon fill="none" stroke="black" points="24,-66.5 24,-87.5 49,-87.5 49,-66.5 24,-66.5"/>
<text text-anchor="start" x="27" y="-73.3" font-family="Times,serif" font-size="14.00">pos</text>
<polygon fill="#e6007a4f" stroke="none" points="49,-66.5 49,-87.5 77,-87.5 77,-66.5 49,-66.5"/>
<polygon fill="none" stroke="black" points="49,-66.5 49,-87.5 77,-87.5 77,-66.5 49,-66.5"/>
<text text-anchor="start" x="52" y="-73.3" font-family="Times,serif" font-size="14.00">size</text>
<polygon fill="#e6007a4f" stroke="none" points="77,-66.5 77,-87.5 155,-87.5 155,-66.5 77,-66.5"/>
<polygon fill="none" stroke="black" points="77,-66.5 77,-87.5 155,-87.5 155,-66.5 77,-66.5"/>
<text text-anchor="start" x="104" y="-73.3" font-family="Times,serif" font-size="14.00">type</text>
<polygon fill="#e6007a4f" stroke="none" points="155,-66.5 155,-87.5 198,-87.5 198,-66.5 155,-66.5"/>
<polygon fill="none" stroke="black" points="155,-66.5 155,-87.5 198,-87.5 198,-66.5 155,-66.5"/>
<text text-anchor="start" x="171" y="-73.3" font-family="Times,serif" font-size="14.00">id</text>
<polygon fill="none" stroke="black" points="24,-45.5 24,-66.5 49,-66.5 49,-45.5 24,-45.5"/>
<text text-anchor="start" x="33" y="-52.3" font-family="Times,serif" font-size="14.00">0</text>
<polygon fill="none" stroke="black" points="49,-45.5 49,-66.5 77,-66.5 77,-45.5 49,-45.5"/>
<text text-anchor="start" x="57" y="-52.3" font-family="Times,serif" font-size="14.00">...</text>
<polygon fill="none" stroke="black" points="77,-45.5 77,-66.5 155,-66.5 155,-45.5 77,-45.5"/>
<text text-anchor="start" x="80" y="-52.3" font-family="Times,serif" font-size="14.00">BlockHeader</text>
<polygon fill="none" stroke="black" points="155,-45.5 155,-66.5 198,-66.5 198,-45.5 155,-45.5"/>
<text text-anchor="start" x="158" y="-52.3" font-family="Times,serif" font-size="14.00">header</text>
<polygon fill="none" stroke="black" points="24,-24.5 24,-45.5 49,-45.5 49,-24.5 24,-24.5"/>
<text text-anchor="start" x="30.5" y="-31.3" font-family="Times,serif" font-size="14.00">...</text>
<polygon fill="none" stroke="black" points="49,-24.5 49,-45.5 77,-45.5 77,-24.5 49,-24.5"/>
<text text-anchor="start" x="57" y="-31.3" font-family="Times,serif" font-size="14.00">...</text>
<polygon fill="none" stroke="black" points="77,-24.5 77,-45.5 155,-45.5 155,-24.5 77,-24.5"/>
<text text-anchor="start" x="85" y="-31.3" font-family="Times,serif" font-size="14.00">BlockBody</text>
<polygon fill="none" stroke="black" points="155,-24.5 155,-45.5 198,-45.5 198,-24.5 155,-24.5"/>
<text text-anchor="start" x="162.5" y="-31.3" font-family="Times,serif" font-size="14.00">body</text>
</g>
<!-- block_header__seq -->
<g id="node2" class="node">
<title>block_header__seq</title>
<text text-anchor="middle" x="302.5" y="-68.3" font-family="Times,serif" font-size="14.00">
              <a xlink:href="chap-state#img-block-header" xlink:title="BlockHeader">
                BlockHeader
              </a>
            </text>
</g>
<!-- block__seq&#45;&gt;block_header__seq -->
<g id="edge1" class="edge">
<title>block__seq:header_type-&gt;block_header__seq</title>
<path fill="none" stroke="black" stroke-width="2" d="M199,-56C209.54,-56 220.61,-56.84 231.42,-58.12"/>
<polygon fill="black" stroke="black" stroke-width="2" points="228.75,-61.7 239.12,-59.55 229.67,-54.76 228.75,-61.7"/>
</g>
<!-- block_body__seq -->
<g id="node3" class="node">
<title>block_body__seq</title>
<text text-anchor="middle" x="302.5" y="-14.3" font-family="Times,serif" font-size="14.00">
              <a xlink:href="chap-state#img-block-body" xlink:title="BlockBody">
                BlockBody
              </a>
            </text>
</g>
<!-- block__seq&#45;&gt;block_body__seq -->
<g id="edge2" class="edge">
<title>block__seq:body_type-&gt;block_body__seq</title>
<path fill="none" stroke="black" stroke-width="2" d="M199,-35C211.07,-35 223.83,-33.84 236.1,-32.12"/>
<polygon fill="black" stroke="black" stroke-width="2" points="235.37,-35.47 244.72,-30.49 234.3,-28.55 235.37,-35.47"/>
</g>
</g>
</svg>
