<?xml version="1.0" encoding="UTF-8" standalone="no"?>
<!DOCTYPE svg PUBLIC "-//W3C//DTD SVG 1.1//EN"
 "http://www.w3.org/Graphics/SVG/1.1/DTD/svg11.dtd">
<!-- Generated by graphviz version 7.1.0 (20230121.1956)
 -->
<!-- Pages: 1 -->
<svg width="371pt" height="140pt"
 viewBox="0.00 0.00 371.00 140.00" xmlns="http://www.w3.org/2000/svg" xmlns:xlink="http://www.w3.org/1999/xlink">
<g id="graph0" class="graph" transform="scale(1 1) rotate(0) translate(4 136)">
<polygon fill="white" stroke="none" points="-4,4 -4,-136 367,-136 367,4 -4,4"/>
<g id="clust1" class="cluster">
<title>cluster__block</title>
<polygon fill="none" stroke="black" stroke-dasharray="1,5" points="8,-13 8,-124 214,-124 214,-13 8,-13"/>
<text text-anchor="middle" x="111" y="-108.8" font-family="Times,serif" font-size="14.00">Block</text>
</g>
<!-- block__seq -->
<g id="node1" class="node">
<title>block__seq</title>
<polygon fill="#e0ffe0" stroke="none" points="24,-67 24,-88 49,-88 49,-67 24,-67"/>
<polygon fill="none" stroke="black" points="24,-67 24,-88 49,-88 49,-67 24,-67"/>
<text text-anchor="start" x="27" y="-73.8" font-family="Times,serif" font-size="14.00">pos</text>
<polygon fill="#e0ffe0" stroke="none" points="49,-67 49,-88 77,-88 77,-67 49,-67"/>
<polygon fill="none" stroke="black" points="49,-67 49,-88 77,-88 77,-67 49,-67"/>
<text text-anchor="start" x="52" y="-73.8" font-family="Times,serif" font-size="14.00">size</text>
<polygon fill="#e0ffe0" stroke="none" points="77,-67 77,-88 155,-88 155,-67 77,-67"/>
<polygon fill="none" stroke="black" points="77,-67 77,-88 155,-88 155,-67 77,-67"/>
<text text-anchor="start" x="104" y="-73.8" font-family="Times,serif" font-size="14.00">type</text>
<polygon fill="#e0ffe0" stroke="none" points="155,-67 155,-88 198,-88 198,-67 155,-67"/>
<polygon fill="none" stroke="black" points="155,-67 155,-88 198,-88 198,-67 155,-67"/>
<text text-anchor="start" x="171" y="-73.8" font-family="Times,serif" font-size="14.00">id</text>
<polygon fill="none" stroke="black" points="24,-46 24,-67 49,-67 49,-46 24,-46"/>
<text text-anchor="start" x="33" y="-52.8" font-family="Times,serif" font-size="14.00">0</text>
<polygon fill="none" stroke="black" points="49,-46 49,-67 77,-67 77,-46 49,-46"/>
<text text-anchor="start" x="57" y="-52.8" font-family="Times,serif" font-size="14.00">...</text>
<polygon fill="none" stroke="black" points="77,-46 77,-67 155,-67 155,-46 77,-46"/>
<text text-anchor="start" x="80" y="-52.8" font-family="Times,serif" font-size="14.00">BlockHeader</text>
<polygon fill="none" stroke="black" points="155,-46 155,-67 198,-67 198,-46 155,-46"/>
<text text-anchor="start" x="158" y="-52.8" font-family="Times,serif" font-size="14.00">header</text>
<polygon fill="none" stroke="black" points="24,-25 24,-46 49,-46 49,-25 24,-25"/>
<text text-anchor="start" x="30.5" y="-31.8" font-family="Times,serif" font-size="14.00">...</text>
<polygon fill="none" stroke="black" points="49,-25 49,-46 77,-46 77,-25 49,-25"/>
<text text-anchor="start" x="57" y="-31.8" font-family="Times,serif" font-size="14.00">...</text>
<polygon fill="none" stroke="black" points="77,-25 77,-46 155,-46 155,-25 77,-25"/>
<text text-anchor="start" x="85" y="-31.8" font-family="Times,serif" font-size="14.00">BlockBody</text>
<polygon fill="none" stroke="black" points="155,-25 155,-46 198,-46 198,-25 155,-25"/>
<text text-anchor="start" x="162.5" y="-31.8" font-family="Times,serif" font-size="14.00">body</text>
</g>
<!-- block_header__seq -->
<g id="node2" class="node">
<title>block_header__seq</title>
<text text-anchor="middle" x="302.5" y="-68.3" font-family="Times,serif" font-size="14.00">block_header__seq</text>
</g>
<!-- block__seq&#45;&gt;block_header__seq -->
<g id="edge1" class="edge">
<title>block__seq:header_type&#45;&gt;block_header__seq</title>
<path fill="none" stroke="black" stroke-width="2" d="M199,-56C209.32,-56 220.15,-56.8 230.75,-58.04"/>
<polygon fill="black" stroke="black" stroke-width="2" points="228.75,-61.31 239.12,-59.15 229.67,-54.37 228.75,-61.31"/>
</g>
<!-- block_body__seq -->
<g id="node3" class="node">
<title>block_body__seq</title>
<text text-anchor="middle" x="302.5" y="-14.3" font-family="Times,serif" font-size="14.00">block_body__seq</text>
</g>
<!-- block__seq&#45;&gt;block_body__seq -->
<g id="edge2" class="edge">
<title>block__seq:body_type&#45;&gt;block_body__seq</title>
<path fill="none" stroke="black" stroke-width="2" d="M199,-35C210.82,-35 223.31,-33.89 235.35,-32.23"/>
<polygon fill="black" stroke="black" stroke-width="2" points="234.37,-35.92 243.73,-30.95 233.31,-29 234.37,-35.92"/>
</g>
</g>
</svg>
