<?xml version="1.0" encoding="UTF-8" standalone="no"?>
<!DOCTYPE svg PUBLIC "-//W3C//DTD SVG 1.1//EN"
 "http://www.w3.org/Graphics/SVG/1.1/DTD/svg11.dtd">
<!-- Generated by graphviz version 7.1.0 (20230121.1956)
 -->
<!-- Pages: 1 -->
<svg width="958pt" height="197pt"
 viewBox="0.00 0.00 958.00 197.01" xmlns="http://www.w3.org/2000/svg" xmlns:xlink="http://www.w3.org/1999/xlink">
<g id="graph0" class="graph" transform="scale(1 1) rotate(0) translate(4 193.01)">
<polygon fill="white" stroke="none" points="-4,4 -4,-193.01 954,-193.01 954,4 -4,4"/>
<g id="clust1" class="cluster">
<title>cluster__block_body</title>
<polygon fill="none" stroke="black" stroke-dasharray="1,5" points="188,-31.01 188,-181.01 814,-181.01 814,-31.01 188,-31.01"/>
<text text-anchor="middle" x="501" y="-165.81" font-family="Times,serif" font-size="14.00">BlockBody</text>
</g>
<g id="clust2" class="cluster">
<title>cluster__transaction</title>
<polygon fill="none" stroke="black" stroke-dasharray="1,5" points="504,-39.01 504,-150.01 806,-150.01 806,-39.01 504,-39.01"/>
<text text-anchor="middle" x="655" y="-134.81" font-family="Times,serif" font-size="14.00">BlockBody::Transaction</text>
</g>
<!-- block_body__seq -->
<g id="node1" class="node">
<title>block_body__seq</title>
<polygon fill="#e0ffe0" stroke="none" points="204,-106.01 204,-127.01 229,-127.01 229,-106.01 204,-106.01"/>
<polygon fill="none" stroke="black" points="204,-106.01 204,-127.01 229,-127.01 229,-106.01 204,-106.01"/>
<text text-anchor="start" x="207" y="-112.81" font-family="Times,serif" font-size="14.00">pos</text>
<polygon fill="#e0ffe0" stroke="none" points="229,-106.01 229,-127.01 257,-127.01 257,-106.01 229,-106.01"/>
<polygon fill="none" stroke="black" points="229,-106.01 229,-127.01 257,-127.01 257,-106.01 229,-106.01"/>
<text text-anchor="start" x="232" y="-112.81" font-family="Times,serif" font-size="14.00">size</text>
<polygon fill="#e0ffe0" stroke="none" points="257,-106.01 257,-127.01 365,-127.01 365,-106.01 257,-106.01"/>
<polygon fill="none" stroke="black" points="257,-106.01 257,-127.01 365,-127.01 365,-106.01 257,-106.01"/>
<text text-anchor="start" x="299" y="-112.81" font-family="Times,serif" font-size="14.00">type</text>
<polygon fill="#e0ffe0" stroke="none" points="365,-106.01 365,-127.01 468,-127.01 468,-106.01 365,-106.01"/>
<polygon fill="none" stroke="black" points="365,-106.01 365,-127.01 468,-127.01 468,-106.01 365,-106.01"/>
<text text-anchor="start" x="411" y="-112.81" font-family="Times,serif" font-size="14.00">id</text>
<polygon fill="none" stroke="black" points="204,-85.01 204,-106.01 229,-106.01 229,-85.01 204,-85.01"/>
<text text-anchor="start" x="213" y="-91.81" font-family="Times,serif" font-size="14.00">0</text>
<polygon fill="none" stroke="black" points="229,-85.01 229,-106.01 257,-106.01 257,-85.01 229,-85.01"/>
<text text-anchor="start" x="237" y="-91.81" font-family="Times,serif" font-size="14.00">...</text>
<polygon fill="none" stroke="black" points="257,-85.01 257,-106.01 365,-106.01 365,-85.01 257,-85.01"/>
<text text-anchor="start" x="260" y="-91.81" font-family="Times,serif" font-size="14.00">Scale::CompactInt</text>
<polygon fill="none" stroke="black" points="365,-85.01 365,-106.01 468,-106.01 468,-85.01 365,-85.01"/>
<text text-anchor="start" x="368" y="-91.81" font-family="Times,serif" font-size="14.00">num_transactions</text>
<polygon fill="none" stroke="black" points="204,-64.01 204,-85.01 229,-85.01 229,-64.01 204,-64.01"/>
<text text-anchor="start" x="210.5" y="-70.81" font-family="Times,serif" font-size="14.00">...</text>
<polygon fill="none" stroke="black" points="229,-64.01 229,-85.01 257,-85.01 257,-64.01 229,-64.01"/>
<text text-anchor="start" x="237" y="-70.81" font-family="Times,serif" font-size="14.00">...</text>
<polygon fill="none" stroke="black" points="257,-64.01 257,-85.01 365,-85.01 365,-64.01 257,-64.01"/>
<text text-anchor="start" x="279" y="-70.81" font-family="Times,serif" font-size="14.00">Transaction</text>
<polygon fill="none" stroke="black" points="365,-64.01 365,-85.01 468,-85.01 468,-64.01 365,-64.01"/>
<text text-anchor="start" x="384" y="-70.81" font-family="Times,serif" font-size="14.00">transactions</text>
<polygon fill="none" stroke="black" points="204,-43.01 204,-64.01 468,-64.01 468,-43.01 204,-43.01"/>
<text text-anchor="start" x="236" y="-49.81" font-family="Times,serif" font-size="14.00">repeat num_transactions.value times</text>
</g>
<!-- transaction__seq -->
<g id="node2" class="node">
<title>transaction__seq</title>
<polygon fill="#e0ffe0" stroke="none" points="520,-93.01 520,-114.01 545,-114.01 545,-93.01 520,-93.01"/>
<polygon fill="none" stroke="black" points="520,-93.01 520,-114.01 545,-114.01 545,-93.01 520,-93.01"/>
<text text-anchor="start" x="523" y="-99.81" font-family="Times,serif" font-size="14.00">pos</text>
<polygon fill="#e0ffe0" stroke="none" points="545,-93.01 545,-114.01 630,-114.01 630,-93.01 545,-93.01"/>
<polygon fill="none" stroke="black" points="545,-93.01 545,-114.01 630,-114.01 630,-93.01 545,-93.01"/>
<text text-anchor="start" x="576.5" y="-99.81" font-family="Times,serif" font-size="14.00">size</text>
<polygon fill="#e0ffe0" stroke="none" points="630,-93.01 630,-114.01 738,-114.01 738,-93.01 630,-93.01"/>
<polygon fill="none" stroke="black" points="630,-93.01 630,-114.01 738,-114.01 738,-93.01 630,-93.01"/>
<text text-anchor="start" x="672" y="-99.81" font-family="Times,serif" font-size="14.00">type</text>
<polygon fill="#e0ffe0" stroke="none" points="738,-93.01 738,-114.01 790,-114.01 790,-93.01 738,-93.01"/>
<polygon fill="none" stroke="black" points="738,-93.01 738,-114.01 790,-114.01 790,-93.01 738,-93.01"/>
<text text-anchor="start" x="758.5" y="-99.81" font-family="Times,serif" font-size="14.00">id</text>
<polygon fill="none" stroke="black" points="520,-72.01 520,-93.01 545,-93.01 545,-72.01 520,-72.01"/>
<text text-anchor="start" x="529" y="-78.81" font-family="Times,serif" font-size="14.00">0</text>
<polygon fill="none" stroke="black" points="545,-72.01 545,-93.01 630,-93.01 630,-72.01 545,-72.01"/>
<text text-anchor="start" x="581.5" y="-78.81" font-family="Times,serif" font-size="14.00">...</text>
<polygon fill="none" stroke="black" points="630,-72.01 630,-93.01 738,-93.01 738,-72.01 630,-72.01"/>
<text text-anchor="start" x="633" y="-78.81" font-family="Times,serif" font-size="14.00">Scale::CompactInt</text>
<polygon fill="none" stroke="black" points="738,-72.01 738,-93.01 790,-93.01 790,-72.01 738,-72.01"/>
<text text-anchor="start" x="741" y="-78.81" font-family="Times,serif" font-size="14.00">len_data</text>
<polygon fill="none" stroke="black" points="520,-51.01 520,-72.01 545,-72.01 545,-51.01 520,-51.01"/>
<text text-anchor="start" x="526.5" y="-57.81" font-family="Times,serif" font-size="14.00">...</text>
<polygon fill="none" stroke="black" points="545,-51.01 545,-72.01 630,-72.01 630,-51.01 545,-51.01"/>
<text text-anchor="start" x="548" y="-57.81" font-family="Times,serif" font-size="14.00">len_data.value</text>
<polygon fill="none" stroke="black" points="630,-51.01 630,-72.01 738,-72.01 738,-51.01 630,-51.01"/>
<polygon fill="none" stroke="black" points="738,-51.01 738,-72.01 790,-72.01 790,-51.01 738,-51.01"/>
<text text-anchor="start" x="752.5" y="-57.81" font-family="Times,serif" font-size="14.00">data</text>
</g>
<!-- block_body__seq&#45;&gt;transaction__seq -->
<g id="edge2" class="edge">
<title>block_body__seq:transactions_type&#45;&gt;transaction__seq</title>
<path fill="none" stroke="black" stroke-width="2" d="M469,-74.01C479.38,-74.01 490.09,-74.16 500.87,-74.41"/>
<polygon fill="black" stroke="black" stroke-width="2" points="499.01,-77.86 509.1,-74.63 499.19,-70.86 499.01,-77.86"/>
</g>
<!-- compact_int__seq -->
<g id="node3" class="node">
<title>compact_int__seq</title>
<text text-anchor="middle" x="892" y="-46.31" font-family="Times,serif" font-size="14.00">compact_int__seq</text>
</g>
<!-- block_body__seq&#45;&gt;compact_int__seq -->
<g id="edge1" class="edge">
<title>block_body__seq:num_transactions_type&#45;&gt;compact_int__seq</title>
<path fill="none" stroke="black" stroke-width="2" d="M469,-96.01C500.26,-96.01 476.95,-50.68 504,-35.01 605.83,23.96 749.31,-4.71 829.89,-28.76"/>
<polygon fill="black" stroke="black" stroke-width="2" points="827.35,-31.64 837.94,-31.22 829.4,-24.95 827.35,-31.64"/>
</g>
<!-- transaction__seq&#45;&gt;compact_int__seq -->
<g id="edge4" class="edge">
<title>transaction__seq:len_data_type&#45;&gt;compact_int__seq</title>
<path fill="none" stroke="black" stroke-width="2" d="M791,-82.01C808.64,-82.01 827.24,-77.44 843.55,-71.75"/>
<polygon fill="black" stroke="black" stroke-width="2" points="842.92,-75.72 851.07,-68.94 840.48,-69.16 842.92,-75.72"/>
</g>
<!-- compact_int__inst__value -->
<g id="node4" class="node">
<title>compact_int__inst__value</title>
<text text-anchor="middle" x="80" y="-102.31" font-family="Times,serif" font-size="14.00">compact_int__inst__value</text>
</g>
<!-- compact_int__inst__value&#45;&gt;block_body__seq -->
<g id="edge3" class="edge">
<title>compact_int__inst__value:value_type&#45;&gt;block_body__seq:transactions__repeat</title>
<path fill="none" stroke="#404040" d="M105.81,-88.07C127.05,-74.32 159.23,-57.12 191.57,-53.64"/>
<polygon fill="#404040" stroke="#404040" points="191.7,-57.14 201.49,-53.1 191.31,-50.15 191.7,-57.14"/>
</g>
<!-- compact_int__inst__value&#45;&gt;transaction__seq -->
<g id="edge5" class="edge">
<title>compact_int__inst__value:value_type&#45;&gt;transaction__seq:data_size</title>
<path fill="none" stroke="#404040" d="M117.3,-123.92C191.86,-157.87 364.58,-221.66 476,-145.01 512.86,-119.66 475.31,-76.61 512,-51.01 522.57,-43.64 561.66,-37.1 578.82,-42.23"/>
<polygon fill="#404040" stroke="#404040" points="576.25,-44.61 585.9,-48.97 581.07,-39.54 576.25,-44.61"/>
</g>
</g>
</svg>
