<?xml version="1.0" encoding="UTF-8" standalone="no"?>
<!DOCTYPE svg PUBLIC "-//W3C//DTD SVG 1.1//EN"
 "http://www.w3.org/Graphics/SVG/1.1/DTD/svg11.dtd">
<!-- Generated by graphviz version 8.0.2 (20230410.1723)
 -->
<!-- Pages: 1 -->
<svg width="958pt" height="197pt" viewBox="0.00 0.00 958.00 196.83" xmlns="http://www.w3.org/2000/svg" xmlns:xlink="http://www.w3.org/1999/xlink">
<g id="graph0" class="graph" transform="scale(1 1) rotate(0) translate(4 192.83)">
<polygon fill="white" stroke="none" points="-4,4 -4,-192.83 954,-192.83 954,4 -4,4"/>
<g id="clust1" class="cluster">
<title>cluster__block_body</title>
<polygon fill="white" stroke="black" stroke-dasharray="1,5" points="188,-30.83 188,-180.83 814,-180.83 814,-30.83 188,-30.83"/>
<text text-anchor="middle" x="501" y="-165.63" font-family="Times,serif" font-size="14.00">BlockBody</text>
</g>
<g id="clust2" class="cluster">
<title>cluster__transaction</title>
<polygon fill="white" stroke="black" stroke-dasharray="1,5" points="504,-38.83 504,-149.83 806,-149.83 806,-38.83 504,-38.83"/>
<text text-anchor="middle" x="655" y="-134.63" font-family="Times,serif" font-size="14.00">BlockBody::Transaction</text>
</g>
<!-- block_body__seq -->
<g id="node1" class="node">
<title>block_body__seq</title>
<polygon fill="#e6007a4f" stroke="none" points="204,-105.83 204,-126.83 229,-126.83 229,-105.83 204,-105.83"/>
<polygon fill="none" stroke="black" points="204,-105.83 204,-126.83 229,-126.83 229,-105.83 204,-105.83"/>
<text text-anchor="start" x="207" y="-112.63" font-family="Times,serif" font-size="14.00">pos</text>
<polygon fill="#e6007a4f" stroke="none" points="229,-105.83 229,-126.83 257,-126.83 257,-105.83 229,-105.83"/>
<polygon fill="none" stroke="black" points="229,-105.83 229,-126.83 257,-126.83 257,-105.83 229,-105.83"/>
<text text-anchor="start" x="232" y="-112.63" font-family="Times,serif" font-size="14.00">size</text>
<polygon fill="#e6007a4f" stroke="none" points="257,-105.83 257,-126.83 365,-126.83 365,-105.83 257,-105.83"/>
<polygon fill="none" stroke="black" points="257,-105.83 257,-126.83 365,-126.83 365,-105.83 257,-105.83"/>
<text text-anchor="start" x="299" y="-112.63" font-family="Times,serif" font-size="14.00">type</text>
<polygon fill="#e6007a4f" stroke="none" points="365,-105.83 365,-126.83 468,-126.83 468,-105.83 365,-105.83"/>
<polygon fill="none" stroke="black" points="365,-105.83 365,-126.83 468,-126.83 468,-105.83 365,-105.83"/>
<text text-anchor="start" x="411" y="-112.63" font-family="Times,serif" font-size="14.00">id</text>
<polygon fill="none" stroke="black" points="204,-84.83 204,-105.83 229,-105.83 229,-84.83 204,-84.83"/>
<text text-anchor="start" x="213" y="-91.63" font-family="Times,serif" font-size="14.00">0</text>
<polygon fill="none" stroke="black" points="229,-84.83 229,-105.83 257,-105.83 257,-84.83 229,-84.83"/>
<text text-anchor="start" x="237" y="-91.63" font-family="Times,serif" font-size="14.00">...</text>
<polygon fill="none" stroke="black" points="257,-84.83 257,-105.83 365,-105.83 365,-84.83 257,-84.83"/>
<text text-anchor="start" x="260" y="-91.63" font-family="Times,serif" font-size="14.00">Scale::CompactInt</text>
<polygon fill="none" stroke="black" points="365,-84.83 365,-105.83 468,-105.83 468,-84.83 365,-84.83"/>
<text text-anchor="start" x="368" y="-91.63" font-family="Times,serif" font-size="14.00">num_transactions</text>
<polygon fill="none" stroke="black" points="204,-63.83 204,-84.83 229,-84.83 229,-63.83 204,-63.83"/>
<text text-anchor="start" x="210.5" y="-70.63" font-family="Times,serif" font-size="14.00">...</text>
<polygon fill="none" stroke="black" points="229,-63.83 229,-84.83 257,-84.83 257,-63.83 229,-63.83"/>
<text text-anchor="start" x="237" y="-70.63" font-family="Times,serif" font-size="14.00">...</text>
<polygon fill="none" stroke="black" points="257,-63.83 257,-84.83 365,-84.83 365,-63.83 257,-63.83"/>
<text text-anchor="start" x="279" y="-70.63" font-family="Times,serif" font-size="14.00">Transaction</text>
<polygon fill="none" stroke="black" points="365,-63.83 365,-84.83 468,-84.83 468,-63.83 365,-63.83"/>
<text text-anchor="start" x="384" y="-70.63" font-family="Times,serif" font-size="14.00">transactions</text>
<polygon fill="none" stroke="black" points="204,-42.83 204,-63.83 468,-63.83 468,-42.83 204,-42.83"/>
<text text-anchor="start" x="236" y="-49.63" font-family="Times,serif" font-size="14.00">repeat num_transactions.value times</text>
</g>
<!-- transaction__seq -->
<g id="node2" class="node">
<title>transaction__seq</title>
<polygon fill="#e6007a4f" stroke="none" points="520,-93.33 520,-114.33 545,-114.33 545,-93.33 520,-93.33"/>
<polygon fill="none" stroke="black" points="520,-93.33 520,-114.33 545,-114.33 545,-93.33 520,-93.33"/>
<text text-anchor="start" x="523" y="-100.13" font-family="Times,serif" font-size="14.00">pos</text>
<polygon fill="#e6007a4f" stroke="none" points="545,-93.33 545,-114.33 630,-114.33 630,-93.33 545,-93.33"/>
<polygon fill="none" stroke="black" points="545,-93.33 545,-114.33 630,-114.33 630,-93.33 545,-93.33"/>
<text text-anchor="start" x="576.5" y="-100.13" font-family="Times,serif" font-size="14.00">size</text>
<polygon fill="#e6007a4f" stroke="none" points="630,-93.33 630,-114.33 738,-114.33 738,-93.33 630,-93.33"/>
<polygon fill="none" stroke="black" points="630,-93.33 630,-114.33 738,-114.33 738,-93.33 630,-93.33"/>
<text text-anchor="start" x="672" y="-100.13" font-family="Times,serif" font-size="14.00">type</text>
<polygon fill="#e6007a4f" stroke="none" points="738,-93.33 738,-114.33 790,-114.33 790,-93.33 738,-93.33"/>
<polygon fill="none" stroke="black" points="738,-93.33 738,-114.33 790,-114.33 790,-93.33 738,-93.33"/>
<text text-anchor="start" x="758.5" y="-100.13" font-family="Times,serif" font-size="14.00">id</text>
<polygon fill="none" stroke="black" points="520,-72.33 520,-93.33 545,-93.33 545,-72.33 520,-72.33"/>
<text text-anchor="start" x="529" y="-79.13" font-family="Times,serif" font-size="14.00">0</text>
<polygon fill="none" stroke="black" points="545,-72.33 545,-93.33 630,-93.33 630,-72.33 545,-72.33"/>
<text text-anchor="start" x="581.5" y="-79.13" font-family="Times,serif" font-size="14.00">...</text>
<polygon fill="none" stroke="black" points="630,-72.33 630,-93.33 738,-93.33 738,-72.33 630,-72.33"/>
<text text-anchor="start" x="633" y="-79.13" font-family="Times,serif" font-size="14.00">Scale::CompactInt</text>
<polygon fill="none" stroke="black" points="738,-72.33 738,-93.33 790,-93.33 790,-72.33 738,-72.33"/>
<text text-anchor="start" x="741" y="-79.13" font-family="Times,serif" font-size="14.00">len_data</text>
<polygon fill="none" stroke="black" points="520,-51.33 520,-72.33 545,-72.33 545,-51.33 520,-51.33"/>
<text text-anchor="start" x="526.5" y="-58.13" font-family="Times,serif" font-size="14.00">...</text>
<polygon fill="none" stroke="black" points="545,-51.33 545,-72.33 630,-72.33 630,-51.33 545,-51.33"/>
<text text-anchor="start" x="548" y="-58.13" font-family="Times,serif" font-size="14.00">len_data.value</text>
<polygon fill="none" stroke="black" points="630,-51.33 630,-72.33 738,-72.33 738,-51.33 630,-51.33"/>
<polygon fill="none" stroke="black" points="738,-51.33 738,-72.33 790,-72.33 790,-51.33 738,-51.33"/>
<text text-anchor="start" x="752.5" y="-58.13" font-family="Times,serif" font-size="14.00">data</text>
</g>
<!-- block_body__seq&#45;&gt;transaction__seq -->
<g id="edge2" class="edge">
<title>block_body__seq:transactions_type-&gt;transaction__seq</title>
<path fill="none" stroke="black" stroke-width="2" d="M469,-73.83C479.49,-73.83 490.31,-73.98 501.21,-74.23"/>
<polygon fill="black" stroke="black" stroke-width="2" points="499.03,-77.76 509.12,-74.52 499.22,-70.76 499.03,-77.76"/>
</g>
<!-- compact_int__seq -->

<!-- block_body__seq&#45;&gt;compact_int__seq -->

<!-- transaction__seq&#45;&gt;compact_int__seq -->

<!-- compact_int__inst__value -->

<!-- compact_int__inst__value&#45;&gt;block_body__seq -->

<!-- compact_int__inst__value&#45;&gt;transaction__seq -->

</g>
</svg>
