<?xml version="1.0" encoding="UTF-8" standalone="no"?>
<!DOCTYPE svg PUBLIC "-//W3C//DTD SVG 1.1//EN"
 "http://www.w3.org/Graphics/SVG/1.1/DTD/svg11.dtd">
<!-- Generated by graphviz version 7.1.0 (20230121.1956)
 -->
<!-- Pages: 1 -->
<svg width="615pt" height="239pt"
 viewBox="0.00 0.00 615.00 239.00" xmlns="http://www.w3.org/2000/svg" xmlns:xlink="http://www.w3.org/1999/xlink">
<g id="graph0" class="graph" transform="scale(1 1) rotate(0) translate(4 235)">
<polygon fill="white" stroke="none" points="-4,4 -4,-235 611,-235 611,4 -4,4"/>
<g id="clust1" class="cluster">
<title>cluster__block_header</title>
<polygon fill="none" stroke="black" stroke-dasharray="1,5" points="188,-8 188,-223 463,-223 463,-8 188,-8"/>
<text text-anchor="middle" x="325.5" y="-207.8" font-family="Times,serif" font-size="14.00">BlockHeader</text>
</g>
<!-- block_header__seq -->
<g id="node1" class="node">
<title>block_header__seq</title>
<polygon fill="#e0ffe0" stroke="none" points="204.5,-167 204.5,-188 229.5,-188 229.5,-167 204.5,-167"/>
<polygon fill="none" stroke="black" points="204.5,-167 204.5,-188 229.5,-188 229.5,-167 204.5,-167"/>
<text text-anchor="start" x="207.5" y="-173.8" font-family="Times,serif" font-size="14.00">pos</text>
<polygon fill="#e0ffe0" stroke="none" points="229.5,-167 229.5,-188 257.5,-188 257.5,-167 229.5,-167"/>
<polygon fill="none" stroke="black" points="229.5,-167 229.5,-188 257.5,-188 257.5,-167 229.5,-167"/>
<text text-anchor="start" x="232.5" y="-173.8" font-family="Times,serif" font-size="14.00">size</text>
<polygon fill="#e0ffe0" stroke="none" points="257.5,-167 257.5,-188 365.5,-188 365.5,-167 257.5,-167"/>
<polygon fill="none" stroke="black" points="257.5,-167 257.5,-188 365.5,-188 365.5,-167 257.5,-167"/>
<text text-anchor="start" x="299.5" y="-173.8" font-family="Times,serif" font-size="14.00">type</text>
<polygon fill="#e0ffe0" stroke="none" points="365.5,-167 365.5,-188 447.5,-188 447.5,-167 365.5,-167"/>
<polygon fill="none" stroke="black" points="365.5,-167 365.5,-188 447.5,-188 447.5,-167 365.5,-167"/>
<text text-anchor="start" x="401" y="-173.8" font-family="Times,serif" font-size="14.00">id</text>
<polygon fill="none" stroke="black" points="204.5,-146 204.5,-167 229.5,-167 229.5,-146 204.5,-146"/>
<text text-anchor="start" x="213.5" y="-152.8" font-family="Times,serif" font-size="14.00">0</text>
<polygon fill="none" stroke="black" points="229.5,-146 229.5,-167 257.5,-167 257.5,-146 229.5,-146"/>
<text text-anchor="start" x="236.5" y="-152.8" font-family="Times,serif" font-size="14.00">32</text>
<polygon fill="none" stroke="black" points="257.5,-146 257.5,-167 365.5,-167 365.5,-146 257.5,-146"/>
<polygon fill="none" stroke="black" points="365.5,-146 365.5,-167 447.5,-167 447.5,-146 365.5,-146"/>
<text text-anchor="start" x="373.5" y="-152.8" font-family="Times,serif" font-size="14.00">parent_hash</text>
<polygon fill="none" stroke="black" points="204.5,-125 204.5,-146 229.5,-146 229.5,-125 204.5,-125"/>
<text text-anchor="start" x="210" y="-131.8" font-family="Times,serif" font-size="14.00">32</text>
<polygon fill="none" stroke="black" points="229.5,-125 229.5,-146 257.5,-146 257.5,-125 229.5,-125"/>
<text text-anchor="start" x="237.5" y="-131.8" font-family="Times,serif" font-size="14.00">...</text>
<polygon fill="none" stroke="black" points="257.5,-125 257.5,-146 365.5,-146 365.5,-125 257.5,-125"/>
<text text-anchor="start" x="260.5" y="-131.8" font-family="Times,serif" font-size="14.00">Scale::CompactInt</text>
<polygon fill="none" stroke="black" points="365.5,-125 365.5,-146 447.5,-146 447.5,-125 365.5,-125"/>
<text text-anchor="start" x="385" y="-131.8" font-family="Times,serif" font-size="14.00">number</text>
<polygon fill="none" stroke="black" points="204.5,-104 204.5,-125 229.5,-125 229.5,-104 204.5,-104"/>
<text text-anchor="start" x="211" y="-110.8" font-family="Times,serif" font-size="14.00">...</text>
<polygon fill="none" stroke="black" points="229.5,-104 229.5,-125 257.5,-125 257.5,-104 229.5,-104"/>
<text text-anchor="start" x="236.5" y="-110.8" font-family="Times,serif" font-size="14.00">32</text>
<polygon fill="none" stroke="black" points="257.5,-104 257.5,-125 365.5,-125 365.5,-104 257.5,-104"/>
<polygon fill="none" stroke="black" points="365.5,-104 365.5,-125 447.5,-125 447.5,-104 365.5,-104"/>
<text text-anchor="start" x="379.5" y="-110.8" font-family="Times,serif" font-size="14.00">state_root</text>
<polygon fill="none" stroke="black" points="204.5,-83 204.5,-104 229.5,-104 229.5,-83 204.5,-83"/>
<text text-anchor="start" x="211" y="-89.8" font-family="Times,serif" font-size="14.00">...</text>
<polygon fill="none" stroke="black" points="229.5,-83 229.5,-104 257.5,-104 257.5,-83 229.5,-83"/>
<text text-anchor="start" x="236.5" y="-89.8" font-family="Times,serif" font-size="14.00">32</text>
<polygon fill="none" stroke="black" points="257.5,-83 257.5,-104 365.5,-104 365.5,-83 257.5,-83"/>
<polygon fill="none" stroke="black" points="365.5,-83 365.5,-104 447.5,-104 447.5,-83 365.5,-83"/>
<text text-anchor="start" x="368.5" y="-89.8" font-family="Times,serif" font-size="14.00">extrinsic_root</text>
<polygon fill="none" stroke="black" points="204.5,-62 204.5,-83 229.5,-83 229.5,-62 204.5,-62"/>
<text text-anchor="start" x="211" y="-68.8" font-family="Times,serif" font-size="14.00">...</text>
<polygon fill="none" stroke="black" points="229.5,-62 229.5,-83 257.5,-83 257.5,-62 229.5,-62"/>
<text text-anchor="start" x="237.5" y="-68.8" font-family="Times,serif" font-size="14.00">...</text>
<polygon fill="none" stroke="black" points="257.5,-62 257.5,-83 365.5,-83 365.5,-62 257.5,-62"/>
<text text-anchor="start" x="260.5" y="-68.8" font-family="Times,serif" font-size="14.00">Scale::CompactInt</text>
<polygon fill="none" stroke="black" points="365.5,-62 365.5,-83 447.5,-83 447.5,-62 365.5,-62"/>
<text text-anchor="start" x="371.5" y="-68.8" font-family="Times,serif" font-size="14.00">num_digests</text>
<polygon fill="none" stroke="black" points="204.5,-41 204.5,-62 229.5,-62 229.5,-41 204.5,-41"/>
<text text-anchor="start" x="211" y="-47.8" font-family="Times,serif" font-size="14.00">...</text>
<polygon fill="none" stroke="black" points="229.5,-41 229.5,-62 257.5,-62 257.5,-41 229.5,-41"/>
<text text-anchor="start" x="237.5" y="-47.8" font-family="Times,serif" font-size="14.00">...</text>
<polygon fill="none" stroke="black" points="257.5,-41 257.5,-62 365.5,-62 365.5,-41 257.5,-41"/>
<text text-anchor="start" x="293.5" y="-47.8" font-family="Times,serif" font-size="14.00">Digest</text>
<polygon fill="none" stroke="black" points="365.5,-41 365.5,-62 447.5,-62 447.5,-41 365.5,-41"/>
<text text-anchor="start" x="387.5" y="-47.8" font-family="Times,serif" font-size="14.00">digests</text>
<polygon fill="none" stroke="black" points="204.5,-20 204.5,-41 447.5,-41 447.5,-20 204.5,-20"/>
<text text-anchor="start" x="239.5" y="-26.8" font-family="Times,serif" font-size="14.00">repeat num_digests.value times</text>
</g>
<!-- compact_int__seq -->
<g id="node2" class="node">
<title>compact_int__seq</title>
<text text-anchor="middle" x="549" y="-116.3" font-family="Times,serif" font-size="14.00">compact_int__seq</text>
</g>
<!-- block_header__seq&#45;&gt;compact_int__seq -->
<g id="edge1" class="edge">
<title>block_header__seq:number_type&#45;&gt;compact_int__seq</title>
<path fill="none" stroke="black" stroke-width="2" d="M448.5,-136C458.71,-136 469.45,-135.17 479.93,-133.88"/>
<polygon fill="black" stroke="black" stroke-width="2" points="478.74,-137.58 488.16,-132.74 477.78,-130.65 478.74,-137.58"/>
</g>
<!-- block_header__seq&#45;&gt;compact_int__seq -->
<g id="edge2" class="edge">
<title>block_header__seq:num_digests_type&#45;&gt;compact_int__seq</title>
<path fill="none" stroke="black" stroke-width="2" d="M448.5,-72C472.89,-72 497.59,-83.84 516.29,-95.76"/>
<polygon fill="black" stroke="black" stroke-width="2" points="512.99,-97.76 523.24,-100.44 516.89,-91.95 512.99,-97.76"/>
</g>
<!-- digest__seq -->
<g id="node3" class="node">
<title>digest__seq</title>
<text text-anchor="middle" x="549" y="-47.3" font-family="Times,serif" font-size="14.00">digest__seq</text>
</g>
<!-- block_header__seq&#45;&gt;digest__seq -->
<g id="edge3" class="edge">
<title>block_header__seq:digests_type&#45;&gt;digest__seq</title>
<path fill="none" stroke="black" stroke-width="2" d="M448.5,-51C464.62,-51 482.22,-51 498.07,-51"/>
<polygon fill="black" stroke="black" stroke-width="2" points="496.23,-54.5 506.23,-51 496.23,-47.5 496.23,-54.5"/>
</g>
<!-- compact_int__inst__value -->
<g id="node4" class="node">
<title>compact_int__inst__value</title>
<text text-anchor="middle" x="80" y="-26.3" font-family="Times,serif" font-size="14.00">compact_int__inst__value</text>
</g>
<!-- compact_int__inst__value&#45;&gt;block_header__seq -->
<g id="edge4" class="edge">
<title>compact_int__inst__value:value_type&#45;&gt;block_header__seq:digests__repeat</title>
<path fill="none" stroke="#404040" d="M159.75,-30C170.43,-30 181.39,-30 192.06,-30"/>
<polygon fill="#404040" stroke="#404040" points="191.99,-33.5 201.99,-30 191.99,-26.5 191.99,-33.5"/>
</g>
</g>
</svg>
