<?xml version="1.0" encoding="UTF-8" standalone="no"?>
<!DOCTYPE svg PUBLIC "-//W3C//DTD SVG 1.1//EN"
 "http://www.w3.org/Graphics/SVG/1.1/DTD/svg11.dtd">
<!-- Generated by graphviz version 8.0.2 (20230410.1723)
 -->
<!-- Pages: 1 -->
<svg width="827pt" height="495pt" viewBox="0.00 0.00 827.00 495.00" xmlns="http://www.w3.org/2000/svg" xmlns:xlink="http://www.w3.org/1999/xlink">
<g id="graph0" class="graph" transform="scale(1 1) rotate(0) translate(4 491)">
<polygon fill="white" stroke="none" points="-4,4 -4,-491 823,-491 823,4 -4,4"/>
<g id="clust1" class="cluster">
<title>cluster__digest</title>
<polygon fill="white" stroke="black" stroke-dasharray="1,5" points="8,-8 8,-479 722,-479 722,-8 8,-8"/>
<text text-anchor="middle" x="365" y="-463.8" font-family="Times,serif" font-size="14.00">Digest</text>
</g>
<g id="clust2" class="cluster">
<title>cluster__pre_runtime</title>
<polygon fill="white" stroke="black" stroke-dasharray="1,5" points="506,-337 506,-448 714,-448 714,-337 506,-337"/>
<text text-anchor="middle" x="610" y="-432.8" font-family="Times,serif" font-size="14.00">Digest::PreRuntime</text>
</g>
<g id="clust3" class="cluster">
<title>cluster__post_runtime</title>
<polygon fill="white" stroke="black" stroke-dasharray="1,5" points="506,-218 506,-329 714,-329 714,-218 506,-218"/>
<text text-anchor="middle" x="610" y="-313.8" font-family="Times,serif" font-size="14.00">Digest::PostRuntime</text>
</g>
<g id="clust4" class="cluster">
<title>cluster__seal</title>
<polygon fill="white" stroke="black" stroke-dasharray="1,5" points="506,-99 506,-210 714,-210 714,-99 506,-99"/>
<text text-anchor="middle" x="610" y="-194.8" font-family="Times,serif" font-size="14.00">Digest::Seal</text>
</g>
<g id="clust5" class="cluster">
<title>cluster__empty</title>
<polygon fill="white" stroke="black" stroke-dasharray="1,5" points="544,-16 544,-91 676,-91 676,-16 544,-16"/>
<text text-anchor="middle" x="610" y="-75.8" font-family="Times,serif" font-size="14.00">Digest::Empty</text>
</g>
<!-- digest__seq -->
<g id="node1" class="node">
<title>digest__seq</title>
<polygon fill="#e6007a4f" stroke="none" points="24,-244.5 24,-265.5 49,-265.5 49,-244.5 24,-244.5"/>
<polygon fill="none" stroke="black" points="24,-244.5 24,-265.5 49,-265.5 49,-244.5 24,-244.5"/>
<text text-anchor="start" x="27" y="-251.3" font-family="Times,serif" font-size="14.00">pos</text>
<polygon fill="#e6007a4f" stroke="none" points="49,-244.5 49,-265.5 77,-265.5 77,-244.5 49,-244.5"/>
<polygon fill="none" stroke="black" points="49,-244.5 49,-265.5 77,-265.5 77,-244.5 49,-244.5"/>
<text text-anchor="start" x="52" y="-251.3" font-family="Times,serif" font-size="14.00">size</text>
<polygon fill="#e6007a4f" stroke="none" points="77,-244.5 77,-265.5 155,-265.5 155,-244.5 77,-244.5"/>
<polygon fill="none" stroke="black" points="77,-244.5 77,-265.5 155,-265.5 155,-244.5 77,-244.5"/>
<text text-anchor="start" x="104" y="-251.3" font-family="Times,serif" font-size="14.00">type</text>
<polygon fill="#e6007a4f" stroke="none" points="155,-244.5 155,-265.5 191,-265.5 191,-244.5 155,-244.5"/>
<polygon fill="none" stroke="black" points="155,-244.5 155,-265.5 191,-265.5 191,-244.5 155,-244.5"/>
<text text-anchor="start" x="167.5" y="-251.3" font-family="Times,serif" font-size="14.00">id</text>
<polygon fill="none" stroke="black" points="24,-223.5 24,-244.5 49,-244.5 49,-223.5 24,-223.5"/>
<text text-anchor="start" x="33" y="-230.3" font-family="Times,serif" font-size="14.00">0</text>
<polygon fill="none" stroke="black" points="49,-223.5 49,-244.5 77,-244.5 77,-223.5 49,-223.5"/>
<text text-anchor="start" x="59.5" y="-230.3" font-family="Times,serif" font-size="14.00">1</text>
<polygon fill="none" stroke="black" points="77,-223.5 77,-244.5 155,-244.5 155,-223.5 77,-223.5"/>
<text text-anchor="start" x="82.5" y="-230.3" font-family="Times,serif" font-size="14.00">u1&#x2192;TypeId</text>
<polygon fill="none" stroke="black" points="155,-223.5 155,-244.5 191,-244.5 191,-223.5 155,-223.5"/>
<text text-anchor="start" x="161" y="-230.3" font-family="Times,serif" font-size="14.00">type</text>
<polygon fill="none" stroke="black" points="24,-202.5 24,-223.5 49,-223.5 49,-202.5 24,-202.5"/>
<text text-anchor="start" x="33" y="-209.3" font-family="Times,serif" font-size="14.00">1</text>
<polygon fill="none" stroke="black" points="49,-202.5 49,-223.5 77,-223.5 77,-202.5 49,-202.5"/>
<text text-anchor="start" x="57" y="-209.3" font-family="Times,serif" font-size="14.00">...</text>
<polygon fill="none" stroke="black" points="77,-202.5 77,-223.5 155,-223.5 155,-202.5 77,-202.5"/>
<text text-anchor="start" x="80" y="-209.3" font-family="Times,serif" font-size="14.00">switch (type)</text>
<polygon fill="none" stroke="black" points="155,-202.5 155,-223.5 191,-223.5 191,-202.5 155,-202.5"/>
<text text-anchor="start" x="158" y="-209.3" font-family="Times,serif" font-size="14.00">value</text>
</g>
<!-- digest__seq&#45;&gt;digest__seq -->
<g id="edge6" class="edge">
<title>digest__seq:type_type-&gt;digest__seq:value_type</title>
<path fill="none" stroke="#404040" d="M155.02,-240.55C112.02,-259.33 118.18,-287.5 173.5,-287.5 224.95,-287.5 233.87,-248.8 200.29,-225.29"/>
<polygon fill="#404040" stroke="#404040" points="202.22,-221.78 191.83,-219.68 198.64,-227.8 202.22,-221.78"/>
</g>
<!-- digest__seq_value_switch -->
<g id="node2" class="node">
<title>digest__seq_value_switch</title>
<polygon fill="#e6007a4f" stroke="none" points="243,-244.5 243,-265.5 393,-265.5 393,-244.5 243,-244.5"/>
<polygon fill="none" stroke="black" points="243,-244.5 243,-265.5 393,-265.5 393,-244.5 243,-244.5"/>
<text text-anchor="start" x="306" y="-251.3" font-family="Times,serif" font-size="14.00">case</text>
<polygon fill="#e6007a4f" stroke="none" points="393,-244.5 393,-265.5 470,-265.5 470,-244.5 393,-244.5"/>
<polygon fill="none" stroke="black" points="393,-244.5 393,-265.5 470,-265.5 470,-244.5 393,-244.5"/>
<text text-anchor="start" x="419.5" y="-251.3" font-family="Times,serif" font-size="14.00">type</text>
<polygon fill="none" stroke="black" points="243,-223.5 243,-244.5 393,-244.5 393,-223.5 243,-223.5"/>
<text text-anchor="start" x="259" y="-230.3" font-family="Times,serif" font-size="14.00">:type_id_pre_runtime</text>
<polygon fill="none" stroke="black" points="393,-223.5 393,-244.5 470,-244.5 470,-223.5 393,-223.5"/>
<text text-anchor="start" x="398.5" y="-230.3" font-family="Times,serif" font-size="14.00">PreRuntime</text>
<polygon fill="none" stroke="black" points="243,-202.5 243,-223.5 393,-223.5 393,-202.5 243,-202.5"/>
<text text-anchor="start" x="256" y="-209.3" font-family="Times,serif" font-size="14.00">:type_id_post_runtime</text>
<polygon fill="none" stroke="black" points="393,-202.5 393,-223.5 470,-223.5 470,-202.5 393,-202.5"/>
<text text-anchor="start" x="396" y="-209.3" font-family="Times,serif" font-size="14.00">PostRuntime</text>
<polygon fill="none" stroke="black" points="243,-181.5 243,-202.5 393,-202.5 393,-181.5 243,-181.5"/>
<text text-anchor="start" x="281.5" y="-188.3" font-family="Times,serif" font-size="14.00">:type_id_seal</text>
<polygon fill="none" stroke="black" points="393,-181.5 393,-202.5 470,-202.5 470,-181.5 393,-181.5"/>
<text text-anchor="start" x="419.5" y="-188.3" font-family="Times,serif" font-size="14.00">Seal</text>
<polygon fill="none" stroke="black" points="243,-160.5 243,-181.5 393,-181.5 393,-160.5 243,-160.5"/>
<text text-anchor="start" x="246" y="-167.3" font-family="Times,serif" font-size="14.00">:type_id_runtime_updated</text>
<polygon fill="none" stroke="black" points="393,-160.5 393,-181.5 470,-181.5 470,-160.5 393,-160.5"/>
<text text-anchor="start" x="413" y="-167.3" font-family="Times,serif" font-size="14.00">Empty</text>
</g>
<!-- digest__seq&#45;&gt;digest__seq_value_switch -->
<g id="edge1" class="edge">
<title>digest__seq:value_type-&gt;digest__seq_value_switch</title>
<path fill="none" stroke="black" stroke-width="2" d="M192.5,-213C202.9,-213 213.67,-213 224.5,-213"/>
<polygon fill="black" stroke="black" stroke-width="2" points="222.33,-216.5 232.33,-213 222.33,-209.5 222.33,-216.5"/>
</g>
<!-- pre_runtime__seq -->
<g id="node3" class="node">
<title>pre_runtime__seq</title>
<polygon fill="#e6007a4f" stroke="none" points="522,-391.5 522,-412.5 547,-412.5 547,-391.5 522,-391.5"/>
<polygon fill="none" stroke="black" points="522,-391.5 522,-412.5 547,-412.5 547,-391.5 522,-391.5"/>
<text text-anchor="start" x="525" y="-398.3" font-family="Times,serif" font-size="14.00">pos</text>
<polygon fill="#e6007a4f" stroke="none" points="547,-391.5 547,-412.5 575,-412.5 575,-391.5 547,-391.5"/>
<polygon fill="none" stroke="black" points="547,-391.5 547,-412.5 575,-412.5 575,-391.5 547,-391.5"/>
<text text-anchor="start" x="550" y="-398.3" font-family="Times,serif" font-size="14.00">size</text>
<polygon fill="#e6007a4f" stroke="none" points="575,-391.5 575,-412.5 649,-412.5 649,-391.5 575,-391.5"/>
<polygon fill="none" stroke="black" points="575,-391.5 575,-412.5 649,-412.5 649,-391.5 575,-391.5"/>
<text text-anchor="start" x="600" y="-398.3" font-family="Times,serif" font-size="14.00">type</text>
<polygon fill="#e6007a4f" stroke="none" points="649,-391.5 649,-412.5 698,-412.5 698,-391.5 649,-391.5"/>
<polygon fill="none" stroke="black" points="649,-391.5 649,-412.5 698,-412.5 698,-391.5 649,-391.5"/>
<text text-anchor="start" x="668" y="-398.3" font-family="Times,serif" font-size="14.00">id</text>
<polygon fill="none" stroke="black" points="522,-370.5 522,-391.5 547,-391.5 547,-370.5 522,-370.5"/>
<text text-anchor="start" x="531" y="-377.3" font-family="Times,serif" font-size="14.00">0</text>
<polygon fill="none" stroke="black" points="547,-370.5 547,-391.5 575,-391.5 575,-370.5 547,-370.5"/>
<text text-anchor="start" x="557.5" y="-377.3" font-family="Times,serif" font-size="14.00">4</text>
<polygon fill="none" stroke="black" points="575,-370.5 575,-391.5 649,-391.5 649,-370.5 575,-370.5"/>
<text text-anchor="start" x="583" y="-377.3" font-family="Times,serif" font-size="14.00">str(ASCII)</text>
<polygon fill="none" stroke="black" points="649,-370.5 649,-391.5 698,-391.5 698,-370.5 649,-370.5"/>
<text text-anchor="start" x="655" y="-377.3" font-family="Times,serif" font-size="14.00">engine</text>
<polygon fill="none" stroke="black" points="522,-349.5 522,-370.5 547,-370.5 547,-349.5 522,-349.5"/>
<text text-anchor="start" x="531" y="-356.3" font-family="Times,serif" font-size="14.00">4</text>
<polygon fill="none" stroke="black" points="547,-349.5 547,-370.5 575,-370.5 575,-349.5 547,-349.5"/>
<text text-anchor="start" x="555" y="-356.3" font-family="Times,serif" font-size="14.00">...</text>
<polygon fill="none" stroke="black" points="575,-349.5 575,-370.5 649,-370.5 649,-349.5 575,-349.5"/>
<text text-anchor="start" x="578" y="-356.3" font-family="Times,serif" font-size="14.00">Scale::Bytes</text>
<polygon fill="none" stroke="black" points="649,-349.5 649,-370.5 698,-370.5 698,-349.5 649,-349.5"/>
<text text-anchor="start" x="652" y="-356.3" font-family="Times,serif" font-size="14.00">payload</text>
</g>
<!-- digest__seq_value_switch&#45;&gt;pre_runtime__seq -->
<g id="edge2" class="edge">
<title>digest__seq_value_switch:case0-&gt;pre_runtime__seq</title>
<path fill="none" stroke="black" stroke-width="2" d="M471.5,-234C518.1,-234 474.75,-298.43 506,-333 507.85,-335.05 509.81,-337.02 511.86,-338.91"/>
<polygon fill="black" stroke="black" stroke-width="2" points="508.23,-341.11 518.15,-344.82 512.71,-335.73 508.23,-341.11"/>
</g>
<!-- post_runtime__seq -->
<g id="node4" class="node">
<title>post_runtime__seq</title>
<polygon fill="#e6007a4f" stroke="none" points="522,-272.5 522,-293.5 547,-293.5 547,-272.5 522,-272.5"/>
<polygon fill="none" stroke="black" points="522,-272.5 522,-293.5 547,-293.5 547,-272.5 522,-272.5"/>
<text text-anchor="start" x="525" y="-279.3" font-family="Times,serif" font-size="14.00">pos</text>
<polygon fill="#e6007a4f" stroke="none" points="547,-272.5 547,-293.5 575,-293.5 575,-272.5 547,-272.5"/>
<polygon fill="none" stroke="black" points="547,-272.5 547,-293.5 575,-293.5 575,-272.5 547,-272.5"/>
<text text-anchor="start" x="550" y="-279.3" font-family="Times,serif" font-size="14.00">size</text>
<polygon fill="#e6007a4f" stroke="none" points="575,-272.5 575,-293.5 649,-293.5 649,-272.5 575,-272.5"/>
<polygon fill="none" stroke="black" points="575,-272.5 575,-293.5 649,-293.5 649,-272.5 575,-272.5"/>
<text text-anchor="start" x="600" y="-279.3" font-family="Times,serif" font-size="14.00">type</text>
<polygon fill="#e6007a4f" stroke="none" points="649,-272.5 649,-293.5 698,-293.5 698,-272.5 649,-272.5"/>
<polygon fill="none" stroke="black" points="649,-272.5 649,-293.5 698,-293.5 698,-272.5 649,-272.5"/>
<text text-anchor="start" x="668" y="-279.3" font-family="Times,serif" font-size="14.00">id</text>
<polygon fill="none" stroke="black" points="522,-251.5 522,-272.5 547,-272.5 547,-251.5 522,-251.5"/>
<text text-anchor="start" x="531" y="-258.3" font-family="Times,serif" font-size="14.00">0</text>
<polygon fill="none" stroke="black" points="547,-251.5 547,-272.5 575,-272.5 575,-251.5 547,-251.5"/>
<text text-anchor="start" x="557.5" y="-258.3" font-family="Times,serif" font-size="14.00">4</text>
<polygon fill="none" stroke="black" points="575,-251.5 575,-272.5 649,-272.5 649,-251.5 575,-251.5"/>
<text text-anchor="start" x="583" y="-258.3" font-family="Times,serif" font-size="14.00">str(ASCII)</text>
<polygon fill="none" stroke="black" points="649,-251.5 649,-272.5 698,-272.5 698,-251.5 649,-251.5"/>
<text text-anchor="start" x="655" y="-258.3" font-family="Times,serif" font-size="14.00">engine</text>
<polygon fill="none" stroke="black" points="522,-230.5 522,-251.5 547,-251.5 547,-230.5 522,-230.5"/>
<text text-anchor="start" x="531" y="-237.3" font-family="Times,serif" font-size="14.00">4</text>
<polygon fill="none" stroke="black" points="547,-230.5 547,-251.5 575,-251.5 575,-230.5 547,-230.5"/>
<text text-anchor="start" x="555" y="-237.3" font-family="Times,serif" font-size="14.00">...</text>
<polygon fill="none" stroke="black" points="575,-230.5 575,-251.5 649,-251.5 649,-230.5 575,-230.5"/>
<text text-anchor="start" x="578" y="-237.3" font-family="Times,serif" font-size="14.00">Scale::Bytes</text>
<polygon fill="none" stroke="black" points="649,-230.5 649,-251.5 698,-251.5 698,-230.5 649,-230.5"/>
<text text-anchor="start" x="652" y="-237.3" font-family="Times,serif" font-size="14.00">payload</text>
</g>
<!-- digest__seq_value_switch&#45;&gt;post_runtime__seq -->
<g id="edge3" class="edge">
<title>digest__seq_value_switch:case1-&gt;post_runtime__seq</title>
<path fill="none" stroke="black" stroke-width="2" d="M471.5,-213C490.34,-213 509.82,-217.13 528,-222.99"/>
<polygon fill="black" stroke="black" stroke-width="2" points="525.65,-226.57 536.24,-226.52 527.92,-219.95 525.65,-226.57"/>
</g>
<!-- seal__seq -->
<g id="node5" class="node">
<title>seal__seq</title>
<polygon fill="#e6007a4f" stroke="none" points="522,-153.5 522,-174.5 547,-174.5 547,-153.5 522,-153.5"/>
<polygon fill="none" stroke="black" points="522,-153.5 522,-174.5 547,-174.5 547,-153.5 522,-153.5"/>
<text text-anchor="start" x="525" y="-160.3" font-family="Times,serif" font-size="14.00">pos</text>
<polygon fill="#e6007a4f" stroke="none" points="547,-153.5 547,-174.5 575,-174.5 575,-153.5 547,-153.5"/>
<polygon fill="none" stroke="black" points="547,-153.5 547,-174.5 575,-174.5 575,-153.5 547,-153.5"/>
<text text-anchor="start" x="550" y="-160.3" font-family="Times,serif" font-size="14.00">size</text>
<polygon fill="#e6007a4f" stroke="none" points="575,-153.5 575,-174.5 649,-174.5 649,-153.5 575,-153.5"/>
<polygon fill="none" stroke="black" points="575,-153.5 575,-174.5 649,-174.5 649,-153.5 575,-153.5"/>
<text text-anchor="start" x="600" y="-160.3" font-family="Times,serif" font-size="14.00">type</text>
<polygon fill="#e6007a4f" stroke="none" points="649,-153.5 649,-174.5 698,-174.5 698,-153.5 649,-153.5"/>
<polygon fill="none" stroke="black" points="649,-153.5 649,-174.5 698,-174.5 698,-153.5 649,-153.5"/>
<text text-anchor="start" x="668" y="-160.3" font-family="Times,serif" font-size="14.00">id</text>
<polygon fill="none" stroke="black" points="522,-132.5 522,-153.5 547,-153.5 547,-132.5 522,-132.5"/>
<text text-anchor="start" x="531" y="-139.3" font-family="Times,serif" font-size="14.00">0</text>
<polygon fill="none" stroke="black" points="547,-132.5 547,-153.5 575,-153.5 575,-132.5 547,-132.5"/>
<text text-anchor="start" x="557.5" y="-139.3" font-family="Times,serif" font-size="14.00">4</text>
<polygon fill="none" stroke="black" points="575,-132.5 575,-153.5 649,-153.5 649,-132.5 575,-132.5"/>
<text text-anchor="start" x="583" y="-139.3" font-family="Times,serif" font-size="14.00">str(ASCII)</text>
<polygon fill="none" stroke="black" points="649,-132.5 649,-153.5 698,-153.5 698,-132.5 649,-132.5"/>
<text text-anchor="start" x="655" y="-139.3" font-family="Times,serif" font-size="14.00">engine</text>
<polygon fill="none" stroke="black" points="522,-111.5 522,-132.5 547,-132.5 547,-111.5 522,-111.5"/>
<text text-anchor="start" x="531" y="-118.3" font-family="Times,serif" font-size="14.00">4</text>
<polygon fill="none" stroke="black" points="547,-111.5 547,-132.5 575,-132.5 575,-111.5 547,-111.5"/>
<text text-anchor="start" x="555" y="-118.3" font-family="Times,serif" font-size="14.00">...</text>
<polygon fill="none" stroke="black" points="575,-111.5 575,-132.5 649,-132.5 649,-111.5 575,-111.5"/>
<text text-anchor="start" x="578" y="-118.3" font-family="Times,serif" font-size="14.00">Scale::Bytes</text>
<polygon fill="none" stroke="black" points="649,-111.5 649,-132.5 698,-132.5 698,-111.5 649,-111.5"/>
<text text-anchor="start" x="652" y="-118.3" font-family="Times,serif" font-size="14.00">payload</text>
</g>
<!-- digest__seq_value_switch&#45;&gt;seal__seq -->
<g id="edge4" class="edge">
<title>digest__seq_value_switch:case2-&gt;seal__seq</title>
<path fill="none" stroke="black" stroke-width="2" d="M471.5,-192C490.34,-192 509.82,-187.87 528,-182.01"/>
<polygon fill="black" stroke="black" stroke-width="2" points="527.92,-185.05 536.24,-178.48 525.65,-178.43 527.92,-185.05"/>
</g>
<!-- empty__seq -->
<g id="node6" class="node">
<title>empty__seq</title>
<polygon fill="#e6007a4f" stroke="none" points="560,-31.5 560,-52.5 585,-52.5 585,-31.5 560,-31.5"/>
<polygon fill="none" stroke="black" points="560,-31.5 560,-52.5 585,-52.5 585,-31.5 560,-31.5"/>
<text text-anchor="start" x="563" y="-38.3" font-family="Times,serif" font-size="14.00">pos</text>
<polygon fill="#e6007a4f" stroke="none" points="585,-31.5 585,-52.5 613,-52.5 613,-31.5 585,-31.5"/>
<polygon fill="none" stroke="black" points="585,-31.5 585,-52.5 613,-52.5 613,-31.5 585,-31.5"/>
<text text-anchor="start" x="588" y="-38.3" font-family="Times,serif" font-size="14.00">size</text>
<polygon fill="#e6007a4f" stroke="none" points="613,-31.5 613,-52.5 643,-52.5 643,-31.5 613,-31.5"/>
<polygon fill="none" stroke="black" points="613,-31.5 613,-52.5 643,-52.5 643,-31.5 613,-31.5"/>
<text text-anchor="start" x="616" y="-38.3" font-family="Times,serif" font-size="14.00">type</text>
<polygon fill="#e6007a4f" stroke="none" points="643,-31.5 643,-52.5 660,-52.5 660,-31.5 643,-31.5"/>
<polygon fill="none" stroke="black" points="643,-31.5 643,-52.5 660,-52.5 660,-31.5 643,-31.5"/>
<text text-anchor="start" x="646" y="-38.3" font-family="Times,serif" font-size="14.00">id</text>
</g>
<!-- digest__seq_value_switch&#45;&gt;empty__seq -->
<g id="edge5" class="edge">
<title>digest__seq_value_switch:case3-&gt;empty__seq</title>
<path fill="none" stroke="black" stroke-width="2" d="M471.5,-171C508.6,-171 480.42,-121.87 506,-95 517.89,-82.52 533.36,-72.45 548.68,-64.58"/>
<polygon fill="black" stroke="black" stroke-width="2" points="548.71,-68.49 556.17,-60.97 545.65,-62.19 548.71,-68.49"/>
</g>
<!-- bytes__seq -->

<!-- pre_runtime__seq&#45;&gt;bytes__seq -->

<!-- post_runtime__seq&#45;&gt;bytes__seq -->

<!-- seal__seq&#45;&gt;bytes__seq -->

</g>
</svg>
