<?xml version="1.0" encoding="UTF-8" standalone="no"?>
<!DOCTYPE svg PUBLIC "-//W3C//DTD SVG 1.1//EN"
 "http://www.w3.org/Graphics/SVG/1.1/DTD/svg11.dtd">
<!-- Generated by graphviz version 7.1.0 (20230121.1956)
 -->
<!-- Pages: 1 -->
<svg width="827pt" height="495pt" viewBox="0.00 0.00 827.00 495.00" xmlns="http://www.w3.org/2000/svg" xmlns:xlink="http://www.w3.org/1999/xlink">
<g id="graph0" class="graph" transform="scale(1 1) rotate(0) translate(4 491)">
<polygon fill="white" stroke="none" points="-4,4 -4,-491 823,-491 823,4 -4,4"/>
<g id="clust1" class="cluster">
<title>cluster__digest</title>
<polygon fill="none" stroke="black" stroke-dasharray="1,5" points="8,-8 8,-479 722,-479 722,-8 8,-8"/>
<text text-anchor="middle" x="365" y="-463.8" font-family="Times,serif" font-size="14.00">Digest</text>
</g>
<g id="clust2" class="cluster">
<title>cluster__pre_runtime</title>
<polygon fill="none" stroke="black" stroke-dasharray="1,5" points="506,-337 506,-448 714,-448 714,-337 506,-337"/>
<text text-anchor="middle" x="610" y="-432.8" font-family="Times,serif" font-size="14.00">Digest::PreRuntime</text>
</g>
<g id="clust3" class="cluster">
<title>cluster__post_runtime</title>
<polygon fill="none" stroke="black" stroke-dasharray="1,5" points="506,-218 506,-329 714,-329 714,-218 506,-218"/>
<text text-anchor="middle" x="610" y="-313.8" font-family="Times,serif" font-size="14.00">Digest::PostRuntime</text>
</g>
<g id="clust4" class="cluster">
<title>cluster__seal</title>
<polygon fill="none" stroke="black" stroke-dasharray="1,5" points="506,-99 506,-210 714,-210 714,-99 506,-99"/>
<text text-anchor="middle" x="610" y="-194.8" font-family="Times,serif" font-size="14.00">Digest::Seal</text>
</g>
<g id="clust5" class="cluster">
<title>cluster__empty</title>
<polygon fill="none" stroke="black" stroke-dasharray="1,5" points="544,-16 544,-91 676,-91 676,-16 544,-16"/>
<text text-anchor="middle" x="610" y="-75.8" font-family="Times,serif" font-size="14.00">Digest::Empty</text>
</g>
<!-- digest__seq -->
<g id="node1" class="node">
<title>digest__seq</title>
<polygon fill="#e0ffe0" stroke="none" points="24.5,-246 24.5,-267 49.5,-267 49.5,-246 24.5,-246"/>
<polygon fill="none" stroke="black" points="24.5,-246 24.5,-267 49.5,-267 49.5,-246 24.5,-246"/>
<text text-anchor="start" x="27.5" y="-252.8" font-family="Times,serif" font-size="14.00">pos</text>
<polygon fill="#e0ffe0" stroke="none" points="49.5,-246 49.5,-267 77.5,-267 77.5,-246 49.5,-246"/>
<polygon fill="none" stroke="black" points="49.5,-246 49.5,-267 77.5,-267 77.5,-246 49.5,-246"/>
<text text-anchor="start" x="52.5" y="-252.8" font-family="Times,serif" font-size="14.00">size</text>
<polygon fill="#e0ffe0" stroke="none" points="77.5,-246 77.5,-267 155.5,-267 155.5,-246 77.5,-246"/>
<polygon fill="none" stroke="black" points="77.5,-246 77.5,-267 155.5,-267 155.5,-246 77.5,-246"/>
<text text-anchor="start" x="104.5" y="-252.8" font-family="Times,serif" font-size="14.00">type</text>
<polygon fill="#e0ffe0" stroke="none" points="155.5,-246 155.5,-267 191.5,-267 191.5,-246 155.5,-246"/>
<polygon fill="none" stroke="black" points="155.5,-246 155.5,-267 191.5,-267 191.5,-246 155.5,-246"/>
<text text-anchor="start" x="168" y="-252.8" font-family="Times,serif" font-size="14.00">id</text>
<polygon fill="none" stroke="black" points="24.5,-225 24.5,-246 49.5,-246 49.5,-225 24.5,-225"/>
<text text-anchor="start" x="33.5" y="-231.8" font-family="Times,serif" font-size="14.00">0</text>
<polygon fill="none" stroke="black" points="49.5,-225 49.5,-246 77.5,-246 77.5,-225 49.5,-225"/>
<text text-anchor="start" x="60" y="-231.8" font-family="Times,serif" font-size="14.00">1</text>
<polygon fill="none" stroke="black" points="77.5,-225 77.5,-246 155.5,-246 155.5,-225 77.5,-225"/>
<text text-anchor="start" x="83" y="-231.8" font-family="Times,serif" font-size="14.00">u1&#x2192;TypeId</text>
<polygon fill="none" stroke="black" points="155.5,-225 155.5,-246 191.5,-246 191.5,-225 155.5,-225"/>
<text text-anchor="start" x="161.5" y="-231.8" font-family="Times,serif" font-size="14.00">type</text>
<polygon fill="none" stroke="black" points="24.5,-204 24.5,-225 49.5,-225 49.5,-204 24.5,-204"/>
<text text-anchor="start" x="33.5" y="-210.8" font-family="Times,serif" font-size="14.00">1</text>
<polygon fill="none" stroke="black" points="49.5,-204 49.5,-225 77.5,-225 77.5,-204 49.5,-204"/>
<text text-anchor="start" x="57.5" y="-210.8" font-family="Times,serif" font-size="14.00">...</text>
<polygon fill="none" stroke="black" points="77.5,-204 77.5,-225 155.5,-225 155.5,-204 77.5,-204"/>
<text text-anchor="start" x="80.5" y="-210.8" font-family="Times,serif" font-size="14.00">switch (type)</text>
<polygon fill="none" stroke="black" points="155.5,-204 155.5,-225 191.5,-225 191.5,-204 155.5,-204"/>
<text text-anchor="start" x="158.5" y="-210.8" font-family="Times,serif" font-size="14.00">value</text>
</g>
<!-- digest__seq&#45;&gt;digest__seq -->
<g id="edge6" class="edge">
<title>digest__seq:type_type-&gt;digest__seq:value_type</title>
<path fill="none" stroke="#404040" d="M155.59,-241.33C111.97,-260.29 117.94,-289.5 173.5,-289.5 224.51,-289.5 233.72,-250.79 201.14,-226.99"/>
<polygon fill="#404040" stroke="#404040" points="203.05,-224.05 192.7,-221.8 199.38,-230.02 203.05,-224.05"/>
</g>
<!-- digest__seq_value_switch -->
<g id="node2" class="node">
<title>digest__seq_value_switch</title>
<polygon fill="#f0f2e4" stroke="none" points="243.5,-245 243.5,-266 393.5,-266 393.5,-245 243.5,-245"/>
<polygon fill="none" stroke="black" points="243.5,-245 243.5,-266 393.5,-266 393.5,-245 243.5,-245"/>
<text text-anchor="start" x="306.5" y="-251.8" font-family="Times,serif" font-size="14.00">case</text>
<polygon fill="#f0f2e4" stroke="none" points="393.5,-245 393.5,-266 470.5,-266 470.5,-245 393.5,-245"/>
<polygon fill="none" stroke="black" points="393.5,-245 393.5,-266 470.5,-266 470.5,-245 393.5,-245"/>
<text text-anchor="start" x="420" y="-251.8" font-family="Times,serif" font-size="14.00">type</text>
<polygon fill="none" stroke="black" points="243.5,-224 243.5,-245 393.5,-245 393.5,-224 243.5,-224"/>
<text text-anchor="start" x="259.5" y="-230.8" font-family="Times,serif" font-size="14.00">:type_id_pre_runtime</text>
<polygon fill="none" stroke="black" points="393.5,-224 393.5,-245 470.5,-245 470.5,-224 393.5,-224"/>
<text text-anchor="start" x="399" y="-230.8" font-family="Times,serif" font-size="14.00">PreRuntime</text>
<polygon fill="none" stroke="black" points="243.5,-203 243.5,-224 393.5,-224 393.5,-203 243.5,-203"/>
<text text-anchor="start" x="256.5" y="-209.8" font-family="Times,serif" font-size="14.00">:type_id_post_runtime</text>
<polygon fill="none" stroke="black" points="393.5,-203 393.5,-224 470.5,-224 470.5,-203 393.5,-203"/>
<text text-anchor="start" x="396.5" y="-209.8" font-family="Times,serif" font-size="14.00">PostRuntime</text>
<polygon fill="none" stroke="black" points="243.5,-182 243.5,-203 393.5,-203 393.5,-182 243.5,-182"/>
<text text-anchor="start" x="282" y="-188.8" font-family="Times,serif" font-size="14.00">:type_id_seal</text>
<polygon fill="none" stroke="black" points="393.5,-182 393.5,-203 470.5,-203 470.5,-182 393.5,-182"/>
<text text-anchor="start" x="420" y="-188.8" font-family="Times,serif" font-size="14.00">Seal</text>
<polygon fill="none" stroke="black" points="243.5,-161 243.5,-182 393.5,-182 393.5,-161 243.5,-161"/>
<text text-anchor="start" x="246.5" y="-167.8" font-family="Times,serif" font-size="14.00">:type_id_runtime_updated</text>
<polygon fill="none" stroke="black" points="393.5,-161 393.5,-182 470.5,-182 470.5,-161 393.5,-161"/>
<text text-anchor="start" x="413.5" y="-167.8" font-family="Times,serif" font-size="14.00">Empty</text>
</g>
<!-- digest__seq&#45;&gt;digest__seq_value_switch -->
<g id="edge1" class="edge">
<title>digest__seq:value_type-&gt;digest__seq_value_switch</title>
<path fill="none" stroke="black" stroke-width="2" d="M192.5,-214C202.68,-214 213.22,-214 223.82,-214"/>
<polygon fill="black" stroke="black" stroke-width="2" points="222.3,-217.5 232.3,-214 222.3,-210.5 222.3,-217.5"/>
</g>
<!-- pre_runtime__seq -->
<g id="node3" class="node">
<title>pre_runtime__seq</title>
<polygon fill="#e0ffe0" stroke="none" points="522,-391 522,-412 547,-412 547,-391 522,-391"/>
<polygon fill="none" stroke="black" points="522,-391 522,-412 547,-412 547,-391 522,-391"/>
<text text-anchor="start" x="525" y="-397.8" font-family="Times,serif" font-size="14.00">pos</text>
<polygon fill="#e0ffe0" stroke="none" points="547,-391 547,-412 575,-412 575,-391 547,-391"/>
<polygon fill="none" stroke="black" points="547,-391 547,-412 575,-412 575,-391 547,-391"/>
<text text-anchor="start" x="550" y="-397.8" font-family="Times,serif" font-size="14.00">size</text>
<polygon fill="#e0ffe0" stroke="none" points="575,-391 575,-412 649,-412 649,-391 575,-391"/>
<polygon fill="none" stroke="black" points="575,-391 575,-412 649,-412 649,-391 575,-391"/>
<text text-anchor="start" x="600" y="-397.8" font-family="Times,serif" font-size="14.00">type</text>
<polygon fill="#e0ffe0" stroke="none" points="649,-391 649,-412 698,-412 698,-391 649,-391"/>
<polygon fill="none" stroke="black" points="649,-391 649,-412 698,-412 698,-391 649,-391"/>
<text text-anchor="start" x="668" y="-397.8" font-family="Times,serif" font-size="14.00">id</text>
<polygon fill="none" stroke="black" points="522,-370 522,-391 547,-391 547,-370 522,-370"/>
<text text-anchor="start" x="531" y="-376.8" font-family="Times,serif" font-size="14.00">0</text>
<polygon fill="none" stroke="black" points="547,-370 547,-391 575,-391 575,-370 547,-370"/>
<text text-anchor="start" x="557.5" y="-376.8" font-family="Times,serif" font-size="14.00">4</text>
<polygon fill="none" stroke="black" points="575,-370 575,-391 649,-391 649,-370 575,-370"/>
<text text-anchor="start" x="583" y="-376.8" font-family="Times,serif" font-size="14.00">str(ASCII)</text>
<polygon fill="none" stroke="black" points="649,-370 649,-391 698,-391 698,-370 649,-370"/>
<text text-anchor="start" x="655" y="-376.8" font-family="Times,serif" font-size="14.00">engine</text>
<polygon fill="none" stroke="black" points="522,-349 522,-370 547,-370 547,-349 522,-349"/>
<text text-anchor="start" x="531" y="-355.8" font-family="Times,serif" font-size="14.00">4</text>
<polygon fill="none" stroke="black" points="547,-349 547,-370 575,-370 575,-349 547,-349"/>
<text text-anchor="start" x="555" y="-355.8" font-family="Times,serif" font-size="14.00">...</text>
<polygon fill="none" stroke="black" points="575,-349 575,-370 649,-370 649,-349 575,-349"/>
<text text-anchor="start" x="578" y="-355.8" font-family="Times,serif" font-size="14.00">Scale::Bytes</text>
<polygon fill="none" stroke="black" points="649,-349 649,-370 698,-370 698,-349 649,-349"/>
<text text-anchor="start" x="652" y="-355.8" font-family="Times,serif" font-size="14.00">payload</text>
</g>
<!-- digest__seq_value_switch&#45;&gt;pre_runtime__seq -->
<g id="edge2" class="edge">
<title>digest__seq_value_switch:case0-&gt;pre_runtime__seq</title>
<path fill="none" stroke="black" stroke-width="2" d="M471.5,-235C517.68,-235 474.98,-298.79 506,-333 507.72,-334.9 509.54,-336.73 511.43,-338.49"/>
<polygon fill="black" stroke="black" stroke-width="2" points="507.93,-340.13 517.84,-343.86 512.42,-334.76 507.93,-340.13"/>
</g>
<!-- post_runtime__seq -->
<g id="node4" class="node">
<title>post_runtime__seq</title>
<polygon fill="#e0ffe0" stroke="none" points="522,-272 522,-293 547,-293 547,-272 522,-272"/>
<polygon fill="none" stroke="black" points="522,-272 522,-293 547,-293 547,-272 522,-272"/>
<text text-anchor="start" x="525" y="-278.8" font-family="Times,serif" font-size="14.00">pos</text>
<polygon fill="#e0ffe0" stroke="none" points="547,-272 547,-293 575,-293 575,-272 547,-272"/>
<polygon fill="none" stroke="black" points="547,-272 547,-293 575,-293 575,-272 547,-272"/>
<text text-anchor="start" x="550" y="-278.8" font-family="Times,serif" font-size="14.00">size</text>
<polygon fill="#e0ffe0" stroke="none" points="575,-272 575,-293 649,-293 649,-272 575,-272"/>
<polygon fill="none" stroke="black" points="575,-272 575,-293 649,-293 649,-272 575,-272"/>
<text text-anchor="start" x="600" y="-278.8" font-family="Times,serif" font-size="14.00">type</text>
<polygon fill="#e0ffe0" stroke="none" points="649,-272 649,-293 698,-293 698,-272 649,-272"/>
<polygon fill="none" stroke="black" points="649,-272 649,-293 698,-293 698,-272 649,-272"/>
<text text-anchor="start" x="668" y="-278.8" font-family="Times,serif" font-size="14.00">id</text>
<polygon fill="none" stroke="black" points="522,-251 522,-272 547,-272 547,-251 522,-251"/>
<text text-anchor="start" x="531" y="-257.8" font-family="Times,serif" font-size="14.00">0</text>
<polygon fill="none" stroke="black" points="547,-251 547,-272 575,-272 575,-251 547,-251"/>
<text text-anchor="start" x="557.5" y="-257.8" font-family="Times,serif" font-size="14.00">4</text>
<polygon fill="none" stroke="black" points="575,-251 575,-272 649,-272 649,-251 575,-251"/>
<text text-anchor="start" x="583" y="-257.8" font-family="Times,serif" font-size="14.00">str(ASCII)</text>
<polygon fill="none" stroke="black" points="649,-251 649,-272 698,-272 698,-251 649,-251"/>
<text text-anchor="start" x="655" y="-257.8" font-family="Times,serif" font-size="14.00">engine</text>
<polygon fill="none" stroke="black" points="522,-230 522,-251 547,-251 547,-230 522,-230"/>
<text text-anchor="start" x="531" y="-236.8" font-family="Times,serif" font-size="14.00">4</text>
<polygon fill="none" stroke="black" points="547,-230 547,-251 575,-251 575,-230 547,-230"/>
<text text-anchor="start" x="555" y="-236.8" font-family="Times,serif" font-size="14.00">...</text>
<polygon fill="none" stroke="black" points="575,-230 575,-251 649,-251 649,-230 575,-230"/>
<text text-anchor="start" x="578" y="-236.8" font-family="Times,serif" font-size="14.00">Scale::Bytes</text>
<polygon fill="none" stroke="black" points="649,-230 649,-251 698,-251 698,-230 649,-230"/>
<text text-anchor="start" x="652" y="-236.8" font-family="Times,serif" font-size="14.00">payload</text>
</g>
<!-- digest__seq_value_switch&#45;&gt;post_runtime__seq -->
<g id="edge3" class="edge">
<title>digest__seq_value_switch:case1-&gt;post_runtime__seq</title>
<path fill="none" stroke="black" stroke-width="2" d="M471.5,-213C490.16,-213 509.46,-217.05 527.49,-222.83"/>
<polygon fill="black" stroke="black" stroke-width="2" points="524.78,-225.6 535.38,-225.54 527.06,-218.98 524.78,-225.6"/>
</g>
<!-- seal__seq -->
<g id="node5" class="node">
<title>seal__seq</title>
<polygon fill="#e0ffe0" stroke="none" points="522,-153 522,-174 547,-174 547,-153 522,-153"/>
<polygon fill="none" stroke="black" points="522,-153 522,-174 547,-174 547,-153 522,-153"/>
<text text-anchor="start" x="525" y="-159.8" font-family="Times,serif" font-size="14.00">pos</text>
<polygon fill="#e0ffe0" stroke="none" points="547,-153 547,-174 575,-174 575,-153 547,-153"/>
<polygon fill="none" stroke="black" points="547,-153 547,-174 575,-174 575,-153 547,-153"/>
<text text-anchor="start" x="550" y="-159.8" font-family="Times,serif" font-size="14.00">size</text>
<polygon fill="#e0ffe0" stroke="none" points="575,-153 575,-174 649,-174 649,-153 575,-153"/>
<polygon fill="none" stroke="black" points="575,-153 575,-174 649,-174 649,-153 575,-153"/>
<text text-anchor="start" x="600" y="-159.8" font-family="Times,serif" font-size="14.00">type</text>
<polygon fill="#e0ffe0" stroke="none" points="649,-153 649,-174 698,-174 698,-153 649,-153"/>
<polygon fill="none" stroke="black" points="649,-153 649,-174 698,-174 698,-153 649,-153"/>
<text text-anchor="start" x="668" y="-159.8" font-family="Times,serif" font-size="14.00">id</text>
<polygon fill="none" stroke="black" points="522,-132 522,-153 547,-153 547,-132 522,-132"/>
<text text-anchor="start" x="531" y="-138.8" font-family="Times,serif" font-size="14.00">0</text>
<polygon fill="none" stroke="black" points="547,-132 547,-153 575,-153 575,-132 547,-132"/>
<text text-anchor="start" x="557.5" y="-138.8" font-family="Times,serif" font-size="14.00">4</text>
<polygon fill="none" stroke="black" points="575,-132 575,-153 649,-153 649,-132 575,-132"/>
<text text-anchor="start" x="583" y="-138.8" font-family="Times,serif" font-size="14.00">str(ASCII)</text>
<polygon fill="none" stroke="black" points="649,-132 649,-153 698,-153 698,-132 649,-132"/>
<text text-anchor="start" x="655" y="-138.8" font-family="Times,serif" font-size="14.00">engine</text>
<polygon fill="none" stroke="black" points="522,-111 522,-132 547,-132 547,-111 522,-111"/>
<text text-anchor="start" x="531" y="-117.8" font-family="Times,serif" font-size="14.00">4</text>
<polygon fill="none" stroke="black" points="547,-111 547,-132 575,-132 575,-111 547,-111"/>
<text text-anchor="start" x="555" y="-117.8" font-family="Times,serif" font-size="14.00">...</text>
<polygon fill="none" stroke="black" points="575,-111 575,-132 649,-132 649,-111 575,-111"/>
<text text-anchor="start" x="578" y="-117.8" font-family="Times,serif" font-size="14.00">Scale::Bytes</text>
<polygon fill="none" stroke="black" points="649,-111 649,-132 698,-132 698,-111 649,-111"/>
<text text-anchor="start" x="652" y="-117.8" font-family="Times,serif" font-size="14.00">payload</text>
</g>
<!-- digest__seq_value_switch&#45;&gt;seal__seq -->
<g id="edge4" class="edge">
<title>digest__seq_value_switch:case2-&gt;seal__seq</title>
<path fill="none" stroke="black" stroke-width="2" d="M471.5,-192C490.16,-192 509.46,-187.95 527.49,-182.17"/>
<polygon fill="black" stroke="black" stroke-width="2" points="527.06,-186.02 535.38,-179.46 524.78,-179.4 527.06,-186.02"/>
</g>
<!-- empty__seq -->
<g id="node6" class="node">
<title>empty__seq</title>
<polygon fill="#e0ffe0" stroke="none" points="560,-31 560,-52 585,-52 585,-31 560,-31"/>
<polygon fill="none" stroke="black" points="560,-31 560,-52 585,-52 585,-31 560,-31"/>
<text text-anchor="start" x="563" y="-37.8" font-family="Times,serif" font-size="14.00">pos</text>
<polygon fill="#e0ffe0" stroke="none" points="585,-31 585,-52 613,-52 613,-31 585,-31"/>
<polygon fill="none" stroke="black" points="585,-31 585,-52 613,-52 613,-31 585,-31"/>
<text text-anchor="start" x="588" y="-37.8" font-family="Times,serif" font-size="14.00">size</text>
<polygon fill="#e0ffe0" stroke="none" points="613,-31 613,-52 643,-52 643,-31 613,-31"/>
<polygon fill="none" stroke="black" points="613,-31 613,-52 643,-52 643,-31 613,-31"/>
<text text-anchor="start" x="616" y="-37.8" font-family="Times,serif" font-size="14.00">type</text>
<polygon fill="#e0ffe0" stroke="none" points="643,-31 643,-52 660,-52 660,-31 643,-31"/>
<polygon fill="none" stroke="black" points="643,-31 643,-52 660,-52 660,-31 643,-31"/>
<text text-anchor="start" x="646" y="-37.8" font-family="Times,serif" font-size="14.00">id</text>
</g>
<!-- digest__seq_value_switch&#45;&gt;empty__seq -->
<g id="edge5" class="edge">
<title>digest__seq_value_switch:case3-&gt;empty__seq</title>
<path fill="none" stroke="black" stroke-width="2" d="M471.5,-171C508.6,-171 480.42,-121.87 506,-95 517.77,-82.63 533.07,-72.64 548.25,-64.81"/>
<polygon fill="black" stroke="black" stroke-width="2" points="548,-68.82 555.45,-61.29 544.93,-62.53 548,-68.82"/>
</g>
<!-- bytes__seq -->

<!-- pre_runtime__seq&#45;&gt;bytes__seq -->

<!-- post_runtime__seq&#45;&gt;bytes__seq -->

<!-- seal__seq&#45;&gt;bytes__seq -->

</g>
</svg>
