<?xml version="1.0" encoding="UTF-8" standalone="no"?>
<!DOCTYPE svg PUBLIC "-//W3C//DTD SVG 1.1//EN"
 "http://www.w3.org/Graphics/SVG/1.1/DTD/svg11.dtd">
<!-- Generated by graphviz version 7.1.0 (20230121.1956)
 -->
<!-- Pages: 1 -->
<svg width="458pt" height="234pt"
 viewBox="0.00 0.00 458.00 234.00" xmlns="http://www.w3.org/2000/svg" xmlns:xlink="http://www.w3.org/1999/xlink">
<g id="graph0" class="graph" transform="scale(1 1) rotate(0) translate(4 230)">
<polygon fill="white" stroke="none" points="-4,4 -4,-230 454,-230 454,4 -4,4"/>
<g id="clust1" class="cluster">
<title>cluster__item</title>
<polygon fill="none" stroke="black" stroke-dasharray="1,5" points="8,-45 8,-218 276,-218 276,-45 8,-45"/>
<text text-anchor="middle" x="142" y="-202.8" font-family="Times,serif" font-size="14.00">Item</text>
</g>
<!-- item__seq -->
<g id="node1" class="node">
<title>item__seq</title>
<polygon fill="#e0ffe0" stroke="none" points="24,-162 24,-183 49,-183 49,-162 24,-162"/>
<polygon fill="none" stroke="black" points="24,-162 24,-183 49,-183 49,-162 24,-162"/>
<text text-anchor="start" x="27" y="-168.8" font-family="Times,serif" font-size="14.00">pos</text>
<polygon fill="#e0ffe0" stroke="none" points="49,-162 49,-183 77,-183 77,-162 49,-162"/>
<polygon fill="none" stroke="black" points="49,-162 49,-183 77,-183 77,-162 49,-162"/>
<text text-anchor="start" x="52" y="-168.8" font-family="Times,serif" font-size="14.00">size</text>
<polygon fill="#e0ffe0" stroke="none" points="77,-162 77,-183 201,-183 201,-162 77,-162"/>
<polygon fill="none" stroke="black" points="77,-162 77,-183 201,-183 201,-162 77,-162"/>
<text text-anchor="start" x="127" y="-168.8" font-family="Times,serif" font-size="14.00">type</text>
<polygon fill="#e0ffe0" stroke="none" points="201,-162 201,-183 260,-183 260,-162 201,-162"/>
<polygon fill="none" stroke="black" points="201,-162 201,-183 260,-183 260,-162 201,-162"/>
<text text-anchor="start" x="225" y="-168.8" font-family="Times,serif" font-size="14.00">id</text>
<polygon fill="none" stroke="black" points="24,-141 24,-162 49,-162 49,-141 24,-141"/>
<text text-anchor="start" x="33" y="-147.8" font-family="Times,serif" font-size="14.00">0</text>
<polygon fill="none" stroke="black" points="49,-141 49,-162 77,-162 77,-141 49,-141"/>
<text text-anchor="start" x="57" y="-147.8" font-family="Times,serif" font-size="14.00">...</text>
<polygon fill="none" stroke="black" points="77,-141 77,-162 201,-162 201,-141 77,-141"/>
<text text-anchor="start" x="104" y="-147.8" font-family="Times,serif" font-size="14.00">Scale::String</text>
<polygon fill="none" stroke="black" points="201,-141 201,-162 260,-162 260,-141 201,-141"/>
<text text-anchor="start" x="215" y="-147.8" font-family="Times,serif" font-size="14.00">name</text>
<polygon fill="none" stroke="black" points="24,-120 24,-141 49,-141 49,-120 24,-120"/>
<text text-anchor="start" x="30.5" y="-126.8" font-family="Times,serif" font-size="14.00">...</text>
<polygon fill="none" stroke="black" points="49,-120 49,-141 77,-141 77,-120 49,-120"/>
<text text-anchor="start" x="59.5" y="-126.8" font-family="Times,serif" font-size="14.00">1</text>
<polygon fill="none" stroke="black" points="77,-120 77,-141 201,-141 201,-120 77,-120"/>
<text text-anchor="start" x="80" y="-126.8" font-family="Times,serif" font-size="14.00">u1→StorageModifier</text>
<polygon fill="none" stroke="black" points="201,-120 201,-141 260,-141 260,-120 201,-120"/>
<text text-anchor="start" x="206.5" y="-126.8" font-family="Times,serif" font-size="14.00">modifier</text>
<polygon fill="none" stroke="black" points="24,-99 24,-120 49,-120 49,-99 24,-99"/>
<text text-anchor="start" x="30.5" y="-105.8" font-family="Times,serif" font-size="14.00">...</text>
<polygon fill="none" stroke="black" points="49,-99 49,-120 77,-120 77,-99 49,-99"/>
<text text-anchor="start" x="57" y="-105.8" font-family="Times,serif" font-size="14.00">...</text>
<polygon fill="none" stroke="black" points="77,-99 77,-120 201,-120 201,-99 77,-99"/>
<text text-anchor="start" x="90.5" y="-105.8" font-family="Times,serif" font-size="14.00">StorageDefinition</text>
<polygon fill="none" stroke="black" points="201,-99 201,-120 260,-120 260,-99 201,-99"/>
<text text-anchor="start" x="204" y="-105.8" font-family="Times,serif" font-size="14.00">definition</text>
<polygon fill="none" stroke="black" points="24,-78 24,-99 49,-99 49,-78 24,-78"/>
<text text-anchor="start" x="30.5" y="-84.8" font-family="Times,serif" font-size="14.00">...</text>
<polygon fill="none" stroke="black" points="49,-78 49,-99 77,-99 77,-78 49,-78"/>
<text text-anchor="start" x="57" y="-84.8" font-family="Times,serif" font-size="14.00">...</text>
<polygon fill="none" stroke="black" points="77,-78 77,-99 201,-99 201,-78 77,-78"/>
<text text-anchor="start" x="105" y="-84.8" font-family="Times,serif" font-size="14.00">Scale::Bytes</text>
<polygon fill="none" stroke="black" points="201,-78 201,-99 260,-99 260,-78 201,-78"/>
<text text-anchor="start" x="208.5" y="-84.8" font-family="Times,serif" font-size="14.00">fallback</text>
<polygon fill="none" stroke="black" points="24,-57 24,-78 49,-78 49,-57 24,-57"/>
<text text-anchor="start" x="30.5" y="-63.8" font-family="Times,serif" font-size="14.00">...</text>
<polygon fill="none" stroke="black" points="49,-57 49,-78 77,-78 77,-57 49,-57"/>
<text text-anchor="start" x="57" y="-63.8" font-family="Times,serif" font-size="14.00">...</text>
<polygon fill="none" stroke="black" points="77,-57 77,-78 201,-78 201,-57 77,-57"/>
<text text-anchor="start" x="93.5" y="-63.8" font-family="Times,serif" font-size="14.00">Scale::StringList</text>
<polygon fill="none" stroke="black" points="201,-57 201,-78 260,-78 260,-57 201,-57"/>
<text text-anchor="start" x="218" y="-63.8" font-family="Times,serif" font-size="14.00">docs</text>
</g>
<!-- string__seq -->
<g id="node2" class="node">
<title>string__seq</title>
<text text-anchor="middle" x="377" y="-176.3" font-family="Times,serif" font-size="14.00">string__seq</text>
</g>
<!-- item__seq&#45;&gt;string__seq -->
<g id="edge1" class="edge">
<title>item__seq:name_type&#45;&gt;string__seq</title>
<path fill="none" stroke="black" stroke-width="2" d="M261,-152C283.02,-152 306.75,-156.91 326.91,-162.61"/>
<polygon fill="black" stroke="black" stroke-width="2" points="324.22,-165.46 334.81,-164.97 326.23,-158.75 324.22,-165.46"/>
</g>
<!-- storage_definition__seq -->
<g id="node3" class="node">
<title>storage_definition__seq</title>
<text text-anchor="middle" x="377" y="-122.3" font-family="Times,serif" font-size="14.00">storage_definition__seq</text>
</g>
<!-- item__seq&#45;&gt;storage_definition__seq -->
<g id="edge2" class="edge">
<title>item__seq:definition_type&#45;&gt;storage_definition__seq</title>
<path fill="none" stroke="black" stroke-width="2" d="M261,-109C271.41,-109 282.29,-109.69 293.04,-110.79"/>
<polygon fill="black" stroke="black" stroke-width="2" points="290.82,-114.06 301.15,-111.73 291.62,-107.1 290.82,-114.06"/>
</g>
<!-- bytes__seq -->
<g id="node4" class="node">
<title>bytes__seq</title>
<text text-anchor="middle" x="377" y="-68.3" font-family="Times,serif" font-size="14.00">bytes__seq</text>
</g>
<!-- item__seq&#45;&gt;bytes__seq -->
<g id="edge3" class="edge">
<title>item__seq:fallback_type&#45;&gt;bytes__seq</title>
<path fill="none" stroke="black" stroke-width="2" d="M261,-88C282.92,-88 306.98,-85.11 327.39,-81.79"/>
<polygon fill="black" stroke="black" stroke-width="2" points="326.39,-85.51 335.65,-80.37 325.2,-78.62 326.39,-85.51"/>
</g>
<!-- string_list__seq -->
<g id="node5" class="node">
<title>string_list__seq</title>
<text text-anchor="middle" x="377" y="-14.3" font-family="Times,serif" font-size="14.00">string_list__seq</text>
</g>
<!-- item__seq&#45;&gt;string_list__seq -->
<g id="edge4" class="edge">
<title>item__seq:docs_type&#45;&gt;string_list__seq</title>
<path fill="none" stroke="black" stroke-width="2" d="M261,-67C282.47,-67 284.36,-53.67 304,-45 307.76,-43.34 311.66,-41.69 315.61,-40.06"/>
<polygon fill="black" stroke="black" stroke-width="2" points="315.33,-43.95 323.31,-36.98 312.73,-37.45 315.33,-43.95"/>
</g>
</g>
</svg>
