<?xml version="1.0" encoding="UTF-8" standalone="no"?>
<!DOCTYPE svg PUBLIC "-//W3C//DTD SVG 1.1//EN"
 "http://www.w3.org/Graphics/SVG/1.1/DTD/svg11.dtd">
<!-- Generated by graphviz version 7.1.0 (20230121.1956)
 -->
<!-- Pages: 1 -->
<svg width="671pt" height="387pt"
 viewBox="0.00 0.00 671.00 387.00" xmlns="http://www.w3.org/2000/svg" xmlns:xlink="http://www.w3.org/1999/xlink">
<g id="graph0" class="graph" transform="scale(1 1) rotate(0) translate(4 383)">
<polygon fill="white" stroke="none" points="-4,4 -4,-383 667,-383 667,4 -4,4"/>
<g id="clust1" class="cluster">
<title>cluster__metadata</title>
<polygon fill="none" stroke="black" stroke-dasharray="1,5" points="188,-8 188,-371 484,-371 484,-8 188,-8"/>
<text text-anchor="middle" x="336" y="-355.8" font-family="Times,serif" font-size="14.00">Metadata</text>
</g>
<!-- metadata__seq -->
<g id="node1" class="node">
<title>metadata__seq</title>
<polygon fill="#e0ffe0" stroke="none" points="204,-314 204,-335 229,-335 229,-314 204,-314"/>
<polygon fill="none" stroke="black" points="204,-314 204,-335 229,-335 229,-314 204,-314"/>
<text text-anchor="start" x="207" y="-320.8" font-family="Times,serif" font-size="14.00">pos</text>
<polygon fill="#e0ffe0" stroke="none" points="229,-314 229,-335 257,-335 257,-314 229,-314"/>
<polygon fill="none" stroke="black" points="229,-314 229,-335 257,-335 257,-314 229,-314"/>
<text text-anchor="start" x="232" y="-320.8" font-family="Times,serif" font-size="14.00">size</text>
<polygon fill="#e0ffe0" stroke="none" points="257,-314 257,-335 365,-335 365,-314 257,-314"/>
<polygon fill="none" stroke="black" points="257,-314 257,-335 365,-335 365,-314 257,-314"/>
<text text-anchor="start" x="299" y="-320.8" font-family="Times,serif" font-size="14.00">type</text>
<polygon fill="#e0ffe0" stroke="none" points="365,-314 365,-335 468,-335 468,-314 365,-314"/>
<polygon fill="none" stroke="black" points="365,-314 365,-335 468,-335 468,-314 365,-314"/>
<text text-anchor="start" x="411" y="-320.8" font-family="Times,serif" font-size="14.00">id</text>
<polygon fill="none" stroke="black" points="204,-293 204,-314 229,-314 229,-293 204,-293"/>
<text text-anchor="start" x="213" y="-299.8" font-family="Times,serif" font-size="14.00">0</text>
<polygon fill="none" stroke="black" points="229,-293 229,-314 257,-314 257,-293 229,-293"/>
<text text-anchor="start" x="239.5" y="-299.8" font-family="Times,serif" font-size="14.00">4</text>
<polygon fill="none" stroke="black" points="257,-293 257,-314 365,-314 365,-293 257,-293"/>
<polygon fill="none" stroke="black" points="365,-293 365,-314 468,-314 468,-293 365,-293"/>
<text text-anchor="start" x="399.5" y="-299.8" font-family="Times,serif" font-size="14.00">magic</text>
<polygon fill="none" stroke="black" points="204,-272 204,-293 229,-293 229,-272 204,-272"/>
<text text-anchor="start" x="213" y="-278.8" font-family="Times,serif" font-size="14.00">4</text>
<polygon fill="none" stroke="black" points="229,-272 229,-293 257,-293 257,-272 229,-272"/>
<text text-anchor="start" x="239.5" y="-278.8" font-family="Times,serif" font-size="14.00">1</text>
<polygon fill="none" stroke="black" points="257,-272 257,-293 365,-293 365,-272 257,-272"/>
<text text-anchor="start" x="304" y="-278.8" font-family="Times,serif" font-size="14.00">u1</text>
<polygon fill="none" stroke="black" points="365,-272 365,-293 468,-293 468,-272 365,-272"/>
<text text-anchor="start" x="368" y="-278.8" font-family="Times,serif" font-size="14.00">metadata_version</text>
<polygon fill="none" stroke="black" points="204,-251 204,-272 229,-272 229,-251 204,-251"/>
<text text-anchor="start" x="213" y="-257.8" font-family="Times,serif" font-size="14.00">5</text>
<polygon fill="none" stroke="black" points="229,-251 229,-272 257,-272 257,-251 229,-251"/>
<text text-anchor="start" x="237" y="-257.8" font-family="Times,serif" font-size="14.00">...</text>
<polygon fill="none" stroke="black" points="257,-251 257,-272 365,-272 365,-251 257,-251"/>
<text text-anchor="start" x="260" y="-257.8" font-family="Times,serif" font-size="14.00">Scale::CompactInt</text>
<polygon fill="none" stroke="black" points="365,-251 365,-272 468,-272 468,-251 365,-251"/>
<text text-anchor="start" x="386" y="-257.8" font-family="Times,serif" font-size="14.00">num_types</text>
<polygon fill="none" stroke="black" points="204,-230 204,-251 229,-251 229,-230 204,-230"/>
<text text-anchor="start" x="210.5" y="-236.8" font-family="Times,serif" font-size="14.00">...</text>
<polygon fill="none" stroke="black" points="229,-230 229,-251 257,-251 257,-230 229,-230"/>
<text text-anchor="start" x="237" y="-236.8" font-family="Times,serif" font-size="14.00">...</text>
<polygon fill="none" stroke="black" points="257,-230 257,-251 365,-251 365,-230 257,-230"/>
<text text-anchor="start" x="271.5" y="-236.8" font-family="Times,serif" font-size="14.00">MetadataType</text>
<polygon fill="none" stroke="black" points="365,-230 365,-251 468,-251 468,-230 365,-230"/>
<text text-anchor="start" x="402" y="-236.8" font-family="Times,serif" font-size="14.00">types</text>
<polygon fill="none" stroke="black" points="204,-209 204,-230 468,-230 468,-209 204,-209"/>
<text text-anchor="start" x="254" y="-215.8" font-family="Times,serif" font-size="14.00">repeat num_types.value times</text>
<polygon fill="none" stroke="black" points="204,-188 204,-209 229,-209 229,-188 204,-188"/>
<text text-anchor="start" x="210.5" y="-194.8" font-family="Times,serif" font-size="14.00">...</text>
<polygon fill="none" stroke="black" points="229,-188 229,-209 257,-209 257,-188 229,-188"/>
<text text-anchor="start" x="237" y="-194.8" font-family="Times,serif" font-size="14.00">...</text>
<polygon fill="none" stroke="black" points="257,-188 257,-209 365,-209 365,-188 257,-188"/>
<text text-anchor="start" x="260" y="-194.8" font-family="Times,serif" font-size="14.00">Scale::CompactInt</text>
<polygon fill="none" stroke="black" points="365,-188 365,-209 468,-209 468,-188 365,-188"/>
<text text-anchor="start" x="383" y="-194.8" font-family="Times,serif" font-size="14.00">num_pallets</text>
<polygon fill="none" stroke="black" points="204,-167 204,-188 229,-188 229,-167 204,-167"/>
<text text-anchor="start" x="210.5" y="-173.8" font-family="Times,serif" font-size="14.00">...</text>
<polygon fill="none" stroke="black" points="229,-167 229,-188 257,-188 257,-167 229,-167"/>
<text text-anchor="start" x="237" y="-173.8" font-family="Times,serif" font-size="14.00">...</text>
<polygon fill="none" stroke="black" points="257,-167 257,-188 365,-188 365,-167 257,-167"/>
<text text-anchor="start" x="270" y="-173.8" font-family="Times,serif" font-size="14.00">MetadataPallet</text>
<polygon fill="none" stroke="black" points="365,-167 365,-188 468,-188 468,-167 365,-167"/>
<text text-anchor="start" x="398.5" y="-173.8" font-family="Times,serif" font-size="14.00">pallets</text>
<polygon fill="none" stroke="black" points="204,-146 204,-167 468,-167 468,-146 204,-146"/>
<text text-anchor="start" x="250.5" y="-152.8" font-family="Times,serif" font-size="14.00">repeat num_pallets.value times</text>
<polygon fill="none" stroke="black" points="204,-125 204,-146 229,-146 229,-125 204,-125"/>
<text text-anchor="start" x="210.5" y="-131.8" font-family="Times,serif" font-size="14.00">...</text>
<polygon fill="none" stroke="black" points="229,-125 229,-146 257,-146 257,-125 229,-125"/>
<text text-anchor="start" x="237" y="-131.8" font-family="Times,serif" font-size="14.00">...</text>
<polygon fill="none" stroke="black" points="257,-125 257,-146 365,-146 365,-125 257,-125"/>
<text text-anchor="start" x="260" y="-131.8" font-family="Times,serif" font-size="14.00">Scale::CompactInt</text>
<polygon fill="none" stroke="black" points="365,-125 365,-146 468,-146 468,-125 365,-125"/>
<text text-anchor="start" x="378" y="-131.8" font-family="Times,serif" font-size="14.00">extrinsic_type</text>
<polygon fill="none" stroke="black" points="204,-104 204,-125 229,-125 229,-104 204,-104"/>
<text text-anchor="start" x="210.5" y="-110.8" font-family="Times,serif" font-size="14.00">...</text>
<polygon fill="none" stroke="black" points="229,-104 229,-125 257,-125 257,-104 229,-104"/>
<text text-anchor="start" x="239.5" y="-110.8" font-family="Times,serif" font-size="14.00">1</text>
<polygon fill="none" stroke="black" points="257,-104 257,-125 365,-125 365,-104 257,-104"/>
<text text-anchor="start" x="304" y="-110.8" font-family="Times,serif" font-size="14.00">u1</text>
<polygon fill="none" stroke="black" points="365,-104 365,-125 468,-125 468,-104 365,-104"/>
<text text-anchor="start" x="369.5" y="-110.8" font-family="Times,serif" font-size="14.00">extrinsic_version</text>
<polygon fill="none" stroke="black" points="204,-83 204,-104 229,-104 229,-83 204,-83"/>
<text text-anchor="start" x="210.5" y="-89.8" font-family="Times,serif" font-size="14.00">...</text>
<polygon fill="none" stroke="black" points="229,-83 229,-104 257,-104 257,-83 229,-83"/>
<text text-anchor="start" x="237" y="-89.8" font-family="Times,serif" font-size="14.00">...</text>
<polygon fill="none" stroke="black" points="257,-83 257,-104 365,-104 365,-83 257,-83"/>
<text text-anchor="start" x="260" y="-89.8" font-family="Times,serif" font-size="14.00">Scale::CompactInt</text>
<polygon fill="none" stroke="black" points="365,-83 365,-104 468,-104 468,-83 365,-83"/>
<text text-anchor="start" x="374.5" y="-89.8" font-family="Times,serif" font-size="14.00">num_extrinsics</text>
<polygon fill="none" stroke="black" points="204,-62 204,-83 229,-83 229,-62 204,-62"/>
<text text-anchor="start" x="210.5" y="-68.8" font-family="Times,serif" font-size="14.00">...</text>
<polygon fill="none" stroke="black" points="229,-62 229,-83 257,-83 257,-62 229,-62"/>
<text text-anchor="start" x="237" y="-68.8" font-family="Times,serif" font-size="14.00">...</text>
<polygon fill="none" stroke="black" points="257,-62 257,-83 365,-83 365,-62 257,-62"/>
<text text-anchor="start" x="261" y="-68.8" font-family="Times,serif" font-size="14.00">MetadataExtrinsic</text>
<polygon fill="none" stroke="black" points="365,-62 365,-83 468,-83 468,-62 365,-62"/>
<text text-anchor="start" x="390.5" y="-68.8" font-family="Times,serif" font-size="14.00">extrinsics</text>
<polygon fill="none" stroke="black" points="204,-41 204,-62 468,-62 468,-41 204,-41"/>
<text text-anchor="start" x="242.5" y="-47.8" font-family="Times,serif" font-size="14.00">repeat num_extrinsics.value times</text>
<polygon fill="none" stroke="black" points="204,-20 204,-41 229,-41 229,-20 204,-20"/>
<text text-anchor="start" x="210.5" y="-26.8" font-family="Times,serif" font-size="14.00">...</text>
<polygon fill="none" stroke="black" points="229,-20 229,-41 257,-41 257,-20 229,-20"/>
<text text-anchor="start" x="237" y="-26.8" font-family="Times,serif" font-size="14.00">...</text>
<polygon fill="none" stroke="black" points="257,-20 257,-41 365,-41 365,-20 257,-20"/>
<text text-anchor="start" x="260" y="-26.8" font-family="Times,serif" font-size="14.00">Scale::CompactInt</text>
<polygon fill="none" stroke="black" points="365,-20 365,-41 468,-41 468,-20 365,-20"/>
<text text-anchor="start" x="380" y="-26.8" font-family="Times,serif" font-size="14.00">runtime_type</text>
</g>
<!-- compact_int__seq -->
<g id="node2" class="node">
<title>compact_int__seq</title>
<text text-anchor="middle" x="587.5" y="-125.3" font-family="Times,serif" font-size="14.00">compact_int__seq</text>
</g>
<!-- metadata__seq&#45;&gt;compact_int__seq -->
<g id="edge1" class="edge">
<title>metadata__seq:num_types_type&#45;&gt;compact_int__seq</title>
<path fill="none" stroke="black" stroke-width="2" d="M469,-262C519.84,-262 475.38,-191.27 512,-156 514.5,-153.6 517.22,-151.4 520.11,-149.41"/>
<polygon fill="black" stroke="black" stroke-width="2" points="520.38,-153.32 527.19,-145.2 516.8,-147.3 520.38,-153.32"/>
</g>
<!-- metadata__seq&#45;&gt;compact_int__seq -->
<g id="edge4" class="edge">
<title>metadata__seq:num_pallets_type&#45;&gt;compact_int__seq</title>
<path fill="none" stroke="black" stroke-width="2" d="M469,-199C496.03,-199 489.2,-170.51 512,-156 514.39,-154.48 516.87,-153.03 519.42,-151.65"/>
<polygon fill="black" stroke="black" stroke-width="2" points="519.39,-155.57 526.81,-148.01 516.29,-149.3 519.39,-155.57"/>
</g>
<!-- metadata__seq&#45;&gt;compact_int__seq -->
<g id="edge7" class="edge">
<title>metadata__seq:extrinsic_type_type&#45;&gt;compact_int__seq</title>
<path fill="none" stroke="black" stroke-width="2" d="M469,-135C485.1,-135 502.42,-134.43 518.69,-133.64"/>
<polygon fill="black" stroke="black" stroke-width="2" points="516.93,-137.24 526.73,-133.23 516.56,-130.25 516.93,-137.24"/>
</g>
<!-- metadata__seq&#45;&gt;compact_int__seq -->
<g id="edge8" class="edge">
<title>metadata__seq:num_extrinsics_type&#45;&gt;compact_int__seq</title>
<path fill="none" stroke="black" stroke-width="2" d="M469,-93C492.15,-93 516.78,-99.47 537.48,-106.92"/>
<polygon fill="black" stroke="black" stroke-width="2" points="534.81,-109.65 545.4,-109.93 537.3,-103.1 534.81,-109.65"/>
</g>
<!-- metadata__seq&#45;&gt;compact_int__seq -->
<g id="edge11" class="edge">
<title>metadata__seq:runtime_type_type&#45;&gt;compact_int__seq</title>
<path fill="none" stroke="black" stroke-width="2" d="M469,-30C505.13,-30 484.32,-75.77 512,-99 514.78,-101.33 517.76,-103.5 520.87,-105.51"/>
<polygon fill="black" stroke="black" stroke-width="2" points="517.52,-107.61 527.93,-109.58 521.02,-101.55 517.52,-107.61"/>
</g>
<!-- metadata_type__seq -->
<g id="node3" class="node">
<title>metadata_type__seq</title>
<text text-anchor="middle" x="587.5" y="-237.3" font-family="Times,serif" font-size="14.00">metadata_type__seq</text>
</g>
<!-- metadata__seq&#45;&gt;metadata_type__seq -->
<g id="edge2" class="edge">
<title>metadata__seq:types_type&#45;&gt;metadata_type__seq</title>
<path fill="none" stroke="black" stroke-width="2" d="M469,-241C483,-241 497.95,-241 512.32,-241"/>
<polygon fill="black" stroke="black" stroke-width="2" points="510.66,-244.5 520.66,-241 510.66,-237.5 510.66,-244.5"/>
</g>
<!-- metadata_pallet__seq -->
<g id="node5" class="node">
<title>metadata_pallet__seq</title>
<text text-anchor="middle" x="587.5" y="-179.3" font-family="Times,serif" font-size="14.00">metadata_pallet__seq</text>
</g>
<!-- metadata__seq&#45;&gt;metadata_pallet__seq -->
<g id="edge5" class="edge">
<title>metadata__seq:pallets_type&#45;&gt;metadata_pallet__seq</title>
<path fill="none" stroke="black" stroke-width="2" d="M469,-177C482.09,-177 495.98,-177.38 509.46,-177.94"/>
<polygon fill="black" stroke="black" stroke-width="2" points="507.48,-181.35 517.63,-178.31 507.8,-174.36 507.48,-181.35"/>
</g>
<!-- metadata_extrinsic__seq -->
<g id="node6" class="node">
<title>metadata_extrinsic__seq</title>
<text text-anchor="middle" x="587.5" y="-68.3" font-family="Times,serif" font-size="14.00">metadata_extrinsic__seq</text>
</g>
<!-- metadata__seq&#45;&gt;metadata_extrinsic__seq -->
<g id="edge9" class="edge">
<title>metadata__seq:extrinsics_type&#45;&gt;metadata_extrinsic__seq</title>
<path fill="none" stroke="black" stroke-width="2" d="M469,-72C479.37,-72 490.26,-72 501.04,-72"/>
<polygon fill="black" stroke="black" stroke-width="2" points="499.2,-75.5 509.2,-72 499.2,-68.5 499.2,-75.5"/>
</g>
<!-- compact_int__inst__value -->
<g id="node4" class="node">
<title>compact_int__inst__value</title>
<text text-anchor="middle" x="80" y="-152.3" font-family="Times,serif" font-size="14.00">compact_int__inst__value</text>
</g>
<!-- compact_int__inst__value&#45;&gt;metadata__seq -->
<g id="edge3" class="edge">
<title>compact_int__inst__value:value_type&#45;&gt;metadata__seq:types__repeat</title>
<path fill="none" stroke="#404040" d="M100.5,-173.83C121.17,-190.99 155.75,-214.97 191.78,-219.31"/>
<polygon fill="#404040" stroke="#404040" points="191.29,-222.79 201.49,-219.91 191.72,-215.8 191.29,-222.79"/>
</g>
<!-- compact_int__inst__value&#45;&gt;metadata__seq -->
<g id="edge6" class="edge">
<title>compact_int__inst__value:value_type&#45;&gt;metadata__seq:pallets__repeat</title>
<path fill="none" stroke="#404040" d="M159.75,-156C170.32,-156 181.15,-156 191.7,-156"/>
<polygon fill="#404040" stroke="#404040" points="191.49,-159.5 201.49,-156 191.49,-152.5 191.49,-159.5"/>
</g>
<!-- compact_int__inst__value&#45;&gt;metadata__seq -->
<g id="edge10" class="edge">
<title>compact_int__inst__value:value_type&#45;&gt;metadata__seq:extrinsics__repeat</title>
<path fill="none" stroke="#404040" d="M90.84,-138.19C107.56,-110.4 144.33,-59.13 191.73,-51.86"/>
<polygon fill="#404040" stroke="#404040" points="191.79,-55.37 201.49,-51.12 191.25,-48.39 191.79,-55.37"/>
</g>
</g>
</svg>
