<?xml version="1.0" encoding="UTF-8" standalone="no"?>
<!DOCTYPE svg PUBLIC "-//W3C//DTD SVG 1.1//EN"
 "http://www.w3.org/Graphics/SVG/1.1/DTD/svg11.dtd">
<!-- Generated by graphviz version 8.0.2 (20230410.1723)
 -->
<!-- Pages: 1 -->
<svg width="975pt" height="383pt" viewBox="0.00 0.00 975.00 383.00" xmlns="http://www.w3.org/2000/svg" xmlns:xlink="http://www.w3.org/1999/xlink">
<g id="graph0" class="graph" transform="scale(1 1) rotate(0) translate(4 379)">
<polygon fill="white" stroke="none" points="-4,4 -4,-379 971,-379 971,4 -4,4"/>
<g id="clust1" class="cluster">
<title>cluster__metadata_type</title>
<polygon fill="white" stroke="black" stroke-dasharray="1,5" points="188,-152 188,-367 788,-367 788,-152 188,-152"/>
<text text-anchor="middle" x="488" y="-351.8" font-family="Times,serif" font-size="14.00">MetadataType</text>
</g>
<g id="clust2" class="cluster">
<title>cluster__param</title>
<polygon fill="white" stroke="black" stroke-dasharray="1,5" points="512,-193 512,-304 780,-304 780,-193 512,-193"/>
<text text-anchor="middle" x="646" y="-288.8" font-family="Times,serif" font-size="14.00">MetadataType::Param</text>
</g>
<!-- metadata_type__seq -->
<g id="node1" class="node">
<title>metadata_type__seq</title>
<polygon fill="#e6007a4f" stroke="none" points="204,-311 204,-332 229,-332 229,-311 204,-311"/>
<polygon fill="none" stroke="black" points="204,-311 204,-332 229,-332 229,-311 204,-311"/>
<text text-anchor="start" x="207" y="-317.8" font-family="Times,serif" font-size="14.00">pos</text>
<polygon fill="#e6007a4f" stroke="none" points="229,-311 229,-332 257,-332 257,-311 229,-311"/>
<polygon fill="none" stroke="black" points="229,-311 229,-332 257,-332 257,-311 229,-311"/>
<text text-anchor="start" x="232" y="-317.8" font-family="Times,serif" font-size="14.00">size</text>
<polygon fill="#e6007a4f" stroke="none" points="257,-311 257,-332 398,-332 398,-311 257,-311"/>
<polygon fill="none" stroke="black" points="257,-311 257,-332 398,-332 398,-311 257,-311"/>
<text text-anchor="start" x="315.5" y="-317.8" font-family="Times,serif" font-size="14.00">type</text>
<polygon fill="#e6007a4f" stroke="none" points="398,-311 398,-332 476,-332 476,-311 398,-311"/>
<polygon fill="none" stroke="black" points="398,-311 398,-332 476,-332 476,-311 398,-311"/>
<text text-anchor="start" x="431.5" y="-317.8" font-family="Times,serif" font-size="14.00">id</text>
<polygon fill="none" stroke="black" points="204,-290 204,-311 229,-311 229,-290 204,-290"/>
<text text-anchor="start" x="213" y="-296.8" font-family="Times,serif" font-size="14.00">0</text>
<polygon fill="none" stroke="black" points="229,-290 229,-311 257,-311 257,-290 229,-290"/>
<text text-anchor="start" x="237" y="-296.8" font-family="Times,serif" font-size="14.00">...</text>
<polygon fill="none" stroke="black" points="257,-290 257,-311 398,-311 398,-290 257,-290"/>
<text text-anchor="start" x="276.5" y="-296.8" font-family="Times,serif" font-size="14.00">Scale::CompactInt</text>
<polygon fill="none" stroke="black" points="398,-290 398,-311 476,-311 476,-290 398,-290"/>
<text text-anchor="start" x="431.5" y="-296.8" font-family="Times,serif" font-size="14.00">id</text>
<polygon fill="none" stroke="black" points="204,-269 204,-290 229,-290 229,-269 204,-269"/>
<text text-anchor="start" x="210.5" y="-275.8" font-family="Times,serif" font-size="14.00">...</text>
<polygon fill="none" stroke="black" points="229,-269 229,-290 257,-290 257,-269 229,-269"/>
<text text-anchor="start" x="237" y="-275.8" font-family="Times,serif" font-size="14.00">...</text>
<polygon fill="none" stroke="black" points="257,-269 257,-290 398,-290 398,-269 257,-269"/>
<text text-anchor="start" x="282" y="-275.8" font-family="Times,serif" font-size="14.00">Scale::StringList</text>
<polygon fill="none" stroke="black" points="398,-269 398,-290 476,-290 476,-269 398,-269"/>
<text text-anchor="start" x="425" y="-275.8" font-family="Times,serif" font-size="14.00">path</text>
<polygon fill="none" stroke="black" points="204,-248 204,-269 229,-269 229,-248 204,-248"/>
<text text-anchor="start" x="210.5" y="-254.8" font-family="Times,serif" font-size="14.00">...</text>
<polygon fill="none" stroke="black" points="229,-248 229,-269 257,-269 257,-248 229,-248"/>
<text text-anchor="start" x="237" y="-254.8" font-family="Times,serif" font-size="14.00">...</text>
<polygon fill="none" stroke="black" points="257,-248 257,-269 398,-269 398,-248 257,-248"/>
<text text-anchor="start" x="276.5" y="-254.8" font-family="Times,serif" font-size="14.00">Scale::CompactInt</text>
<polygon fill="none" stroke="black" points="398,-248 398,-269 476,-269 476,-248 398,-248"/>
<text text-anchor="start" x="401" y="-254.8" font-family="Times,serif" font-size="14.00">num_params</text>
<polygon fill="none" stroke="black" points="204,-227 204,-248 229,-248 229,-227 204,-227"/>
<text text-anchor="start" x="210.5" y="-233.8" font-family="Times,serif" font-size="14.00">...</text>
<polygon fill="none" stroke="black" points="229,-227 229,-248 257,-248 257,-227 229,-227"/>
<text text-anchor="start" x="237" y="-233.8" font-family="Times,serif" font-size="14.00">...</text>
<polygon fill="none" stroke="black" points="257,-227 257,-248 398,-248 398,-227 257,-227"/>
<text text-anchor="start" x="309.5" y="-233.8" font-family="Times,serif" font-size="14.00">Param</text>
<polygon fill="none" stroke="black" points="398,-227 398,-248 476,-248 476,-227 398,-227"/>
<text text-anchor="start" x="417" y="-233.8" font-family="Times,serif" font-size="14.00">params</text>
<polygon fill="none" stroke="black" points="204,-206 204,-227 476,-227 476,-206 204,-206"/>
<text text-anchor="start" x="252.5" y="-212.8" font-family="Times,serif" font-size="14.00">repeat num_params.value times</text>
<polygon fill="none" stroke="black" points="204,-185 204,-206 229,-206 229,-185 204,-185"/>
<text text-anchor="start" x="210.5" y="-191.8" font-family="Times,serif" font-size="14.00">...</text>
<polygon fill="none" stroke="black" points="229,-185 229,-206 257,-206 257,-185 229,-185"/>
<text text-anchor="start" x="237" y="-191.8" font-family="Times,serif" font-size="14.00">...</text>
<polygon fill="none" stroke="black" points="257,-185 257,-206 398,-206 398,-185 257,-185"/>
<text text-anchor="start" x="260" y="-191.8" font-family="Times,serif" font-size="14.00">MetadataTypeDefinition</text>
<polygon fill="none" stroke="black" points="398,-185 398,-206 476,-206 476,-185 398,-185"/>
<text text-anchor="start" x="410.5" y="-191.8" font-family="Times,serif" font-size="14.00">definition</text>
<polygon fill="none" stroke="black" points="204,-164 204,-185 229,-185 229,-164 204,-164"/>
<text text-anchor="start" x="210.5" y="-170.8" font-family="Times,serif" font-size="14.00">...</text>
<polygon fill="none" stroke="black" points="229,-164 229,-185 257,-185 257,-164 229,-164"/>
<text text-anchor="start" x="237" y="-170.8" font-family="Times,serif" font-size="14.00">...</text>
<polygon fill="none" stroke="black" points="257,-164 257,-185 398,-185 398,-164 257,-164"/>
<text text-anchor="start" x="282" y="-170.8" font-family="Times,serif" font-size="14.00">Scale::StringList</text>
<polygon fill="none" stroke="black" points="398,-164 398,-185 476,-185 476,-164 398,-164"/>
<text text-anchor="start" x="424.5" y="-170.8" font-family="Times,serif" font-size="14.00">docs</text>
</g>
<!-- param__seq -->
<g id="node2" class="node">
<title>param__seq</title>
<polygon fill="#e6007a4f" stroke="none" points="528,-247.5 528,-268.5 553,-268.5 553,-247.5 528,-247.5"/>
<polygon fill="none" stroke="black" points="528,-247.5 528,-268.5 553,-268.5 553,-247.5 528,-247.5"/>
<text text-anchor="start" x="531" y="-254.3" font-family="Times,serif" font-size="14.00">pos</text>
<polygon fill="#e6007a4f" stroke="none" points="553,-247.5 553,-268.5 581,-268.5 581,-247.5 553,-247.5"/>
<polygon fill="none" stroke="black" points="553,-247.5 553,-268.5 581,-268.5 581,-247.5 553,-247.5"/>
<text text-anchor="start" x="556" y="-254.3" font-family="Times,serif" font-size="14.00">size</text>
<polygon fill="#e6007a4f" stroke="none" points="581,-247.5 581,-268.5 727,-268.5 727,-247.5 581,-247.5"/>
<polygon fill="none" stroke="black" points="581,-247.5 581,-268.5 727,-268.5 727,-247.5 581,-247.5"/>
<text text-anchor="start" x="642" y="-254.3" font-family="Times,serif" font-size="14.00">type</text>
<polygon fill="#e6007a4f" stroke="none" points="727,-247.5 727,-268.5 764,-268.5 764,-247.5 727,-247.5"/>
<polygon fill="none" stroke="black" points="727,-247.5 727,-268.5 764,-268.5 764,-247.5 727,-247.5"/>
<text text-anchor="start" x="740" y="-254.3" font-family="Times,serif" font-size="14.00">id</text>
<polygon fill="none" stroke="black" points="528,-226.5 528,-247.5 553,-247.5 553,-226.5 528,-226.5"/>
<text text-anchor="start" x="537" y="-233.3" font-family="Times,serif" font-size="14.00">0</text>
<polygon fill="none" stroke="black" points="553,-226.5 553,-247.5 581,-247.5 581,-226.5 553,-226.5"/>
<text text-anchor="start" x="561" y="-233.3" font-family="Times,serif" font-size="14.00">...</text>
<polygon fill="none" stroke="black" points="581,-226.5 581,-247.5 727,-247.5 727,-226.5 581,-226.5"/>
<text text-anchor="start" x="619" y="-233.3" font-family="Times,serif" font-size="14.00">Scale::String</text>
<polygon fill="none" stroke="black" points="727,-226.5 727,-247.5 764,-247.5 764,-226.5 727,-226.5"/>
<text text-anchor="start" x="730" y="-233.3" font-family="Times,serif" font-size="14.00">name</text>
<polygon fill="none" stroke="black" points="528,-205.5 528,-226.5 553,-226.5 553,-205.5 528,-205.5"/>
<text text-anchor="start" x="534.5" y="-212.3" font-family="Times,serif" font-size="14.00">...</text>
<polygon fill="none" stroke="black" points="553,-205.5 553,-226.5 581,-226.5 581,-205.5 553,-205.5"/>
<text text-anchor="start" x="561" y="-212.3" font-family="Times,serif" font-size="14.00">...</text>
<polygon fill="none" stroke="black" points="581,-205.5 581,-226.5 727,-226.5 727,-205.5 581,-205.5"/>
<text text-anchor="start" x="584" y="-212.3" font-family="Times,serif" font-size="14.00">Scale::MaybeCompactInt</text>
<polygon fill="none" stroke="black" points="727,-205.5 727,-226.5 764,-226.5 764,-205.5 727,-205.5"/>
<text text-anchor="start" x="733.5" y="-212.3" font-family="Times,serif" font-size="14.00">type</text>
</g>
<!-- metadata_type__seq&#45;&gt;param__seq -->
<g id="edge4" class="edge">
<title>metadata_type__seq:params_type-&gt;param__seq</title>
<path fill="none" stroke="black" stroke-width="2" d="M477,-237C487.5,-237 498.37,-237 509.3,-237"/>
<polygon fill="black" stroke="black" stroke-width="2" points="507.23,-240.5 517.23,-237 507.23,-233.5 507.23,-240.5"/>
</g>
<!-- compact_int__seq -->

<!-- metadata_type__seq&#45;&gt;compact_int__seq -->

<!-- metadata_type__seq&#45;&gt;compact_int__seq -->

<!-- string_list__seq -->

<!-- metadata_type__seq&#45;&gt;string_list__seq -->

<!-- metadata_type__seq&#45;&gt;string_list__seq -->

<!-- metadata_type_definition__seq -->
<g id="node6" class="node">
<title>metadata_type_definition__seq</title>
<text text-anchor="middle" x="646" y="-14.3" font-family="Times,serif" font-size="14.00">
              <a xlink:href="sect-metadata#img-metadata-type-definition" xlink:title="MetadataTypeDefinition">
                MetadataTypeDefinition
              </a>
            </text>
</g>
<!-- metadata_type__seq&#45;&gt;metadata_type_definition__seq -->
<g id="edge6" class="edge">
<title>metadata_type__seq:definition_type-&gt;metadata_type_definition__seq</title>
<path fill="none" stroke="black" stroke-width="2" d="M477,-195C545.46,-195 462.9,-92.7 512,-45 520.69,-36.56 531.26,-30.41 542.6,-25.99"/>
<polygon fill="black" stroke="black" stroke-width="2" points="542.4,-29.08 550.74,-22.53 540.14,-22.45 542.4,-29.08"/>
</g>
<!-- string__seq -->

<!-- param__seq&#45;&gt;string__seq -->

<!-- maybe_compact_int__seq -->

<!-- param__seq&#45;&gt;maybe_compact_int__seq -->

<!-- compact_int__inst__value -->

<!-- compact_int__inst__value&#45;&gt;metadata_type__seq -->

</g>
</svg>
