<?xml version="1.0" encoding="UTF-8" standalone="no"?>
<!DOCTYPE svg PUBLIC "-//W3C//DTD SVG 1.1//EN"
 "http://www.w3.org/Graphics/SVG/1.1/DTD/svg11.dtd">
<!-- Generated by graphviz version 8.0.2 (20230410.1723)
 -->
<!-- Pages: 1 -->
<svg width="948pt" height="252pt" viewBox="0.00 0.00 948.00 252.00" xmlns="http://www.w3.org/2000/svg" xmlns:xlink="http://www.w3.org/1999/xlink">
<g id="graph0" class="graph" transform="scale(1 1) rotate(0) translate(4 248)">
<polygon fill="white" stroke="none" points="-4,4 -4,-248 944,-248 944,4 -4,4"/>
<g id="clust1" class="cluster">
<title>cluster__metadata_type_variants</title>
<polygon fill="white" stroke="black" stroke-dasharray="1,5" points="188,-44 188,-236 756,-236 756,-44 188,-44"/>
<text text-anchor="middle" x="472" y="-220.8" font-family="Times,serif" font-size="14.00">MetadataTypeVariants</text>
</g>
<g id="clust2" class="cluster">
<title>cluster__variant</title>
<polygon fill="white" stroke="black" stroke-dasharray="1,5" points="482,-52 482,-205 748,-205 748,-52 482,-52"/>
<text text-anchor="middle" x="615" y="-189.8" font-family="Times,serif" font-size="14.00">MetadataTypeVariants::Variant</text>
</g>
<!-- metadata_type_variants__seq -->
<g id="node1" class="node">
<title>metadata_type_variants__seq</title>
<polygon fill="#e6007a4f" stroke="none" points="204,-134 204,-155 229,-155 229,-134 204,-134"/>
<polygon fill="none" stroke="black" points="204,-134 204,-155 229,-155 229,-134 204,-134"/>
<text text-anchor="start" x="207" y="-140.8" font-family="Times,serif" font-size="14.00">pos</text>
<polygon fill="#e6007a4f" stroke="none" points="229,-134 229,-155 257,-155 257,-134 229,-134"/>
<polygon fill="none" stroke="black" points="229,-134 229,-155 257,-155 257,-134 229,-134"/>
<text text-anchor="start" x="232" y="-140.8" font-family="Times,serif" font-size="14.00">size</text>
<polygon fill="#e6007a4f" stroke="none" points="257,-134 257,-155 365,-155 365,-134 257,-134"/>
<polygon fill="none" stroke="black" points="257,-134 257,-155 365,-155 365,-134 257,-134"/>
<text text-anchor="start" x="299" y="-140.8" font-family="Times,serif" font-size="14.00">type</text>
<polygon fill="#e6007a4f" stroke="none" points="365,-134 365,-155 446,-155 446,-134 365,-134"/>
<polygon fill="none" stroke="black" points="365,-134 365,-155 446,-155 446,-134 365,-134"/>
<text text-anchor="start" x="400" y="-140.8" font-family="Times,serif" font-size="14.00">id</text>
<polygon fill="none" stroke="black" points="204,-113 204,-134 229,-134 229,-113 204,-113"/>
<text text-anchor="start" x="213" y="-119.8" font-family="Times,serif" font-size="14.00">0</text>
<polygon fill="none" stroke="black" points="229,-113 229,-134 257,-134 257,-113 229,-113"/>
<text text-anchor="start" x="237" y="-119.8" font-family="Times,serif" font-size="14.00">...</text>
<polygon fill="none" stroke="black" points="257,-113 257,-134 365,-134 365,-113 257,-113"/>
<text text-anchor="start" x="260" y="-119.8" font-family="Times,serif" font-size="14.00">Scale::CompactInt</text>
<polygon fill="none" stroke="black" points="365,-113 365,-134 446,-134 446,-113 365,-113"/>
<text text-anchor="start" x="368" y="-119.8" font-family="Times,serif" font-size="14.00">num_variants</text>
<polygon fill="none" stroke="black" points="204,-92 204,-113 229,-113 229,-92 204,-92"/>
<text text-anchor="start" x="210.5" y="-98.8" font-family="Times,serif" font-size="14.00">...</text>
<polygon fill="none" stroke="black" points="229,-92 229,-113 257,-113 257,-92 229,-92"/>
<text text-anchor="start" x="237" y="-98.8" font-family="Times,serif" font-size="14.00">...</text>
<polygon fill="none" stroke="black" points="257,-92 257,-113 365,-113 365,-92 257,-92"/>
<text text-anchor="start" x="291" y="-98.8" font-family="Times,serif" font-size="14.00">Variant</text>
<polygon fill="none" stroke="black" points="365,-92 365,-113 446,-113 446,-92 365,-92"/>
<text text-anchor="start" x="384" y="-98.8" font-family="Times,serif" font-size="14.00">variants</text>
<polygon fill="none" stroke="black" points="204,-71 204,-92 446,-92 446,-71 204,-71"/>
<text text-anchor="start" x="236" y="-77.8" font-family="Times,serif" font-size="14.00">repeat num_variants.value times</text>
</g>
<!-- variant__seq -->
<g id="node2" class="node">
<title>variant__seq</title>
<polygon fill="#e6007a4f" stroke="none" points="498,-148.5 498,-169.5 523,-169.5 523,-148.5 498,-148.5"/>
<polygon fill="none" stroke="black" points="498,-148.5 498,-169.5 523,-169.5 523,-148.5 498,-148.5"/>
<text text-anchor="start" x="501" y="-155.3" font-family="Times,serif" font-size="14.00">pos</text>
<polygon fill="#e6007a4f" stroke="none" points="523,-148.5 523,-169.5 551,-169.5 551,-148.5 523,-148.5"/>
<polygon fill="none" stroke="black" points="523,-148.5 523,-169.5 551,-169.5 551,-148.5 523,-148.5"/>
<text text-anchor="start" x="526" y="-155.3" font-family="Times,serif" font-size="14.00">size</text>
<polygon fill="#e6007a4f" stroke="none" points="551,-148.5 551,-169.5 669,-169.5 669,-148.5 551,-148.5"/>
<polygon fill="none" stroke="black" points="551,-148.5 551,-169.5 669,-169.5 669,-148.5 551,-148.5"/>
<text text-anchor="start" x="598" y="-155.3" font-family="Times,serif" font-size="14.00">type</text>
<polygon fill="#e6007a4f" stroke="none" points="669,-148.5 669,-169.5 732,-169.5 732,-148.5 669,-148.5"/>
<polygon fill="none" stroke="black" points="669,-148.5 669,-169.5 732,-169.5 732,-148.5 669,-148.5"/>
<text text-anchor="start" x="695" y="-155.3" font-family="Times,serif" font-size="14.00">id</text>
<polygon fill="none" stroke="black" points="498,-127.5 498,-148.5 523,-148.5 523,-127.5 498,-127.5"/>
<text text-anchor="start" x="507" y="-134.3" font-family="Times,serif" font-size="14.00">0</text>
<polygon fill="none" stroke="black" points="523,-127.5 523,-148.5 551,-148.5 551,-127.5 523,-127.5"/>
<text text-anchor="start" x="531" y="-134.3" font-family="Times,serif" font-size="14.00">...</text>
<polygon fill="none" stroke="black" points="551,-127.5 551,-148.5 669,-148.5 669,-127.5 551,-127.5"/>
<text text-anchor="start" x="575" y="-134.3" font-family="Times,serif" font-size="14.00">Scale::String</text>
<polygon fill="none" stroke="black" points="669,-127.5 669,-148.5 732,-148.5 732,-127.5 669,-127.5"/>
<text text-anchor="start" x="685" y="-134.3" font-family="Times,serif" font-size="14.00">name</text>
<polygon fill="none" stroke="black" points="498,-106.5 498,-127.5 523,-127.5 523,-106.5 498,-106.5"/>
<text text-anchor="start" x="504.5" y="-113.3" font-family="Times,serif" font-size="14.00">...</text>
<polygon fill="none" stroke="black" points="523,-106.5 523,-127.5 551,-127.5 551,-106.5 523,-106.5"/>
<text text-anchor="start" x="531" y="-113.3" font-family="Times,serif" font-size="14.00">...</text>
<polygon fill="none" stroke="black" points="551,-106.5 551,-127.5 669,-127.5 669,-106.5 551,-106.5"/>
<text text-anchor="start" x="554" y="-113.3" font-family="Times,serif" font-size="14.00">MetadataTypeFields</text>
<polygon fill="none" stroke="black" points="669,-106.5 669,-127.5 732,-127.5 732,-106.5 669,-106.5"/>
<text text-anchor="start" x="672" y="-113.3" font-family="Times,serif" font-size="14.00">composite</text>
<polygon fill="none" stroke="black" points="498,-85.5 498,-106.5 523,-106.5 523,-85.5 498,-85.5"/>
<text text-anchor="start" x="504.5" y="-92.3" font-family="Times,serif" font-size="14.00">...</text>
<polygon fill="none" stroke="black" points="523,-85.5 523,-106.5 551,-106.5 551,-85.5 523,-85.5"/>
<text text-anchor="start" x="533.5" y="-92.3" font-family="Times,serif" font-size="14.00">1</text>
<polygon fill="none" stroke="black" points="551,-85.5 551,-106.5 669,-106.5 669,-85.5 551,-85.5"/>
<text text-anchor="start" x="603" y="-92.3" font-family="Times,serif" font-size="14.00">u1</text>
<polygon fill="none" stroke="black" points="669,-85.5 669,-106.5 732,-106.5 732,-85.5 669,-85.5"/>
<text text-anchor="start" x="685" y="-92.3" font-family="Times,serif" font-size="14.00">index</text>
<polygon fill="none" stroke="black" points="498,-64.5 498,-85.5 523,-85.5 523,-64.5 498,-64.5"/>
<text text-anchor="start" x="504.5" y="-71.3" font-family="Times,serif" font-size="14.00">...</text>
<polygon fill="none" stroke="black" points="523,-64.5 523,-85.5 551,-85.5 551,-64.5 523,-64.5"/>
<text text-anchor="start" x="531" y="-71.3" font-family="Times,serif" font-size="14.00">...</text>
<polygon fill="none" stroke="black" points="551,-64.5 551,-85.5 669,-85.5 669,-64.5 551,-64.5"/>
<text text-anchor="start" x="564.5" y="-71.3" font-family="Times,serif" font-size="14.00">Scale::StringList</text>
<polygon fill="none" stroke="black" points="669,-64.5 669,-85.5 732,-85.5 732,-64.5 669,-64.5"/>
<text text-anchor="start" x="688" y="-71.3" font-family="Times,serif" font-size="14.00">docs</text>
</g>
<!-- metadata_type_variants__seq&#45;&gt;variant__seq -->
<g id="edge2" class="edge">
<title>metadata_type_variants__seq:variants_type-&gt;variant__seq</title>
<path fill="none" stroke="black" stroke-width="2" d="M447,-102C457.48,-102 468.31,-102.3 479.2,-102.81"/>
<polygon fill="black" stroke="black" stroke-width="2" points="476.91,-106.35 487.08,-103.38 477.28,-99.36 476.91,-106.35"/>
</g>
<!-- compact_int__seq -->

<!-- metadata_type_variants__seq&#45;&gt;compact_int__seq -->

<!-- string__seq -->

<!-- variant__seq&#45;&gt;string__seq -->

<!-- metadata_type_fields__seq -->
<g id="node6" class="node">
<title>metadata_type_fields__seq</title>
<text text-anchor="middle" x="858" y="-113.3" font-family="Times,serif" font-size="14.00">
              <a xlink:href="sect-metadata#img-metadata-type-fields" xlink:title="MetadataTypeFields">
                MetadataTypeFields
              </a>
            </text>
</g>
<!-- variant__seq&#45;&gt;metadata_type_fields__seq -->
<g id="edge5" class="edge">
<title>variant__seq:composite_type-&gt;metadata_type_fields__seq</title>
<path fill="none" stroke="black" stroke-width="2" d="M733,-117C743.49,-117 754.49,-117 765.41,-117"/>
<polygon fill="black" stroke="black" stroke-width="2" points="763.29,-120.5 773.29,-117 763.29,-113.5 763.29,-120.5"/>
</g>
<!-- string_list__seq -->

<!-- variant__seq&#45;&gt;string_list__seq -->

<!-- compact_int__inst__value -->

<!-- compact_int__inst__value&#45;&gt;metadata_type_variants__seq -->

</g>
</svg>
