<?xml version="1.0" encoding="UTF-8" standalone="no"?>
<!DOCTYPE svg PUBLIC "-//W3C//DTD SVG 1.1//EN"
 "http://www.w3.org/Graphics/SVG/1.1/DTD/svg11.dtd">
<!-- Generated by graphviz version 8.0.2 (20230410.1723)
 -->
<!-- Pages: 1 -->
<svg width="887pt" height="216pt" viewBox="0.00 0.00 887.00 216.00" xmlns="http://www.w3.org/2000/svg" xmlns:xlink="http://www.w3.org/1999/xlink">
<g id="graph0" class="graph" transform="scale(1 1) rotate(0) translate(4 212)">
<polygon fill="white" stroke="none" points="-4,4 -4,-212 883,-212 883,4 -4,4"/>
<g id="clust1" class="cluster">
<title>cluster__metadata_type_fields</title>
<polygon fill="white" stroke="black" stroke-dasharray="1,5" points="188,-8 188,-200 737,-200 737,-8 188,-8"/>
<text text-anchor="middle" x="462.5" y="-184.8" font-family="Times,serif" font-size="14.00">MetadataTypeFields</text>
</g>
<g id="clust2" class="cluster">
<title>cluster__field</title>
<polygon fill="white" stroke="black" stroke-dasharray="1,5" points="469,-16 469,-169 729,-169 729,-16 469,-16"/>
<text text-anchor="middle" x="599" y="-153.8" font-family="Times,serif" font-size="14.00">MetadataTypeFields::Field</text>
</g>
<!-- metadata_type_fields__seq -->
<g id="node1" class="node">
<title>metadata_type_fields__seq</title>
<polygon fill="#e6007a4f" stroke="none" points="204,-128 204,-149 229,-149 229,-128 204,-128"/>
<polygon fill="none" stroke="black" points="204,-128 204,-149 229,-149 229,-128 204,-128"/>
<text text-anchor="start" x="207" y="-134.8" font-family="Times,serif" font-size="14.00">pos</text>
<polygon fill="#e6007a4f" stroke="none" points="229,-128 229,-149 257,-149 257,-128 229,-128"/>
<polygon fill="none" stroke="black" points="229,-128 229,-149 257,-149 257,-128 229,-128"/>
<text text-anchor="start" x="232" y="-134.8" font-family="Times,serif" font-size="14.00">size</text>
<polygon fill="#e6007a4f" stroke="none" points="257,-128 257,-149 365,-149 365,-128 257,-128"/>
<polygon fill="none" stroke="black" points="257,-128 257,-149 365,-149 365,-128 257,-128"/>
<text text-anchor="start" x="299" y="-134.8" font-family="Times,serif" font-size="14.00">type</text>
<polygon fill="#e6007a4f" stroke="none" points="365,-128 365,-149 433,-149 433,-128 365,-128"/>
<polygon fill="none" stroke="black" points="365,-128 365,-149 433,-149 433,-128 365,-128"/>
<text text-anchor="start" x="393.5" y="-134.8" font-family="Times,serif" font-size="14.00">id</text>
<polygon fill="none" stroke="black" points="204,-107 204,-128 229,-128 229,-107 204,-107"/>
<text text-anchor="start" x="213" y="-113.8" font-family="Times,serif" font-size="14.00">0</text>
<polygon fill="none" stroke="black" points="229,-107 229,-128 257,-128 257,-107 229,-107"/>
<text text-anchor="start" x="237" y="-113.8" font-family="Times,serif" font-size="14.00">...</text>
<polygon fill="none" stroke="black" points="257,-107 257,-128 365,-128 365,-107 257,-107"/>
<text text-anchor="start" x="260" y="-113.8" font-family="Times,serif" font-size="14.00">Scale::CompactInt</text>
<polygon fill="none" stroke="black" points="365,-107 365,-128 433,-128 433,-107 365,-107"/>
<text text-anchor="start" x="368" y="-113.8" font-family="Times,serif" font-size="14.00">num_fields</text>
<polygon fill="none" stroke="black" points="204,-86 204,-107 229,-107 229,-86 204,-86"/>
<text text-anchor="start" x="210.5" y="-92.8" font-family="Times,serif" font-size="14.00">...</text>
<polygon fill="none" stroke="black" points="229,-86 229,-107 257,-107 257,-86 229,-86"/>
<text text-anchor="start" x="237" y="-92.8" font-family="Times,serif" font-size="14.00">...</text>
<polygon fill="none" stroke="black" points="257,-86 257,-107 365,-107 365,-86 257,-86"/>
<text text-anchor="start" x="297" y="-92.8" font-family="Times,serif" font-size="14.00">Field</text>
<polygon fill="none" stroke="black" points="365,-86 365,-107 433,-107 433,-86 365,-86"/>
<text text-anchor="start" x="383.5" y="-92.8" font-family="Times,serif" font-size="14.00">fields</text>
<polygon fill="none" stroke="black" points="204,-65 204,-86 433,-86 433,-65 204,-65"/>
<text text-anchor="start" x="235.5" y="-71.8" font-family="Times,serif" font-size="14.00">repeat num_fields.value times</text>
</g>
<!-- field__seq -->
<g id="node2" class="node">
<title>field__seq</title>
<polygon fill="#e6007a4f" stroke="none" points="485,-112.5 485,-133.5 510,-133.5 510,-112.5 485,-112.5"/>
<polygon fill="none" stroke="black" points="485,-112.5 485,-133.5 510,-133.5 510,-112.5 485,-112.5"/>
<text text-anchor="start" x="488" y="-119.3" font-family="Times,serif" font-size="14.00">pos</text>
<polygon fill="#e6007a4f" stroke="none" points="510,-112.5 510,-133.5 538,-133.5 538,-112.5 510,-112.5"/>
<polygon fill="none" stroke="black" points="510,-112.5 510,-133.5 538,-133.5 538,-112.5 510,-112.5"/>
<text text-anchor="start" x="513" y="-119.3" font-family="Times,serif" font-size="14.00">size</text>
<polygon fill="#e6007a4f" stroke="none" points="538,-112.5 538,-133.5 653,-133.5 653,-112.5 538,-112.5"/>
<polygon fill="none" stroke="black" points="538,-112.5 538,-133.5 653,-133.5 653,-112.5 538,-112.5"/>
<text text-anchor="start" x="583.5" y="-119.3" font-family="Times,serif" font-size="14.00">type</text>
<polygon fill="#e6007a4f" stroke="none" points="653,-112.5 653,-133.5 713,-133.5 713,-112.5 653,-112.5"/>
<polygon fill="none" stroke="black" points="653,-112.5 653,-133.5 713,-133.5 713,-112.5 653,-112.5"/>
<text text-anchor="start" x="677.5" y="-119.3" font-family="Times,serif" font-size="14.00">id</text>
<polygon fill="none" stroke="black" points="485,-91.5 485,-112.5 510,-112.5 510,-91.5 485,-91.5"/>
<text text-anchor="start" x="494" y="-98.3" font-family="Times,serif" font-size="14.00">0</text>
<polygon fill="none" stroke="black" points="510,-91.5 510,-112.5 538,-112.5 538,-91.5 510,-91.5"/>
<text text-anchor="start" x="518" y="-98.3" font-family="Times,serif" font-size="14.00">...</text>
<polygon fill="none" stroke="black" points="538,-91.5 538,-112.5 653,-112.5 653,-91.5 538,-91.5"/>
<text text-anchor="start" x="541" y="-98.3" font-family="Times,serif" font-size="14.00">Scale::MaybeString</text>
<polygon fill="none" stroke="black" points="653,-91.5 653,-112.5 713,-112.5 713,-91.5 653,-91.5"/>
<text text-anchor="start" x="667.5" y="-98.3" font-family="Times,serif" font-size="14.00">name</text>
<polygon fill="none" stroke="black" points="485,-70.5 485,-91.5 510,-91.5 510,-70.5 485,-70.5"/>
<text text-anchor="start" x="491.5" y="-77.3" font-family="Times,serif" font-size="14.00">...</text>
<polygon fill="none" stroke="black" points="510,-70.5 510,-91.5 538,-91.5 538,-70.5 510,-70.5"/>
<text text-anchor="start" x="518" y="-77.3" font-family="Times,serif" font-size="14.00">...</text>
<polygon fill="none" stroke="black" points="538,-70.5 538,-91.5 653,-91.5 653,-70.5 538,-70.5"/>
<text text-anchor="start" x="544.5" y="-77.3" font-family="Times,serif" font-size="14.00">Scale::CompactInt</text>
<polygon fill="none" stroke="black" points="653,-70.5 653,-91.5 713,-91.5 713,-70.5 653,-70.5"/>
<text text-anchor="start" x="671" y="-77.3" font-family="Times,serif" font-size="14.00">type</text>
<polygon fill="none" stroke="black" points="485,-49.5 485,-70.5 510,-70.5 510,-49.5 485,-49.5"/>
<text text-anchor="start" x="491.5" y="-56.3" font-family="Times,serif" font-size="14.00">...</text>
<polygon fill="none" stroke="black" points="510,-49.5 510,-70.5 538,-70.5 538,-49.5 510,-49.5"/>
<text text-anchor="start" x="518" y="-56.3" font-family="Times,serif" font-size="14.00">...</text>
<polygon fill="none" stroke="black" points="538,-49.5 538,-70.5 653,-70.5 653,-49.5 538,-49.5"/>
<text text-anchor="start" x="541" y="-56.3" font-family="Times,serif" font-size="14.00">Scale::MaybeString</text>
<polygon fill="none" stroke="black" points="653,-49.5 653,-70.5 713,-70.5 713,-49.5 653,-49.5"/>
<text text-anchor="start" x="656" y="-56.3" font-family="Times,serif" font-size="14.00">typename</text>
<polygon fill="none" stroke="black" points="485,-28.5 485,-49.5 510,-49.5 510,-28.5 485,-28.5"/>
<text text-anchor="start" x="491.5" y="-35.3" font-family="Times,serif" font-size="14.00">...</text>
<polygon fill="none" stroke="black" points="510,-28.5 510,-49.5 538,-49.5 538,-28.5 510,-28.5"/>
<text text-anchor="start" x="518" y="-35.3" font-family="Times,serif" font-size="14.00">...</text>
<polygon fill="none" stroke="black" points="538,-28.5 538,-49.5 653,-49.5 653,-28.5 538,-28.5"/>
<text text-anchor="start" x="550" y="-35.3" font-family="Times,serif" font-size="14.00">Scale::StringList</text>
<polygon fill="none" stroke="black" points="653,-28.5 653,-49.5 713,-49.5 713,-28.5 653,-28.5"/>
<text text-anchor="start" x="670.5" y="-35.3" font-family="Times,serif" font-size="14.00">docs</text>
</g>
<!-- metadata_type_fields__seq&#45;&gt;field__seq -->
<g id="edge2" class="edge">
<title>metadata_type_fields__seq:fields_type-&gt;field__seq</title>
<path fill="none" stroke="black" stroke-width="2" d="M434.5,-96C444.87,-96 455.59,-95.7 466.36,-95.18"/>
<polygon fill="black" stroke="black" stroke-width="2" points="464.34,-98.63 474.13,-94.59 463.95,-91.64 464.34,-98.63"/>
</g>
<!-- compact_int__seq -->

<!-- metadata_type_fields__seq&#45;&gt;compact_int__seq -->

<!-- field__seq&#45;&gt;compact_int__seq -->

<!-- maybe_string__seq -->

<!-- field__seq&#45;&gt;maybe_string__seq -->

<!-- field__seq&#45;&gt;maybe_string__seq -->

<!-- string_list__seq -->

<!-- field__seq&#45;&gt;string_list__seq -->

<!-- compact_int__inst__value -->

<!-- compact_int__inst__value&#45;&gt;metadata_type_fields__seq -->

</g>
</svg>
