<?xml version="1.0" encoding="UTF-8" standalone="no"?>
<!DOCTYPE svg PUBLIC "-//W3C//DTD SVG 1.1//EN"
 "http://www.w3.org/Graphics/SVG/1.1/DTD/svg11.dtd">
<!-- Generated by graphviz version 7.1.0 (20230121.1956)
 -->
<!-- Pages: 1 -->
<svg width="975pt" height="383pt"
 viewBox="0.00 0.00 975.00 383.00" xmlns="http://www.w3.org/2000/svg" xmlns:xlink="http://www.w3.org/1999/xlink">
<g id="graph0" class="graph" transform="scale(1 1) rotate(0) translate(4 379)">
<polygon fill="white" stroke="none" points="-4,4 -4,-379 971,-379 971,4 -4,4"/>
<g id="clust1" class="cluster">
<title>cluster__metadata_type</title>
<polygon fill="none" stroke="black" stroke-dasharray="1,5" points="188,-152 188,-367 788,-367 788,-152 188,-152"/>
<text text-anchor="middle" x="488" y="-351.8" font-family="Times,serif" font-size="14.00">MetadataType</text>
</g>
<g id="clust2" class="cluster">
<title>cluster__param</title>
<polygon fill="none" stroke="black" stroke-dasharray="1,5" points="512,-193 512,-304 780,-304 780,-193 512,-193"/>
<text text-anchor="middle" x="646" y="-288.8" font-family="Times,serif" font-size="14.00">MetadataType::Param</text>
</g>
<!-- metadata_type__seq -->
<g id="node1" class="node">
<title>metadata_type__seq</title>
<polygon fill="#e0ffe0" stroke="none" points="204,-311 204,-332 229,-332 229,-311 204,-311"/>
<polygon fill="none" stroke="black" points="204,-311 204,-332 229,-332 229,-311 204,-311"/>
<text text-anchor="start" x="207" y="-317.8" font-family="Times,serif" font-size="14.00">pos</text>
<polygon fill="#e0ffe0" stroke="none" points="229,-311 229,-332 257,-332 257,-311 229,-311"/>
<polygon fill="none" stroke="black" points="229,-311 229,-332 257,-332 257,-311 229,-311"/>
<text text-anchor="start" x="232" y="-317.8" font-family="Times,serif" font-size="14.00">size</text>
<polygon fill="#e0ffe0" stroke="none" points="257,-311 257,-332 398,-332 398,-311 257,-311"/>
<polygon fill="none" stroke="black" points="257,-311 257,-332 398,-332 398,-311 257,-311"/>
<text text-anchor="start" x="315.5" y="-317.8" font-family="Times,serif" font-size="14.00">type</text>
<polygon fill="#e0ffe0" stroke="none" points="398,-311 398,-332 476,-332 476,-311 398,-311"/>
<polygon fill="none" stroke="black" points="398,-311 398,-332 476,-332 476,-311 398,-311"/>
<text text-anchor="start" x="431.5" y="-317.8" font-family="Times,serif" font-size="14.00">id</text>
<polygon fill="none" stroke="black" points="204,-290 204,-311 229,-311 229,-290 204,-290"/>
<text text-anchor="start" x="213" y="-296.8" font-family="Times,serif" font-size="14.00">0</text>
<polygon fill="none" stroke="black" points="229,-290 229,-311 257,-311 257,-290 229,-290"/>
<text text-anchor="start" x="237" y="-296.8" font-family="Times,serif" font-size="14.00">...</text>
<polygon fill="none" stroke="black" points="257,-290 257,-311 398,-311 398,-290 257,-290"/>
<text text-anchor="start" x="276.5" y="-296.8" font-family="Times,serif" font-size="14.00">Scale::CompactInt</text>
<polygon fill="none" stroke="black" points="398,-290 398,-311 476,-311 476,-290 398,-290"/>
<text text-anchor="start" x="431.5" y="-296.8" font-family="Times,serif" font-size="14.00">id</text>
<polygon fill="none" stroke="black" points="204,-269 204,-290 229,-290 229,-269 204,-269"/>
<text text-anchor="start" x="210.5" y="-275.8" font-family="Times,serif" font-size="14.00">...</text>
<polygon fill="none" stroke="black" points="229,-269 229,-290 257,-290 257,-269 229,-269"/>
<text text-anchor="start" x="237" y="-275.8" font-family="Times,serif" font-size="14.00">...</text>
<polygon fill="none" stroke="black" points="257,-269 257,-290 398,-290 398,-269 257,-269"/>
<text text-anchor="start" x="282" y="-275.8" font-family="Times,serif" font-size="14.00">Scale::StringList</text>
<polygon fill="none" stroke="black" points="398,-269 398,-290 476,-290 476,-269 398,-269"/>
<text text-anchor="start" x="425" y="-275.8" font-family="Times,serif" font-size="14.00">path</text>
<polygon fill="none" stroke="black" points="204,-248 204,-269 229,-269 229,-248 204,-248"/>
<text text-anchor="start" x="210.5" y="-254.8" font-family="Times,serif" font-size="14.00">...</text>
<polygon fill="none" stroke="black" points="229,-248 229,-269 257,-269 257,-248 229,-248"/>
<text text-anchor="start" x="237" y="-254.8" font-family="Times,serif" font-size="14.00">...</text>
<polygon fill="none" stroke="black" points="257,-248 257,-269 398,-269 398,-248 257,-248"/>
<text text-anchor="start" x="276.5" y="-254.8" font-family="Times,serif" font-size="14.00">Scale::CompactInt</text>
<polygon fill="none" stroke="black" points="398,-248 398,-269 476,-269 476,-248 398,-248"/>
<text text-anchor="start" x="401" y="-254.8" font-family="Times,serif" font-size="14.00">num_params</text>
<polygon fill="none" stroke="black" points="204,-227 204,-248 229,-248 229,-227 204,-227"/>
<text text-anchor="start" x="210.5" y="-233.8" font-family="Times,serif" font-size="14.00">...</text>
<polygon fill="none" stroke="black" points="229,-227 229,-248 257,-248 257,-227 229,-227"/>
<text text-anchor="start" x="237" y="-233.8" font-family="Times,serif" font-size="14.00">...</text>
<polygon fill="none" stroke="black" points="257,-227 257,-248 398,-248 398,-227 257,-227"/>
<text text-anchor="start" x="309.5" y="-233.8" font-family="Times,serif" font-size="14.00">Param</text>
<polygon fill="none" stroke="black" points="398,-227 398,-248 476,-248 476,-227 398,-227"/>
<text text-anchor="start" x="417" y="-233.8" font-family="Times,serif" font-size="14.00">params</text>
<polygon fill="none" stroke="black" points="204,-206 204,-227 476,-227 476,-206 204,-206"/>
<text text-anchor="start" x="252.5" y="-212.8" font-family="Times,serif" font-size="14.00">repeat num_params.value times</text>
<polygon fill="none" stroke="black" points="204,-185 204,-206 229,-206 229,-185 204,-185"/>
<text text-anchor="start" x="210.5" y="-191.8" font-family="Times,serif" font-size="14.00">...</text>
<polygon fill="none" stroke="black" points="229,-185 229,-206 257,-206 257,-185 229,-185"/>
<text text-anchor="start" x="237" y="-191.8" font-family="Times,serif" font-size="14.00">...</text>
<polygon fill="none" stroke="black" points="257,-185 257,-206 398,-206 398,-185 257,-185"/>
<text text-anchor="start" x="260" y="-191.8" font-family="Times,serif" font-size="14.00">MetadataTypeDefinition</text>
<polygon fill="none" stroke="black" points="398,-185 398,-206 476,-206 476,-185 398,-185"/>
<text text-anchor="start" x="410.5" y="-191.8" font-family="Times,serif" font-size="14.00">definition</text>
<polygon fill="none" stroke="black" points="204,-164 204,-185 229,-185 229,-164 204,-164"/>
<text text-anchor="start" x="210.5" y="-170.8" font-family="Times,serif" font-size="14.00">...</text>
<polygon fill="none" stroke="black" points="229,-164 229,-185 257,-185 257,-164 229,-164"/>
<text text-anchor="start" x="237" y="-170.8" font-family="Times,serif" font-size="14.00">...</text>
<polygon fill="none" stroke="black" points="257,-164 257,-185 398,-185 398,-164 257,-164"/>
<text text-anchor="start" x="282" y="-170.8" font-family="Times,serif" font-size="14.00">Scale::StringList</text>
<polygon fill="none" stroke="black" points="398,-164 398,-185 476,-185 476,-164 398,-164"/>
<text text-anchor="start" x="424.5" y="-170.8" font-family="Times,serif" font-size="14.00">docs</text>
</g>
<!-- param__seq -->
<g id="node2" class="node">
<title>param__seq</title>
<polygon fill="#e0ffe0" stroke="none" points="528,-247 528,-268 553,-268 553,-247 528,-247"/>
<polygon fill="none" stroke="black" points="528,-247 528,-268 553,-268 553,-247 528,-247"/>
<text text-anchor="start" x="531" y="-253.8" font-family="Times,serif" font-size="14.00">pos</text>
<polygon fill="#e0ffe0" stroke="none" points="553,-247 553,-268 581,-268 581,-247 553,-247"/>
<polygon fill="none" stroke="black" points="553,-247 553,-268 581,-268 581,-247 553,-247"/>
<text text-anchor="start" x="556" y="-253.8" font-family="Times,serif" font-size="14.00">size</text>
<polygon fill="#e0ffe0" stroke="none" points="581,-247 581,-268 727,-268 727,-247 581,-247"/>
<polygon fill="none" stroke="black" points="581,-247 581,-268 727,-268 727,-247 581,-247"/>
<text text-anchor="start" x="642" y="-253.8" font-family="Times,serif" font-size="14.00">type</text>
<polygon fill="#e0ffe0" stroke="none" points="727,-247 727,-268 764,-268 764,-247 727,-247"/>
<polygon fill="none" stroke="black" points="727,-247 727,-268 764,-268 764,-247 727,-247"/>
<text text-anchor="start" x="740" y="-253.8" font-family="Times,serif" font-size="14.00">id</text>
<polygon fill="none" stroke="black" points="528,-226 528,-247 553,-247 553,-226 528,-226"/>
<text text-anchor="start" x="537" y="-232.8" font-family="Times,serif" font-size="14.00">0</text>
<polygon fill="none" stroke="black" points="553,-226 553,-247 581,-247 581,-226 553,-226"/>
<text text-anchor="start" x="561" y="-232.8" font-family="Times,serif" font-size="14.00">...</text>
<polygon fill="none" stroke="black" points="581,-226 581,-247 727,-247 727,-226 581,-226"/>
<text text-anchor="start" x="619" y="-232.8" font-family="Times,serif" font-size="14.00">Scale::String</text>
<polygon fill="none" stroke="black" points="727,-226 727,-247 764,-247 764,-226 727,-226"/>
<text text-anchor="start" x="730" y="-232.8" font-family="Times,serif" font-size="14.00">name</text>
<polygon fill="none" stroke="black" points="528,-205 528,-226 553,-226 553,-205 528,-205"/>
<text text-anchor="start" x="534.5" y="-211.8" font-family="Times,serif" font-size="14.00">...</text>
<polygon fill="none" stroke="black" points="553,-205 553,-226 581,-226 581,-205 553,-205"/>
<text text-anchor="start" x="561" y="-211.8" font-family="Times,serif" font-size="14.00">...</text>
<polygon fill="none" stroke="black" points="581,-205 581,-226 727,-226 727,-205 581,-205"/>
<text text-anchor="start" x="584" y="-211.8" font-family="Times,serif" font-size="14.00">Scale::MaybeCompactInt</text>
<polygon fill="none" stroke="black" points="727,-205 727,-226 764,-226 764,-205 727,-205"/>
<text text-anchor="start" x="733.5" y="-211.8" font-family="Times,serif" font-size="14.00">type</text>
</g>
<!-- metadata_type__seq&#45;&gt;param__seq -->
<g id="edge4" class="edge">
<title>metadata_type__seq:params_type&#45;&gt;param__seq</title>
<path fill="none" stroke="black" stroke-width="2" d="M477,-237C487.39,-237 498.14,-237 508.95,-237"/>
<polygon fill="black" stroke="black" stroke-width="2" points="507.2,-240.5 517.2,-237 507.2,-233.5 507.2,-240.5"/>
</g>
<!-- compact_int__seq -->
<g id="node3" class="node">
<title>compact_int__seq</title>
<text text-anchor="middle" x="646" y="-122.3" font-family="Times,serif" font-size="14.00">compact_int__seq</text>
</g>
<!-- metadata_type__seq&#45;&gt;compact_int__seq -->
<g id="edge1" class="edge">
<title>metadata_type__seq:id_type&#45;&gt;compact_int__seq</title>
<path fill="none" stroke="black" stroke-width="2" d="M477,-301C529.15,-301 477.78,-228.36 512,-189 529.23,-169.19 554.05,-155.13 577.6,-145.4"/>
<polygon fill="black" stroke="black" stroke-width="2" points="577.44,-149.22 585.48,-142.33 574.89,-142.7 577.44,-149.22"/>
</g>
<!-- metadata_type__seq&#45;&gt;compact_int__seq -->
<g id="edge3" class="edge">
<title>metadata_type__seq:num_params_type&#45;&gt;compact_int__seq</title>
<path fill="none" stroke="black" stroke-width="2" d="M477,-259C511.78,-259 487.14,-213.33 512,-189 530.37,-171.02 554.83,-157.44 577.77,-147.59"/>
<polygon fill="black" stroke="black" stroke-width="2" points="577.46,-151.5 585.38,-144.46 574.8,-145.02 577.46,-151.5"/>
</g>
<!-- string_list__seq -->
<g id="node4" class="node">
<title>string_list__seq</title>
<text text-anchor="middle" x="646" y="-68.3" font-family="Times,serif" font-size="14.00">string_list__seq</text>
</g>
<!-- metadata_type__seq&#45;&gt;string_list__seq -->
<g id="edge2" class="edge">
<title>metadata_type__seq:path_type&#45;&gt;string_list__seq</title>
<path fill="none" stroke="black" stroke-width="2" d="M477,-280C558.93,-280 454.33,-157.2 512,-99 530.55,-80.28 558.29,-72.76 583.64,-70.23"/>
<polygon fill="black" stroke="black" stroke-width="2" points="582.33,-73.84 592.05,-69.62 581.83,-66.86 582.33,-73.84"/>
</g>
<!-- metadata_type__seq&#45;&gt;string_list__seq -->
<g id="edge7" class="edge">
<title>metadata_type__seq:docs_type&#45;&gt;string_list__seq</title>
<path fill="none" stroke="black" stroke-width="2" d="M477,-174C513.78,-174 483.1,-121.76 512,-99 532.21,-83.08 559.38,-75.83 583.9,-72.75"/>
<polygon fill="black" stroke="black" stroke-width="2" points="582.7,-76.39 592.29,-71.89 581.99,-69.42 582.7,-76.39"/>
</g>
<!-- metadata_type_definition__seq -->
<g id="node6" class="node">
<title>metadata_type_definition__seq</title>
<text text-anchor="middle" x="646" y="-14.3" font-family="Times,serif" font-size="14.00">metadata_type_definition__seq</text>
</g>
<!-- metadata_type__seq&#45;&gt;metadata_type_definition__seq -->
<g id="edge6" class="edge">
<title>metadata_type__seq:definition_type&#45;&gt;metadata_type_definition__seq</title>
<path fill="none" stroke="black" stroke-width="2" d="M477,-195C545.46,-195 462.9,-92.7 512,-45 520.52,-36.73 530.83,-30.66 541.91,-26.26"/>
<polygon fill="black" stroke="black" stroke-width="2" points="541.56,-30.09 549.87,-23.52 539.28,-23.47 541.56,-30.09"/>
</g>
<!-- string__seq -->
<g id="node7" class="node">
<title>string__seq</title>
<text text-anchor="middle" x="887.5" y="-248.3" font-family="Times,serif" font-size="14.00">string__seq</text>
</g>
<!-- param__seq&#45;&gt;string__seq -->
<g id="edge8" class="edge">
<title>param__seq:name_type&#45;&gt;string__seq</title>
<path fill="none" stroke="black" stroke-width="2" d="M765,-236C788.82,-236 815.05,-239.06 837.03,-242.51"/>
<polygon fill="black" stroke="black" stroke-width="2" points="834.67,-245.67 845.11,-243.84 835.81,-238.76 834.67,-245.67"/>
</g>
<!-- maybe_compact_int__seq -->
<g id="node8" class="node">
<title>maybe_compact_int__seq</title>
<text text-anchor="middle" x="887.5" y="-194.3" font-family="Times,serif" font-size="14.00">maybe_compact_int__seq</text>
</g>
<!-- param__seq&#45;&gt;maybe_compact_int__seq -->
<g id="edge9" class="edge">
<title>param__seq:type_type&#45;&gt;maybe_compact_int__seq</title>
<path fill="none" stroke="black" stroke-width="2" d="M765,-215C775.43,-215 786.32,-214.38 797.11,-213.37"/>
<polygon fill="black" stroke="black" stroke-width="2" points="795.7,-217.04 805.28,-212.51 794.97,-210.08 795.7,-217.04"/>
</g>
<!-- compact_int__inst__value -->
<g id="node5" class="node">
<title>compact_int__inst__value</title>
<text text-anchor="middle" x="80" y="-212.3" font-family="Times,serif" font-size="14.00">compact_int__inst__value</text>
</g>
<!-- compact_int__inst__value&#45;&gt;metadata_type__seq -->
<g id="edge5" class="edge">
<title>compact_int__inst__value:value_type&#45;&gt;metadata_type__seq:params__repeat</title>
<path fill="none" stroke="#404040" d="M159.75,-216C170.32,-216 181.15,-216 191.7,-216"/>
<polygon fill="#404040" stroke="#404040" points="191.49,-219.5 201.49,-216 191.49,-212.5 191.49,-219.5"/>
</g>
</g>
</svg>
