<?xml version="1.0" encoding="UTF-8" standalone="no"?>
<!DOCTYPE svg PUBLIC "-//W3C//DTD SVG 1.1//EN"
 "http://www.w3.org/Graphics/SVG/1.1/DTD/svg11.dtd">
<!-- Generated by graphviz version 8.0.2 (20230410.1723)
 -->
<!-- Pages: 1 -->
<svg width="924pt" height="849pt" viewBox="0.00 0.00 924.00 849.00" xmlns="http://www.w3.org/2000/svg" xmlns:xlink="http://www.w3.org/1999/xlink">
<g id="graph0" class="graph" transform="scale(1 1) rotate(0) translate(4 845)">
<polygon fill="white" stroke="none" points="-4,4 -4,-845 920,-845 920,4 -4,4"/>
<g id="clust1" class="cluster">
<title>cluster__metadata_type_definition</title>
<polygon fill="white" stroke="black" stroke-dasharray="1,5" points="8,-98 8,-797 780,-797 780,-98 8,-98"/>
<text text-anchor="middle" x="394" y="-781.8" font-family="Times,serif" font-size="14.00">MetadataTypeDefinition</text>
</g>
<g id="clust2" class="cluster">
<title>cluster__array</title>
<polygon fill="white" stroke="black" stroke-dasharray="1,5" points="525.5,-397 525.5,-508 758.5,-508 758.5,-397 525.5,-397"/>
<text text-anchor="middle" x="642" y="-492.8" font-family="Times,serif" font-size="14.00">MetadataTypeDefinition::Array</text>
</g>
<g id="clust3" class="cluster">
<title>cluster__sequence</title>
<polygon fill="white" stroke="black" stroke-dasharray="1,5" points="530.5,-300 530.5,-389 753.5,-389 753.5,-300 530.5,-300"/>
<text text-anchor="middle" x="642" y="-373.8" font-family="Times,serif" font-size="14.00">MetadataTypeDefinition::Sequence</text>
</g>
<g id="clust4" class="cluster">
<title>cluster__primitive</title>
<polygon fill="white" stroke="black" stroke-dasharray="1,5" points="538,-203 538,-292 747,-292 747,-203 538,-203"/>
<text text-anchor="middle" x="642.5" y="-276.8" font-family="Times,serif" font-size="14.00">MetadataTypeDefinition::Primitive</text>
</g>
<g id="clust5" class="cluster">
<title>cluster__tuple</title>
<polygon fill="white" stroke="black" stroke-dasharray="1,5" points="512,-635 512,-766 772,-766 772,-635 512,-635"/>
<text text-anchor="middle" x="642" y="-750.8" font-family="Times,serif" font-size="14.00">MetadataTypeDefinition::Tuple</text>
</g>
<g id="clust6" class="cluster">
<title>cluster__bits</title>
<polygon fill="white" stroke="black" stroke-dasharray="1,5" points="528,-516 528,-627 756,-627 756,-516 528,-516"/>
<text text-anchor="middle" x="642" y="-611.8" font-family="Times,serif" font-size="14.00">MetadataTypeDefinition::Bits</text>
</g>
<g id="clust7" class="cluster">
<title>cluster__compact</title>
<polygon fill="white" stroke="black" stroke-dasharray="1,5" points="530.5,-106 530.5,-195 753.5,-195 753.5,-106 530.5,-106"/>
<text text-anchor="middle" x="642" y="-179.8" font-family="Times,serif" font-size="14.00">MetadataTypeDefinition::Compact</text>
</g>
<!-- metadata_type_definition__seq -->
<g id="node1" class="node">
<title>metadata_type_definition__seq</title>
<polygon fill="#e6007a4f" stroke="none" points="24,-326.5 24,-347.5 49,-347.5 49,-326.5 24,-326.5"/>
<polygon fill="none" stroke="black" points="24,-326.5 24,-347.5 49,-347.5 49,-326.5 24,-326.5"/>
<text text-anchor="start" x="27" y="-333.3" font-family="Times,serif" font-size="14.00">pos</text>
<polygon fill="#e6007a4f" stroke="none" points="49,-326.5 49,-347.5 77,-347.5 77,-326.5 49,-326.5"/>
<polygon fill="none" stroke="black" points="49,-326.5 49,-347.5 77,-347.5 77,-326.5 49,-326.5"/>
<text text-anchor="start" x="52" y="-333.3" font-family="Times,serif" font-size="14.00">size</text>
<polygon fill="#e6007a4f" stroke="none" points="77,-326.5 77,-347.5 155,-347.5 155,-326.5 77,-326.5"/>
<polygon fill="none" stroke="black" points="77,-326.5 77,-347.5 155,-347.5 155,-326.5 77,-326.5"/>
<text text-anchor="start" x="104" y="-333.3" font-family="Times,serif" font-size="14.00">type</text>
<polygon fill="#e6007a4f" stroke="none" points="155,-326.5 155,-347.5 197,-347.5 197,-326.5 155,-326.5"/>
<polygon fill="none" stroke="black" points="155,-326.5 155,-347.5 197,-347.5 197,-326.5 155,-326.5"/>
<text text-anchor="start" x="170.5" y="-333.3" font-family="Times,serif" font-size="14.00">id</text>
<polygon fill="none" stroke="black" points="24,-305.5 24,-326.5 49,-326.5 49,-305.5 24,-305.5"/>
<text text-anchor="start" x="33" y="-312.3" font-family="Times,serif" font-size="14.00">0</text>
<polygon fill="none" stroke="black" points="49,-305.5 49,-326.5 77,-326.5 77,-305.5 49,-305.5"/>
<text text-anchor="start" x="59.5" y="-312.3" font-family="Times,serif" font-size="14.00">1</text>
<polygon fill="none" stroke="black" points="77,-305.5 77,-326.5 155,-326.5 155,-305.5 77,-305.5"/>
<text text-anchor="start" x="88" y="-312.3" font-family="Times,serif" font-size="14.00">u1&#x2192;Type</text>
<polygon fill="none" stroke="black" points="155,-305.5 155,-326.5 197,-326.5 197,-305.5 155,-305.5"/>
<text text-anchor="start" x="164" y="-312.3" font-family="Times,serif" font-size="14.00">type</text>
<polygon fill="none" stroke="black" points="24,-284.5 24,-305.5 49,-305.5 49,-284.5 24,-284.5"/>
<text text-anchor="start" x="33" y="-291.3" font-family="Times,serif" font-size="14.00">1</text>
<polygon fill="none" stroke="black" points="49,-284.5 49,-305.5 77,-305.5 77,-284.5 49,-284.5"/>
<text text-anchor="start" x="57" y="-291.3" font-family="Times,serif" font-size="14.00">...</text>
<polygon fill="none" stroke="black" points="77,-284.5 77,-305.5 155,-305.5 155,-284.5 77,-284.5"/>
<text text-anchor="start" x="80" y="-291.3" font-family="Times,serif" font-size="14.00">switch (type)</text>
<polygon fill="none" stroke="black" points="155,-284.5 155,-305.5 197,-305.5 197,-284.5 155,-284.5"/>
<text text-anchor="start" x="158" y="-291.3" font-family="Times,serif" font-size="14.00">details</text>
</g>
<!-- metadata_type_definition__seq&#45;&gt;metadata_type_definition__seq -->
<g id="edge10" class="edge">
<title>metadata_type_definition__seq:type_type-&gt;metadata_type_definition__seq:details_type</title>
<path fill="none" stroke="#404040" d="M155,-323.8C114.58,-342.56 121.74,-369.5 176.5,-369.5 227.43,-369.5 237.19,-332.46 205.77,-308.85"/>
<polygon fill="#404040" stroke="#404040" points="208.2,-305.61 197.89,-303.17 204.43,-311.51 208.2,-305.61"/>
</g>
<!-- metadata_type_definition__seq_details_switch -->
<g id="node2" class="node">
<title>metadata_type_definition__seq_details_switch</title>
<polygon fill="#e6007a4f" stroke="none" points="249,-368.5 249,-389.5 346,-389.5 346,-368.5 249,-368.5"/>
<polygon fill="none" stroke="black" points="249,-368.5 249,-389.5 346,-389.5 346,-368.5 249,-368.5"/>
<text text-anchor="start" x="285.5" y="-375.3" font-family="Times,serif" font-size="14.00">case</text>
<polygon fill="#e6007a4f" stroke="none" points="346,-368.5 346,-389.5 476,-389.5 476,-368.5 346,-368.5"/>
<polygon fill="none" stroke="black" points="346,-368.5 346,-389.5 476,-389.5 476,-368.5 346,-368.5"/>
<text text-anchor="start" x="399" y="-375.3" font-family="Times,serif" font-size="14.00">type</text>
<polygon fill="none" stroke="black" points="249,-347.5 249,-368.5 346,-368.5 346,-347.5 249,-347.5"/>
<text text-anchor="start" x="252" y="-354.3" font-family="Times,serif" font-size="14.00">:type_composite</text>
<polygon fill="none" stroke="black" points="346,-347.5 346,-368.5 476,-368.5 476,-347.5 346,-347.5"/>
<text text-anchor="start" x="355" y="-354.3" font-family="Times,serif" font-size="14.00">MetadataTypeFields</text>
<polygon fill="none" stroke="black" points="249,-326.5 249,-347.5 346,-347.5 346,-326.5 249,-326.5"/>
<text text-anchor="start" x="270.5" y="-333.3" font-family="Times,serif" font-size="14.00">:type_bits</text>
<polygon fill="none" stroke="black" points="346,-326.5 346,-347.5 476,-347.5 476,-326.5 346,-326.5"/>
<text text-anchor="start" x="400" y="-333.3" font-family="Times,serif" font-size="14.00">Bits</text>
<polygon fill="none" stroke="black" points="249,-305.5 249,-326.5 346,-326.5 346,-305.5 249,-305.5"/>
<text text-anchor="start" x="266.5" y="-312.3" font-family="Times,serif" font-size="14.00">:type_array</text>
<polygon fill="none" stroke="black" points="346,-305.5 346,-326.5 476,-326.5 476,-305.5 346,-305.5"/>
<text text-anchor="start" x="395" y="-312.3" font-family="Times,serif" font-size="14.00">Array</text>
<polygon fill="none" stroke="black" points="249,-284.5 249,-305.5 346,-305.5 346,-284.5 249,-284.5"/>
<text text-anchor="start" x="255.5" y="-291.3" font-family="Times,serif" font-size="14.00">:type_sequence</text>
<polygon fill="none" stroke="black" points="346,-284.5 346,-305.5 476,-305.5 476,-284.5 346,-284.5"/>
<text text-anchor="start" x="385" y="-291.3" font-family="Times,serif" font-size="14.00">Sequence</text>
<polygon fill="none" stroke="black" points="249,-263.5 249,-284.5 346,-284.5 346,-263.5 249,-263.5"/>
<text text-anchor="start" x="255" y="-270.3" font-family="Times,serif" font-size="14.00">:type_primitive</text>
<polygon fill="none" stroke="black" points="346,-263.5 346,-284.5 476,-284.5 476,-263.5 346,-263.5"/>
<text text-anchor="start" x="385" y="-270.3" font-family="Times,serif" font-size="14.00">Primitive</text>
<polygon fill="none" stroke="black" points="249,-242.5 249,-263.5 346,-263.5 346,-242.5 249,-242.5"/>
<text text-anchor="start" x="257" y="-249.3" font-family="Times,serif" font-size="14.00">:type_compact</text>
<polygon fill="none" stroke="black" points="346,-242.5 346,-263.5 476,-263.5 476,-242.5 346,-242.5"/>
<text text-anchor="start" x="386" y="-249.3" font-family="Times,serif" font-size="14.00">Compact</text>
<polygon fill="none" stroke="black" points="249,-221.5 249,-242.5 346,-242.5 346,-221.5 249,-221.5"/>
<text text-anchor="start" x="261.5" y="-228.3" font-family="Times,serif" font-size="14.00">:type_variant</text>
<polygon fill="none" stroke="black" points="346,-221.5 346,-242.5 476,-242.5 476,-221.5 346,-221.5"/>
<text text-anchor="start" x="349" y="-228.3" font-family="Times,serif" font-size="14.00">MetadataTypeVariants</text>
<polygon fill="none" stroke="black" points="249,-200.5 249,-221.5 346,-221.5 346,-200.5 249,-200.5"/>
<text text-anchor="start" x="267" y="-207.3" font-family="Times,serif" font-size="14.00">:type_tuple</text>
<polygon fill="none" stroke="black" points="346,-200.5 346,-221.5 476,-221.5 476,-200.5 346,-200.5"/>
<text text-anchor="start" x="395" y="-207.3" font-family="Times,serif" font-size="14.00">Tuple</text>
</g>
<!-- metadata_type_definition__seq&#45;&gt;metadata_type_definition__seq_details_switch -->
<g id="edge1" class="edge">
<title>metadata_type_definition__seq:details_type-&gt;metadata_type_definition__seq_details_switch</title>
<path fill="none" stroke="black" stroke-width="2" d="M198.5,-295C208.9,-295 219.67,-295 230.5,-295"/>
<polygon fill="black" stroke="black" stroke-width="2" points="228.33,-298.5 238.33,-295 228.33,-291.5 228.33,-298.5"/>
</g>
<!-- array__seq -->
<g id="node3" class="node">
<title>array__seq</title>
<polygon fill="#e6007a4f" stroke="none" points="541.5,-451.5 541.5,-472.5 566.5,-472.5 566.5,-451.5 541.5,-451.5"/>
<polygon fill="none" stroke="black" points="541.5,-451.5 541.5,-472.5 566.5,-472.5 566.5,-451.5 541.5,-451.5"/>
<text text-anchor="start" x="544.5" y="-458.3" font-family="Times,serif" font-size="14.00">pos</text>
<polygon fill="#e6007a4f" stroke="none" points="566.5,-451.5 566.5,-472.5 594.5,-472.5 594.5,-451.5 566.5,-451.5"/>
<polygon fill="none" stroke="black" points="566.5,-451.5 566.5,-472.5 594.5,-472.5 594.5,-451.5 566.5,-451.5"/>
<text text-anchor="start" x="569.5" y="-458.3" font-family="Times,serif" font-size="14.00">size</text>
<polygon fill="#e6007a4f" stroke="none" points="594.5,-451.5 594.5,-472.5 702.5,-472.5 702.5,-451.5 594.5,-451.5"/>
<polygon fill="none" stroke="black" points="594.5,-451.5 594.5,-472.5 702.5,-472.5 702.5,-451.5 594.5,-451.5"/>
<text text-anchor="start" x="636.5" y="-458.3" font-family="Times,serif" font-size="14.00">type</text>
<polygon fill="#e6007a4f" stroke="none" points="702.5,-451.5 702.5,-472.5 742.5,-472.5 742.5,-451.5 702.5,-451.5"/>
<polygon fill="none" stroke="black" points="702.5,-451.5 702.5,-472.5 742.5,-472.5 742.5,-451.5 702.5,-451.5"/>
<text text-anchor="start" x="717" y="-458.3" font-family="Times,serif" font-size="14.00">id</text>
<polygon fill="none" stroke="black" points="541.5,-430.5 541.5,-451.5 566.5,-451.5 566.5,-430.5 541.5,-430.5"/>
<text text-anchor="start" x="550.5" y="-437.3" font-family="Times,serif" font-size="14.00">0</text>
<polygon fill="none" stroke="black" points="566.5,-430.5 566.5,-451.5 594.5,-451.5 594.5,-430.5 566.5,-430.5"/>
<text text-anchor="start" x="577" y="-437.3" font-family="Times,serif" font-size="14.00">4</text>
<polygon fill="none" stroke="black" points="594.5,-430.5 594.5,-451.5 702.5,-451.5 702.5,-430.5 594.5,-430.5"/>
<text text-anchor="start" x="636.5" y="-437.3" font-family="Times,serif" font-size="14.00">u4le</text>
<polygon fill="none" stroke="black" points="702.5,-430.5 702.5,-451.5 742.5,-451.5 742.5,-430.5 702.5,-430.5"/>
<text text-anchor="start" x="705.5" y="-437.3" font-family="Times,serif" font-size="14.00">length</text>
<polygon fill="none" stroke="black" points="541.5,-409.5 541.5,-430.5 566.5,-430.5 566.5,-409.5 541.5,-409.5"/>
<text text-anchor="start" x="550.5" y="-416.3" font-family="Times,serif" font-size="14.00">4</text>
<polygon fill="none" stroke="black" points="566.5,-409.5 566.5,-430.5 594.5,-430.5 594.5,-409.5 566.5,-409.5"/>
<text text-anchor="start" x="574.5" y="-416.3" font-family="Times,serif" font-size="14.00">...</text>
<polygon fill="none" stroke="black" points="594.5,-409.5 594.5,-430.5 702.5,-430.5 702.5,-409.5 594.5,-409.5"/>
<text text-anchor="start" x="597.5" y="-416.3" font-family="Times,serif" font-size="14.00">Scale::CompactInt</text>
<polygon fill="none" stroke="black" points="702.5,-409.5 702.5,-430.5 742.5,-430.5 742.5,-409.5 702.5,-409.5"/>
<text text-anchor="start" x="710.5" y="-416.3" font-family="Times,serif" font-size="14.00">type</text>
</g>
<!-- metadata_type_definition__seq_details_switch&#45;&gt;array__seq -->
<g id="edge4" class="edge">
<title>metadata_type_definition__seq_details_switch:case2-&gt;array__seq</title>
<path fill="none" stroke="black" stroke-width="2" d="M477.5,-316C515,-316 484.64,-367.36 512,-393 515.98,-396.73 520.29,-400.18 524.82,-403.37"/>
<polygon fill="black" stroke="black" stroke-width="2" points="521.49,-405.68 531.78,-408.18 525.29,-399.8 521.49,-405.68"/>
</g>
<!-- sequence__seq -->
<g id="node4" class="node">
<title>sequence__seq</title>
<polygon fill="#e6007a4f" stroke="none" points="546.5,-333 546.5,-354 571.5,-354 571.5,-333 546.5,-333"/>
<polygon fill="none" stroke="black" points="546.5,-333 546.5,-354 571.5,-354 571.5,-333 546.5,-333"/>
<text text-anchor="start" x="549.5" y="-339.8" font-family="Times,serif" font-size="14.00">pos</text>
<polygon fill="#e6007a4f" stroke="none" points="571.5,-333 571.5,-354 599.5,-354 599.5,-333 571.5,-333"/>
<polygon fill="none" stroke="black" points="571.5,-333 571.5,-354 599.5,-354 599.5,-333 571.5,-333"/>
<text text-anchor="start" x="574.5" y="-339.8" font-family="Times,serif" font-size="14.00">size</text>
<polygon fill="#e6007a4f" stroke="none" points="599.5,-333 599.5,-354 707.5,-354 707.5,-333 599.5,-333"/>
<polygon fill="none" stroke="black" points="599.5,-333 599.5,-354 707.5,-354 707.5,-333 599.5,-333"/>
<text text-anchor="start" x="641.5" y="-339.8" font-family="Times,serif" font-size="14.00">type</text>
<polygon fill="#e6007a4f" stroke="none" points="707.5,-333 707.5,-354 737.5,-354 737.5,-333 707.5,-333"/>
<polygon fill="none" stroke="black" points="707.5,-333 707.5,-354 737.5,-354 737.5,-333 707.5,-333"/>
<text text-anchor="start" x="717" y="-339.8" font-family="Times,serif" font-size="14.00">id</text>
<polygon fill="none" stroke="black" points="546.5,-312 546.5,-333 571.5,-333 571.5,-312 546.5,-312"/>
<text text-anchor="start" x="555.5" y="-318.8" font-family="Times,serif" font-size="14.00">0</text>
<polygon fill="none" stroke="black" points="571.5,-312 571.5,-333 599.5,-333 599.5,-312 571.5,-312"/>
<text text-anchor="start" x="579.5" y="-318.8" font-family="Times,serif" font-size="14.00">...</text>
<polygon fill="none" stroke="black" points="599.5,-312 599.5,-333 707.5,-333 707.5,-312 599.5,-312"/>
<text text-anchor="start" x="602.5" y="-318.8" font-family="Times,serif" font-size="14.00">Scale::CompactInt</text>
<polygon fill="none" stroke="black" points="707.5,-312 707.5,-333 737.5,-333 737.5,-312 707.5,-312"/>
<text text-anchor="start" x="710.5" y="-318.8" font-family="Times,serif" font-size="14.00">type</text>
</g>
<!-- metadata_type_definition__seq_details_switch&#45;&gt;sequence__seq -->
<g id="edge5" class="edge">
<title>metadata_type_definition__seq_details_switch:case3-&gt;sequence__seq</title>
<path fill="none" stroke="black" stroke-width="2" d="M477.5,-295C503.25,-295 530.71,-299.53 555.63,-305.46"/>
<polygon fill="black" stroke="black" stroke-width="2" points="553.59,-309.06 564.14,-308.08 555.28,-302.26 553.59,-309.06"/>
</g>
<!-- primitive__seq -->
<g id="node5" class="node">
<title>primitive__seq</title>
<polygon fill="#e6007a4f" stroke="none" points="581,-236 581,-257 606,-257 606,-236 581,-236"/>
<polygon fill="none" stroke="black" points="581,-236 581,-257 606,-257 606,-236 581,-236"/>
<text text-anchor="start" x="584" y="-242.8" font-family="Times,serif" font-size="14.00">pos</text>
<polygon fill="#e6007a4f" stroke="none" points="606,-236 606,-257 634,-257 634,-236 606,-236"/>
<polygon fill="none" stroke="black" points="606,-236 606,-257 634,-257 634,-236 606,-236"/>
<text text-anchor="start" x="609" y="-242.8" font-family="Times,serif" font-size="14.00">size</text>
<polygon fill="#e6007a4f" stroke="none" points="634,-236 634,-257 686,-257 686,-236 634,-236"/>
<polygon fill="none" stroke="black" points="634,-236 634,-257 686,-257 686,-236 634,-236"/>
<text text-anchor="start" x="648" y="-242.8" font-family="Times,serif" font-size="14.00">type</text>
<polygon fill="#e6007a4f" stroke="none" points="686,-236 686,-257 703,-257 703,-236 686,-236"/>
<polygon fill="none" stroke="black" points="686,-236 686,-257 703,-257 703,-236 686,-236"/>
<text text-anchor="start" x="689" y="-242.8" font-family="Times,serif" font-size="14.00">id</text>
<polygon fill="none" stroke="black" points="581,-215 581,-236 606,-236 606,-215 581,-215"/>
<text text-anchor="start" x="590" y="-221.8" font-family="Times,serif" font-size="14.00">0</text>
<polygon fill="none" stroke="black" points="606,-215 606,-236 634,-236 634,-215 606,-215"/>
<text text-anchor="start" x="616.5" y="-221.8" font-family="Times,serif" font-size="14.00">1</text>
<polygon fill="none" stroke="black" points="634,-215 634,-236 686,-236 686,-215 634,-215"/>
<text text-anchor="start" x="637" y="-221.8" font-family="Times,serif" font-size="14.00">u1&#x2192;Pid</text>
<polygon fill="none" stroke="black" points="686,-215 686,-236 703,-236 703,-215 686,-215"/>
<text text-anchor="start" x="689" y="-221.8" font-family="Times,serif" font-size="14.00">id</text>
</g>
<!-- metadata_type_definition__seq_details_switch&#45;&gt;primitive__seq -->
<g id="edge6" class="edge">
<title>metadata_type_definition__seq_details_switch:case4-&gt;primitive__seq</title>
<path fill="none" stroke="black" stroke-width="2" d="M477.5,-274C505.67,-274 535.88,-268.58 562.57,-261.84"/>
<polygon fill="black" stroke="black" stroke-width="2" points="562.22,-265.02 571,-259.09 560.44,-258.25 562.22,-265.02"/>
</g>
<!-- tuple__seq -->
<g id="node6" class="node">
<title>tuple__seq</title>
<polygon fill="#e6007a4f" stroke="none" points="528,-710 528,-731 553,-731 553,-710 528,-710"/>
<polygon fill="none" stroke="black" points="528,-710 528,-731 553,-731 553,-710 528,-710"/>
<text text-anchor="start" x="531" y="-716.8" font-family="Times,serif" font-size="14.00">pos</text>
<polygon fill="#e6007a4f" stroke="none" points="553,-710 553,-731 581,-731 581,-710 553,-710"/>
<polygon fill="none" stroke="black" points="553,-710 553,-731 581,-731 581,-710 553,-710"/>
<text text-anchor="start" x="556" y="-716.8" font-family="Times,serif" font-size="14.00">size</text>
<polygon fill="#e6007a4f" stroke="none" points="581,-710 581,-731 689,-731 689,-710 581,-710"/>
<polygon fill="none" stroke="black" points="581,-710 581,-731 689,-731 689,-710 581,-710"/>
<text text-anchor="start" x="623" y="-716.8" font-family="Times,serif" font-size="14.00">type</text>
<polygon fill="#e6007a4f" stroke="none" points="689,-710 689,-731 756,-731 756,-710 689,-710"/>
<polygon fill="none" stroke="black" points="689,-710 689,-731 756,-731 756,-710 689,-710"/>
<text text-anchor="start" x="717" y="-716.8" font-family="Times,serif" font-size="14.00">id</text>
<polygon fill="none" stroke="black" points="528,-689 528,-710 553,-710 553,-689 528,-689"/>
<text text-anchor="start" x="537" y="-695.8" font-family="Times,serif" font-size="14.00">0</text>
<polygon fill="none" stroke="black" points="553,-689 553,-710 581,-710 581,-689 553,-689"/>
<text text-anchor="start" x="561" y="-695.8" font-family="Times,serif" font-size="14.00">...</text>
<polygon fill="none" stroke="black" points="581,-689 581,-710 689,-710 689,-689 581,-689"/>
<text text-anchor="start" x="584" y="-695.8" font-family="Times,serif" font-size="14.00">Scale::CompactInt</text>
<polygon fill="none" stroke="black" points="689,-689 689,-710 756,-710 756,-689 689,-689"/>
<text text-anchor="start" x="692" y="-695.8" font-family="Times,serif" font-size="14.00">num_types</text>
<polygon fill="none" stroke="black" points="528,-668 528,-689 553,-689 553,-668 528,-668"/>
<text text-anchor="start" x="534.5" y="-674.8" font-family="Times,serif" font-size="14.00">...</text>
<polygon fill="none" stroke="black" points="553,-668 553,-689 581,-689 581,-668 553,-668"/>
<text text-anchor="start" x="561" y="-674.8" font-family="Times,serif" font-size="14.00">...</text>
<polygon fill="none" stroke="black" points="581,-668 581,-689 689,-689 689,-668 581,-668"/>
<text text-anchor="start" x="584" y="-674.8" font-family="Times,serif" font-size="14.00">Scale::CompactInt</text>
<polygon fill="none" stroke="black" points="689,-668 689,-689 756,-689 756,-668 689,-668"/>
<text text-anchor="start" x="708" y="-674.8" font-family="Times,serif" font-size="14.00">types</text>
<polygon fill="none" stroke="black" points="528,-647 528,-668 756,-668 756,-647 528,-647"/>
<text text-anchor="start" x="560" y="-653.8" font-family="Times,serif" font-size="14.00">repeat num_types.value times</text>
</g>
<!-- metadata_type_definition__seq_details_switch&#45;&gt;tuple__seq -->
<g id="edge9" class="edge">
<title>metadata_type_definition__seq_details_switch:case7-&gt;tuple__seq</title>
<path fill="none" stroke="black" stroke-width="2" d="M477.5,-211C524.32,-211 484.98,-592.76 512,-631 512.95,-632.35 513.94,-633.66 514.97,-634.95"/>
<polygon fill="black" stroke="black" stroke-width="2" points="510.95,-635.93 520.25,-641.01 516.14,-631.24 510.95,-635.93"/>
</g>
<!-- bits__seq -->
<g id="node7" class="node">
<title>bits__seq</title>
<polygon fill="#e6007a4f" stroke="none" points="544,-570.5 544,-591.5 569,-591.5 569,-570.5 544,-570.5"/>
<polygon fill="none" stroke="black" points="544,-570.5 544,-591.5 569,-591.5 569,-570.5 544,-570.5"/>
<text text-anchor="start" x="547" y="-577.3" font-family="Times,serif" font-size="14.00">pos</text>
<polygon fill="#e6007a4f" stroke="none" points="569,-570.5 569,-591.5 597,-591.5 597,-570.5 569,-570.5"/>
<polygon fill="none" stroke="black" points="569,-570.5 569,-591.5 597,-591.5 597,-570.5 569,-570.5"/>
<text text-anchor="start" x="572" y="-577.3" font-family="Times,serif" font-size="14.00">size</text>
<polygon fill="#e6007a4f" stroke="none" points="597,-570.5 597,-591.5 705,-591.5 705,-570.5 597,-570.5"/>
<polygon fill="none" stroke="black" points="597,-570.5 597,-591.5 705,-591.5 705,-570.5 597,-570.5"/>
<text text-anchor="start" x="639" y="-577.3" font-family="Times,serif" font-size="14.00">type</text>
<polygon fill="#e6007a4f" stroke="none" points="705,-570.5 705,-591.5 740,-591.5 740,-570.5 705,-570.5"/>
<polygon fill="none" stroke="black" points="705,-570.5 705,-591.5 740,-591.5 740,-570.5 705,-570.5"/>
<text text-anchor="start" x="717" y="-577.3" font-family="Times,serif" font-size="14.00">id</text>
<polygon fill="none" stroke="black" points="544,-549.5 544,-570.5 569,-570.5 569,-549.5 544,-549.5"/>
<text text-anchor="start" x="553" y="-556.3" font-family="Times,serif" font-size="14.00">0</text>
<polygon fill="none" stroke="black" points="569,-549.5 569,-570.5 597,-570.5 597,-549.5 569,-549.5"/>
<text text-anchor="start" x="577" y="-556.3" font-family="Times,serif" font-size="14.00">...</text>
<polygon fill="none" stroke="black" points="597,-549.5 597,-570.5 705,-570.5 705,-549.5 597,-549.5"/>
<text text-anchor="start" x="600" y="-556.3" font-family="Times,serif" font-size="14.00">Scale::CompactInt</text>
<polygon fill="none" stroke="black" points="705,-549.5 705,-570.5 740,-570.5 740,-549.5 705,-549.5"/>
<text text-anchor="start" x="710.5" y="-556.3" font-family="Times,serif" font-size="14.00">type</text>
<polygon fill="none" stroke="black" points="544,-528.5 544,-549.5 569,-549.5 569,-528.5 544,-528.5"/>
<text text-anchor="start" x="550.5" y="-535.3" font-family="Times,serif" font-size="14.00">...</text>
<polygon fill="none" stroke="black" points="569,-528.5 569,-549.5 597,-549.5 597,-528.5 569,-528.5"/>
<text text-anchor="start" x="577" y="-535.3" font-family="Times,serif" font-size="14.00">...</text>
<polygon fill="none" stroke="black" points="597,-528.5 597,-549.5 705,-549.5 705,-528.5 597,-528.5"/>
<text text-anchor="start" x="600" y="-535.3" font-family="Times,serif" font-size="14.00">Scale::CompactInt</text>
<polygon fill="none" stroke="black" points="705,-528.5 705,-549.5 740,-549.5 740,-528.5 705,-528.5"/>
<text text-anchor="start" x="708" y="-535.3" font-family="Times,serif" font-size="14.00">order</text>
</g>
<!-- metadata_type_definition__seq_details_switch&#45;&gt;bits__seq -->
<g id="edge3" class="edge">
<title>metadata_type_definition__seq_details_switch:case1-&gt;bits__seq</title>
<path fill="none" stroke="black" stroke-width="2" d="M477.5,-337C556.77,-337 460.65,-451.6 512,-512 516.47,-517.26 521.57,-521.94 527.11,-526.11"/>
<polygon fill="black" stroke="black" stroke-width="2" points="523.9,-528.52 534.13,-531.25 527.83,-522.73 523.9,-528.52"/>
</g>
<!-- compact__seq -->
<g id="node8" class="node">
<title>compact__seq</title>
<polygon fill="#e6007a4f" stroke="none" points="546.5,-139 546.5,-160 571.5,-160 571.5,-139 546.5,-139"/>
<polygon fill="none" stroke="black" points="546.5,-139 546.5,-160 571.5,-160 571.5,-139 546.5,-139"/>
<text text-anchor="start" x="549.5" y="-145.8" font-family="Times,serif" font-size="14.00">pos</text>
<polygon fill="#e6007a4f" stroke="none" points="571.5,-139 571.5,-160 599.5,-160 599.5,-139 571.5,-139"/>
<polygon fill="none" stroke="black" points="571.5,-139 571.5,-160 599.5,-160 599.5,-139 571.5,-139"/>
<text text-anchor="start" x="574.5" y="-145.8" font-family="Times,serif" font-size="14.00">size</text>
<polygon fill="#e6007a4f" stroke="none" points="599.5,-139 599.5,-160 707.5,-160 707.5,-139 599.5,-139"/>
<polygon fill="none" stroke="black" points="599.5,-139 599.5,-160 707.5,-160 707.5,-139 599.5,-139"/>
<text text-anchor="start" x="641.5" y="-145.8" font-family="Times,serif" font-size="14.00">type</text>
<polygon fill="#e6007a4f" stroke="none" points="707.5,-139 707.5,-160 737.5,-160 737.5,-139 707.5,-139"/>
<polygon fill="none" stroke="black" points="707.5,-139 707.5,-160 737.5,-160 737.5,-139 707.5,-139"/>
<text text-anchor="start" x="717" y="-145.8" font-family="Times,serif" font-size="14.00">id</text>
<polygon fill="none" stroke="black" points="546.5,-118 546.5,-139 571.5,-139 571.5,-118 546.5,-118"/>
<text text-anchor="start" x="555.5" y="-124.8" font-family="Times,serif" font-size="14.00">0</text>
<polygon fill="none" stroke="black" points="571.5,-118 571.5,-139 599.5,-139 599.5,-118 571.5,-118"/>
<text text-anchor="start" x="579.5" y="-124.8" font-family="Times,serif" font-size="14.00">...</text>
<polygon fill="none" stroke="black" points="599.5,-118 599.5,-139 707.5,-139 707.5,-118 599.5,-118"/>
<text text-anchor="start" x="602.5" y="-124.8" font-family="Times,serif" font-size="14.00">Scale::CompactInt</text>
<polygon fill="none" stroke="black" points="707.5,-118 707.5,-139 737.5,-139 737.5,-118 707.5,-118"/>
<text text-anchor="start" x="710.5" y="-124.8" font-family="Times,serif" font-size="14.00">type</text>
</g>
<!-- metadata_type_definition__seq_details_switch&#45;&gt;compact__seq -->
<g id="edge7" class="edge">
<title>metadata_type_definition__seq_details_switch:case5-&gt;compact__seq</title>
<path fill="none" stroke="black" stroke-width="2" d="M477.5,-253C505.98,-253 490.57,-217.75 512,-199 525.75,-186.97 542.33,-176.88 558.95,-168.61"/>
<polygon fill="black" stroke="black" stroke-width="2" points="559.2,-172.42 566.72,-164.96 556.19,-166.1 559.2,-172.42"/>
</g>
<!-- metadata_type_fields__seq -->
<g id="node9" class="node">
<title>metadata_type_fields__seq</title>
<text text-anchor="middle" x="642" y="-68.3" font-family="Times,serif" font-size="14.00">
              <a xlink:href="sect-metadata#img-metadata-type-fields" xlink:title="MetadataTypeFields">
                MetadataTypeFields
              </a>
            </text>
</g>
<!-- metadata_type_definition__seq_details_switch&#45;&gt;metadata_type_fields__seq -->
<g id="edge2" class="edge">
<title>metadata_type_definition__seq_details_switch:case0-&gt;metadata_type_fields__seq</title>
<path fill="none" stroke="black" stroke-width="2" d="M477.5,-358C534.9,-358 473.37,-144.46 512,-102 522.08,-90.91 535.4,-83.53 549.64,-78.68"/>
<polygon fill="black" stroke="black" stroke-width="2" points="549.54,-81.76 558.14,-75.58 547.56,-75.05 549.54,-81.76"/>
</g>
<!-- metadata_type_variants__seq -->
<g id="node10" class="node">
<title>metadata_type_variants__seq</title>
<text text-anchor="middle" x="642" y="-14.3" font-family="Times,serif" font-size="14.00">
              <a xlink:href="sect-metadata#img-metadata-type-variants" xlink:title="MetadataTypeVariants">
                MetadataTypeVariants
              </a>
            </text>
</g>
<!-- metadata_type_definition__seq_details_switch&#45;&gt;metadata_type_variants__seq -->
<g id="edge8" class="edge">
<title>metadata_type_definition__seq_details_switch:case6-&gt;metadata_type_variants__seq</title>
<path fill="none" stroke="black" stroke-width="2" d="M477.5,-232C562.01,-232 452.96,-105.47 512,-45 520.8,-35.98 531.79,-29.6 543.61,-25.13"/>
<polygon fill="black" stroke="black" stroke-width="2" points="543.31,-28.25 551.71,-21.8 541.12,-21.6 543.31,-28.25"/>
</g>
<!-- compact_int__seq -->

<!-- array__seq&#45;&gt;compact_int__seq -->

<!-- sequence__seq&#45;&gt;compact_int__seq -->

<!-- tuple__seq&#45;&gt;compact_int__seq -->

<!-- tuple__seq&#45;&gt;compact_int__seq -->

<!-- bits__seq&#45;&gt;compact_int__seq -->

<!-- bits__seq&#45;&gt;compact_int__seq -->

<!-- compact__seq&#45;&gt;compact_int__seq -->

<!-- compact_int__inst__value -->

<!-- compact_int__inst__value&#45;&gt;tuple__seq -->

</g>
</svg>
