<?xml version="1.0" encoding="UTF-8" standalone="no"?>
<!DOCTYPE svg PUBLIC "-//W3C//DTD SVG 1.1//EN"
 "http://www.w3.org/Graphics/SVG/1.1/DTD/svg11.dtd">
<!-- Generated by graphviz version 8.0.2 (20230410.1723)
 -->
<!-- Pages: 1 -->
<svg width="414pt" height="155pt" viewBox="0.00 0.00 414.00 155.00" xmlns="http://www.w3.org/2000/svg" xmlns:xlink="http://www.w3.org/1999/xlink">
<g id="graph0" class="graph" transform="scale(1 1) rotate(0) translate(4 151)">
<polygon fill="white" stroke="none" points="-4,4 -4,-151 410,-151 410,4 -4,4"/>
<g id="clust1" class="cluster">
<title>cluster__metadata_extrinsic</title>
<polygon fill="white" stroke="black" stroke-dasharray="1,5" points="8,-8 8,-139 262,-139 262,-8 8,-8"/>
<text text-anchor="middle" x="135" y="-123.8" font-family="Times,serif" font-size="14.00">MetadataExtrinsic</text>
</g>
<!-- metadata_extrinsic__seq -->
<g id="node1" class="node">
<title>metadata_extrinsic__seq</title>
<polygon fill="#e6007a4f" stroke="none" points="24,-83 24,-104 49,-104 49,-83 24,-83"/>
<polygon fill="none" stroke="black" points="24,-83 24,-104 49,-104 49,-83 24,-83"/>
<text text-anchor="start" x="27" y="-89.8" font-family="Times,serif" font-size="14.00">pos</text>
<polygon fill="#e6007a4f" stroke="none" points="49,-83 49,-104 77,-104 77,-83 49,-83"/>
<polygon fill="none" stroke="black" points="49,-83 49,-104 77,-104 77,-83 49,-83"/>
<text text-anchor="start" x="52" y="-89.8" font-family="Times,serif" font-size="14.00">size</text>
<polygon fill="#e6007a4f" stroke="none" points="77,-83 77,-104 185,-104 185,-83 77,-83"/>
<polygon fill="none" stroke="black" points="77,-83 77,-104 185,-104 185,-83 77,-83"/>
<text text-anchor="start" x="119" y="-89.8" font-family="Times,serif" font-size="14.00">type</text>
<polygon fill="#e6007a4f" stroke="none" points="185,-83 185,-104 246,-104 246,-83 185,-83"/>
<polygon fill="none" stroke="black" points="185,-83 185,-104 246,-104 246,-83 185,-83"/>
<text text-anchor="start" x="210" y="-89.8" font-family="Times,serif" font-size="14.00">id</text>
<polygon fill="none" stroke="black" points="24,-62 24,-83 49,-83 49,-62 24,-62"/>
<text text-anchor="start" x="33" y="-68.8" font-family="Times,serif" font-size="14.00">0</text>
<polygon fill="none" stroke="black" points="49,-62 49,-83 77,-83 77,-62 49,-62"/>
<text text-anchor="start" x="57" y="-68.8" font-family="Times,serif" font-size="14.00">...</text>
<polygon fill="none" stroke="black" points="77,-62 77,-83 185,-83 185,-62 77,-62"/>
<text text-anchor="start" x="96" y="-68.8" font-family="Times,serif" font-size="14.00">Scale::String</text>
<polygon fill="none" stroke="black" points="185,-62 185,-83 246,-83 246,-62 185,-62"/>
<text text-anchor="start" x="200" y="-68.8" font-family="Times,serif" font-size="14.00">name</text>
<polygon fill="none" stroke="black" points="24,-41 24,-62 49,-62 49,-41 24,-41"/>
<text text-anchor="start" x="30.5" y="-47.8" font-family="Times,serif" font-size="14.00">...</text>
<polygon fill="none" stroke="black" points="49,-41 49,-62 77,-62 77,-41 49,-41"/>
<text text-anchor="start" x="57" y="-47.8" font-family="Times,serif" font-size="14.00">...</text>
<polygon fill="none" stroke="black" points="77,-41 77,-62 185,-62 185,-41 77,-41"/>
<text text-anchor="start" x="80" y="-47.8" font-family="Times,serif" font-size="14.00">Scale::CompactInt</text>
<polygon fill="none" stroke="black" points="185,-41 185,-62 246,-62 246,-41 185,-41"/>
<text text-anchor="start" x="203.5" y="-47.8" font-family="Times,serif" font-size="14.00">type</text>
<polygon fill="none" stroke="black" points="24,-20 24,-41 49,-41 49,-20 24,-20"/>
<text text-anchor="start" x="30.5" y="-26.8" font-family="Times,serif" font-size="14.00">...</text>
<polygon fill="none" stroke="black" points="49,-20 49,-41 77,-41 77,-20 49,-20"/>
<text text-anchor="start" x="57" y="-26.8" font-family="Times,serif" font-size="14.00">...</text>
<polygon fill="none" stroke="black" points="77,-20 77,-41 185,-41 185,-20 77,-20"/>
<text text-anchor="start" x="80" y="-26.8" font-family="Times,serif" font-size="14.00">Scale::CompactInt</text>
<polygon fill="none" stroke="black" points="185,-20 185,-41 246,-41 246,-20 185,-20"/>
<text text-anchor="start" x="188" y="-26.8" font-family="Times,serif" font-size="14.00">additional</text>
</g>
<!-- string__seq -->

<!-- metadata_extrinsic__seq&#45;&gt;string__seq -->

<!-- compact_int__seq -->

<!-- metadata_extrinsic__seq&#45;&gt;compact_int__seq -->

<!-- metadata_extrinsic__seq&#45;&gt;compact_int__seq -->

</g>
</svg>
