<?xml version="1.0" encoding="UTF-8" standalone="no"?>
<!DOCTYPE svg PUBLIC "-//W3C//DTD SVG 1.1//EN"
 "http://www.w3.org/Graphics/SVG/1.1/DTD/svg11.dtd">
<!-- Generated by graphviz version 7.1.0 (20230121.1956)
 -->
<!-- Pages: 1 -->
<svg width="948pt" height="252pt" viewBox="0.00 0.00 948.00 252.00" xmlns="http://www.w3.org/2000/svg" xmlns:xlink="http://www.w3.org/1999/xlink">
<g id="graph0" class="graph" transform="scale(1 1) rotate(0) translate(4 248)">
<polygon fill="white" stroke="none" points="-4,4 -4,-248 944,-248 944,4 -4,4"/>
<g id="clust1" class="cluster">
<title>cluster__metadata_type_variants</title>
<polygon fill="none" stroke="black" stroke-dasharray="1,5" points="188,-44 188,-236 756,-236 756,-44 188,-44"/>
<text text-anchor="middle" x="472" y="-220.8" font-family="Times,serif" font-size="14.00">MetadataTypeVariants</text>
</g>
<g id="clust2" class="cluster">
<title>cluster__variant</title>
<polygon fill="none" stroke="black" stroke-dasharray="1,5" points="482,-52 482,-205 748,-205 748,-52 482,-52"/>
<text text-anchor="middle" x="615" y="-189.8" font-family="Times,serif" font-size="14.00">MetadataTypeVariants::Variant</text>
</g>
<!-- metadata_type_variants__seq -->
<g id="node1" class="node">
<title>metadata_type_variants__seq</title>
<polygon fill="#e0ffe0" stroke="none" points="204,-134 204,-155 229,-155 229,-134 204,-134"/>
<polygon fill="none" stroke="black" points="204,-134 204,-155 229,-155 229,-134 204,-134"/>
<text text-anchor="start" x="207" y="-140.8" font-family="Times,serif" font-size="14.00">pos</text>
<polygon fill="#e0ffe0" stroke="none" points="229,-134 229,-155 257,-155 257,-134 229,-134"/>
<polygon fill="none" stroke="black" points="229,-134 229,-155 257,-155 257,-134 229,-134"/>
<text text-anchor="start" x="232" y="-140.8" font-family="Times,serif" font-size="14.00">size</text>
<polygon fill="#e0ffe0" stroke="none" points="257,-134 257,-155 365,-155 365,-134 257,-134"/>
<polygon fill="none" stroke="black" points="257,-134 257,-155 365,-155 365,-134 257,-134"/>
<text text-anchor="start" x="299" y="-140.8" font-family="Times,serif" font-size="14.00">type</text>
<polygon fill="#e0ffe0" stroke="none" points="365,-134 365,-155 446,-155 446,-134 365,-134"/>
<polygon fill="none" stroke="black" points="365,-134 365,-155 446,-155 446,-134 365,-134"/>
<text text-anchor="start" x="400" y="-140.8" font-family="Times,serif" font-size="14.00">id</text>
<polygon fill="none" stroke="black" points="204,-113 204,-134 229,-134 229,-113 204,-113"/>
<text text-anchor="start" x="213" y="-119.8" font-family="Times,serif" font-size="14.00">0</text>
<polygon fill="none" stroke="black" points="229,-113 229,-134 257,-134 257,-113 229,-113"/>
<text text-anchor="start" x="237" y="-119.8" font-family="Times,serif" font-size="14.00">...</text>
<polygon fill="none" stroke="black" points="257,-113 257,-134 365,-134 365,-113 257,-113"/>
<text text-anchor="start" x="260" y="-119.8" font-family="Times,serif" font-size="14.00">Scale::CompactInt</text>
<polygon fill="none" stroke="black" points="365,-113 365,-134 446,-134 446,-113 365,-113"/>
<text text-anchor="start" x="368" y="-119.8" font-family="Times,serif" font-size="14.00">num_variants</text>
<polygon fill="none" stroke="black" points="204,-92 204,-113 229,-113 229,-92 204,-92"/>
<text text-anchor="start" x="210.5" y="-98.8" font-family="Times,serif" font-size="14.00">...</text>
<polygon fill="none" stroke="black" points="229,-92 229,-113 257,-113 257,-92 229,-92"/>
<text text-anchor="start" x="237" y="-98.8" font-family="Times,serif" font-size="14.00">...</text>
<polygon fill="none" stroke="black" points="257,-92 257,-113 365,-113 365,-92 257,-92"/>
<text text-anchor="start" x="291" y="-98.8" font-family="Times,serif" font-size="14.00">Variant</text>
<polygon fill="none" stroke="black" points="365,-92 365,-113 446,-113 446,-92 365,-92"/>
<text text-anchor="start" x="384" y="-98.8" font-family="Times,serif" font-size="14.00">variants</text>
<polygon fill="none" stroke="black" points="204,-71 204,-92 446,-92 446,-71 204,-71"/>
<text text-anchor="start" x="236" y="-77.8" font-family="Times,serif" font-size="14.00">repeat num_variants.value times</text>
</g>
<!-- variant__seq -->
<g id="node2" class="node">
<title>variant__seq</title>
<polygon fill="#e0ffe0" stroke="none" points="498,-148 498,-169 523,-169 523,-148 498,-148"/>
<polygon fill="none" stroke="black" points="498,-148 498,-169 523,-169 523,-148 498,-148"/>
<text text-anchor="start" x="501" y="-154.8" font-family="Times,serif" font-size="14.00">pos</text>
<polygon fill="#e0ffe0" stroke="none" points="523,-148 523,-169 551,-169 551,-148 523,-148"/>
<polygon fill="none" stroke="black" points="523,-148 523,-169 551,-169 551,-148 523,-148"/>
<text text-anchor="start" x="526" y="-154.8" font-family="Times,serif" font-size="14.00">size</text>
<polygon fill="#e0ffe0" stroke="none" points="551,-148 551,-169 669,-169 669,-148 551,-148"/>
<polygon fill="none" stroke="black" points="551,-148 551,-169 669,-169 669,-148 551,-148"/>
<text text-anchor="start" x="598" y="-154.8" font-family="Times,serif" font-size="14.00">type</text>
<polygon fill="#e0ffe0" stroke="none" points="669,-148 669,-169 732,-169 732,-148 669,-148"/>
<polygon fill="none" stroke="black" points="669,-148 669,-169 732,-169 732,-148 669,-148"/>
<text text-anchor="start" x="695" y="-154.8" font-family="Times,serif" font-size="14.00">id</text>
<polygon fill="none" stroke="black" points="498,-127 498,-148 523,-148 523,-127 498,-127"/>
<text text-anchor="start" x="507" y="-133.8" font-family="Times,serif" font-size="14.00">0</text>
<polygon fill="none" stroke="black" points="523,-127 523,-148 551,-148 551,-127 523,-127"/>
<text text-anchor="start" x="531" y="-133.8" font-family="Times,serif" font-size="14.00">...</text>
<polygon fill="none" stroke="black" points="551,-127 551,-148 669,-148 669,-127 551,-127"/>
<text text-anchor="start" x="575" y="-133.8" font-family="Times,serif" font-size="14.00">Scale::String</text>
<polygon fill="none" stroke="black" points="669,-127 669,-148 732,-148 732,-127 669,-127"/>
<text text-anchor="start" x="685" y="-133.8" font-family="Times,serif" font-size="14.00">name</text>
<polygon fill="none" stroke="black" points="498,-106 498,-127 523,-127 523,-106 498,-106"/>
<text text-anchor="start" x="504.5" y="-112.8" font-family="Times,serif" font-size="14.00">...</text>
<polygon fill="none" stroke="black" points="523,-106 523,-127 551,-127 551,-106 523,-106"/>
<text text-anchor="start" x="531" y="-112.8" font-family="Times,serif" font-size="14.00">...</text>
<polygon fill="none" stroke="black" points="551,-106 551,-127 669,-127 669,-106 551,-106"/>
<text text-anchor="start" x="554" y="-112.8" font-family="Times,serif" font-size="14.00">MetadataTypeFields</text>
<polygon fill="none" stroke="black" points="669,-106 669,-127 732,-127 732,-106 669,-106"/>
<text text-anchor="start" x="672" y="-112.8" font-family="Times,serif" font-size="14.00">composite</text>
<polygon fill="none" stroke="black" points="498,-85 498,-106 523,-106 523,-85 498,-85"/>
<text text-anchor="start" x="504.5" y="-91.8" font-family="Times,serif" font-size="14.00">...</text>
<polygon fill="none" stroke="black" points="523,-85 523,-106 551,-106 551,-85 523,-85"/>
<text text-anchor="start" x="533.5" y="-91.8" font-family="Times,serif" font-size="14.00">1</text>
<polygon fill="none" stroke="black" points="551,-85 551,-106 669,-106 669,-85 551,-85"/>
<text text-anchor="start" x="603" y="-91.8" font-family="Times,serif" font-size="14.00">u1</text>
<polygon fill="none" stroke="black" points="669,-85 669,-106 732,-106 732,-85 669,-85"/>
<text text-anchor="start" x="685" y="-91.8" font-family="Times,serif" font-size="14.00">index</text>
<polygon fill="none" stroke="black" points="498,-64 498,-85 523,-85 523,-64 498,-64"/>
<text text-anchor="start" x="504.5" y="-70.8" font-family="Times,serif" font-size="14.00">...</text>
<polygon fill="none" stroke="black" points="523,-64 523,-85 551,-85 551,-64 523,-64"/>
<text text-anchor="start" x="531" y="-70.8" font-family="Times,serif" font-size="14.00">...</text>
<polygon fill="none" stroke="black" points="551,-64 551,-85 669,-85 669,-64 551,-64"/>
<text text-anchor="start" x="564.5" y="-70.8" font-family="Times,serif" font-size="14.00">Scale::StringList</text>
<polygon fill="none" stroke="black" points="669,-64 669,-85 732,-85 732,-64 669,-64"/>
<text text-anchor="start" x="688" y="-70.8" font-family="Times,serif" font-size="14.00">docs</text>
</g>
<!-- metadata_type_variants__seq&#45;&gt;variant__seq -->
<g id="edge2" class="edge">
<title>metadata_type_variants__seq:variants_type-&gt;variant__seq</title>
<path fill="none" stroke="black" stroke-width="2" d="M447,-102C457.37,-102 468.09,-102.29 478.86,-102.79"/>
<polygon fill="black" stroke="black" stroke-width="2" points="476.89,-106.19 487.06,-103.22 477.26,-99.2 476.89,-106.19"/>
</g>
<!-- compact_int__seq -->

<!-- metadata_type_variants__seq&#45;&gt;compact_int__seq -->

<!-- string__seq -->

<!-- variant__seq&#45;&gt;string__seq -->

<!-- metadata_type_fields__seq -->
<g id="node6" class="node">
<title>metadata_type_fields__seq</title>
<text text-anchor="middle" x="858" y="-112.3" font-family="Times,serif" font-size="14.00">
              <a xlink:href="sect-metadata#img-metadata-type-fields" xlink:title="MetadataTypeFields">
                MetadataTypeFields
              </a>
            </text>
</g>
<!-- variant__seq&#45;&gt;metadata_type_fields__seq -->
<g id="edge5" class="edge">
<title>variant__seq:composite_type-&gt;metadata_type_fields__seq</title>
<path fill="none" stroke="black" stroke-width="2" d="M733,-116C743.39,-116 754.26,-116 765.07,-116"/>
<polygon fill="black" stroke="black" stroke-width="2" points="763.26,-119.5 773.26,-116 763.26,-112.5 763.26,-119.5"/>
</g>
<!-- string_list__seq -->

<!-- variant__seq&#45;&gt;string_list__seq -->

<!-- compact_int__inst__value -->

<!-- compact_int__inst__value&#45;&gt;metadata_type_variants__seq -->

</g>
</svg>
