<?xml version="1.0" encoding="UTF-8" standalone="no"?>
<!DOCTYPE svg PUBLIC "-//W3C//DTD SVG 1.1//EN"
 "http://www.w3.org/Graphics/SVG/1.1/DTD/svg11.dtd">
<!-- Generated by graphviz version 7.1.0 (20230121.1956)
 -->
<!-- Pages: 1 -->
<svg width="864pt" height="547pt" viewBox="0.00 0.00 864.00 547.00" xmlns="http://www.w3.org/2000/svg" xmlns:xlink="http://www.w3.org/1999/xlink">
<g id="graph0" class="graph" transform="scale(1 1) rotate(0) translate(4 543)">
<polygon fill="white" stroke="none" points="-4,4 -4,-543 860,-543 860,4 -4,4"/>
<g id="clust1" class="cluster">
<title>cluster__metadata_pallet</title>
<polygon fill="none" stroke="black" stroke-dasharray="1,5" points="188,-190 188,-531 720,-531 720,-190 188,-190"/>
<text text-anchor="middle" x="454" y="-515.8" font-family="Times,serif" font-size="14.00">MetadataPallet</text>
</g>
<g id="clust2" class="cluster">
<title>cluster__calls</title>
<polygon fill="none" stroke="black" stroke-dasharray="1,5" points="489,-393 489,-482 712,-482 712,-393 489,-393"/>
<text text-anchor="middle" x="600.5" y="-466.8" font-family="Times,serif" font-size="14.00">MetadataPallet::Calls</text>
</g>
<g id="clust3" class="cluster">
<title>cluster__events</title>
<polygon fill="none" stroke="black" stroke-dasharray="1,5" points="489,-296 489,-385 712,-385 712,-296 489,-296"/>
<text text-anchor="middle" x="600.5" y="-369.8" font-family="Times,serif" font-size="14.00">MetadataPallet::Events</text>
</g>
<g id="clust4" class="cluster">
<title>cluster__errors</title>
<polygon fill="none" stroke="black" stroke-dasharray="1,5" points="489,-199 489,-288 712,-288 712,-199 489,-199"/>
<text text-anchor="middle" x="600.5" y="-272.8" font-family="Times,serif" font-size="14.00">MetadataPallet::Errors</text>
</g>
<!-- metadata_pallet__seq -->
<g id="node1" class="node">
<title>metadata_pallet__seq</title>
<polygon fill="#e0ffe0" stroke="none" points="204.5,-475 204.5,-496 229.5,-496 229.5,-475 204.5,-475"/>
<polygon fill="none" stroke="black" points="204.5,-475 204.5,-496 229.5,-496 229.5,-475 204.5,-475"/>
<text text-anchor="start" x="207.5" y="-481.8" font-family="Times,serif" font-size="14.00">pos</text>
<polygon fill="#e0ffe0" stroke="none" points="229.5,-475 229.5,-496 257.5,-496 257.5,-475 229.5,-475"/>
<polygon fill="none" stroke="black" points="229.5,-475 229.5,-496 257.5,-496 257.5,-475 229.5,-475"/>
<text text-anchor="start" x="232.5" y="-481.8" font-family="Times,serif" font-size="14.00">size</text>
<polygon fill="#e0ffe0" stroke="none" points="257.5,-475 257.5,-496 365.5,-496 365.5,-475 257.5,-475"/>
<polygon fill="none" stroke="black" points="257.5,-475 257.5,-496 365.5,-496 365.5,-475 257.5,-475"/>
<text text-anchor="start" x="299.5" y="-481.8" font-family="Times,serif" font-size="14.00">type</text>
<polygon fill="#e0ffe0" stroke="none" points="365.5,-475 365.5,-496 453.5,-496 453.5,-475 365.5,-475"/>
<polygon fill="none" stroke="black" points="365.5,-475 365.5,-496 453.5,-496 453.5,-475 365.5,-475"/>
<text text-anchor="start" x="404" y="-481.8" font-family="Times,serif" font-size="14.00">id</text>
<polygon fill="none" stroke="black" points="204.5,-454 204.5,-475 229.5,-475 229.5,-454 204.5,-454"/>
<text text-anchor="start" x="213.5" y="-460.8" font-family="Times,serif" font-size="14.00">0</text>
<polygon fill="none" stroke="black" points="229.5,-454 229.5,-475 257.5,-475 257.5,-454 229.5,-454"/>
<text text-anchor="start" x="237.5" y="-460.8" font-family="Times,serif" font-size="14.00">...</text>
<polygon fill="none" stroke="black" points="257.5,-454 257.5,-475 365.5,-475 365.5,-454 257.5,-454"/>
<text text-anchor="start" x="276.5" y="-460.8" font-family="Times,serif" font-size="14.00">Scale::String</text>
<polygon fill="none" stroke="black" points="365.5,-454 365.5,-475 453.5,-475 453.5,-454 365.5,-454"/>
<text text-anchor="start" x="394" y="-460.8" font-family="Times,serif" font-size="14.00">name</text>
<polygon fill="none" stroke="black" points="204.5,-433 204.5,-454 229.5,-454 229.5,-433 204.5,-433"/>
<text text-anchor="start" x="211" y="-439.8" font-family="Times,serif" font-size="14.00">...</text>
<polygon fill="none" stroke="black" points="229.5,-433 229.5,-454 257.5,-454 257.5,-433 229.5,-433"/>
<text text-anchor="start" x="240" y="-439.8" font-family="Times,serif" font-size="14.00">1</text>
<polygon fill="none" stroke="black" points="257.5,-433 257.5,-454 365.5,-454 365.5,-433 257.5,-433"/>
<text text-anchor="start" x="304.5" y="-439.8" font-family="Times,serif" font-size="14.00">u1</text>
<polygon fill="none" stroke="black" points="365.5,-433 365.5,-454 453.5,-454 453.5,-433 365.5,-433"/>
<text text-anchor="start" x="377.5" y="-439.8" font-family="Times,serif" font-size="14.00">has_storage</text>
<polygon fill="none" stroke="black" points="204.5,-412 204.5,-433 229.5,-433 229.5,-412 204.5,-412"/>
<text text-anchor="start" x="211" y="-418.8" font-family="Times,serif" font-size="14.00">...</text>
<polygon fill="none" stroke="black" points="229.5,-412 229.5,-433 257.5,-433 257.5,-412 229.5,-412"/>
<text text-anchor="start" x="237.5" y="-418.8" font-family="Times,serif" font-size="14.00">...</text>
<polygon fill="none" stroke="black" points="257.5,-412 257.5,-433 365.5,-433 365.5,-412 257.5,-412"/>
<text text-anchor="start" x="275" y="-418.8" font-family="Times,serif" font-size="14.00">PalletStorage</text>
<polygon fill="none" stroke="black" points="365.5,-412 365.5,-433 453.5,-433 453.5,-412 365.5,-412"/>
<text text-anchor="start" x="389.5" y="-418.8" font-family="Times,serif" font-size="14.00">storage</text>
<polygon fill="none" stroke="black" points="204.5,-391 204.5,-412 229.5,-412 229.5,-391 204.5,-391"/>
<text text-anchor="start" x="211" y="-397.8" font-family="Times,serif" font-size="14.00">...</text>
<polygon fill="none" stroke="black" points="229.5,-391 229.5,-412 257.5,-412 257.5,-391 229.5,-391"/>
<text text-anchor="start" x="240" y="-397.8" font-family="Times,serif" font-size="14.00">1</text>
<polygon fill="none" stroke="black" points="257.5,-391 257.5,-412 365.5,-412 365.5,-391 257.5,-391"/>
<text text-anchor="start" x="304.5" y="-397.8" font-family="Times,serif" font-size="14.00">u1</text>
<polygon fill="none" stroke="black" points="365.5,-391 365.5,-412 453.5,-412 453.5,-391 365.5,-391"/>
<text text-anchor="start" x="384.5" y="-397.8" font-family="Times,serif" font-size="14.00">has_calls</text>
<polygon fill="none" stroke="black" points="204.5,-370 204.5,-391 229.5,-391 229.5,-370 204.5,-370"/>
<text text-anchor="start" x="211" y="-376.8" font-family="Times,serif" font-size="14.00">...</text>
<polygon fill="none" stroke="black" points="229.5,-370 229.5,-391 257.5,-391 257.5,-370 229.5,-370"/>
<text text-anchor="start" x="237.5" y="-376.8" font-family="Times,serif" font-size="14.00">...</text>
<polygon fill="none" stroke="black" points="257.5,-370 257.5,-391 365.5,-391 365.5,-370 257.5,-370"/>
<text text-anchor="start" x="297.5" y="-376.8" font-family="Times,serif" font-size="14.00">Calls</text>
<polygon fill="none" stroke="black" points="365.5,-370 365.5,-391 453.5,-391 453.5,-370 365.5,-370"/>
<text text-anchor="start" x="397" y="-376.8" font-family="Times,serif" font-size="14.00">calls</text>
<polygon fill="none" stroke="black" points="204.5,-349 204.5,-370 229.5,-370 229.5,-349 204.5,-349"/>
<text text-anchor="start" x="211" y="-355.8" font-family="Times,serif" font-size="14.00">...</text>
<polygon fill="none" stroke="black" points="229.5,-349 229.5,-370 257.5,-370 257.5,-349 229.5,-349"/>
<text text-anchor="start" x="240" y="-355.8" font-family="Times,serif" font-size="14.00">1</text>
<polygon fill="none" stroke="black" points="257.5,-349 257.5,-370 365.5,-370 365.5,-349 257.5,-349"/>
<text text-anchor="start" x="304.5" y="-355.8" font-family="Times,serif" font-size="14.00">u1</text>
<polygon fill="none" stroke="black" points="365.5,-349 365.5,-370 453.5,-370 453.5,-349 365.5,-349"/>
<text text-anchor="start" x="379.5" y="-355.8" font-family="Times,serif" font-size="14.00">has_events</text>
<polygon fill="none" stroke="black" points="204.5,-328 204.5,-349 229.5,-349 229.5,-328 204.5,-328"/>
<text text-anchor="start" x="211" y="-334.8" font-family="Times,serif" font-size="14.00">...</text>
<polygon fill="none" stroke="black" points="229.5,-328 229.5,-349 257.5,-349 257.5,-328 229.5,-328"/>
<text text-anchor="start" x="237.5" y="-334.8" font-family="Times,serif" font-size="14.00">...</text>
<polygon fill="none" stroke="black" points="257.5,-328 257.5,-349 365.5,-349 365.5,-328 257.5,-328"/>
<text text-anchor="start" x="293" y="-334.8" font-family="Times,serif" font-size="14.00">Events</text>
<polygon fill="none" stroke="black" points="365.5,-328 365.5,-349 453.5,-349 453.5,-328 365.5,-328"/>
<text text-anchor="start" x="392" y="-334.8" font-family="Times,serif" font-size="14.00">events</text>
<polygon fill="none" stroke="black" points="204.5,-307 204.5,-328 229.5,-328 229.5,-307 204.5,-307"/>
<text text-anchor="start" x="211" y="-313.8" font-family="Times,serif" font-size="14.00">...</text>
<polygon fill="none" stroke="black" points="229.5,-307 229.5,-328 257.5,-328 257.5,-307 229.5,-307"/>
<text text-anchor="start" x="237.5" y="-313.8" font-family="Times,serif" font-size="14.00">...</text>
<polygon fill="none" stroke="black" points="257.5,-307 257.5,-328 365.5,-328 365.5,-307 257.5,-307"/>
<text text-anchor="start" x="260.5" y="-313.8" font-family="Times,serif" font-size="14.00">Scale::CompactInt</text>
<polygon fill="none" stroke="black" points="365.5,-307 365.5,-328 453.5,-328 453.5,-307 365.5,-307"/>
<text text-anchor="start" x="368.5" y="-313.8" font-family="Times,serif" font-size="14.00">num_constants</text>
<polygon fill="none" stroke="black" points="204.5,-286 204.5,-307 229.5,-307 229.5,-286 204.5,-286"/>
<text text-anchor="start" x="211" y="-292.8" font-family="Times,serif" font-size="14.00">...</text>
<polygon fill="none" stroke="black" points="229.5,-286 229.5,-307 257.5,-307 257.5,-286 229.5,-286"/>
<text text-anchor="start" x="237.5" y="-292.8" font-family="Times,serif" font-size="14.00">...</text>
<polygon fill="none" stroke="black" points="257.5,-286 257.5,-307 365.5,-307 365.5,-286 257.5,-286"/>
<text text-anchor="start" x="272" y="-292.8" font-family="Times,serif" font-size="14.00">PalletConstant</text>
<polygon fill="none" stroke="black" points="365.5,-286 365.5,-307 453.5,-307 453.5,-286 365.5,-286"/>
<text text-anchor="start" x="384" y="-292.8" font-family="Times,serif" font-size="14.00">constants</text>
<polygon fill="none" stroke="black" points="204.5,-265 204.5,-286 453.5,-286 453.5,-265 204.5,-265"/>
<text text-anchor="start" x="236" y="-271.8" font-family="Times,serif" font-size="14.00">repeat num_constants.value times</text>
<polygon fill="none" stroke="black" points="204.5,-244 204.5,-265 229.5,-265 229.5,-244 204.5,-244"/>
<text text-anchor="start" x="211" y="-250.8" font-family="Times,serif" font-size="14.00">...</text>
<polygon fill="none" stroke="black" points="229.5,-244 229.5,-265 257.5,-265 257.5,-244 229.5,-244"/>
<text text-anchor="start" x="240" y="-250.8" font-family="Times,serif" font-size="14.00">1</text>
<polygon fill="none" stroke="black" points="257.5,-244 257.5,-265 365.5,-265 365.5,-244 257.5,-244"/>
<text text-anchor="start" x="304.5" y="-250.8" font-family="Times,serif" font-size="14.00">u1</text>
<polygon fill="none" stroke="black" points="365.5,-244 365.5,-265 453.5,-265 453.5,-244 365.5,-244"/>
<text text-anchor="start" x="381" y="-250.8" font-family="Times,serif" font-size="14.00">has_errors</text>
<polygon fill="none" stroke="black" points="204.5,-223 204.5,-244 229.5,-244 229.5,-223 204.5,-223"/>
<text text-anchor="start" x="211" y="-229.8" font-family="Times,serif" font-size="14.00">...</text>
<polygon fill="none" stroke="black" points="229.5,-223 229.5,-244 257.5,-244 257.5,-223 229.5,-223"/>
<text text-anchor="start" x="237.5" y="-229.8" font-family="Times,serif" font-size="14.00">...</text>
<polygon fill="none" stroke="black" points="257.5,-223 257.5,-244 365.5,-244 365.5,-223 257.5,-223"/>
<text text-anchor="start" x="294.5" y="-229.8" font-family="Times,serif" font-size="14.00">Errors</text>
<polygon fill="none" stroke="black" points="365.5,-223 365.5,-244 453.5,-244 453.5,-223 365.5,-223"/>
<text text-anchor="start" x="393.5" y="-229.8" font-family="Times,serif" font-size="14.00">errors</text>
<polygon fill="none" stroke="black" points="204.5,-202 204.5,-223 229.5,-223 229.5,-202 204.5,-202"/>
<text text-anchor="start" x="211" y="-208.8" font-family="Times,serif" font-size="14.00">...</text>
<polygon fill="none" stroke="black" points="229.5,-202 229.5,-223 257.5,-223 257.5,-202 229.5,-202"/>
<text text-anchor="start" x="240" y="-208.8" font-family="Times,serif" font-size="14.00">1</text>
<polygon fill="none" stroke="black" points="257.5,-202 257.5,-223 365.5,-223 365.5,-202 257.5,-202"/>
<text text-anchor="start" x="304.5" y="-208.8" font-family="Times,serif" font-size="14.00">u1</text>
<polygon fill="none" stroke="black" points="365.5,-202 365.5,-223 453.5,-223 453.5,-202 365.5,-202"/>
<text text-anchor="start" x="394" y="-208.8" font-family="Times,serif" font-size="14.00">index</text>
</g>
<!-- calls__seq -->
<g id="node2" class="node">
<title>calls__seq</title>
<polygon fill="#e0ffe0" stroke="none" points="505.5,-426 505.5,-447 530.5,-447 530.5,-426 505.5,-426"/>
<polygon fill="none" stroke="black" points="505.5,-426 505.5,-447 530.5,-447 530.5,-426 505.5,-426"/>
<text text-anchor="start" x="508.5" y="-432.8" font-family="Times,serif" font-size="14.00">pos</text>
<polygon fill="#e0ffe0" stroke="none" points="530.5,-426 530.5,-447 558.5,-447 558.5,-426 530.5,-426"/>
<polygon fill="none" stroke="black" points="530.5,-426 530.5,-447 558.5,-447 558.5,-426 530.5,-426"/>
<text text-anchor="start" x="533.5" y="-432.8" font-family="Times,serif" font-size="14.00">size</text>
<polygon fill="#e0ffe0" stroke="none" points="558.5,-426 558.5,-447 666.5,-447 666.5,-426 558.5,-426"/>
<polygon fill="none" stroke="black" points="558.5,-426 558.5,-447 666.5,-447 666.5,-426 558.5,-426"/>
<text text-anchor="start" x="600.5" y="-432.8" font-family="Times,serif" font-size="14.00">type</text>
<polygon fill="#e0ffe0" stroke="none" points="666.5,-426 666.5,-447 696.5,-447 696.5,-426 666.5,-426"/>
<polygon fill="none" stroke="black" points="666.5,-426 666.5,-447 696.5,-447 696.5,-426 666.5,-426"/>
<text text-anchor="start" x="676" y="-432.8" font-family="Times,serif" font-size="14.00">id</text>
<polygon fill="none" stroke="black" points="505.5,-405 505.5,-426 530.5,-426 530.5,-405 505.5,-405"/>
<text text-anchor="start" x="514.5" y="-411.8" font-family="Times,serif" font-size="14.00">0</text>
<polygon fill="none" stroke="black" points="530.5,-405 530.5,-426 558.5,-426 558.5,-405 530.5,-405"/>
<text text-anchor="start" x="538.5" y="-411.8" font-family="Times,serif" font-size="14.00">...</text>
<polygon fill="none" stroke="black" points="558.5,-405 558.5,-426 666.5,-426 666.5,-405 558.5,-405"/>
<text text-anchor="start" x="561.5" y="-411.8" font-family="Times,serif" font-size="14.00">Scale::CompactInt</text>
<polygon fill="none" stroke="black" points="666.5,-405 666.5,-426 696.5,-426 696.5,-405 666.5,-405"/>
<text text-anchor="start" x="669.5" y="-411.8" font-family="Times,serif" font-size="14.00">type</text>
</g>
<!-- metadata_pallet__seq&#45;&gt;calls__seq -->
<g id="edge3" class="edge">
<title>metadata_pallet__seq:calls_type-&gt;calls__seq</title>
<path fill="none" stroke="black" stroke-width="2" d="M454.5,-381C461.45,-381 487.31,-388.65 515.3,-397.63"/>
<polygon fill="black" stroke="black" stroke-width="2" points="512.63,-400.45 523.22,-400.2 514.79,-393.79 512.63,-400.45"/>
</g>
<!-- events__seq -->
<g id="node3" class="node">
<title>events__seq</title>
<polygon fill="#e0ffe0" stroke="none" points="505.5,-329 505.5,-350 530.5,-350 530.5,-329 505.5,-329"/>
<polygon fill="none" stroke="black" points="505.5,-329 505.5,-350 530.5,-350 530.5,-329 505.5,-329"/>
<text text-anchor="start" x="508.5" y="-335.8" font-family="Times,serif" font-size="14.00">pos</text>
<polygon fill="#e0ffe0" stroke="none" points="530.5,-329 530.5,-350 558.5,-350 558.5,-329 530.5,-329"/>
<polygon fill="none" stroke="black" points="530.5,-329 530.5,-350 558.5,-350 558.5,-329 530.5,-329"/>
<text text-anchor="start" x="533.5" y="-335.8" font-family="Times,serif" font-size="14.00">size</text>
<polygon fill="#e0ffe0" stroke="none" points="558.5,-329 558.5,-350 666.5,-350 666.5,-329 558.5,-329"/>
<polygon fill="none" stroke="black" points="558.5,-329 558.5,-350 666.5,-350 666.5,-329 558.5,-329"/>
<text text-anchor="start" x="600.5" y="-335.8" font-family="Times,serif" font-size="14.00">type</text>
<polygon fill="#e0ffe0" stroke="none" points="666.5,-329 666.5,-350 696.5,-350 696.5,-329 666.5,-329"/>
<polygon fill="none" stroke="black" points="666.5,-329 666.5,-350 696.5,-350 696.5,-329 666.5,-329"/>
<text text-anchor="start" x="676" y="-335.8" font-family="Times,serif" font-size="14.00">id</text>
<polygon fill="none" stroke="black" points="505.5,-308 505.5,-329 530.5,-329 530.5,-308 505.5,-308"/>
<text text-anchor="start" x="514.5" y="-314.8" font-family="Times,serif" font-size="14.00">0</text>
<polygon fill="none" stroke="black" points="530.5,-308 530.5,-329 558.5,-329 558.5,-308 530.5,-308"/>
<text text-anchor="start" x="538.5" y="-314.8" font-family="Times,serif" font-size="14.00">...</text>
<polygon fill="none" stroke="black" points="558.5,-308 558.5,-329 666.5,-329 666.5,-308 558.5,-308"/>
<text text-anchor="start" x="561.5" y="-314.8" font-family="Times,serif" font-size="14.00">Scale::CompactInt</text>
<polygon fill="none" stroke="black" points="666.5,-308 666.5,-329 696.5,-329 696.5,-308 666.5,-308"/>
<text text-anchor="start" x="669.5" y="-314.8" font-family="Times,serif" font-size="14.00">type</text>
</g>
<!-- metadata_pallet__seq&#45;&gt;events__seq -->
<g id="edge4" class="edge">
<title>metadata_pallet__seq:events_type-&gt;events__seq</title>
<path fill="none" stroke="black" stroke-width="2" d="M454.5,-338C464.69,-338 475.27,-337.78 485.87,-337.4"/>
<polygon fill="black" stroke="black" stroke-width="2" points="484.48,-340.96 494.33,-337.06 484.2,-333.96 484.48,-340.96"/>
</g>
<!-- errors__seq -->
<g id="node4" class="node">
<title>errors__seq</title>
<polygon fill="#e0ffe0" stroke="none" points="505.5,-232 505.5,-253 530.5,-253 530.5,-232 505.5,-232"/>
<polygon fill="none" stroke="black" points="505.5,-232 505.5,-253 530.5,-253 530.5,-232 505.5,-232"/>
<text text-anchor="start" x="508.5" y="-238.8" font-family="Times,serif" font-size="14.00">pos</text>
<polygon fill="#e0ffe0" stroke="none" points="530.5,-232 530.5,-253 558.5,-253 558.5,-232 530.5,-232"/>
<polygon fill="none" stroke="black" points="530.5,-232 530.5,-253 558.5,-253 558.5,-232 530.5,-232"/>
<text text-anchor="start" x="533.5" y="-238.8" font-family="Times,serif" font-size="14.00">size</text>
<polygon fill="#e0ffe0" stroke="none" points="558.5,-232 558.5,-253 666.5,-253 666.5,-232 558.5,-232"/>
<polygon fill="none" stroke="black" points="558.5,-232 558.5,-253 666.5,-253 666.5,-232 558.5,-232"/>
<text text-anchor="start" x="600.5" y="-238.8" font-family="Times,serif" font-size="14.00">type</text>
<polygon fill="#e0ffe0" stroke="none" points="666.5,-232 666.5,-253 696.5,-253 696.5,-232 666.5,-232"/>
<polygon fill="none" stroke="black" points="666.5,-232 666.5,-253 696.5,-253 696.5,-232 666.5,-232"/>
<text text-anchor="start" x="676" y="-238.8" font-family="Times,serif" font-size="14.00">id</text>
<polygon fill="none" stroke="black" points="505.5,-211 505.5,-232 530.5,-232 530.5,-211 505.5,-211"/>
<text text-anchor="start" x="514.5" y="-217.8" font-family="Times,serif" font-size="14.00">0</text>
<polygon fill="none" stroke="black" points="530.5,-211 530.5,-232 558.5,-232 558.5,-211 530.5,-211"/>
<text text-anchor="start" x="538.5" y="-217.8" font-family="Times,serif" font-size="14.00">...</text>
<polygon fill="none" stroke="black" points="558.5,-211 558.5,-232 666.5,-232 666.5,-211 558.5,-211"/>
<text text-anchor="start" x="561.5" y="-217.8" font-family="Times,serif" font-size="14.00">Scale::CompactInt</text>
<polygon fill="none" stroke="black" points="666.5,-211 666.5,-232 696.5,-232 696.5,-211 666.5,-211"/>
<text text-anchor="start" x="669.5" y="-217.8" font-family="Times,serif" font-size="14.00">type</text>
</g>
<!-- metadata_pallet__seq&#45;&gt;errors__seq -->
<g id="edge8" class="edge">
<title>metadata_pallet__seq:errors_type-&gt;errors__seq</title>
<path fill="none" stroke="black" stroke-width="2" d="M454.5,-233C464.67,-233 475.24,-232.98 485.83,-232.93"/>
<polygon fill="black" stroke="black" stroke-width="2" points="484.3,-236.44 494.28,-232.9 484.27,-229.44 484.3,-236.44"/>
</g>
<!-- string__seq -->

<!-- metadata_pallet__seq&#45;&gt;string__seq -->

<!-- pallet_storage__seq -->
<g id="node6" class="node">
<title>pallet_storage__seq</title>
<text text-anchor="middle" x="600.5" y="-106.3" font-family="Times,serif" font-size="14.00">
              <a xlink:href="sect-metadata#img-pallet-storage" xlink:title="PalletStorage">
                PalletStorage
              </a>
            </text>
</g>
<!-- metadata_pallet__seq&#45;&gt;pallet_storage__seq -->
<g id="edge2" class="edge">
<title>metadata_pallet__seq:storage_type-&gt;pallet_storage__seq</title>
<path fill="none" stroke="black" stroke-width="2" d="M454.5,-423C518.52,-423 446.52,-184.89 489,-137 499.12,-125.59 513.2,-118.6 527.92,-114.42"/>
<polygon fill="black" stroke="black" stroke-width="2" points="526.85,-118.27 535.76,-112.54 525.22,-111.46 526.85,-118.27"/>
</g>
<!-- compact_int__seq -->

<!-- metadata_pallet__seq&#45;&gt;compact_int__seq -->

<!-- pallet_constant__seq -->
<g id="node8" class="node">
<title>pallet_constant__seq</title>
<text text-anchor="middle" x="600.5" y="-14.3" font-family="Times,serif" font-size="14.00">
              <a xlink:href="sect-metadata#img-pallet-constant" xlink:title="PalletConstant">
                PalletConstant
              </a>
            </text>
</g>
<!-- metadata_pallet__seq&#45;&gt;pallet_constant__seq -->
<g id="edge6" class="edge">
<title>metadata_pallet__seq:constants_type-&gt;pallet_constant__seq</title>
<path fill="none" stroke="black" stroke-width="2" d="M454.5,-296C509.7,-296 452.85,-91.71 489,-50 498.34,-39.22 511.07,-31.97 524.57,-27.11"/>
<polygon fill="black" stroke="black" stroke-width="2" points="524.11,-30.92 532.62,-24.6 522.03,-24.23 524.11,-30.92"/>
</g>
<!-- calls__seq&#45;&gt;compact_int__seq -->

<!-- events__seq&#45;&gt;compact_int__seq -->

<!-- errors__seq&#45;&gt;compact_int__seq -->

<!-- compact_int__inst__value -->

<!-- compact_int__inst__value&#45;&gt;metadata_pallet__seq -->

</g>
</svg>
