<?xml version="1.0" encoding="UTF-8" standalone="no"?>
<!DOCTYPE svg PUBLIC "-//W3C//DTD SVG 1.1//EN"
 "http://www.w3.org/Graphics/SVG/1.1/DTD/svg11.dtd">
<!-- Generated by graphviz version 7.1.0 (20230121.1956)
 -->
<!-- Pages: 1 -->
<svg width="924pt" height="849pt"
 viewBox="0.00 0.00 924.00 849.00" xmlns="http://www.w3.org/2000/svg" xmlns:xlink="http://www.w3.org/1999/xlink">
<g id="graph0" class="graph" transform="scale(1 1) rotate(0) translate(4 845)">
<polygon fill="white" stroke="none" points="-4,4 -4,-845 920,-845 920,4 -4,4"/>
<g id="clust1" class="cluster">
<title>cluster__metadata_type_definition</title>
<polygon fill="none" stroke="black" stroke-dasharray="1,5" points="8,-98 8,-797 780,-797 780,-98 8,-98"/>
<text text-anchor="middle" x="394" y="-781.8" font-family="Times,serif" font-size="14.00">MetadataTypeDefinition</text>
</g>
<g id="clust2" class="cluster">
<title>cluster__array</title>
<polygon fill="none" stroke="black" stroke-dasharray="1,5" points="525.5,-397 525.5,-508 758.5,-508 758.5,-397 525.5,-397"/>
<text text-anchor="middle" x="642" y="-492.8" font-family="Times,serif" font-size="14.00">MetadataTypeDefinition::Array</text>
</g>
<g id="clust3" class="cluster">
<title>cluster__sequence</title>
<polygon fill="none" stroke="black" stroke-dasharray="1,5" points="530.5,-300 530.5,-389 753.5,-389 753.5,-300 530.5,-300"/>
<text text-anchor="middle" x="642" y="-373.8" font-family="Times,serif" font-size="14.00">MetadataTypeDefinition::Sequence</text>
</g>
<g id="clust4" class="cluster">
<title>cluster__primitive</title>
<polygon fill="none" stroke="black" stroke-dasharray="1,5" points="538,-203 538,-292 747,-292 747,-203 538,-203"/>
<text text-anchor="middle" x="642.5" y="-276.8" font-family="Times,serif" font-size="14.00">MetadataTypeDefinition::Primitive</text>
</g>
<g id="clust5" class="cluster">
<title>cluster__tuple</title>
<polygon fill="none" stroke="black" stroke-dasharray="1,5" points="512,-635 512,-766 772,-766 772,-635 512,-635"/>
<text text-anchor="middle" x="642" y="-750.8" font-family="Times,serif" font-size="14.00">MetadataTypeDefinition::Tuple</text>
</g>
<g id="clust6" class="cluster">
<title>cluster__bits</title>
<polygon fill="none" stroke="black" stroke-dasharray="1,5" points="528,-516 528,-627 756,-627 756,-516 528,-516"/>
<text text-anchor="middle" x="642" y="-611.8" font-family="Times,serif" font-size="14.00">MetadataTypeDefinition::Bits</text>
</g>
<g id="clust7" class="cluster">
<title>cluster__compact</title>
<polygon fill="none" stroke="black" stroke-dasharray="1,5" points="530.5,-106 530.5,-195 753.5,-195 753.5,-106 530.5,-106"/>
<text text-anchor="middle" x="642" y="-179.8" font-family="Times,serif" font-size="14.00">MetadataTypeDefinition::Compact</text>
</g>
<!-- metadata_type_definition__seq -->
<g id="node1" class="node">
<title>metadata_type_definition__seq</title>
<polygon fill="#e0ffe0" stroke="none" points="24.5,-328 24.5,-349 49.5,-349 49.5,-328 24.5,-328"/>
<polygon fill="none" stroke="black" points="24.5,-328 24.5,-349 49.5,-349 49.5,-328 24.5,-328"/>
<text text-anchor="start" x="27.5" y="-334.8" font-family="Times,serif" font-size="14.00">pos</text>
<polygon fill="#e0ffe0" stroke="none" points="49.5,-328 49.5,-349 77.5,-349 77.5,-328 49.5,-328"/>
<polygon fill="none" stroke="black" points="49.5,-328 49.5,-349 77.5,-349 77.5,-328 49.5,-328"/>
<text text-anchor="start" x="52.5" y="-334.8" font-family="Times,serif" font-size="14.00">size</text>
<polygon fill="#e0ffe0" stroke="none" points="77.5,-328 77.5,-349 155.5,-349 155.5,-328 77.5,-328"/>
<polygon fill="none" stroke="black" points="77.5,-328 77.5,-349 155.5,-349 155.5,-328 77.5,-328"/>
<text text-anchor="start" x="104.5" y="-334.8" font-family="Times,serif" font-size="14.00">type</text>
<polygon fill="#e0ffe0" stroke="none" points="155.5,-328 155.5,-349 197.5,-349 197.5,-328 155.5,-328"/>
<polygon fill="none" stroke="black" points="155.5,-328 155.5,-349 197.5,-349 197.5,-328 155.5,-328"/>
<text text-anchor="start" x="171" y="-334.8" font-family="Times,serif" font-size="14.00">id</text>
<polygon fill="none" stroke="black" points="24.5,-307 24.5,-328 49.5,-328 49.5,-307 24.5,-307"/>
<text text-anchor="start" x="33.5" y="-313.8" font-family="Times,serif" font-size="14.00">0</text>
<polygon fill="none" stroke="black" points="49.5,-307 49.5,-328 77.5,-328 77.5,-307 49.5,-307"/>
<text text-anchor="start" x="60" y="-313.8" font-family="Times,serif" font-size="14.00">1</text>
<polygon fill="none" stroke="black" points="77.5,-307 77.5,-328 155.5,-328 155.5,-307 77.5,-307"/>
<text text-anchor="start" x="88.5" y="-313.8" font-family="Times,serif" font-size="14.00">u1→Type</text>
<polygon fill="none" stroke="black" points="155.5,-307 155.5,-328 197.5,-328 197.5,-307 155.5,-307"/>
<text text-anchor="start" x="164.5" y="-313.8" font-family="Times,serif" font-size="14.00">type</text>
<polygon fill="none" stroke="black" points="24.5,-286 24.5,-307 49.5,-307 49.5,-286 24.5,-286"/>
<text text-anchor="start" x="33.5" y="-292.8" font-family="Times,serif" font-size="14.00">1</text>
<polygon fill="none" stroke="black" points="49.5,-286 49.5,-307 77.5,-307 77.5,-286 49.5,-286"/>
<text text-anchor="start" x="57.5" y="-292.8" font-family="Times,serif" font-size="14.00">...</text>
<polygon fill="none" stroke="black" points="77.5,-286 77.5,-307 155.5,-307 155.5,-286 77.5,-286"/>
<text text-anchor="start" x="80.5" y="-292.8" font-family="Times,serif" font-size="14.00">switch (type)</text>
<polygon fill="none" stroke="black" points="155.5,-286 155.5,-307 197.5,-307 197.5,-286 155.5,-286"/>
<text text-anchor="start" x="158.5" y="-292.8" font-family="Times,serif" font-size="14.00">details</text>
</g>
<!-- metadata_type_definition__seq&#45;&gt;metadata_type_definition__seq -->
<g id="edge10" class="edge">
<title>metadata_type_definition__seq:type_type&#45;&gt;metadata_type_definition__seq:details_type</title>
<path fill="none" stroke="#404040" d="M155.55,-324.59C114.52,-343.55 121.5,-371.5 176.5,-371.5 226.78,-371.5 236.93,-334.78 206.96,-310.88"/>
<polygon fill="#404040" stroke="#404040" points="208.97,-308.01 198.71,-305.36 205.08,-313.83 208.97,-308.01"/>
</g>
<!-- metadata_type_definition__seq_details_switch -->
<g id="node2" class="node">
<title>metadata_type_definition__seq_details_switch</title>
<polygon fill="#f0f2e4" stroke="none" points="249.5,-369 249.5,-390 346.5,-390 346.5,-369 249.5,-369"/>
<polygon fill="none" stroke="black" points="249.5,-369 249.5,-390 346.5,-390 346.5,-369 249.5,-369"/>
<text text-anchor="start" x="286" y="-375.8" font-family="Times,serif" font-size="14.00">case</text>
<polygon fill="#f0f2e4" stroke="none" points="346.5,-369 346.5,-390 476.5,-390 476.5,-369 346.5,-369"/>
<polygon fill="none" stroke="black" points="346.5,-369 346.5,-390 476.5,-390 476.5,-369 346.5,-369"/>
<text text-anchor="start" x="399.5" y="-375.8" font-family="Times,serif" font-size="14.00">type</text>
<polygon fill="none" stroke="black" points="249.5,-348 249.5,-369 346.5,-369 346.5,-348 249.5,-348"/>
<text text-anchor="start" x="252.5" y="-354.8" font-family="Times,serif" font-size="14.00">:type_composite</text>
<polygon fill="none" stroke="black" points="346.5,-348 346.5,-369 476.5,-369 476.5,-348 346.5,-348"/>
<text text-anchor="start" x="355.5" y="-354.8" font-family="Times,serif" font-size="14.00">MetadataTypeFields</text>
<polygon fill="none" stroke="black" points="249.5,-327 249.5,-348 346.5,-348 346.5,-327 249.5,-327"/>
<text text-anchor="start" x="271" y="-333.8" font-family="Times,serif" font-size="14.00">:type_bits</text>
<polygon fill="none" stroke="black" points="346.5,-327 346.5,-348 476.5,-348 476.5,-327 346.5,-327"/>
<text text-anchor="start" x="400.5" y="-333.8" font-family="Times,serif" font-size="14.00">Bits</text>
<polygon fill="none" stroke="black" points="249.5,-306 249.5,-327 346.5,-327 346.5,-306 249.5,-306"/>
<text text-anchor="start" x="267" y="-312.8" font-family="Times,serif" font-size="14.00">:type_array</text>
<polygon fill="none" stroke="black" points="346.5,-306 346.5,-327 476.5,-327 476.5,-306 346.5,-306"/>
<text text-anchor="start" x="395.5" y="-312.8" font-family="Times,serif" font-size="14.00">Array</text>
<polygon fill="none" stroke="black" points="249.5,-285 249.5,-306 346.5,-306 346.5,-285 249.5,-285"/>
<text text-anchor="start" x="256" y="-291.8" font-family="Times,serif" font-size="14.00">:type_sequence</text>
<polygon fill="none" stroke="black" points="346.5,-285 346.5,-306 476.5,-306 476.5,-285 346.5,-285"/>
<text text-anchor="start" x="385.5" y="-291.8" font-family="Times,serif" font-size="14.00">Sequence</text>
<polygon fill="none" stroke="black" points="249.5,-264 249.5,-285 346.5,-285 346.5,-264 249.5,-264"/>
<text text-anchor="start" x="255.5" y="-270.8" font-family="Times,serif" font-size="14.00">:type_primitive</text>
<polygon fill="none" stroke="black" points="346.5,-264 346.5,-285 476.5,-285 476.5,-264 346.5,-264"/>
<text text-anchor="start" x="385.5" y="-270.8" font-family="Times,serif" font-size="14.00">Primitive</text>
<polygon fill="none" stroke="black" points="249.5,-243 249.5,-264 346.5,-264 346.5,-243 249.5,-243"/>
<text text-anchor="start" x="257.5" y="-249.8" font-family="Times,serif" font-size="14.00">:type_compact</text>
<polygon fill="none" stroke="black" points="346.5,-243 346.5,-264 476.5,-264 476.5,-243 346.5,-243"/>
<text text-anchor="start" x="386.5" y="-249.8" font-family="Times,serif" font-size="14.00">Compact</text>
<polygon fill="none" stroke="black" points="249.5,-222 249.5,-243 346.5,-243 346.5,-222 249.5,-222"/>
<text text-anchor="start" x="262" y="-228.8" font-family="Times,serif" font-size="14.00">:type_variant</text>
<polygon fill="none" stroke="black" points="346.5,-222 346.5,-243 476.5,-243 476.5,-222 346.5,-222"/>
<text text-anchor="start" x="349.5" y="-228.8" font-family="Times,serif" font-size="14.00">MetadataTypeVariants</text>
<polygon fill="none" stroke="black" points="249.5,-201 249.5,-222 346.5,-222 346.5,-201 249.5,-201"/>
<text text-anchor="start" x="267.5" y="-207.8" font-family="Times,serif" font-size="14.00">:type_tuple</text>
<polygon fill="none" stroke="black" points="346.5,-201 346.5,-222 476.5,-222 476.5,-201 346.5,-201"/>
<text text-anchor="start" x="395.5" y="-207.8" font-family="Times,serif" font-size="14.00">Tuple</text>
</g>
<!-- metadata_type_definition__seq&#45;&gt;metadata_type_definition__seq_details_switch -->
<g id="edge1" class="edge">
<title>metadata_type_definition__seq:details_type&#45;&gt;metadata_type_definition__seq_details_switch</title>
<path fill="none" stroke="black" stroke-width="2" d="M198.5,-296C208.68,-296 219.22,-296 229.82,-296"/>
<polygon fill="black" stroke="black" stroke-width="2" points="228.3,-299.5 238.3,-296 228.3,-292.5 228.3,-299.5"/>
</g>
<!-- array__seq -->
<g id="node3" class="node">
<title>array__seq</title>
<polygon fill="#e0ffe0" stroke="none" points="542,-451 542,-472 567,-472 567,-451 542,-451"/>
<polygon fill="none" stroke="black" points="542,-451 542,-472 567,-472 567,-451 542,-451"/>
<text text-anchor="start" x="545" y="-457.8" font-family="Times,serif" font-size="14.00">pos</text>
<polygon fill="#e0ffe0" stroke="none" points="567,-451 567,-472 595,-472 595,-451 567,-451"/>
<polygon fill="none" stroke="black" points="567,-451 567,-472 595,-472 595,-451 567,-451"/>
<text text-anchor="start" x="570" y="-457.8" font-family="Times,serif" font-size="14.00">size</text>
<polygon fill="#e0ffe0" stroke="none" points="595,-451 595,-472 703,-472 703,-451 595,-451"/>
<polygon fill="none" stroke="black" points="595,-451 595,-472 703,-472 703,-451 595,-451"/>
<text text-anchor="start" x="637" y="-457.8" font-family="Times,serif" font-size="14.00">type</text>
<polygon fill="#e0ffe0" stroke="none" points="703,-451 703,-472 743,-472 743,-451 703,-451"/>
<polygon fill="none" stroke="black" points="703,-451 703,-472 743,-472 743,-451 703,-451"/>
<text text-anchor="start" x="717.5" y="-457.8" font-family="Times,serif" font-size="14.00">id</text>
<polygon fill="none" stroke="black" points="542,-430 542,-451 567,-451 567,-430 542,-430"/>
<text text-anchor="start" x="551" y="-436.8" font-family="Times,serif" font-size="14.00">0</text>
<polygon fill="none" stroke="black" points="567,-430 567,-451 595,-451 595,-430 567,-430"/>
<text text-anchor="start" x="577.5" y="-436.8" font-family="Times,serif" font-size="14.00">4</text>
<polygon fill="none" stroke="black" points="595,-430 595,-451 703,-451 703,-430 595,-430"/>
<text text-anchor="start" x="637" y="-436.8" font-family="Times,serif" font-size="14.00">u4le</text>
<polygon fill="none" stroke="black" points="703,-430 703,-451 743,-451 743,-430 703,-430"/>
<text text-anchor="start" x="706" y="-436.8" font-family="Times,serif" font-size="14.00">length</text>
<polygon fill="none" stroke="black" points="542,-409 542,-430 567,-430 567,-409 542,-409"/>
<text text-anchor="start" x="551" y="-415.8" font-family="Times,serif" font-size="14.00">4</text>
<polygon fill="none" stroke="black" points="567,-409 567,-430 595,-430 595,-409 567,-409"/>
<text text-anchor="start" x="575" y="-415.8" font-family="Times,serif" font-size="14.00">...</text>
<polygon fill="none" stroke="black" points="595,-409 595,-430 703,-430 703,-409 595,-409"/>
<text text-anchor="start" x="598" y="-415.8" font-family="Times,serif" font-size="14.00">Scale::CompactInt</text>
<polygon fill="none" stroke="black" points="703,-409 703,-430 743,-430 743,-409 703,-409"/>
<text text-anchor="start" x="711" y="-415.8" font-family="Times,serif" font-size="14.00">type</text>
</g>
<!-- metadata_type_definition__seq_details_switch&#45;&gt;array__seq -->
<g id="edge4" class="edge">
<title>metadata_type_definition__seq_details_switch:case2&#45;&gt;array__seq</title>
<path fill="none" stroke="black" stroke-width="2" d="M477.5,-317C514.6,-317 484.87,-367.7 512,-393 515.74,-396.49 519.75,-399.72 523.97,-402.73"/>
<polygon fill="black" stroke="black" stroke-width="2" points="520.68,-404.76 530.97,-407.3 524.51,-398.9 520.68,-404.76"/>
</g>
<!-- sequence__seq -->
<g id="node4" class="node">
<title>sequence__seq</title>
<polygon fill="#e0ffe0" stroke="none" points="547,-333 547,-354 572,-354 572,-333 547,-333"/>
<polygon fill="none" stroke="black" points="547,-333 547,-354 572,-354 572,-333 547,-333"/>
<text text-anchor="start" x="550" y="-339.8" font-family="Times,serif" font-size="14.00">pos</text>
<polygon fill="#e0ffe0" stroke="none" points="572,-333 572,-354 600,-354 600,-333 572,-333"/>
<polygon fill="none" stroke="black" points="572,-333 572,-354 600,-354 600,-333 572,-333"/>
<text text-anchor="start" x="575" y="-339.8" font-family="Times,serif" font-size="14.00">size</text>
<polygon fill="#e0ffe0" stroke="none" points="600,-333 600,-354 708,-354 708,-333 600,-333"/>
<polygon fill="none" stroke="black" points="600,-333 600,-354 708,-354 708,-333 600,-333"/>
<text text-anchor="start" x="642" y="-339.8" font-family="Times,serif" font-size="14.00">type</text>
<polygon fill="#e0ffe0" stroke="none" points="708,-333 708,-354 738,-354 738,-333 708,-333"/>
<polygon fill="none" stroke="black" points="708,-333 708,-354 738,-354 738,-333 708,-333"/>
<text text-anchor="start" x="717.5" y="-339.8" font-family="Times,serif" font-size="14.00">id</text>
<polygon fill="none" stroke="black" points="547,-312 547,-333 572,-333 572,-312 547,-312"/>
<text text-anchor="start" x="556" y="-318.8" font-family="Times,serif" font-size="14.00">0</text>
<polygon fill="none" stroke="black" points="572,-312 572,-333 600,-333 600,-312 572,-312"/>
<text text-anchor="start" x="580" y="-318.8" font-family="Times,serif" font-size="14.00">...</text>
<polygon fill="none" stroke="black" points="600,-312 600,-333 708,-333 708,-312 600,-312"/>
<text text-anchor="start" x="603" y="-318.8" font-family="Times,serif" font-size="14.00">Scale::CompactInt</text>
<polygon fill="none" stroke="black" points="708,-312 708,-333 738,-333 738,-312 708,-312"/>
<text text-anchor="start" x="711" y="-318.8" font-family="Times,serif" font-size="14.00">type</text>
</g>
<!-- metadata_type_definition__seq_details_switch&#45;&gt;sequence__seq -->
<g id="edge5" class="edge">
<title>metadata_type_definition__seq_details_switch:case3&#45;&gt;sequence__seq</title>
<path fill="none" stroke="black" stroke-width="2" d="M477.5,-295C503.14,-295 530.47,-299.49 555.29,-305.38"/>
<polygon fill="black" stroke="black" stroke-width="2" points="552.65,-308.33 563.2,-307.35 554.34,-301.54 552.65,-308.33"/>
</g>
<!-- primitive__seq -->
<g id="node5" class="node">
<title>primitive__seq</title>
<polygon fill="#e0ffe0" stroke="none" points="581,-236 581,-257 606,-257 606,-236 581,-236"/>
<polygon fill="none" stroke="black" points="581,-236 581,-257 606,-257 606,-236 581,-236"/>
<text text-anchor="start" x="584" y="-242.8" font-family="Times,serif" font-size="14.00">pos</text>
<polygon fill="#e0ffe0" stroke="none" points="606,-236 606,-257 634,-257 634,-236 606,-236"/>
<polygon fill="none" stroke="black" points="606,-236 606,-257 634,-257 634,-236 606,-236"/>
<text text-anchor="start" x="609" y="-242.8" font-family="Times,serif" font-size="14.00">size</text>
<polygon fill="#e0ffe0" stroke="none" points="634,-236 634,-257 686,-257 686,-236 634,-236"/>
<polygon fill="none" stroke="black" points="634,-236 634,-257 686,-257 686,-236 634,-236"/>
<text text-anchor="start" x="648" y="-242.8" font-family="Times,serif" font-size="14.00">type</text>
<polygon fill="#e0ffe0" stroke="none" points="686,-236 686,-257 703,-257 703,-236 686,-236"/>
<polygon fill="none" stroke="black" points="686,-236 686,-257 703,-257 703,-236 686,-236"/>
<text text-anchor="start" x="689" y="-242.8" font-family="Times,serif" font-size="14.00">id</text>
<polygon fill="none" stroke="black" points="581,-215 581,-236 606,-236 606,-215 581,-215"/>
<text text-anchor="start" x="590" y="-221.8" font-family="Times,serif" font-size="14.00">0</text>
<polygon fill="none" stroke="black" points="606,-215 606,-236 634,-236 634,-215 606,-215"/>
<text text-anchor="start" x="616.5" y="-221.8" font-family="Times,serif" font-size="14.00">1</text>
<polygon fill="none" stroke="black" points="634,-215 634,-236 686,-236 686,-215 634,-215"/>
<text text-anchor="start" x="637" y="-221.8" font-family="Times,serif" font-size="14.00">u1→Pid</text>
<polygon fill="none" stroke="black" points="686,-215 686,-236 703,-236 703,-215 686,-215"/>
<text text-anchor="start" x="689" y="-221.8" font-family="Times,serif" font-size="14.00">id</text>
</g>
<!-- metadata_type_definition__seq_details_switch&#45;&gt;primitive__seq -->
<g id="edge6" class="edge">
<title>metadata_type_definition__seq_details_switch:case4&#45;&gt;primitive__seq</title>
<path fill="none" stroke="black" stroke-width="2" d="M477.5,-274C505.55,-274 535.61,-268.63 562.22,-261.93"/>
<polygon fill="black" stroke="black" stroke-width="2" points="561.29,-265.79 570.07,-259.86 559.51,-259.02 561.29,-265.79"/>
</g>
<!-- tuple__seq -->
<g id="node6" class="node">
<title>tuple__seq</title>
<polygon fill="#e0ffe0" stroke="none" points="528,-710 528,-731 553,-731 553,-710 528,-710"/>
<polygon fill="none" stroke="black" points="528,-710 528,-731 553,-731 553,-710 528,-710"/>
<text text-anchor="start" x="531" y="-716.8" font-family="Times,serif" font-size="14.00">pos</text>
<polygon fill="#e0ffe0" stroke="none" points="553,-710 553,-731 581,-731 581,-710 553,-710"/>
<polygon fill="none" stroke="black" points="553,-710 553,-731 581,-731 581,-710 553,-710"/>
<text text-anchor="start" x="556" y="-716.8" font-family="Times,serif" font-size="14.00">size</text>
<polygon fill="#e0ffe0" stroke="none" points="581,-710 581,-731 689,-731 689,-710 581,-710"/>
<polygon fill="none" stroke="black" points="581,-710 581,-731 689,-731 689,-710 581,-710"/>
<text text-anchor="start" x="623" y="-716.8" font-family="Times,serif" font-size="14.00">type</text>
<polygon fill="#e0ffe0" stroke="none" points="689,-710 689,-731 756,-731 756,-710 689,-710"/>
<polygon fill="none" stroke="black" points="689,-710 689,-731 756,-731 756,-710 689,-710"/>
<text text-anchor="start" x="717" y="-716.8" font-family="Times,serif" font-size="14.00">id</text>
<polygon fill="none" stroke="black" points="528,-689 528,-710 553,-710 553,-689 528,-689"/>
<text text-anchor="start" x="537" y="-695.8" font-family="Times,serif" font-size="14.00">0</text>
<polygon fill="none" stroke="black" points="553,-689 553,-710 581,-710 581,-689 553,-689"/>
<text text-anchor="start" x="561" y="-695.8" font-family="Times,serif" font-size="14.00">...</text>
<polygon fill="none" stroke="black" points="581,-689 581,-710 689,-710 689,-689 581,-689"/>
<text text-anchor="start" x="584" y="-695.8" font-family="Times,serif" font-size="14.00">Scale::CompactInt</text>
<polygon fill="none" stroke="black" points="689,-689 689,-710 756,-710 756,-689 689,-689"/>
<text text-anchor="start" x="692" y="-695.8" font-family="Times,serif" font-size="14.00">num_types</text>
<polygon fill="none" stroke="black" points="528,-668 528,-689 553,-689 553,-668 528,-668"/>
<text text-anchor="start" x="534.5" y="-674.8" font-family="Times,serif" font-size="14.00">...</text>
<polygon fill="none" stroke="black" points="553,-668 553,-689 581,-689 581,-668 553,-668"/>
<text text-anchor="start" x="561" y="-674.8" font-family="Times,serif" font-size="14.00">...</text>
<polygon fill="none" stroke="black" points="581,-668 581,-689 689,-689 689,-668 581,-668"/>
<text text-anchor="start" x="584" y="-674.8" font-family="Times,serif" font-size="14.00">Scale::CompactInt</text>
<polygon fill="none" stroke="black" points="689,-668 689,-689 756,-689 756,-668 689,-668"/>
<text text-anchor="start" x="708" y="-674.8" font-family="Times,serif" font-size="14.00">types</text>
<polygon fill="none" stroke="black" points="528,-647 528,-668 756,-668 756,-647 528,-647"/>
<text text-anchor="start" x="560" y="-653.8" font-family="Times,serif" font-size="14.00">repeat num_types.value times</text>
</g>
<!-- metadata_type_definition__seq_details_switch&#45;&gt;tuple__seq -->
<g id="edge9" class="edge">
<title>metadata_type_definition__seq_details_switch:case7&#45;&gt;tuple__seq</title>
<path fill="none" stroke="black" stroke-width="2" d="M477.5,-211C524.32,-211 484.98,-592.76 512,-631 512.86,-632.21 513.75,-633.4 514.66,-634.56"/>
<polygon fill="black" stroke="black" stroke-width="2" points="510.94,-635.66 520.22,-640.76 516.15,-630.98 510.94,-635.66"/>
</g>
<!-- bits__seq -->
<g id="node7" class="node">
<title>bits__seq</title>
<polygon fill="#e0ffe0" stroke="none" points="544,-570 544,-591 569,-591 569,-570 544,-570"/>
<polygon fill="none" stroke="black" points="544,-570 544,-591 569,-591 569,-570 544,-570"/>
<text text-anchor="start" x="547" y="-576.8" font-family="Times,serif" font-size="14.00">pos</text>
<polygon fill="#e0ffe0" stroke="none" points="569,-570 569,-591 597,-591 597,-570 569,-570"/>
<polygon fill="none" stroke="black" points="569,-570 569,-591 597,-591 597,-570 569,-570"/>
<text text-anchor="start" x="572" y="-576.8" font-family="Times,serif" font-size="14.00">size</text>
<polygon fill="#e0ffe0" stroke="none" points="597,-570 597,-591 705,-591 705,-570 597,-570"/>
<polygon fill="none" stroke="black" points="597,-570 597,-591 705,-591 705,-570 597,-570"/>
<text text-anchor="start" x="639" y="-576.8" font-family="Times,serif" font-size="14.00">type</text>
<polygon fill="#e0ffe0" stroke="none" points="705,-570 705,-591 740,-591 740,-570 705,-570"/>
<polygon fill="none" stroke="black" points="705,-570 705,-591 740,-591 740,-570 705,-570"/>
<text text-anchor="start" x="717" y="-576.8" font-family="Times,serif" font-size="14.00">id</text>
<polygon fill="none" stroke="black" points="544,-549 544,-570 569,-570 569,-549 544,-549"/>
<text text-anchor="start" x="553" y="-555.8" font-family="Times,serif" font-size="14.00">0</text>
<polygon fill="none" stroke="black" points="569,-549 569,-570 597,-570 597,-549 569,-549"/>
<text text-anchor="start" x="577" y="-555.8" font-family="Times,serif" font-size="14.00">...</text>
<polygon fill="none" stroke="black" points="597,-549 597,-570 705,-570 705,-549 597,-549"/>
<text text-anchor="start" x="600" y="-555.8" font-family="Times,serif" font-size="14.00">Scale::CompactInt</text>
<polygon fill="none" stroke="black" points="705,-549 705,-570 740,-570 740,-549 705,-549"/>
<text text-anchor="start" x="710.5" y="-555.8" font-family="Times,serif" font-size="14.00">type</text>
<polygon fill="none" stroke="black" points="544,-528 544,-549 569,-549 569,-528 544,-528"/>
<text text-anchor="start" x="550.5" y="-534.8" font-family="Times,serif" font-size="14.00">...</text>
<polygon fill="none" stroke="black" points="569,-528 569,-549 597,-549 597,-528 569,-528"/>
<text text-anchor="start" x="577" y="-534.8" font-family="Times,serif" font-size="14.00">...</text>
<polygon fill="none" stroke="black" points="597,-528 597,-549 705,-549 705,-528 597,-528"/>
<text text-anchor="start" x="600" y="-534.8" font-family="Times,serif" font-size="14.00">Scale::CompactInt</text>
<polygon fill="none" stroke="black" points="705,-528 705,-549 740,-549 740,-528 705,-528"/>
<text text-anchor="start" x="708" y="-534.8" font-family="Times,serif" font-size="14.00">order</text>
</g>
<!-- metadata_type_definition__seq_details_switch&#45;&gt;bits__seq -->
<g id="edge3" class="edge">
<title>metadata_type_definition__seq_details_switch:case1&#45;&gt;bits__seq</title>
<path fill="none" stroke="black" stroke-width="2" d="M477.5,-338C556.34,-338 460.9,-451.96 512,-512 516.37,-517.13 521.33,-521.71 526.72,-525.8"/>
<polygon fill="black" stroke="black" stroke-width="2" points="523.41,-527.78 533.64,-530.53 527.36,-522 523.41,-527.78"/>
</g>
<!-- compact__seq -->
<g id="node8" class="node">
<title>compact__seq</title>
<polygon fill="#e0ffe0" stroke="none" points="547,-139 547,-160 572,-160 572,-139 547,-139"/>
<polygon fill="none" stroke="black" points="547,-139 547,-160 572,-160 572,-139 547,-139"/>
<text text-anchor="start" x="550" y="-145.8" font-family="Times,serif" font-size="14.00">pos</text>
<polygon fill="#e0ffe0" stroke="none" points="572,-139 572,-160 600,-160 600,-139 572,-139"/>
<polygon fill="none" stroke="black" points="572,-139 572,-160 600,-160 600,-139 572,-139"/>
<text text-anchor="start" x="575" y="-145.8" font-family="Times,serif" font-size="14.00">size</text>
<polygon fill="#e0ffe0" stroke="none" points="600,-139 600,-160 708,-160 708,-139 600,-139"/>
<polygon fill="none" stroke="black" points="600,-139 600,-160 708,-160 708,-139 600,-139"/>
<text text-anchor="start" x="642" y="-145.8" font-family="Times,serif" font-size="14.00">type</text>
<polygon fill="#e0ffe0" stroke="none" points="708,-139 708,-160 738,-160 738,-139 708,-139"/>
<polygon fill="none" stroke="black" points="708,-139 708,-160 738,-160 738,-139 708,-139"/>
<text text-anchor="start" x="717.5" y="-145.8" font-family="Times,serif" font-size="14.00">id</text>
<polygon fill="none" stroke="black" points="547,-118 547,-139 572,-139 572,-118 547,-118"/>
<text text-anchor="start" x="556" y="-124.8" font-family="Times,serif" font-size="14.00">0</text>
<polygon fill="none" stroke="black" points="572,-118 572,-139 600,-139 600,-118 572,-118"/>
<text text-anchor="start" x="580" y="-124.8" font-family="Times,serif" font-size="14.00">...</text>
<polygon fill="none" stroke="black" points="600,-118 600,-139 708,-139 708,-118 600,-118"/>
<text text-anchor="start" x="603" y="-124.8" font-family="Times,serif" font-size="14.00">Scale::CompactInt</text>
<polygon fill="none" stroke="black" points="708,-118 708,-139 738,-139 738,-118 708,-118"/>
<text text-anchor="start" x="711" y="-124.8" font-family="Times,serif" font-size="14.00">type</text>
</g>
<!-- metadata_type_definition__seq_details_switch&#45;&gt;compact__seq -->
<g id="edge7" class="edge">
<title>metadata_type_definition__seq_details_switch:case5&#45;&gt;compact__seq</title>
<path fill="none" stroke="black" stroke-width="2" d="M477.5,-253C505.98,-253 490.57,-217.75 512,-199 525.62,-187.08 542.02,-177.07 558.48,-168.85"/>
<polygon fill="black" stroke="black" stroke-width="2" points="558.47,-172.73 565.99,-165.26 555.46,-166.41 558.47,-172.73"/>
</g>
<!-- metadata_type_fields__seq -->
<g id="node9" class="node">
<title>metadata_type_fields__seq</title>
<text text-anchor="middle" x="642" y="-68.3" font-family="Times,serif" font-size="14.00">metadata_type_fields__seq</text>
</g>
<!-- metadata_type_definition__seq_details_switch&#45;&gt;metadata_type_fields__seq -->
<g id="edge2" class="edge">
<title>metadata_type_definition__seq_details_switch:case0&#45;&gt;metadata_type_fields__seq</title>
<path fill="none" stroke="black" stroke-width="2" d="M477.5,-359C535.12,-359 473.24,-144.64 512,-102 521.98,-91.02 535.13,-83.67 549.22,-78.81"/>
<polygon fill="black" stroke="black" stroke-width="2" points="548.64,-82.64 557.23,-76.43 546.65,-75.93 548.64,-82.64"/>
</g>
<!-- metadata_type_variants__seq -->
<g id="node10" class="node">
<title>metadata_type_variants__seq</title>
<text text-anchor="middle" x="642" y="-14.3" font-family="Times,serif" font-size="14.00">metadata_type_variants__seq</text>
</g>
<!-- metadata_type_definition__seq_details_switch&#45;&gt;metadata_type_variants__seq -->
<g id="edge8" class="edge">
<title>metadata_type_definition__seq_details_switch:case6&#45;&gt;metadata_type_variants__seq</title>
<path fill="none" stroke="black" stroke-width="2" d="M477.5,-232C562.01,-232 452.96,-105.47 512,-45 520.63,-36.16 531.35,-29.85 542.91,-25.4"/>
<polygon fill="black" stroke="black" stroke-width="2" points="542.45,-29.23 550.84,-22.76 540.25,-22.59 542.45,-29.23"/>
</g>
<!-- compact_int__seq -->
<g id="node11" class="node">
<title>compact_int__seq</title>
<text text-anchor="middle" x="858" y="-534.3" font-family="Times,serif" font-size="14.00">compact_int__seq</text>
</g>
<!-- array__seq&#45;&gt;compact_int__seq -->
<g id="edge11" class="edge">
<title>array__seq:type_type&#45;&gt;compact_int__seq</title>
<path fill="none" stroke="black" stroke-width="2" d="M744,-419C793.96,-419 828.5,-474.84 845.3,-510.02"/>
<polygon fill="black" stroke="black" stroke-width="2" points="841.35,-509.79 848.68,-517.43 847.71,-506.88 841.35,-509.79"/>
</g>
<!-- sequence__seq&#45;&gt;compact_int__seq -->
<g id="edge12" class="edge">
<title>sequence__seq:type_type&#45;&gt;compact_int__seq</title>
<path fill="none" stroke="black" stroke-width="2" d="M739,-322C823.35,-322 847.78,-450.43 854.54,-509.23"/>
<polygon fill="black" stroke="black" stroke-width="2" points="850.87,-507.73 855.39,-517.31 857.83,-507 850.87,-507.73"/>
</g>
<!-- tuple__seq&#45;&gt;compact_int__seq -->
<g id="edge13" class="edge">
<title>tuple__seq:num_types_type&#45;&gt;compact_int__seq</title>
<path fill="none" stroke="black" stroke-width="2" d="M757,-700C818.72,-700 843.61,-613.8 852.56,-567.15"/>
<polygon fill="black" stroke="black" stroke-width="2" points="855.71,-569.39 854.01,-558.94 848.82,-568.17 855.71,-569.39"/>
</g>
<!-- tuple__seq&#45;&gt;compact_int__seq -->
<g id="edge14" class="edge">
<title>tuple__seq:types_type&#45;&gt;compact_int__seq</title>
<path fill="none" stroke="black" stroke-width="2" d="M757,-678C811.22,-678 838.82,-607.62 850.3,-566.66"/>
<polygon fill="black" stroke="black" stroke-width="2" points="853.24,-569.22 852.4,-558.66 846.47,-567.44 853.24,-569.22"/>
</g>
<!-- bits__seq&#45;&gt;compact_int__seq -->
<g id="edge16" class="edge">
<title>bits__seq:type_type&#45;&gt;compact_int__seq</title>
<path fill="none" stroke="black" stroke-width="2" d="M741,-559C756.65,-559 773.29,-557.13 788.94,-554.5"/>
<polygon fill="black" stroke="black" stroke-width="2" points="787.94,-558.24 797.16,-553.01 786.7,-551.35 787.94,-558.24"/>
</g>
<!-- bits__seq&#45;&gt;compact_int__seq -->
<g id="edge17" class="edge">
<title>bits__seq:order_type&#45;&gt;compact_int__seq</title>
<path fill="none" stroke="black" stroke-width="2" d="M741,-538C756.48,-538 773.11,-538 788.82,-538"/>
<polygon fill="black" stroke="black" stroke-width="2" points="787.04,-541.5 797.04,-538 787.04,-534.5 787.04,-541.5"/>
</g>
<!-- compact__seq&#45;&gt;compact_int__seq -->
<g id="edge18" class="edge">
<title>compact__seq:type_type&#45;&gt;compact_int__seq</title>
<path fill="none" stroke="black" stroke-width="2" d="M739,-128C818.31,-128 847.5,-414.87 854.93,-508.69"/>
<polygon fill="black" stroke="black" stroke-width="2" points="851.32,-507.4 855.57,-517.1 858.3,-506.86 851.32,-507.4"/>
</g>
<!-- compact_int__inst__value -->
<g id="node12" class="node">
<title>compact_int__inst__value</title>
<text text-anchor="middle" x="362.5" y="-819.3" font-family="Times,serif" font-size="14.00">compact_int__inst__value</text>
</g>
<!-- compact_int__inst__value&#45;&gt;tuple__seq -->
<g id="edge15" class="edge">
<title>compact_int__inst__value:value_type&#45;&gt;tuple__seq:types__repeat</title>
<path fill="none" stroke="#404040" d="M442.47,-821.23C457.67,-817.6 472.44,-811.36 484,-801 530.54,-759.3 469.17,-669.59 515.76,-658.2"/>
<polygon fill="#404040" stroke="#404040" points="515.92,-661.7 525.49,-657.16 515.18,-654.74 515.92,-661.7"/>
</g>
</g>
</svg>
