<?xml version="1.0" encoding="UTF-8" standalone="no"?>
<!DOCTYPE svg PUBLIC "-//W3C//DTD SVG 1.1//EN"
 "http://www.w3.org/Graphics/SVG/1.1/DTD/svg11.dtd">
<!-- Generated by graphviz version 8.0.2 (20230410.1723)
 -->
<!-- Pages: 1 -->
<svg width="671pt" height="387pt" viewBox="0.00 0.00 671.00 387.00" xmlns="http://www.w3.org/2000/svg" xmlns:xlink="http://www.w3.org/1999/xlink">
<g id="graph0" class="graph" transform="scale(1 1) rotate(0) translate(4 383)">
<polygon fill="white" stroke="none" points="-4,4 -4,-383 667,-383 667,4 -4,4"/>
<g id="clust1" class="cluster">
<title>cluster__metadata</title>
<polygon fill="white" stroke="black" stroke-dasharray="1,5" points="188,-8 188,-371 484,-371 484,-8 188,-8"/>
<text text-anchor="middle" x="336" y="-355.8" font-family="Times,serif" font-size="14.00">Metadata</text>
</g>
<!-- metadata__seq -->
<g id="node1" class="node">
<title>metadata__seq</title>
<polygon fill="#e6007a4f" stroke="none" points="204,-314.5 204,-335.5 229,-335.5 229,-314.5 204,-314.5"/>
<polygon fill="none" stroke="black" points="204,-314.5 204,-335.5 229,-335.5 229,-314.5 204,-314.5"/>
<text text-anchor="start" x="207" y="-321.3" font-family="Times,serif" font-size="14.00">pos</text>
<polygon fill="#e6007a4f" stroke="none" points="229,-314.5 229,-335.5 257,-335.5 257,-314.5 229,-314.5"/>
<polygon fill="none" stroke="black" points="229,-314.5 229,-335.5 257,-335.5 257,-314.5 229,-314.5"/>
<text text-anchor="start" x="232" y="-321.3" font-family="Times,serif" font-size="14.00">size</text>
<polygon fill="#e6007a4f" stroke="none" points="257,-314.5 257,-335.5 365,-335.5 365,-314.5 257,-314.5"/>
<polygon fill="none" stroke="black" points="257,-314.5 257,-335.5 365,-335.5 365,-314.5 257,-314.5"/>
<text text-anchor="start" x="299" y="-321.3" font-family="Times,serif" font-size="14.00">type</text>
<polygon fill="#e6007a4f" stroke="none" points="365,-314.5 365,-335.5 468,-335.5 468,-314.5 365,-314.5"/>
<polygon fill="none" stroke="black" points="365,-314.5 365,-335.5 468,-335.5 468,-314.5 365,-314.5"/>
<text text-anchor="start" x="411" y="-321.3" font-family="Times,serif" font-size="14.00">id</text>
<polygon fill="none" stroke="black" points="204,-293.5 204,-314.5 229,-314.5 229,-293.5 204,-293.5"/>
<text text-anchor="start" x="213" y="-300.3" font-family="Times,serif" font-size="14.00">0</text>
<polygon fill="none" stroke="black" points="229,-293.5 229,-314.5 257,-314.5 257,-293.5 229,-293.5"/>
<text text-anchor="start" x="239.5" y="-300.3" font-family="Times,serif" font-size="14.00">4</text>
<polygon fill="none" stroke="black" points="257,-293.5 257,-314.5 365,-314.5 365,-293.5 257,-293.5"/>
<polygon fill="none" stroke="black" points="365,-293.5 365,-314.5 468,-314.5 468,-293.5 365,-293.5"/>
<text text-anchor="start" x="399.5" y="-300.3" font-family="Times,serif" font-size="14.00">magic</text>
<polygon fill="none" stroke="black" points="204,-272.5 204,-293.5 229,-293.5 229,-272.5 204,-272.5"/>
<text text-anchor="start" x="213" y="-279.3" font-family="Times,serif" font-size="14.00">4</text>
<polygon fill="none" stroke="black" points="229,-272.5 229,-293.5 257,-293.5 257,-272.5 229,-272.5"/>
<text text-anchor="start" x="239.5" y="-279.3" font-family="Times,serif" font-size="14.00">1</text>
<polygon fill="none" stroke="black" points="257,-272.5 257,-293.5 365,-293.5 365,-272.5 257,-272.5"/>
<text text-anchor="start" x="304" y="-279.3" font-family="Times,serif" font-size="14.00">u1</text>
<polygon fill="none" stroke="black" points="365,-272.5 365,-293.5 468,-293.5 468,-272.5 365,-272.5"/>
<text text-anchor="start" x="368" y="-279.3" font-family="Times,serif" font-size="14.00">metadata_version</text>
<polygon fill="none" stroke="black" points="204,-251.5 204,-272.5 229,-272.5 229,-251.5 204,-251.5"/>
<text text-anchor="start" x="213" y="-258.3" font-family="Times,serif" font-size="14.00">5</text>
<polygon fill="none" stroke="black" points="229,-251.5 229,-272.5 257,-272.5 257,-251.5 229,-251.5"/>
<text text-anchor="start" x="237" y="-258.3" font-family="Times,serif" font-size="14.00">...</text>
<polygon fill="none" stroke="black" points="257,-251.5 257,-272.5 365,-272.5 365,-251.5 257,-251.5"/>
<text text-anchor="start" x="260" y="-258.3" font-family="Times,serif" font-size="14.00">Scale::CompactInt</text>
<polygon fill="none" stroke="black" points="365,-251.5 365,-272.5 468,-272.5 468,-251.5 365,-251.5"/>
<text text-anchor="start" x="386" y="-258.3" font-family="Times,serif" font-size="14.00">num_types</text>
<polygon fill="none" stroke="black" points="204,-230.5 204,-251.5 229,-251.5 229,-230.5 204,-230.5"/>
<text text-anchor="start" x="210.5" y="-237.3" font-family="Times,serif" font-size="14.00">...</text>
<polygon fill="none" stroke="black" points="229,-230.5 229,-251.5 257,-251.5 257,-230.5 229,-230.5"/>
<text text-anchor="start" x="237" y="-237.3" font-family="Times,serif" font-size="14.00">...</text>
<polygon fill="none" stroke="black" points="257,-230.5 257,-251.5 365,-251.5 365,-230.5 257,-230.5"/>
<text text-anchor="start" x="271.5" y="-237.3" font-family="Times,serif" font-size="14.00">MetadataType</text>
<polygon fill="none" stroke="black" points="365,-230.5 365,-251.5 468,-251.5 468,-230.5 365,-230.5"/>
<text text-anchor="start" x="402" y="-237.3" font-family="Times,serif" font-size="14.00">types</text>
<polygon fill="none" stroke="black" points="204,-209.5 204,-230.5 468,-230.5 468,-209.5 204,-209.5"/>
<text text-anchor="start" x="254" y="-216.3" font-family="Times,serif" font-size="14.00">repeat num_types.value times</text>
<polygon fill="none" stroke="black" points="204,-188.5 204,-209.5 229,-209.5 229,-188.5 204,-188.5"/>
<text text-anchor="start" x="210.5" y="-195.3" font-family="Times,serif" font-size="14.00">...</text>
<polygon fill="none" stroke="black" points="229,-188.5 229,-209.5 257,-209.5 257,-188.5 229,-188.5"/>
<text text-anchor="start" x="237" y="-195.3" font-family="Times,serif" font-size="14.00">...</text>
<polygon fill="none" stroke="black" points="257,-188.5 257,-209.5 365,-209.5 365,-188.5 257,-188.5"/>
<text text-anchor="start" x="260" y="-195.3" font-family="Times,serif" font-size="14.00">Scale::CompactInt</text>
<polygon fill="none" stroke="black" points="365,-188.5 365,-209.5 468,-209.5 468,-188.5 365,-188.5"/>
<text text-anchor="start" x="383" y="-195.3" font-family="Times,serif" font-size="14.00">num_pallets</text>
<polygon fill="none" stroke="black" points="204,-167.5 204,-188.5 229,-188.5 229,-167.5 204,-167.5"/>
<text text-anchor="start" x="210.5" y="-174.3" font-family="Times,serif" font-size="14.00">...</text>
<polygon fill="none" stroke="black" points="229,-167.5 229,-188.5 257,-188.5 257,-167.5 229,-167.5"/>
<text text-anchor="start" x="237" y="-174.3" font-family="Times,serif" font-size="14.00">...</text>
<polygon fill="none" stroke="black" points="257,-167.5 257,-188.5 365,-188.5 365,-167.5 257,-167.5"/>
<text text-anchor="start" x="270" y="-174.3" font-family="Times,serif" font-size="14.00">MetadataPallet</text>
<polygon fill="none" stroke="black" points="365,-167.5 365,-188.5 468,-188.5 468,-167.5 365,-167.5"/>
<text text-anchor="start" x="398.5" y="-174.3" font-family="Times,serif" font-size="14.00">pallets</text>
<polygon fill="none" stroke="black" points="204,-146.5 204,-167.5 468,-167.5 468,-146.5 204,-146.5"/>
<text text-anchor="start" x="250.5" y="-153.3" font-family="Times,serif" font-size="14.00">repeat num_pallets.value times</text>
<polygon fill="none" stroke="black" points="204,-125.5 204,-146.5 229,-146.5 229,-125.5 204,-125.5"/>
<text text-anchor="start" x="210.5" y="-132.3" font-family="Times,serif" font-size="14.00">...</text>
<polygon fill="none" stroke="black" points="229,-125.5 229,-146.5 257,-146.5 257,-125.5 229,-125.5"/>
<text text-anchor="start" x="237" y="-132.3" font-family="Times,serif" font-size="14.00">...</text>
<polygon fill="none" stroke="black" points="257,-125.5 257,-146.5 365,-146.5 365,-125.5 257,-125.5"/>
<text text-anchor="start" x="260" y="-132.3" font-family="Times,serif" font-size="14.00">Scale::CompactInt</text>
<polygon fill="none" stroke="black" points="365,-125.5 365,-146.5 468,-146.5 468,-125.5 365,-125.5"/>
<text text-anchor="start" x="378" y="-132.3" font-family="Times,serif" font-size="14.00">extrinsic_type</text>
<polygon fill="none" stroke="black" points="204,-104.5 204,-125.5 229,-125.5 229,-104.5 204,-104.5"/>
<text text-anchor="start" x="210.5" y="-111.3" font-family="Times,serif" font-size="14.00">...</text>
<polygon fill="none" stroke="black" points="229,-104.5 229,-125.5 257,-125.5 257,-104.5 229,-104.5"/>
<text text-anchor="start" x="239.5" y="-111.3" font-family="Times,serif" font-size="14.00">1</text>
<polygon fill="none" stroke="black" points="257,-104.5 257,-125.5 365,-125.5 365,-104.5 257,-104.5"/>
<text text-anchor="start" x="304" y="-111.3" font-family="Times,serif" font-size="14.00">u1</text>
<polygon fill="none" stroke="black" points="365,-104.5 365,-125.5 468,-125.5 468,-104.5 365,-104.5"/>
<text text-anchor="start" x="369.5" y="-111.3" font-family="Times,serif" font-size="14.00">extrinsic_version</text>
<polygon fill="none" stroke="black" points="204,-83.5 204,-104.5 229,-104.5 229,-83.5 204,-83.5"/>
<text text-anchor="start" x="210.5" y="-90.3" font-family="Times,serif" font-size="14.00">...</text>
<polygon fill="none" stroke="black" points="229,-83.5 229,-104.5 257,-104.5 257,-83.5 229,-83.5"/>
<text text-anchor="start" x="237" y="-90.3" font-family="Times,serif" font-size="14.00">...</text>
<polygon fill="none" stroke="black" points="257,-83.5 257,-104.5 365,-104.5 365,-83.5 257,-83.5"/>
<text text-anchor="start" x="260" y="-90.3" font-family="Times,serif" font-size="14.00">Scale::CompactInt</text>
<polygon fill="none" stroke="black" points="365,-83.5 365,-104.5 468,-104.5 468,-83.5 365,-83.5"/>
<text text-anchor="start" x="374.5" y="-90.3" font-family="Times,serif" font-size="14.00">num_extrinsics</text>
<polygon fill="none" stroke="black" points="204,-62.5 204,-83.5 229,-83.5 229,-62.5 204,-62.5"/>
<text text-anchor="start" x="210.5" y="-69.3" font-family="Times,serif" font-size="14.00">...</text>
<polygon fill="none" stroke="black" points="229,-62.5 229,-83.5 257,-83.5 257,-62.5 229,-62.5"/>
<text text-anchor="start" x="237" y="-69.3" font-family="Times,serif" font-size="14.00">...</text>
<polygon fill="none" stroke="black" points="257,-62.5 257,-83.5 365,-83.5 365,-62.5 257,-62.5"/>
<text text-anchor="start" x="261" y="-69.3" font-family="Times,serif" font-size="14.00">MetadataExtrinsic</text>
<polygon fill="none" stroke="black" points="365,-62.5 365,-83.5 468,-83.5 468,-62.5 365,-62.5"/>
<text text-anchor="start" x="390.5" y="-69.3" font-family="Times,serif" font-size="14.00">extrinsics</text>
<polygon fill="none" stroke="black" points="204,-41.5 204,-62.5 468,-62.5 468,-41.5 204,-41.5"/>
<text text-anchor="start" x="242.5" y="-48.3" font-family="Times,serif" font-size="14.00">repeat num_extrinsics.value times</text>
<polygon fill="none" stroke="black" points="204,-20.5 204,-41.5 229,-41.5 229,-20.5 204,-20.5"/>
<text text-anchor="start" x="210.5" y="-27.3" font-family="Times,serif" font-size="14.00">...</text>
<polygon fill="none" stroke="black" points="229,-20.5 229,-41.5 257,-41.5 257,-20.5 229,-20.5"/>
<text text-anchor="start" x="237" y="-27.3" font-family="Times,serif" font-size="14.00">...</text>
<polygon fill="none" stroke="black" points="257,-20.5 257,-41.5 365,-41.5 365,-20.5 257,-20.5"/>
<text text-anchor="start" x="260" y="-27.3" font-family="Times,serif" font-size="14.00">Scale::CompactInt</text>
<polygon fill="none" stroke="black" points="365,-20.5 365,-41.5 468,-41.5 468,-20.5 365,-20.5"/>
<text text-anchor="start" x="380" y="-27.3" font-family="Times,serif" font-size="14.00">runtime_type</text>
</g>
<!-- compact_int__seq -->

<!-- metadata__seq&#45;&gt;compact_int__seq -->

<!-- metadata__seq&#45;&gt;compact_int__seq -->

<!-- metadata__seq&#45;&gt;compact_int__seq -->

<!-- metadata__seq&#45;&gt;compact_int__seq -->

<!-- metadata__seq&#45;&gt;compact_int__seq -->

<!-- metadata_type__seq -->
<g id="node3" class="node">
<title>metadata_type__seq</title>
<text text-anchor="middle" x="587.5" y="-237.3" font-family="Times,serif" font-size="14.00">
              <a xlink:href="sect-metadata#img-metadata-type" xlink:title="MetadataType">
                MetadataType
              </a>
            </text>
</g>
<!-- metadata__seq&#45;&gt;metadata_type__seq -->
<g id="edge2" class="edge">
<title>metadata__seq:types_type-&gt;metadata_type__seq</title>
<path fill="none" stroke="black" stroke-width="2" d="M469,-241C483.14,-241 498.24,-241 512.74,-241"/>
<polygon fill="black" stroke="black" stroke-width="2" points="510.69,-244.5 520.69,-241 510.69,-237.5 510.69,-244.5"/>
</g>
<!-- metadata_pallet__seq -->
<g id="node5" class="node">
<title>metadata_pallet__seq</title>
<text text-anchor="middle" x="587.5" y="-180.3" font-family="Times,serif" font-size="14.00">
              <a xlink:href="sect-metadata#img-metadata-pallet" xlink:title="MetadataPallet">
                MetadataPallet
              </a>
            </text>
</g>
<!-- metadata__seq&#45;&gt;metadata_pallet__seq -->
<g id="edge5" class="edge">
<title>metadata__seq:pallets_type-&gt;metadata_pallet__seq</title>
<path fill="none" stroke="black" stroke-width="2" d="M469,-178C482.22,-178 496.26,-178.38 509.86,-178.96"/>
<polygon fill="black" stroke="black" stroke-width="2" points="507.51,-182.49 517.66,-179.45 507.83,-175.5 507.51,-182.49"/>
</g>
<!-- metadata_extrinsic__seq -->
<g id="node6" class="node">
<title>metadata_extrinsic__seq</title>
<text text-anchor="middle" x="587.5" y="-69.3" font-family="Times,serif" font-size="14.00">
              <a xlink:href="sect-metadata#img-metadata-extrinsic" xlink:title="MetadataExtrinsic">
                MetadataExtrinsic
              </a>
            </text>
</g>
<!-- metadata__seq&#45;&gt;metadata_extrinsic__seq -->
<g id="edge9" class="edge">
<title>metadata__seq:extrinsics_type-&gt;metadata_extrinsic__seq</title>
<path fill="none" stroke="black" stroke-width="2" d="M469,-73C479.48,-73 490.49,-73 501.38,-73"/>
<polygon fill="black" stroke="black" stroke-width="2" points="499.22,-76.5 509.22,-73 499.22,-69.5 499.22,-76.5"/>
</g>
<!-- compact_int__inst__value -->

<!-- compact_int__inst__value&#45;&gt;metadata__seq -->

<!-- compact_int__inst__value&#45;&gt;metadata__seq -->

<!-- compact_int__inst__value&#45;&gt;metadata__seq -->

</g>
</svg>
