<?xml version="1.0" encoding="UTF-8" standalone="no"?>
<!DOCTYPE svg PUBLIC "-//W3C//DTD SVG 1.1//EN"
 "http://www.w3.org/Graphics/SVG/1.1/DTD/svg11.dtd">
<!-- Generated by graphviz version 7.1.0 (20230121.1956)
 -->
<!-- Pages: 1 -->
<svg width="887pt" height="216pt" viewBox="0.00 0.00 887.00 216.00" xmlns="http://www.w3.org/2000/svg" xmlns:xlink="http://www.w3.org/1999/xlink">
<g id="graph0" class="graph" transform="scale(1 1) rotate(0) translate(4 212)">
<polygon fill="white" stroke="none" points="-4,4 -4,-212 883,-212 883,4 -4,4"/>
<g id="clust1" class="cluster">
<title>cluster__metadata_type_fields</title>
<polygon fill="none" stroke="black" stroke-dasharray="1,5" points="188,-8 188,-200 737,-200 737,-8 188,-8"/>
<text text-anchor="middle" x="462.5" y="-184.8" font-family="Times,serif" font-size="14.00">MetadataTypeFields</text>
</g>
<g id="clust2" class="cluster">
<title>cluster__field</title>
<polygon fill="none" stroke="black" stroke-dasharray="1,5" points="469,-16 469,-169 729,-169 729,-16 469,-16"/>
<text text-anchor="middle" x="599" y="-153.8" font-family="Times,serif" font-size="14.00">MetadataTypeFields::Field</text>
</g>
<!-- metadata_type_fields__seq -->
<g id="node1" class="node">
<title>metadata_type_fields__seq</title>
<polygon fill="#e0ffe0" stroke="none" points="204.5,-128 204.5,-149 229.5,-149 229.5,-128 204.5,-128"/>
<polygon fill="none" stroke="black" points="204.5,-128 204.5,-149 229.5,-149 229.5,-128 204.5,-128"/>
<text text-anchor="start" x="207.5" y="-134.8" font-family="Times,serif" font-size="14.00">pos</text>
<polygon fill="#e0ffe0" stroke="none" points="229.5,-128 229.5,-149 257.5,-149 257.5,-128 229.5,-128"/>
<polygon fill="none" stroke="black" points="229.5,-128 229.5,-149 257.5,-149 257.5,-128 229.5,-128"/>
<text text-anchor="start" x="232.5" y="-134.8" font-family="Times,serif" font-size="14.00">size</text>
<polygon fill="#e0ffe0" stroke="none" points="257.5,-128 257.5,-149 365.5,-149 365.5,-128 257.5,-128"/>
<polygon fill="none" stroke="black" points="257.5,-128 257.5,-149 365.5,-149 365.5,-128 257.5,-128"/>
<text text-anchor="start" x="299.5" y="-134.8" font-family="Times,serif" font-size="14.00">type</text>
<polygon fill="#e0ffe0" stroke="none" points="365.5,-128 365.5,-149 433.5,-149 433.5,-128 365.5,-128"/>
<polygon fill="none" stroke="black" points="365.5,-128 365.5,-149 433.5,-149 433.5,-128 365.5,-128"/>
<text text-anchor="start" x="394" y="-134.8" font-family="Times,serif" font-size="14.00">id</text>
<polygon fill="none" stroke="black" points="204.5,-107 204.5,-128 229.5,-128 229.5,-107 204.5,-107"/>
<text text-anchor="start" x="213.5" y="-113.8" font-family="Times,serif" font-size="14.00">0</text>
<polygon fill="none" stroke="black" points="229.5,-107 229.5,-128 257.5,-128 257.5,-107 229.5,-107"/>
<text text-anchor="start" x="237.5" y="-113.8" font-family="Times,serif" font-size="14.00">...</text>
<polygon fill="none" stroke="black" points="257.5,-107 257.5,-128 365.5,-128 365.5,-107 257.5,-107"/>
<text text-anchor="start" x="260.5" y="-113.8" font-family="Times,serif" font-size="14.00">Scale::CompactInt</text>
<polygon fill="none" stroke="black" points="365.5,-107 365.5,-128 433.5,-128 433.5,-107 365.5,-107"/>
<text text-anchor="start" x="368.5" y="-113.8" font-family="Times,serif" font-size="14.00">num_fields</text>
<polygon fill="none" stroke="black" points="204.5,-86 204.5,-107 229.5,-107 229.5,-86 204.5,-86"/>
<text text-anchor="start" x="211" y="-92.8" font-family="Times,serif" font-size="14.00">...</text>
<polygon fill="none" stroke="black" points="229.5,-86 229.5,-107 257.5,-107 257.5,-86 229.5,-86"/>
<text text-anchor="start" x="237.5" y="-92.8" font-family="Times,serif" font-size="14.00">...</text>
<polygon fill="none" stroke="black" points="257.5,-86 257.5,-107 365.5,-107 365.5,-86 257.5,-86"/>
<text text-anchor="start" x="297.5" y="-92.8" font-family="Times,serif" font-size="14.00">Field</text>
<polygon fill="none" stroke="black" points="365.5,-86 365.5,-107 433.5,-107 433.5,-86 365.5,-86"/>
<text text-anchor="start" x="384" y="-92.8" font-family="Times,serif" font-size="14.00">fields</text>
<polygon fill="none" stroke="black" points="204.5,-65 204.5,-86 433.5,-86 433.5,-65 204.5,-65"/>
<text text-anchor="start" x="236" y="-71.8" font-family="Times,serif" font-size="14.00">repeat num_fields.value times</text>
</g>
<!-- field__seq -->
<g id="node2" class="node">
<title>field__seq</title>
<polygon fill="#e0ffe0" stroke="none" points="485,-112 485,-133 510,-133 510,-112 485,-112"/>
<polygon fill="none" stroke="black" points="485,-112 485,-133 510,-133 510,-112 485,-112"/>
<text text-anchor="start" x="488" y="-118.8" font-family="Times,serif" font-size="14.00">pos</text>
<polygon fill="#e0ffe0" stroke="none" points="510,-112 510,-133 538,-133 538,-112 510,-112"/>
<polygon fill="none" stroke="black" points="510,-112 510,-133 538,-133 538,-112 510,-112"/>
<text text-anchor="start" x="513" y="-118.8" font-family="Times,serif" font-size="14.00">size</text>
<polygon fill="#e0ffe0" stroke="none" points="538,-112 538,-133 653,-133 653,-112 538,-112"/>
<polygon fill="none" stroke="black" points="538,-112 538,-133 653,-133 653,-112 538,-112"/>
<text text-anchor="start" x="583.5" y="-118.8" font-family="Times,serif" font-size="14.00">type</text>
<polygon fill="#e0ffe0" stroke="none" points="653,-112 653,-133 713,-133 713,-112 653,-112"/>
<polygon fill="none" stroke="black" points="653,-112 653,-133 713,-133 713,-112 653,-112"/>
<text text-anchor="start" x="677.5" y="-118.8" font-family="Times,serif" font-size="14.00">id</text>
<polygon fill="none" stroke="black" points="485,-91 485,-112 510,-112 510,-91 485,-91"/>
<text text-anchor="start" x="494" y="-97.8" font-family="Times,serif" font-size="14.00">0</text>
<polygon fill="none" stroke="black" points="510,-91 510,-112 538,-112 538,-91 510,-91"/>
<text text-anchor="start" x="518" y="-97.8" font-family="Times,serif" font-size="14.00">...</text>
<polygon fill="none" stroke="black" points="538,-91 538,-112 653,-112 653,-91 538,-91"/>
<text text-anchor="start" x="541" y="-97.8" font-family="Times,serif" font-size="14.00">Scale::MaybeString</text>
<polygon fill="none" stroke="black" points="653,-91 653,-112 713,-112 713,-91 653,-91"/>
<text text-anchor="start" x="667.5" y="-97.8" font-family="Times,serif" font-size="14.00">name</text>
<polygon fill="none" stroke="black" points="485,-70 485,-91 510,-91 510,-70 485,-70"/>
<text text-anchor="start" x="491.5" y="-76.8" font-family="Times,serif" font-size="14.00">...</text>
<polygon fill="none" stroke="black" points="510,-70 510,-91 538,-91 538,-70 510,-70"/>
<text text-anchor="start" x="518" y="-76.8" font-family="Times,serif" font-size="14.00">...</text>
<polygon fill="none" stroke="black" points="538,-70 538,-91 653,-91 653,-70 538,-70"/>
<text text-anchor="start" x="544.5" y="-76.8" font-family="Times,serif" font-size="14.00">Scale::CompactInt</text>
<polygon fill="none" stroke="black" points="653,-70 653,-91 713,-91 713,-70 653,-70"/>
<text text-anchor="start" x="671" y="-76.8" font-family="Times,serif" font-size="14.00">type</text>
<polygon fill="none" stroke="black" points="485,-49 485,-70 510,-70 510,-49 485,-49"/>
<text text-anchor="start" x="491.5" y="-55.8" font-family="Times,serif" font-size="14.00">...</text>
<polygon fill="none" stroke="black" points="510,-49 510,-70 538,-70 538,-49 510,-49"/>
<text text-anchor="start" x="518" y="-55.8" font-family="Times,serif" font-size="14.00">...</text>
<polygon fill="none" stroke="black" points="538,-49 538,-70 653,-70 653,-49 538,-49"/>
<text text-anchor="start" x="541" y="-55.8" font-family="Times,serif" font-size="14.00">Scale::MaybeString</text>
<polygon fill="none" stroke="black" points="653,-49 653,-70 713,-70 713,-49 653,-49"/>
<text text-anchor="start" x="656" y="-55.8" font-family="Times,serif" font-size="14.00">typename</text>
<polygon fill="none" stroke="black" points="485,-28 485,-49 510,-49 510,-28 485,-28"/>
<text text-anchor="start" x="491.5" y="-34.8" font-family="Times,serif" font-size="14.00">...</text>
<polygon fill="none" stroke="black" points="510,-28 510,-49 538,-49 538,-28 510,-28"/>
<text text-anchor="start" x="518" y="-34.8" font-family="Times,serif" font-size="14.00">...</text>
<polygon fill="none" stroke="black" points="538,-28 538,-49 653,-49 653,-28 538,-28"/>
<text text-anchor="start" x="550" y="-34.8" font-family="Times,serif" font-size="14.00">Scale::StringList</text>
<polygon fill="none" stroke="black" points="653,-28 653,-49 713,-49 713,-28 653,-28"/>
<text text-anchor="start" x="670.5" y="-34.8" font-family="Times,serif" font-size="14.00">docs</text>
</g>
<!-- metadata_type_fields__seq&#45;&gt;field__seq -->
<g id="edge2" class="edge">
<title>metadata_type_fields__seq:fields_type-&gt;field__seq</title>
<path fill="none" stroke="black" stroke-width="2" d="M434.5,-96C444.65,-96 455.14,-95.71 465.69,-95.21"/>
<polygon fill="black" stroke="black" stroke-width="2" points="464.31,-98.79 474.11,-94.75 463.93,-91.8 464.31,-98.79"/>
</g>
<!-- compact_int__seq -->

<!-- metadata_type_fields__seq&#45;&gt;compact_int__seq -->

<!-- field__seq&#45;&gt;compact_int__seq -->

<!-- maybe_string__seq -->

<!-- field__seq&#45;&gt;maybe_string__seq -->

<!-- field__seq&#45;&gt;maybe_string__seq -->

<!-- string_list__seq -->

<!-- field__seq&#45;&gt;string_list__seq -->

<!-- compact_int__inst__value -->

<!-- compact_int__inst__value&#45;&gt;metadata_type_fields__seq -->

</g>
</svg>
