<?xml version="1.0" encoding="UTF-8" standalone="no"?>
<!DOCTYPE svg PUBLIC "-//W3C//DTD SVG 1.1//EN"
 "http://www.w3.org/Graphics/SVG/1.1/DTD/svg11.dtd">
<!-- Generated by graphviz version 7.1.0 (20230121.1956)
 -->
<!-- Pages: 1 -->
<svg width="601pt" height="177pt" viewBox="0.00 0.00 601.00 177.00" xmlns="http://www.w3.org/2000/svg" xmlns:xlink="http://www.w3.org/1999/xlink">
<g id="graph0" class="graph" transform="scale(1 1) rotate(0) translate(4 173)">
<polygon fill="white" stroke="none" points="-4,4 -4,-173 597,-173 597,4 -4,4"/>
<g id="clust1" class="cluster">
<title>cluster__pallet_constant</title>
<polygon fill="none" stroke="black" stroke-dasharray="1,5" points="188,-8 188,-161 449,-161 449,-8 188,-8"/>
<text text-anchor="middle" x="318.5" y="-145.8" font-family="Times,serif" font-size="14.00">PalletConstant</text>
</g>
<!-- pallet_constant__seq -->
<g id="node1" class="node">
<title>pallet_constant__seq</title>
<polygon fill="#e0ffe0" stroke="none" points="204.5,-104 204.5,-125 229.5,-125 229.5,-104 204.5,-104"/>
<polygon fill="none" stroke="black" points="204.5,-104 204.5,-125 229.5,-125 229.5,-104 204.5,-104"/>
<text text-anchor="start" x="207.5" y="-110.8" font-family="Times,serif" font-size="14.00">pos</text>
<polygon fill="#e0ffe0" stroke="none" points="229.5,-104 229.5,-125 257.5,-125 257.5,-104 229.5,-104"/>
<polygon fill="none" stroke="black" points="229.5,-104 229.5,-125 257.5,-125 257.5,-104 229.5,-104"/>
<text text-anchor="start" x="232.5" y="-110.8" font-family="Times,serif" font-size="14.00">size</text>
<polygon fill="#e0ffe0" stroke="none" points="257.5,-104 257.5,-125 365.5,-125 365.5,-104 257.5,-104"/>
<polygon fill="none" stroke="black" points="257.5,-104 257.5,-125 365.5,-125 365.5,-104 257.5,-104"/>
<text text-anchor="start" x="299.5" y="-110.8" font-family="Times,serif" font-size="14.00">type</text>
<polygon fill="#e0ffe0" stroke="none" points="365.5,-104 365.5,-125 433.5,-125 433.5,-104 365.5,-104"/>
<polygon fill="none" stroke="black" points="365.5,-104 365.5,-125 433.5,-125 433.5,-104 365.5,-104"/>
<text text-anchor="start" x="394" y="-110.8" font-family="Times,serif" font-size="14.00">id</text>
<polygon fill="none" stroke="black" points="204.5,-83 204.5,-104 229.5,-104 229.5,-83 204.5,-83"/>
<text text-anchor="start" x="213.5" y="-89.8" font-family="Times,serif" font-size="14.00">0</text>
<polygon fill="none" stroke="black" points="229.5,-83 229.5,-104 257.5,-104 257.5,-83 229.5,-83"/>
<text text-anchor="start" x="237.5" y="-89.8" font-family="Times,serif" font-size="14.00">...</text>
<polygon fill="none" stroke="black" points="257.5,-83 257.5,-104 365.5,-104 365.5,-83 257.5,-83"/>
<text text-anchor="start" x="276.5" y="-89.8" font-family="Times,serif" font-size="14.00">Scale::String</text>
<polygon fill="none" stroke="black" points="365.5,-83 365.5,-104 433.5,-104 433.5,-83 365.5,-83"/>
<text text-anchor="start" x="383" y="-89.8" font-family="Times,serif" font-size="14.00">prefix</text>
<polygon fill="none" stroke="black" points="204.5,-62 204.5,-83 229.5,-83 229.5,-62 204.5,-62"/>
<text text-anchor="start" x="211" y="-68.8" font-family="Times,serif" font-size="14.00">...</text>
<polygon fill="none" stroke="black" points="229.5,-62 229.5,-83 257.5,-83 257.5,-62 229.5,-62"/>
<text text-anchor="start" x="237.5" y="-68.8" font-family="Times,serif" font-size="14.00">...</text>
<polygon fill="none" stroke="black" points="257.5,-62 257.5,-83 365.5,-83 365.5,-62 257.5,-62"/>
<text text-anchor="start" x="260.5" y="-68.8" font-family="Times,serif" font-size="14.00">Scale::CompactInt</text>
<polygon fill="none" stroke="black" points="365.5,-62 365.5,-83 433.5,-83 433.5,-62 365.5,-62"/>
<text text-anchor="start" x="368.5" y="-68.8" font-family="Times,serif" font-size="14.00">num_items</text>
<polygon fill="none" stroke="black" points="204.5,-41 204.5,-62 229.5,-62 229.5,-41 204.5,-41"/>
<text text-anchor="start" x="211" y="-47.8" font-family="Times,serif" font-size="14.00">...</text>
<polygon fill="none" stroke="black" points="229.5,-41 229.5,-62 257.5,-62 257.5,-41 229.5,-41"/>
<text text-anchor="start" x="237.5" y="-47.8" font-family="Times,serif" font-size="14.00">...</text>
<polygon fill="none" stroke="black" points="257.5,-41 257.5,-62 365.5,-62 365.5,-41 257.5,-41"/>
<text text-anchor="start" x="298.5" y="-47.8" font-family="Times,serif" font-size="14.00">Item</text>
<polygon fill="none" stroke="black" points="365.5,-41 365.5,-62 433.5,-62 433.5,-41 365.5,-41"/>
<text text-anchor="start" x="384" y="-47.8" font-family="Times,serif" font-size="14.00">items</text>
<polygon fill="none" stroke="black" points="204.5,-20 204.5,-41 433.5,-41 433.5,-20 204.5,-20"/>
<text text-anchor="start" x="236" y="-26.8" font-family="Times,serif" font-size="14.00">repeat num_items.value times</text>
</g>
<!-- string__seq -->

<!-- pallet_constant__seq&#45;&gt;string__seq -->

<!-- compact_int__seq -->

<!-- pallet_constant__seq&#45;&gt;compact_int__seq -->

<!-- item__seq -->

<!-- pallet_constant__seq&#45;&gt;item__seq -->

<!-- compact_int__inst__value -->

<!-- compact_int__inst__value&#45;&gt;pallet_constant__seq -->

</g>
</svg>
