<?xml version="1.0" encoding="UTF-8" standalone="no"?>
<!DOCTYPE svg PUBLIC "-//W3C//DTD SVG 1.1//EN"
 "http://www.w3.org/Graphics/SVG/1.1/DTD/svg11.dtd">
<!-- Generated by graphviz version 8.0.2 (20230410.1723)
 -->
<!-- Pages: 1 -->
<svg width="601pt" height="177pt" viewBox="0.00 0.00 601.00 177.00" xmlns="http://www.w3.org/2000/svg" xmlns:xlink="http://www.w3.org/1999/xlink">
<g id="graph0" class="graph" transform="scale(1 1) rotate(0) translate(4 173)">
<polygon fill="white" stroke="none" points="-4,4 -4,-173 597,-173 597,4 -4,4"/>
<g id="clust1" class="cluster">
<title>cluster__pallet_constant</title>
<polygon fill="none" stroke="black" stroke-dasharray="1,5" points="188,-8 188,-161 449,-161 449,-8 188,-8"/>
<text text-anchor="middle" x="318.5" y="-145.8" font-family="Times,serif" font-size="14.00">PalletConstant</text>
</g>
<!-- pallet_constant__seq -->
<g id="node1" class="node">
<title>pallet_constant__seq</title>
<polygon fill="#e0ffe0" stroke="none" points="204,-104.5 204,-125.5 229,-125.5 229,-104.5 204,-104.5"/>
<polygon fill="none" stroke="black" points="204,-104.5 204,-125.5 229,-125.5 229,-104.5 204,-104.5"/>
<text text-anchor="start" x="207" y="-111.3" font-family="Times,serif" font-size="14.00">pos</text>
<polygon fill="#e0ffe0" stroke="none" points="229,-104.5 229,-125.5 257,-125.5 257,-104.5 229,-104.5"/>
<polygon fill="none" stroke="black" points="229,-104.5 229,-125.5 257,-125.5 257,-104.5 229,-104.5"/>
<text text-anchor="start" x="232" y="-111.3" font-family="Times,serif" font-size="14.00">size</text>
<polygon fill="#e0ffe0" stroke="none" points="257,-104.5 257,-125.5 365,-125.5 365,-104.5 257,-104.5"/>
<polygon fill="none" stroke="black" points="257,-104.5 257,-125.5 365,-125.5 365,-104.5 257,-104.5"/>
<text text-anchor="start" x="299" y="-111.3" font-family="Times,serif" font-size="14.00">type</text>
<polygon fill="#e0ffe0" stroke="none" points="365,-104.5 365,-125.5 433,-125.5 433,-104.5 365,-104.5"/>
<polygon fill="none" stroke="black" points="365,-104.5 365,-125.5 433,-125.5 433,-104.5 365,-104.5"/>
<text text-anchor="start" x="393.5" y="-111.3" font-family="Times,serif" font-size="14.00">id</text>
<polygon fill="none" stroke="black" points="204,-83.5 204,-104.5 229,-104.5 229,-83.5 204,-83.5"/>
<text text-anchor="start" x="213" y="-90.3" font-family="Times,serif" font-size="14.00">0</text>
<polygon fill="none" stroke="black" points="229,-83.5 229,-104.5 257,-104.5 257,-83.5 229,-83.5"/>
<text text-anchor="start" x="237" y="-90.3" font-family="Times,serif" font-size="14.00">...</text>
<polygon fill="none" stroke="black" points="257,-83.5 257,-104.5 365,-104.5 365,-83.5 257,-83.5"/>
<text text-anchor="start" x="276" y="-90.3" font-family="Times,serif" font-size="14.00">Scale::String</text>
<polygon fill="none" stroke="black" points="365,-83.5 365,-104.5 433,-104.5 433,-83.5 365,-83.5"/>
<text text-anchor="start" x="382.5" y="-90.3" font-family="Times,serif" font-size="14.00">prefix</text>
<polygon fill="none" stroke="black" points="204,-62.5 204,-83.5 229,-83.5 229,-62.5 204,-62.5"/>
<text text-anchor="start" x="210.5" y="-69.3" font-family="Times,serif" font-size="14.00">...</text>
<polygon fill="none" stroke="black" points="229,-62.5 229,-83.5 257,-83.5 257,-62.5 229,-62.5"/>
<text text-anchor="start" x="237" y="-69.3" font-family="Times,serif" font-size="14.00">...</text>
<polygon fill="none" stroke="black" points="257,-62.5 257,-83.5 365,-83.5 365,-62.5 257,-62.5"/>
<text text-anchor="start" x="260" y="-69.3" font-family="Times,serif" font-size="14.00">Scale::CompactInt</text>
<polygon fill="none" stroke="black" points="365,-62.5 365,-83.5 433,-83.5 433,-62.5 365,-62.5"/>
<text text-anchor="start" x="368" y="-69.3" font-family="Times,serif" font-size="14.00">num_items</text>
<polygon fill="none" stroke="black" points="204,-41.5 204,-62.5 229,-62.5 229,-41.5 204,-41.5"/>
<text text-anchor="start" x="210.5" y="-48.3" font-family="Times,serif" font-size="14.00">...</text>
<polygon fill="none" stroke="black" points="229,-41.5 229,-62.5 257,-62.5 257,-41.5 229,-41.5"/>
<text text-anchor="start" x="237" y="-48.3" font-family="Times,serif" font-size="14.00">...</text>
<polygon fill="none" stroke="black" points="257,-41.5 257,-62.5 365,-62.5 365,-41.5 257,-41.5"/>
<text text-anchor="start" x="298" y="-48.3" font-family="Times,serif" font-size="14.00">Item</text>
<polygon fill="none" stroke="black" points="365,-41.5 365,-62.5 433,-62.5 433,-41.5 365,-41.5"/>
<text text-anchor="start" x="383.5" y="-48.3" font-family="Times,serif" font-size="14.00">items</text>
<polygon fill="none" stroke="black" points="204,-20.5 204,-41.5 433,-41.5 433,-20.5 204,-20.5"/>
<text text-anchor="start" x="235.5" y="-27.3" font-family="Times,serif" font-size="14.00">repeat num_items.value times</text>
</g>
<!-- string__seq -->

<!-- pallet_constant__seq&#45;&gt;string__seq -->

<!-- compact_int__seq -->

<!-- pallet_constant__seq&#45;&gt;compact_int__seq -->

<!-- item__seq -->

<!-- pallet_constant__seq&#45;&gt;item__seq -->

<!-- compact_int__inst__value -->

<!-- compact_int__inst__value&#45;&gt;pallet_constant__seq -->

</g>
</svg>
