<?xml version="1.0" encoding="UTF-8" standalone="no"?>
<!DOCTYPE svg PUBLIC "-//W3C//DTD SVG 1.1//EN"
 "http://www.w3.org/Graphics/SVG/1.1/DTD/svg11.dtd">
<!-- Generated by graphviz version 7.1.0 (20230121.1956)
 -->
<!-- Pages: 1 -->
<svg width="919pt" height="272pt" viewBox="0.00 0.00 919.00 272.00" xmlns="http://www.w3.org/2000/svg" xmlns:xlink="http://www.w3.org/1999/xlink">
<g id="graph0" class="graph" transform="scale(1 1) rotate(0) translate(4 268)">
<polygon fill="white" stroke="none" points="-4,4 -4,-268 915,-268 915,4 -4,4"/>
<g id="clust1" class="cluster">
<title>cluster__pallet_storage</title>
<polygon fill="none" stroke="black" stroke-dasharray="1,5" points="188,-44 188,-256 745,-256 745,-44 188,-44"/>
<text text-anchor="middle" x="466.5" y="-240.8" font-family="Times,serif" font-size="14.00">PalletStorage</text>
</g>
<g id="clust2" class="cluster">
<title>cluster__item</title>
<polygon fill="none" stroke="black" stroke-dasharray="1,5" points="469,-52 469,-225 737,-225 737,-52 469,-52"/>
<text text-anchor="middle" x="603" y="-209.8" font-family="Times,serif" font-size="14.00">PalletStorage::Item</text>
</g>
<!-- pallet_storage__seq -->
<g id="node1" class="node">
<title>pallet_storage__seq</title>
<polygon fill="#e0ffe0" stroke="none" points="204.5,-180 204.5,-201 229.5,-201 229.5,-180 204.5,-180"/>
<polygon fill="none" stroke="black" points="204.5,-180 204.5,-201 229.5,-201 229.5,-180 204.5,-180"/>
<text text-anchor="start" x="207.5" y="-186.8" font-family="Times,serif" font-size="14.00">pos</text>
<polygon fill="#e0ffe0" stroke="none" points="229.5,-180 229.5,-201 257.5,-201 257.5,-180 229.5,-180"/>
<polygon fill="none" stroke="black" points="229.5,-180 229.5,-201 257.5,-201 257.5,-180 229.5,-180"/>
<text text-anchor="start" x="232.5" y="-186.8" font-family="Times,serif" font-size="14.00">size</text>
<polygon fill="#e0ffe0" stroke="none" points="257.5,-180 257.5,-201 365.5,-201 365.5,-180 257.5,-180"/>
<polygon fill="none" stroke="black" points="257.5,-180 257.5,-201 365.5,-201 365.5,-180 257.5,-180"/>
<text text-anchor="start" x="299.5" y="-186.8" font-family="Times,serif" font-size="14.00">type</text>
<polygon fill="#e0ffe0" stroke="none" points="365.5,-180 365.5,-201 433.5,-201 433.5,-180 365.5,-180"/>
<polygon fill="none" stroke="black" points="365.5,-180 365.5,-201 433.5,-201 433.5,-180 365.5,-180"/>
<text text-anchor="start" x="394" y="-186.8" font-family="Times,serif" font-size="14.00">id</text>
<polygon fill="none" stroke="black" points="204.5,-159 204.5,-180 229.5,-180 229.5,-159 204.5,-159"/>
<text text-anchor="start" x="213.5" y="-165.8" font-family="Times,serif" font-size="14.00">0</text>
<polygon fill="none" stroke="black" points="229.5,-159 229.5,-180 257.5,-180 257.5,-159 229.5,-159"/>
<text text-anchor="start" x="237.5" y="-165.8" font-family="Times,serif" font-size="14.00">...</text>
<polygon fill="none" stroke="black" points="257.5,-159 257.5,-180 365.5,-180 365.5,-159 257.5,-159"/>
<text text-anchor="start" x="276.5" y="-165.8" font-family="Times,serif" font-size="14.00">Scale::String</text>
<polygon fill="none" stroke="black" points="365.5,-159 365.5,-180 433.5,-180 433.5,-159 365.5,-159"/>
<text text-anchor="start" x="383" y="-165.8" font-family="Times,serif" font-size="14.00">prefix</text>
<polygon fill="none" stroke="black" points="204.5,-138 204.5,-159 229.5,-159 229.5,-138 204.5,-138"/>
<text text-anchor="start" x="211" y="-144.8" font-family="Times,serif" font-size="14.00">...</text>
<polygon fill="none" stroke="black" points="229.5,-138 229.5,-159 257.5,-159 257.5,-138 229.5,-138"/>
<text text-anchor="start" x="237.5" y="-144.8" font-family="Times,serif" font-size="14.00">...</text>
<polygon fill="none" stroke="black" points="257.5,-138 257.5,-159 365.5,-159 365.5,-138 257.5,-138"/>
<text text-anchor="start" x="260.5" y="-144.8" font-family="Times,serif" font-size="14.00">Scale::CompactInt</text>
<polygon fill="none" stroke="black" points="365.5,-138 365.5,-159 433.5,-159 433.5,-138 365.5,-138"/>
<text text-anchor="start" x="368.5" y="-144.8" font-family="Times,serif" font-size="14.00">num_items</text>
<polygon fill="none" stroke="black" points="204.5,-117 204.5,-138 229.5,-138 229.5,-117 204.5,-117"/>
<text text-anchor="start" x="211" y="-123.8" font-family="Times,serif" font-size="14.00">...</text>
<polygon fill="none" stroke="black" points="229.5,-117 229.5,-138 257.5,-138 257.5,-117 229.5,-117"/>
<text text-anchor="start" x="237.5" y="-123.8" font-family="Times,serif" font-size="14.00">...</text>
<polygon fill="none" stroke="black" points="257.5,-117 257.5,-138 365.5,-138 365.5,-117 257.5,-117"/>
<text text-anchor="start" x="298.5" y="-123.8" font-family="Times,serif" font-size="14.00">Item</text>
<polygon fill="none" stroke="black" points="365.5,-117 365.5,-138 433.5,-138 433.5,-117 365.5,-117"/>
<text text-anchor="start" x="384" y="-123.8" font-family="Times,serif" font-size="14.00">items</text>
<polygon fill="none" stroke="black" points="204.5,-96 204.5,-117 433.5,-117 433.5,-96 204.5,-96"/>
<text text-anchor="start" x="236" y="-102.8" font-family="Times,serif" font-size="14.00">repeat num_items.value times</text>
</g>
<!-- item__seq -->
<g id="node2" class="node">
<title>item__seq</title>
<polygon fill="#e0ffe0" stroke="none" points="485,-169 485,-190 510,-190 510,-169 485,-169"/>
<polygon fill="none" stroke="black" points="485,-169 485,-190 510,-190 510,-169 485,-169"/>
<text text-anchor="start" x="488" y="-175.8" font-family="Times,serif" font-size="14.00">pos</text>
<polygon fill="#e0ffe0" stroke="none" points="510,-169 510,-190 538,-190 538,-169 510,-169"/>
<polygon fill="none" stroke="black" points="510,-169 510,-190 538,-190 538,-169 510,-169"/>
<text text-anchor="start" x="513" y="-175.8" font-family="Times,serif" font-size="14.00">size</text>
<polygon fill="#e0ffe0" stroke="none" points="538,-169 538,-190 662,-190 662,-169 538,-169"/>
<polygon fill="none" stroke="black" points="538,-169 538,-190 662,-190 662,-169 538,-169"/>
<text text-anchor="start" x="588" y="-175.8" font-family="Times,serif" font-size="14.00">type</text>
<polygon fill="#e0ffe0" stroke="none" points="662,-169 662,-190 721,-190 721,-169 662,-169"/>
<polygon fill="none" stroke="black" points="662,-169 662,-190 721,-190 721,-169 662,-169"/>
<text text-anchor="start" x="686" y="-175.8" font-family="Times,serif" font-size="14.00">id</text>
<polygon fill="none" stroke="black" points="485,-148 485,-169 510,-169 510,-148 485,-148"/>
<text text-anchor="start" x="494" y="-154.8" font-family="Times,serif" font-size="14.00">0</text>
<polygon fill="none" stroke="black" points="510,-148 510,-169 538,-169 538,-148 510,-148"/>
<text text-anchor="start" x="518" y="-154.8" font-family="Times,serif" font-size="14.00">...</text>
<polygon fill="none" stroke="black" points="538,-148 538,-169 662,-169 662,-148 538,-148"/>
<text text-anchor="start" x="565" y="-154.8" font-family="Times,serif" font-size="14.00">Scale::String</text>
<polygon fill="none" stroke="black" points="662,-148 662,-169 721,-169 721,-148 662,-148"/>
<text text-anchor="start" x="676" y="-154.8" font-family="Times,serif" font-size="14.00">name</text>
<polygon fill="none" stroke="black" points="485,-127 485,-148 510,-148 510,-127 485,-127"/>
<text text-anchor="start" x="491.5" y="-133.8" font-family="Times,serif" font-size="14.00">...</text>
<polygon fill="none" stroke="black" points="510,-127 510,-148 538,-148 538,-127 510,-127"/>
<text text-anchor="start" x="520.5" y="-133.8" font-family="Times,serif" font-size="14.00">1</text>
<polygon fill="none" stroke="black" points="538,-127 538,-148 662,-148 662,-127 538,-127"/>
<text text-anchor="start" x="541" y="-133.8" font-family="Times,serif" font-size="14.00">u1&#x2192;StorageModifier</text>
<polygon fill="none" stroke="black" points="662,-127 662,-148 721,-148 721,-127 662,-127"/>
<text text-anchor="start" x="667.5" y="-133.8" font-family="Times,serif" font-size="14.00">modifier</text>
<polygon fill="none" stroke="black" points="485,-106 485,-127 510,-127 510,-106 485,-106"/>
<text text-anchor="start" x="491.5" y="-112.8" font-family="Times,serif" font-size="14.00">...</text>
<polygon fill="none" stroke="black" points="510,-106 510,-127 538,-127 538,-106 510,-106"/>
<text text-anchor="start" x="518" y="-112.8" font-family="Times,serif" font-size="14.00">...</text>
<polygon fill="none" stroke="black" points="538,-106 538,-127 662,-127 662,-106 538,-106"/>
<text text-anchor="start" x="551.5" y="-112.8" font-family="Times,serif" font-size="14.00">StorageDefinition</text>
<polygon fill="none" stroke="black" points="662,-106 662,-127 721,-127 721,-106 662,-106"/>
<text text-anchor="start" x="665" y="-112.8" font-family="Times,serif" font-size="14.00">definition</text>
<polygon fill="none" stroke="black" points="485,-85 485,-106 510,-106 510,-85 485,-85"/>
<text text-anchor="start" x="491.5" y="-91.8" font-family="Times,serif" font-size="14.00">...</text>
<polygon fill="none" stroke="black" points="510,-85 510,-106 538,-106 538,-85 510,-85"/>
<text text-anchor="start" x="518" y="-91.8" font-family="Times,serif" font-size="14.00">...</text>
<polygon fill="none" stroke="black" points="538,-85 538,-106 662,-106 662,-85 538,-85"/>
<text text-anchor="start" x="566" y="-91.8" font-family="Times,serif" font-size="14.00">Scale::Bytes</text>
<polygon fill="none" stroke="black" points="662,-85 662,-106 721,-106 721,-85 662,-85"/>
<text text-anchor="start" x="669.5" y="-91.8" font-family="Times,serif" font-size="14.00">fallback</text>
<polygon fill="none" stroke="black" points="485,-64 485,-85 510,-85 510,-64 485,-64"/>
<text text-anchor="start" x="491.5" y="-70.8" font-family="Times,serif" font-size="14.00">...</text>
<polygon fill="none" stroke="black" points="510,-64 510,-85 538,-85 538,-64 510,-64"/>
<text text-anchor="start" x="518" y="-70.8" font-family="Times,serif" font-size="14.00">...</text>
<polygon fill="none" stroke="black" points="538,-64 538,-85 662,-85 662,-64 538,-64"/>
<text text-anchor="start" x="554.5" y="-70.8" font-family="Times,serif" font-size="14.00">Scale::StringList</text>
<polygon fill="none" stroke="black" points="662,-64 662,-85 721,-85 721,-64 662,-64"/>
<text text-anchor="start" x="679" y="-70.8" font-family="Times,serif" font-size="14.00">docs</text>
</g>
<!-- pallet_storage__seq&#45;&gt;item__seq -->
<g id="edge3" class="edge">
<title>pallet_storage__seq:items_type-&gt;item__seq</title>
<path fill="none" stroke="black" stroke-width="2" d="M434.5,-127C444.64,-127 455.13,-127 465.69,-127"/>
<polygon fill="black" stroke="black" stroke-width="2" points="464.12,-130.5 474.12,-127 464.12,-123.5 464.12,-130.5"/>
</g>
<!-- string__seq -->

<!-- pallet_storage__seq&#45;&gt;string__seq -->

<!-- compact_int__seq -->

<!-- pallet_storage__seq&#45;&gt;compact_int__seq -->

<!-- item__seq&#45;&gt;string__seq -->

<!-- storage_definition__seq -->
<g id="node6" class="node">
<title>storage_definition__seq</title>
<text text-anchor="middle" x="838" y="-145.3" font-family="Times,serif" font-size="14.00">
              <a xlink:href="sect-metadata#img-storage-definition" xlink:title="StorageDefinition">
                StorageDefinition
              </a>
            </text>
</g>
<!-- item__seq&#45;&gt;storage_definition__seq -->
<g id="edge6" class="edge">
<title>item__seq:definition_type-&gt;storage_definition__seq</title>
<path fill="none" stroke="black" stroke-width="2" d="M722,-116C732.66,-116 753.25,-121.3 774.1,-127.66"/>
<polygon fill="black" stroke="black" stroke-width="2" points="771.49,-130.51 782.08,-130.15 773.58,-123.83 771.49,-130.51"/>
</g>
<!-- bytes__seq -->

<!-- item__seq&#45;&gt;bytes__seq -->

<!-- string_list__seq -->

<!-- item__seq&#45;&gt;string_list__seq -->

<!-- compact_int__inst__value -->

<!-- compact_int__inst__value&#45;&gt;pallet_storage__seq -->

</g>
</svg>
