<?xml version="1.0" encoding="UTF-8" standalone="no"?>
<!DOCTYPE svg PUBLIC "-//W3C//DTD SVG 1.1//EN"
 "http://www.w3.org/Graphics/SVG/1.1/DTD/svg11.dtd">
<!-- Generated by graphviz version 8.0.2 (20230410.1723)
 -->
<!-- Pages: 1 -->
<svg width="919pt" height="272pt" viewBox="0.00 0.00 919.00 272.11" xmlns="http://www.w3.org/2000/svg" xmlns:xlink="http://www.w3.org/1999/xlink">
<g id="graph0" class="graph" transform="scale(1 1) rotate(0) translate(4 268.11)">
<polygon fill="white" stroke="none" points="-4,4 -4,-268.11 915,-268.11 915,4 -4,4"/>
<g id="clust1" class="cluster">
<title>cluster__pallet_storage</title>
<polygon fill="white" stroke="black" stroke-dasharray="1,5" points="188,-44 188,-256 745,-256 745,-44 188,-44"/>
<text text-anchor="middle" x="466.5" y="-240.8" font-family="Times,serif" font-size="14.00">PalletStorage</text>
</g>
<g id="clust2" class="cluster">
<title>cluster__item</title>
<polygon fill="white" stroke="black" stroke-dasharray="1,5" points="469,-52 469,-225 737,-225 737,-52 469,-52"/>
<text text-anchor="middle" x="603" y="-209.8" font-family="Times,serif" font-size="14.00">PalletStorage::Item</text>
</g>
<!-- pallet_storage__seq -->
<g id="node1" class="node">
<title>pallet_storage__seq</title>
<polygon fill="#e6007a4f" stroke="none" points="204,-179.5 204,-200.5 229,-200.5 229,-179.5 204,-179.5"/>
<polygon fill="none" stroke="black" points="204,-179.5 204,-200.5 229,-200.5 229,-179.5 204,-179.5"/>
<text text-anchor="start" x="207" y="-186.3" font-family="Times,serif" font-size="14.00">pos</text>
<polygon fill="#e6007a4f" stroke="none" points="229,-179.5 229,-200.5 257,-200.5 257,-179.5 229,-179.5"/>
<polygon fill="none" stroke="black" points="229,-179.5 229,-200.5 257,-200.5 257,-179.5 229,-179.5"/>
<text text-anchor="start" x="232" y="-186.3" font-family="Times,serif" font-size="14.00">size</text>
<polygon fill="#e6007a4f" stroke="none" points="257,-179.5 257,-200.5 365,-200.5 365,-179.5 257,-179.5"/>
<polygon fill="none" stroke="black" points="257,-179.5 257,-200.5 365,-200.5 365,-179.5 257,-179.5"/>
<text text-anchor="start" x="299" y="-186.3" font-family="Times,serif" font-size="14.00">type</text>
<polygon fill="#e6007a4f" stroke="none" points="365,-179.5 365,-200.5 433,-200.5 433,-179.5 365,-179.5"/>
<polygon fill="none" stroke="black" points="365,-179.5 365,-200.5 433,-200.5 433,-179.5 365,-179.5"/>
<text text-anchor="start" x="393.5" y="-186.3" font-family="Times,serif" font-size="14.00">id</text>
<polygon fill="none" stroke="black" points="204,-158.5 204,-179.5 229,-179.5 229,-158.5 204,-158.5"/>
<text text-anchor="start" x="213" y="-165.3" font-family="Times,serif" font-size="14.00">0</text>
<polygon fill="none" stroke="black" points="229,-158.5 229,-179.5 257,-179.5 257,-158.5 229,-158.5"/>
<text text-anchor="start" x="237" y="-165.3" font-family="Times,serif" font-size="14.00">...</text>
<polygon fill="none" stroke="black" points="257,-158.5 257,-179.5 365,-179.5 365,-158.5 257,-158.5"/>
<text text-anchor="start" x="276" y="-165.3" font-family="Times,serif" font-size="14.00">Scale::String</text>
<polygon fill="none" stroke="black" points="365,-158.5 365,-179.5 433,-179.5 433,-158.5 365,-158.5"/>
<text text-anchor="start" x="382.5" y="-165.3" font-family="Times,serif" font-size="14.00">prefix</text>
<polygon fill="none" stroke="black" points="204,-137.5 204,-158.5 229,-158.5 229,-137.5 204,-137.5"/>
<text text-anchor="start" x="210.5" y="-144.3" font-family="Times,serif" font-size="14.00">...</text>
<polygon fill="none" stroke="black" points="229,-137.5 229,-158.5 257,-158.5 257,-137.5 229,-137.5"/>
<text text-anchor="start" x="237" y="-144.3" font-family="Times,serif" font-size="14.00">...</text>
<polygon fill="none" stroke="black" points="257,-137.5 257,-158.5 365,-158.5 365,-137.5 257,-137.5"/>
<text text-anchor="start" x="260" y="-144.3" font-family="Times,serif" font-size="14.00">Scale::CompactInt</text>
<polygon fill="none" stroke="black" points="365,-137.5 365,-158.5 433,-158.5 433,-137.5 365,-137.5"/>
<text text-anchor="start" x="368" y="-144.3" font-family="Times,serif" font-size="14.00">num_items</text>
<polygon fill="none" stroke="black" points="204,-116.5 204,-137.5 229,-137.5 229,-116.5 204,-116.5"/>
<text text-anchor="start" x="210.5" y="-123.3" font-family="Times,serif" font-size="14.00">...</text>
<polygon fill="none" stroke="black" points="229,-116.5 229,-137.5 257,-137.5 257,-116.5 229,-116.5"/>
<text text-anchor="start" x="237" y="-123.3" font-family="Times,serif" font-size="14.00">...</text>
<polygon fill="none" stroke="black" points="257,-116.5 257,-137.5 365,-137.5 365,-116.5 257,-116.5"/>
<text text-anchor="start" x="298" y="-123.3" font-family="Times,serif" font-size="14.00">Item</text>
<polygon fill="none" stroke="black" points="365,-116.5 365,-137.5 433,-137.5 433,-116.5 365,-116.5"/>
<text text-anchor="start" x="383.5" y="-123.3" font-family="Times,serif" font-size="14.00">items</text>
<polygon fill="none" stroke="black" points="204,-95.5 204,-116.5 433,-116.5 433,-95.5 204,-95.5"/>
<text text-anchor="start" x="235.5" y="-102.3" font-family="Times,serif" font-size="14.00">repeat num_items.value times</text>
</g>
<!-- item__seq -->
<g id="node2" class="node">
<title>item__seq</title>
<polygon fill="#e6007a4f" stroke="none" points="485,-169 485,-190 510,-190 510,-169 485,-169"/>
<polygon fill="none" stroke="black" points="485,-169 485,-190 510,-190 510,-169 485,-169"/>
<text text-anchor="start" x="488" y="-175.8" font-family="Times,serif" font-size="14.00">pos</text>
<polygon fill="#e6007a4f" stroke="none" points="510,-169 510,-190 538,-190 538,-169 510,-169"/>
<polygon fill="none" stroke="black" points="510,-169 510,-190 538,-190 538,-169 510,-169"/>
<text text-anchor="start" x="513" y="-175.8" font-family="Times,serif" font-size="14.00">size</text>
<polygon fill="#e6007a4f" stroke="none" points="538,-169 538,-190 662,-190 662,-169 538,-169"/>
<polygon fill="none" stroke="black" points="538,-169 538,-190 662,-190 662,-169 538,-169"/>
<text text-anchor="start" x="588" y="-175.8" font-family="Times,serif" font-size="14.00">type</text>
<polygon fill="#e6007a4f" stroke="none" points="662,-169 662,-190 721,-190 721,-169 662,-169"/>
<polygon fill="none" stroke="black" points="662,-169 662,-190 721,-190 721,-169 662,-169"/>
<text text-anchor="start" x="686" y="-175.8" font-family="Times,serif" font-size="14.00">id</text>
<polygon fill="none" stroke="black" points="485,-148 485,-169 510,-169 510,-148 485,-148"/>
<text text-anchor="start" x="494" y="-154.8" font-family="Times,serif" font-size="14.00">0</text>
<polygon fill="none" stroke="black" points="510,-148 510,-169 538,-169 538,-148 510,-148"/>
<text text-anchor="start" x="518" y="-154.8" font-family="Times,serif" font-size="14.00">...</text>
<polygon fill="none" stroke="black" points="538,-148 538,-169 662,-169 662,-148 538,-148"/>
<text text-anchor="start" x="565" y="-154.8" font-family="Times,serif" font-size="14.00">Scale::String</text>
<polygon fill="none" stroke="black" points="662,-148 662,-169 721,-169 721,-148 662,-148"/>
<text text-anchor="start" x="676" y="-154.8" font-family="Times,serif" font-size="14.00">name</text>
<polygon fill="none" stroke="black" points="485,-127 485,-148 510,-148 510,-127 485,-127"/>
<text text-anchor="start" x="491.5" y="-133.8" font-family="Times,serif" font-size="14.00">...</text>
<polygon fill="none" stroke="black" points="510,-127 510,-148 538,-148 538,-127 510,-127"/>
<text text-anchor="start" x="520.5" y="-133.8" font-family="Times,serif" font-size="14.00">1</text>
<polygon fill="none" stroke="black" points="538,-127 538,-148 662,-148 662,-127 538,-127"/>
<text text-anchor="start" x="541" y="-133.8" font-family="Times,serif" font-size="14.00">u1&#x2192;StorageModifier</text>
<polygon fill="none" stroke="black" points="662,-127 662,-148 721,-148 721,-127 662,-127"/>
<text text-anchor="start" x="667.5" y="-133.8" font-family="Times,serif" font-size="14.00">modifier</text>
<polygon fill="none" stroke="black" points="485,-106 485,-127 510,-127 510,-106 485,-106"/>
<text text-anchor="start" x="491.5" y="-112.8" font-family="Times,serif" font-size="14.00">...</text>
<polygon fill="none" stroke="black" points="510,-106 510,-127 538,-127 538,-106 510,-106"/>
<text text-anchor="start" x="518" y="-112.8" font-family="Times,serif" font-size="14.00">...</text>
<polygon fill="none" stroke="black" points="538,-106 538,-127 662,-127 662,-106 538,-106"/>
<text text-anchor="start" x="551.5" y="-112.8" font-family="Times,serif" font-size="14.00">StorageDefinition</text>
<polygon fill="none" stroke="black" points="662,-106 662,-127 721,-127 721,-106 662,-106"/>
<text text-anchor="start" x="665" y="-112.8" font-family="Times,serif" font-size="14.00">definition</text>
<polygon fill="none" stroke="black" points="485,-85 485,-106 510,-106 510,-85 485,-85"/>
<text text-anchor="start" x="491.5" y="-91.8" font-family="Times,serif" font-size="14.00">...</text>
<polygon fill="none" stroke="black" points="510,-85 510,-106 538,-106 538,-85 510,-85"/>
<text text-anchor="start" x="518" y="-91.8" font-family="Times,serif" font-size="14.00">...</text>
<polygon fill="none" stroke="black" points="538,-85 538,-106 662,-106 662,-85 538,-85"/>
<text text-anchor="start" x="566" y="-91.8" font-family="Times,serif" font-size="14.00">Scale::Bytes</text>
<polygon fill="none" stroke="black" points="662,-85 662,-106 721,-106 721,-85 662,-85"/>
<text text-anchor="start" x="669.5" y="-91.8" font-family="Times,serif" font-size="14.00">fallback</text>
<polygon fill="none" stroke="black" points="485,-64 485,-85 510,-85 510,-64 485,-64"/>
<text text-anchor="start" x="491.5" y="-70.8" font-family="Times,serif" font-size="14.00">...</text>
<polygon fill="none" stroke="black" points="510,-64 510,-85 538,-85 538,-64 510,-64"/>
<text text-anchor="start" x="518" y="-70.8" font-family="Times,serif" font-size="14.00">...</text>
<polygon fill="none" stroke="black" points="538,-64 538,-85 662,-85 662,-64 538,-64"/>
<text text-anchor="start" x="554.5" y="-70.8" font-family="Times,serif" font-size="14.00">Scale::StringList</text>
<polygon fill="none" stroke="black" points="662,-64 662,-85 721,-85 721,-64 662,-64"/>
<text text-anchor="start" x="679" y="-70.8" font-family="Times,serif" font-size="14.00">docs</text>
</g>
<!-- pallet_storage__seq&#45;&gt;item__seq -->
<g id="edge3" class="edge">
<title>pallet_storage__seq:items_type-&gt;item__seq</title>
<path fill="none" stroke="black" stroke-width="2" d="M434.5,-127C444.86,-127 455.58,-127 466.36,-127"/>
<polygon fill="black" stroke="black" stroke-width="2" points="464.15,-130.5 474.15,-127 464.15,-123.5 464.15,-130.5"/>
</g>
<!-- string__seq -->

<!-- pallet_storage__seq&#45;&gt;string__seq -->

<!-- compact_int__seq -->

<!-- pallet_storage__seq&#45;&gt;compact_int__seq -->

<!-- item__seq&#45;&gt;string__seq -->

<!-- storage_definition__seq -->
<g id="node6" class="node">
<title>storage_definition__seq</title>
<text text-anchor="middle" x="838" y="-145.3" font-family="Times,serif" font-size="14.00">
              <a xlink:href="sect-metadata#img-storage-definition" xlink:title="StorageDefinition">
                StorageDefinition
              </a>
            </text>
</g>
<!-- item__seq&#45;&gt;storage_definition__seq -->
<g id="edge6" class="edge">
<title>item__seq:definition_type-&gt;storage_definition__seq</title>
<path fill="none" stroke="black" stroke-width="2" d="M722,-116C732.75,-116 753.63,-121.4 774.67,-127.83"/>
<polygon fill="black" stroke="black" stroke-width="2" points="772.38,-131.41 782.97,-131.05 774.47,-124.73 772.38,-131.41"/>
</g>
<!-- bytes__seq -->

<!-- item__seq&#45;&gt;bytes__seq -->

<!-- string_list__seq -->

<!-- item__seq&#45;&gt;string_list__seq -->

<!-- compact_int__inst__value -->

<!-- compact_int__inst__value&#45;&gt;pallet_storage__seq -->

</g>
</svg>
