<?xml version="1.0" encoding="UTF-8" standalone="no"?>
<!DOCTYPE svg PUBLIC "-//W3C//DTD SVG 1.1//EN"
 "http://www.w3.org/Graphics/SVG/1.1/DTD/svg11.dtd">
<!-- Generated by graphviz version 7.1.0 (20230121.1956)
 -->
<!-- Pages: 1 -->
<svg width="601pt" height="177pt"
 viewBox="0.00 0.00 601.00 177.00" xmlns="http://www.w3.org/2000/svg" xmlns:xlink="http://www.w3.org/1999/xlink">
<g id="graph0" class="graph" transform="scale(1 1) rotate(0) translate(4 173)">
<polygon fill="white" stroke="none" points="-4,4 -4,-173 597,-173 597,4 -4,4"/>
<g id="clust1" class="cluster">
<title>cluster__pallet_constant</title>
<polygon fill="none" stroke="black" stroke-dasharray="1,5" points="188,-8 188,-161 449,-161 449,-8 188,-8"/>
<text text-anchor="middle" x="318.5" y="-145.8" font-family="Times,serif" font-size="14.00">PalletConstant</text>
</g>
<!-- pallet_constant__seq -->
<g id="node1" class="node">
<title>pallet_constant__seq</title>
<polygon fill="#e0ffe0" stroke="none" points="204.5,-104 204.5,-125 229.5,-125 229.5,-104 204.5,-104"/>
<polygon fill="none" stroke="black" points="204.5,-104 204.5,-125 229.5,-125 229.5,-104 204.5,-104"/>
<text text-anchor="start" x="207.5" y="-110.8" font-family="Times,serif" font-size="14.00">pos</text>
<polygon fill="#e0ffe0" stroke="none" points="229.5,-104 229.5,-125 257.5,-125 257.5,-104 229.5,-104"/>
<polygon fill="none" stroke="black" points="229.5,-104 229.5,-125 257.5,-125 257.5,-104 229.5,-104"/>
<text text-anchor="start" x="232.5" y="-110.8" font-family="Times,serif" font-size="14.00">size</text>
<polygon fill="#e0ffe0" stroke="none" points="257.5,-104 257.5,-125 365.5,-125 365.5,-104 257.5,-104"/>
<polygon fill="none" stroke="black" points="257.5,-104 257.5,-125 365.5,-125 365.5,-104 257.5,-104"/>
<text text-anchor="start" x="299.5" y="-110.8" font-family="Times,serif" font-size="14.00">type</text>
<polygon fill="#e0ffe0" stroke="none" points="365.5,-104 365.5,-125 433.5,-125 433.5,-104 365.5,-104"/>
<polygon fill="none" stroke="black" points="365.5,-104 365.5,-125 433.5,-125 433.5,-104 365.5,-104"/>
<text text-anchor="start" x="394" y="-110.8" font-family="Times,serif" font-size="14.00">id</text>
<polygon fill="none" stroke="black" points="204.5,-83 204.5,-104 229.5,-104 229.5,-83 204.5,-83"/>
<text text-anchor="start" x="213.5" y="-89.8" font-family="Times,serif" font-size="14.00">0</text>
<polygon fill="none" stroke="black" points="229.5,-83 229.5,-104 257.5,-104 257.5,-83 229.5,-83"/>
<text text-anchor="start" x="237.5" y="-89.8" font-family="Times,serif" font-size="14.00">...</text>
<polygon fill="none" stroke="black" points="257.5,-83 257.5,-104 365.5,-104 365.5,-83 257.5,-83"/>
<text text-anchor="start" x="276.5" y="-89.8" font-family="Times,serif" font-size="14.00">Scale::String</text>
<polygon fill="none" stroke="black" points="365.5,-83 365.5,-104 433.5,-104 433.5,-83 365.5,-83"/>
<text text-anchor="start" x="383" y="-89.8" font-family="Times,serif" font-size="14.00">prefix</text>
<polygon fill="none" stroke="black" points="204.5,-62 204.5,-83 229.5,-83 229.5,-62 204.5,-62"/>
<text text-anchor="start" x="211" y="-68.8" font-family="Times,serif" font-size="14.00">...</text>
<polygon fill="none" stroke="black" points="229.5,-62 229.5,-83 257.5,-83 257.5,-62 229.5,-62"/>
<text text-anchor="start" x="237.5" y="-68.8" font-family="Times,serif" font-size="14.00">...</text>
<polygon fill="none" stroke="black" points="257.5,-62 257.5,-83 365.5,-83 365.5,-62 257.5,-62"/>
<text text-anchor="start" x="260.5" y="-68.8" font-family="Times,serif" font-size="14.00">Scale::CompactInt</text>
<polygon fill="none" stroke="black" points="365.5,-62 365.5,-83 433.5,-83 433.5,-62 365.5,-62"/>
<text text-anchor="start" x="368.5" y="-68.8" font-family="Times,serif" font-size="14.00">num_items</text>
<polygon fill="none" stroke="black" points="204.5,-41 204.5,-62 229.5,-62 229.5,-41 204.5,-41"/>
<text text-anchor="start" x="211" y="-47.8" font-family="Times,serif" font-size="14.00">...</text>
<polygon fill="none" stroke="black" points="229.5,-41 229.5,-62 257.5,-62 257.5,-41 229.5,-41"/>
<text text-anchor="start" x="237.5" y="-47.8" font-family="Times,serif" font-size="14.00">...</text>
<polygon fill="none" stroke="black" points="257.5,-41 257.5,-62 365.5,-62 365.5,-41 257.5,-41"/>
<text text-anchor="start" x="298.5" y="-47.8" font-family="Times,serif" font-size="14.00">Item</text>
<polygon fill="none" stroke="black" points="365.5,-41 365.5,-62 433.5,-62 433.5,-41 365.5,-41"/>
<text text-anchor="start" x="384" y="-47.8" font-family="Times,serif" font-size="14.00">items</text>
<polygon fill="none" stroke="black" points="204.5,-20 204.5,-41 433.5,-41 433.5,-20 204.5,-20"/>
<text text-anchor="start" x="236" y="-26.8" font-family="Times,serif" font-size="14.00">repeat num_items.value times</text>
</g>
<!-- string__seq -->
<g id="node2" class="node">
<title>string__seq</title>
<text text-anchor="middle" x="535" y="-122.3" font-family="Times,serif" font-size="14.00">string__seq</text>
</g>
<!-- pallet_constant__seq&#45;&gt;string__seq -->
<g id="edge1" class="edge">
<title>pallet_constant__seq:prefix_type&#45;&gt;string__seq</title>
<path fill="none" stroke="black" stroke-width="2" d="M434.5,-94C451.9,-94 470.22,-98.49 486.33,-104.1"/>
<polygon fill="black" stroke="black" stroke-width="2" points="483.67,-106.84 494.26,-107.07 486.12,-100.29 483.67,-106.84"/>
</g>
<!-- compact_int__seq -->
<g id="node3" class="node">
<title>compact_int__seq</title>
<text text-anchor="middle" x="535" y="-68.3" font-family="Times,serif" font-size="14.00">compact_int__seq</text>
</g>
<!-- pallet_constant__seq&#45;&gt;compact_int__seq -->
<g id="edge2" class="edge">
<title>pallet_constant__seq:num_items_type&#45;&gt;compact_int__seq</title>
<path fill="none" stroke="black" stroke-width="2" d="M434.5,-72C444.65,-72 455.38,-72 465.89,-72"/>
<polygon fill="black" stroke="black" stroke-width="2" points="464.15,-75.5 474.15,-72 464.15,-68.5 464.15,-75.5"/>
</g>
<!-- item__seq -->
<g id="node4" class="node">
<title>item__seq</title>
<text text-anchor="middle" x="535" y="-14.3" font-family="Times,serif" font-size="14.00">item__seq</text>
</g>
<!-- pallet_constant__seq&#45;&gt;item__seq -->
<g id="edge3" class="edge">
<title>pallet_constant__seq:items_type&#45;&gt;item__seq</title>
<path fill="none" stroke="black" stroke-width="2" d="M434.5,-51C452.56,-51 471.58,-46.04 488.09,-39.96"/>
<polygon fill="black" stroke="black" stroke-width="2" points="487.7,-43.88 495.73,-36.96 485.14,-37.36 487.7,-43.88"/>
</g>
<!-- compact_int__inst__value -->
<g id="node5" class="node">
<title>compact_int__inst__value</title>
<text text-anchor="middle" x="80" y="-26.3" font-family="Times,serif" font-size="14.00">compact_int__inst__value</text>
</g>
<!-- compact_int__inst__value&#45;&gt;pallet_constant__seq -->
<g id="edge4" class="edge">
<title>compact_int__inst__value:value_type&#45;&gt;pallet_constant__seq:items__repeat</title>
<path fill="none" stroke="#404040" d="M159.75,-30C170.43,-30 181.39,-30 192.06,-30"/>
<polygon fill="#404040" stroke="#404040" points="191.99,-33.5 201.99,-30 191.99,-26.5 191.99,-33.5"/>
</g>
</g>
</svg>
