<?xml version="1.0" encoding="UTF-8" standalone="no"?>
<!DOCTYPE svg PUBLIC "-//W3C//DTD SVG 1.1//EN"
 "http://www.w3.org/Graphics/SVG/1.1/DTD/svg11.dtd">
<!-- Generated by graphviz version 8.0.2 (20230410.1723)
 -->
<!-- Pages: 1 -->
<svg width="2003pt" height="597pt" viewBox="0.00 0.00 2003.00 597.00" xmlns="http://www.w3.org/2000/svg" xmlns:xlink="http://www.w3.org/1999/xlink">
<g id="graph0" class="graph" transform="scale(1 1) rotate(0) translate(4 593)">
<polygon fill="white" stroke="none" points="-4,4 -4,-593 1999,-593 1999,4 -4,4"/>
<g id="clust1" class="cluster">
<title>cluster__scale</title>
<polygon fill="white" stroke="black" stroke-dasharray="1,5" points="8,-8 8,-581 1987,-581 1987,-8 8,-8"/>
<text text-anchor="middle" x="997.5" y="-565.8" font-family="Times,serif" font-size="14.00">Scale</text>
</g>
<g id="clust6" class="cluster">
<title>cluster__maybe_compact_int</title>
<polygon fill="white" stroke="black" stroke-dasharray="1,5" points="28,-320 28,-431 245,-431 245,-320 28,-320"/>
<text text-anchor="middle" x="136.5" y="-415.8" font-family="Times,serif" font-size="14.00">Scale::MaybeCompactInt</text>
</g>
<g id="clust2" class="cluster">
<title>cluster__string</title>
<polygon fill="white" stroke="black" stroke-dasharray="1,5" points="409.5,-140 409.5,-251 650.5,-251 650.5,-140 409.5,-140"/>
<text text-anchor="middle" x="530" y="-235.8" font-family="Times,serif" font-size="14.00">Scale::String</text>
</g>
<g id="clust3" class="cluster">
<title>cluster__bytes</title>
<polygon fill="white" stroke="black" stroke-dasharray="1,5" points="16,-439 16,-550 257,-550 257,-439 16,-439"/>
<text text-anchor="middle" x="136.5" y="-534.8" font-family="Times,serif" font-size="14.00">Scale::Bytes</text>
</g>
<g id="clust4" class="cluster">
<title>cluster__maybe_string</title>
<polygon fill="white" stroke="black" stroke-dasharray="1,5" points="43.5,-62 43.5,-173 229.5,-173 229.5,-62 43.5,-62"/>
<text text-anchor="middle" x="136.5" y="-157.8" font-family="Times,serif" font-size="14.00">Scale::MaybeString</text>
</g>
<g id="clust5" class="cluster">
<title>cluster__compact_int</title>
<polygon fill="white" stroke="black" stroke-dasharray="1,5" points="277,-271 277,-474 1979,-474 1979,-271 277,-271"/>
<text text-anchor="middle" x="1128" y="-458.8" font-family="Times,serif" font-size="14.00">Scale::CompactInt</text>
</g>
<g id="clust7" class="cluster">
<title>cluster__string_list</title>
<polygon fill="white" stroke="black" stroke-dasharray="1,5" points="22,-181 22,-312 251,-312 251,-181 22,-181"/>
<text text-anchor="middle" x="136.5" y="-296.8" font-family="Times,serif" font-size="14.00">Scale::StringList</text>
</g>
<!-- scale__seq -->
<g id="node1" class="node">
<title>scale__seq</title>
<polygon fill="#e6007a4f" stroke="none" points="86.5,-23.5 86.5,-44.5 111.5,-44.5 111.5,-23.5 86.5,-23.5"/>
<polygon fill="none" stroke="black" points="86.5,-23.5 86.5,-44.5 111.5,-44.5 111.5,-23.5 86.5,-23.5"/>
<text text-anchor="start" x="89.5" y="-30.3" font-family="Times,serif" font-size="14.00">pos</text>
<polygon fill="#e6007a4f" stroke="none" points="111.5,-23.5 111.5,-44.5 139.5,-44.5 139.5,-23.5 111.5,-23.5"/>
<polygon fill="none" stroke="black" points="111.5,-23.5 111.5,-44.5 139.5,-44.5 139.5,-23.5 111.5,-23.5"/>
<text text-anchor="start" x="114.5" y="-30.3" font-family="Times,serif" font-size="14.00">size</text>
<polygon fill="#e6007a4f" stroke="none" points="139.5,-23.5 139.5,-44.5 169.5,-44.5 169.5,-23.5 139.5,-23.5"/>
<polygon fill="none" stroke="black" points="139.5,-23.5 139.5,-44.5 169.5,-44.5 169.5,-23.5 139.5,-23.5"/>
<text text-anchor="start" x="142.5" y="-30.3" font-family="Times,serif" font-size="14.00">type</text>
<polygon fill="#e6007a4f" stroke="none" points="169.5,-23.5 169.5,-44.5 186.5,-44.5 186.5,-23.5 169.5,-23.5"/>
<polygon fill="none" stroke="black" points="169.5,-23.5 169.5,-44.5 186.5,-44.5 186.5,-23.5 169.5,-23.5"/>
<text text-anchor="start" x="172.5" y="-30.3" font-family="Times,serif" font-size="14.00">id</text>
</g>
<!-- string__seq -->
<g id="node2" class="node">
<title>string__seq</title>
<polygon fill="#e6007a4f" stroke="none" points="425.5,-194.5 425.5,-215.5 450.5,-215.5 450.5,-194.5 425.5,-194.5"/>
<polygon fill="none" stroke="black" points="425.5,-194.5 425.5,-215.5 450.5,-215.5 450.5,-194.5 425.5,-194.5"/>
<text text-anchor="start" x="428.5" y="-201.3" font-family="Times,serif" font-size="14.00">pos</text>
<polygon fill="#e6007a4f" stroke="none" points="450.5,-194.5 450.5,-215.5 523.5,-215.5 523.5,-194.5 450.5,-194.5"/>
<polygon fill="none" stroke="black" points="450.5,-194.5 450.5,-215.5 523.5,-215.5 523.5,-194.5 450.5,-194.5"/>
<text text-anchor="start" x="476" y="-201.3" font-family="Times,serif" font-size="14.00">size</text>
<polygon fill="#e6007a4f" stroke="none" points="523.5,-194.5 523.5,-215.5 594.5,-215.5 594.5,-194.5 523.5,-194.5"/>
<polygon fill="none" stroke="black" points="523.5,-194.5 523.5,-215.5 594.5,-215.5 594.5,-194.5 523.5,-194.5"/>
<text text-anchor="start" x="547" y="-201.3" font-family="Times,serif" font-size="14.00">type</text>
<polygon fill="#e6007a4f" stroke="none" points="594.5,-194.5 594.5,-215.5 634.5,-215.5 634.5,-194.5 594.5,-194.5"/>
<polygon fill="none" stroke="black" points="594.5,-194.5 594.5,-215.5 634.5,-215.5 634.5,-194.5 594.5,-194.5"/>
<text text-anchor="start" x="609" y="-201.3" font-family="Times,serif" font-size="14.00">id</text>
<polygon fill="none" stroke="black" points="425.5,-173.5 425.5,-194.5 450.5,-194.5 450.5,-173.5 425.5,-173.5"/>
<text text-anchor="start" x="434.5" y="-180.3" font-family="Times,serif" font-size="14.00">0</text>
<polygon fill="none" stroke="black" points="450.5,-173.5 450.5,-194.5 523.5,-194.5 523.5,-173.5 450.5,-173.5"/>
<text text-anchor="start" x="481" y="-180.3" font-family="Times,serif" font-size="14.00">...</text>
<polygon fill="none" stroke="black" points="523.5,-173.5 523.5,-194.5 594.5,-194.5 594.5,-173.5 523.5,-173.5"/>
<text text-anchor="start" x="526.5" y="-180.3" font-family="Times,serif" font-size="14.00">CompactInt</text>
<polygon fill="none" stroke="black" points="594.5,-173.5 594.5,-194.5 634.5,-194.5 634.5,-173.5 594.5,-173.5"/>
<text text-anchor="start" x="597.5" y="-180.3" font-family="Times,serif" font-size="14.00">length</text>
<polygon fill="none" stroke="black" points="425.5,-152.5 425.5,-173.5 450.5,-173.5 450.5,-152.5 425.5,-152.5"/>
<text text-anchor="start" x="432" y="-159.3" font-family="Times,serif" font-size="14.00">...</text>
<polygon fill="none" stroke="black" points="450.5,-152.5 450.5,-173.5 523.5,-173.5 523.5,-152.5 450.5,-152.5"/>
<text text-anchor="start" x="453.5" y="-159.3" font-family="Times,serif" font-size="14.00">length.value</text>
<polygon fill="none" stroke="black" points="523.5,-152.5 523.5,-173.5 594.5,-173.5 594.5,-152.5 523.5,-152.5"/>
<text text-anchor="start" x="529" y="-159.3" font-family="Times,serif" font-size="14.00">str(UTF-8)</text>
<polygon fill="none" stroke="black" points="594.5,-152.5 594.5,-173.5 634.5,-173.5 634.5,-152.5 594.5,-152.5"/>
<text text-anchor="start" x="599.5" y="-159.3" font-family="Times,serif" font-size="14.00">value</text>
</g>
<!-- compact_int__seq -->
<g id="node5" class="node">
<title>compact_int__seq</title>
<polygon fill="#e6007a4f" stroke="none" points="293,-346 293,-367 318,-367 318,-346 293,-346"/>
<polygon fill="none" stroke="black" points="293,-346 293,-367 318,-367 318,-346 293,-346"/>
<text text-anchor="start" x="296" y="-352.8" font-family="Times,serif" font-size="14.00">pos</text>
<polygon fill="#e6007a4f" stroke="none" points="318,-346 318,-367 700,-367 700,-346 318,-346"/>
<polygon fill="none" stroke="black" points="318,-346 318,-367 700,-367 700,-346 318,-346"/>
<text text-anchor="start" x="498" y="-352.8" font-family="Times,serif" font-size="14.00">size</text>
<polygon fill="#e6007a4f" stroke="none" points="700,-346 700,-367 730,-367 730,-346 700,-346"/>
<polygon fill="none" stroke="black" points="700,-346 700,-367 730,-367 730,-346 700,-346"/>
<text text-anchor="start" x="703" y="-352.8" font-family="Times,serif" font-size="14.00">type</text>
<polygon fill="#e6007a4f" stroke="none" points="730,-346 730,-367 767,-367 767,-346 730,-346"/>
<polygon fill="none" stroke="black" points="730,-346 730,-367 767,-367 767,-346 730,-346"/>
<text text-anchor="start" x="743" y="-352.8" font-family="Times,serif" font-size="14.00">id</text>
<polygon fill="none" stroke="black" points="293,-325 293,-346 318,-346 318,-325 293,-325"/>
<text text-anchor="start" x="302" y="-331.8" font-family="Times,serif" font-size="14.00">0</text>
<polygon fill="none" stroke="black" points="318,-325 318,-346 700,-346 700,-325 318,-325"/>
<text text-anchor="start" x="502" y="-331.8" font-family="Times,serif" font-size="14.00">6b</text>
<polygon fill="none" stroke="black" points="700,-325 700,-346 730,-346 730,-325 700,-325"/>
<text text-anchor="start" x="708" y="-331.8" font-family="Times,serif" font-size="14.00">b6</text>
<polygon fill="none" stroke="black" points="730,-325 730,-346 767,-346 767,-325 730,-325"/>
<text text-anchor="start" x="737" y="-331.8" font-family="Times,serif" font-size="14.00">data</text>
<polygon fill="none" stroke="black" points="293,-304 293,-325 318,-325 318,-304 293,-304"/>
<text text-anchor="start" x="296.5" y="-310.8" font-family="Times,serif" font-size="14.00">0:6</text>
<polygon fill="none" stroke="black" points="318,-304 318,-325 700,-325 700,-304 318,-304"/>
<text text-anchor="start" x="502" y="-310.8" font-family="Times,serif" font-size="14.00">2b</text>
<polygon fill="none" stroke="black" points="700,-304 700,-325 730,-325 730,-304 700,-304"/>
<text text-anchor="start" x="708" y="-310.8" font-family="Times,serif" font-size="14.00">b2</text>
<polygon fill="none" stroke="black" points="730,-304 730,-325 767,-325 767,-304 730,-304"/>
<text text-anchor="start" x="733" y="-310.8" font-family="Times,serif" font-size="14.00">mode</text>
<polygon fill="none" stroke="black" points="293,-283 293,-304 318,-304 318,-283 293,-283"/>
<text text-anchor="start" x="302" y="-289.8" font-family="Times,serif" font-size="14.00">1</text>
<polygon fill="none" stroke="black" points="318,-283 318,-304 700,-304 700,-283 318,-283"/>
<text text-anchor="start" x="321" y="-289.8" font-family="Times,serif" font-size="14.00">(((mode &amp; 1) + (((mode &amp; 2) / 2) * 3)) + (((mode &amp; 3) / 3) * data))</text>
<polygon fill="none" stroke="black" points="700,-283 700,-304 730,-304 730,-283 700,-283"/>
<polygon fill="none" stroke="black" points="730,-283 730,-304 767,-304 767,-283 730,-283"/>
<text text-anchor="start" x="734.5" y="-289.8" font-family="Times,serif" font-size="14.00">extra</text>
</g>
<!-- string__seq&#45;&gt;compact_int__seq -->
<g id="edge1" class="edge">
<title>string__seq:length_type-&gt;compact_int__seq</title>
<path fill="none" stroke="black" stroke-width="2" d="M592.58,-272.24C637.2,-232.36 681.87,-184 636,-184"/>
<polygon fill="black" stroke="black" stroke-width="2" points="591.74,-268.08 586.56,-277.32 596.37,-273.32 591.74,-268.08"/>
</g>
<!-- bytes__seq -->
<g id="node3" class="node">
<title>bytes__seq</title>
<polygon fill="#e6007a4f" stroke="none" points="32,-493.5 32,-514.5 57,-514.5 57,-493.5 32,-493.5"/>
<polygon fill="none" stroke="black" points="32,-493.5 32,-514.5 57,-514.5 57,-493.5 32,-493.5"/>
<text text-anchor="start" x="35" y="-500.3" font-family="Times,serif" font-size="14.00">pos</text>
<polygon fill="#e6007a4f" stroke="none" points="57,-493.5 57,-514.5 130,-514.5 130,-493.5 57,-493.5"/>
<polygon fill="none" stroke="black" points="57,-493.5 57,-514.5 130,-514.5 130,-493.5 57,-493.5"/>
<text text-anchor="start" x="82.5" y="-500.3" font-family="Times,serif" font-size="14.00">size</text>
<polygon fill="#e6007a4f" stroke="none" points="130,-493.5 130,-514.5 201,-514.5 201,-493.5 130,-493.5"/>
<polygon fill="none" stroke="black" points="130,-493.5 130,-514.5 201,-514.5 201,-493.5 130,-493.5"/>
<text text-anchor="start" x="153.5" y="-500.3" font-family="Times,serif" font-size="14.00">type</text>
<polygon fill="#e6007a4f" stroke="none" points="201,-493.5 201,-514.5 241,-514.5 241,-493.5 201,-493.5"/>
<polygon fill="none" stroke="black" points="201,-493.5 201,-514.5 241,-514.5 241,-493.5 201,-493.5"/>
<text text-anchor="start" x="215.5" y="-500.3" font-family="Times,serif" font-size="14.00">id</text>
<polygon fill="none" stroke="black" points="32,-472.5 32,-493.5 57,-493.5 57,-472.5 32,-472.5"/>
<text text-anchor="start" x="41" y="-479.3" font-family="Times,serif" font-size="14.00">0</text>
<polygon fill="none" stroke="black" points="57,-472.5 57,-493.5 130,-493.5 130,-472.5 57,-472.5"/>
<text text-anchor="start" x="87.5" y="-479.3" font-family="Times,serif" font-size="14.00">...</text>
<polygon fill="none" stroke="black" points="130,-472.5 130,-493.5 201,-493.5 201,-472.5 130,-472.5"/>
<text text-anchor="start" x="133" y="-479.3" font-family="Times,serif" font-size="14.00">CompactInt</text>
<polygon fill="none" stroke="black" points="201,-472.5 201,-493.5 241,-493.5 241,-472.5 201,-472.5"/>
<text text-anchor="start" x="204" y="-479.3" font-family="Times,serif" font-size="14.00">length</text>
<polygon fill="none" stroke="black" points="32,-451.5 32,-472.5 57,-472.5 57,-451.5 32,-451.5"/>
<text text-anchor="start" x="38.5" y="-458.3" font-family="Times,serif" font-size="14.00">...</text>
<polygon fill="none" stroke="black" points="57,-451.5 57,-472.5 130,-472.5 130,-451.5 57,-451.5"/>
<text text-anchor="start" x="60" y="-458.3" font-family="Times,serif" font-size="14.00">length.value</text>
<polygon fill="none" stroke="black" points="130,-451.5 130,-472.5 201,-472.5 201,-451.5 130,-451.5"/>
<polygon fill="none" stroke="black" points="201,-451.5 201,-472.5 241,-472.5 241,-451.5 201,-451.5"/>
<text text-anchor="start" x="206" y="-458.3" font-family="Times,serif" font-size="14.00">value</text>
</g>
<!-- bytes__seq&#45;&gt;compact_int__seq -->
<g id="edge3" class="edge">
<title>bytes__seq:length_type-&gt;compact_int__seq</title>
<path fill="none" stroke="black" stroke-width="2" d="M242.5,-483C261.7,-483 260.78,-467.27 277,-457 323.37,-427.66 376.95,-398.93 422.75,-375.8"/>
<polygon fill="black" stroke="black" stroke-width="2" points="423.04,-379.57 430.4,-371.95 419.9,-373.31 423.04,-379.57"/>
</g>
<!-- maybe_string__seq -->
<g id="node4" class="node">
<title>maybe_string__seq</title>
<polygon fill="#e6007a4f" stroke="none" points="59.5,-116.5 59.5,-137.5 84.5,-137.5 84.5,-116.5 59.5,-116.5"/>
<polygon fill="none" stroke="black" points="59.5,-116.5 59.5,-137.5 84.5,-137.5 84.5,-116.5 59.5,-116.5"/>
<text text-anchor="start" x="62.5" y="-123.3" font-family="Times,serif" font-size="14.00">pos</text>
<polygon fill="#e6007a4f" stroke="none" points="84.5,-116.5 84.5,-137.5 112.5,-137.5 112.5,-116.5 84.5,-116.5"/>
<polygon fill="none" stroke="black" points="84.5,-116.5 84.5,-137.5 112.5,-137.5 112.5,-116.5 84.5,-116.5"/>
<text text-anchor="start" x="87.5" y="-123.3" font-family="Times,serif" font-size="14.00">size</text>
<polygon fill="#e6007a4f" stroke="none" points="112.5,-116.5 112.5,-137.5 152.5,-137.5 152.5,-116.5 112.5,-116.5"/>
<polygon fill="none" stroke="black" points="112.5,-116.5 112.5,-137.5 152.5,-137.5 152.5,-116.5 112.5,-116.5"/>
<text text-anchor="start" x="120.5" y="-123.3" font-family="Times,serif" font-size="14.00">type</text>
<polygon fill="#e6007a4f" stroke="none" points="152.5,-116.5 152.5,-137.5 213.5,-137.5 213.5,-116.5 152.5,-116.5"/>
<polygon fill="none" stroke="black" points="152.5,-116.5 152.5,-137.5 213.5,-137.5 213.5,-116.5 152.5,-116.5"/>
<text text-anchor="start" x="177.5" y="-123.3" font-family="Times,serif" font-size="14.00">id</text>
<polygon fill="none" stroke="black" points="59.5,-95.5 59.5,-116.5 84.5,-116.5 84.5,-95.5 59.5,-95.5"/>
<text text-anchor="start" x="68.5" y="-102.3" font-family="Times,serif" font-size="14.00">0</text>
<polygon fill="none" stroke="black" points="84.5,-95.5 84.5,-116.5 112.5,-116.5 112.5,-95.5 84.5,-95.5"/>
<text text-anchor="start" x="95" y="-102.3" font-family="Times,serif" font-size="14.00">1</text>
<polygon fill="none" stroke="black" points="112.5,-95.5 112.5,-116.5 152.5,-116.5 152.5,-95.5 112.5,-95.5"/>
<text text-anchor="start" x="125.5" y="-102.3" font-family="Times,serif" font-size="14.00">u1</text>
<polygon fill="none" stroke="black" points="152.5,-95.5 152.5,-116.5 213.5,-116.5 213.5,-95.5 152.5,-95.5"/>
<text text-anchor="start" x="155.5" y="-102.3" font-family="Times,serif" font-size="14.00">has_value</text>
<polygon fill="none" stroke="black" points="59.5,-74.5 59.5,-95.5 84.5,-95.5 84.5,-74.5 59.5,-74.5"/>
<text text-anchor="start" x="68.5" y="-81.3" font-family="Times,serif" font-size="14.00">1</text>
<polygon fill="none" stroke="black" points="84.5,-74.5 84.5,-95.5 112.5,-95.5 112.5,-74.5 84.5,-74.5"/>
<text text-anchor="start" x="92.5" y="-81.3" font-family="Times,serif" font-size="14.00">...</text>
<polygon fill="none" stroke="black" points="112.5,-74.5 112.5,-95.5 152.5,-95.5 152.5,-74.5 112.5,-74.5"/>
<text text-anchor="start" x="115.5" y="-81.3" font-family="Times,serif" font-size="14.00">String</text>
<polygon fill="none" stroke="black" points="152.5,-74.5 152.5,-95.5 213.5,-95.5 213.5,-74.5 152.5,-74.5"/>
<text text-anchor="start" x="168" y="-81.3" font-family="Times,serif" font-size="14.00">value</text>
</g>
<!-- maybe_string__seq&#45;&gt;string__seq -->
<g id="edge5" class="edge">
<title>maybe_string__seq:value_type-&gt;string__seq</title>
<path fill="none" stroke="black" stroke-width="2" d="M214.5,-85C297.36,-85 387.07,-116.65 449.39,-144.16"/>
<polygon fill="black" stroke="black" stroke-width="2" points="446.6,-146.64 457.15,-147.54 449.46,-140.26 446.6,-146.64"/>
</g>
<!-- compact_int__seq&#45;&gt;compact_int__seq -->
<g id="edge6" class="edge">
<title>compact_int__seq:mode_type-&gt;compact_int__seq:extra_size</title>
<path fill="none" stroke="#404040" d="M760.55,-324.68C778.77,-349.37 760.31,-389 629,-389 509.42,-389 483.43,-343.27 493.5,-313.16"/>
<polygon fill="#404040" stroke="#404040" points="496.91,-315.15 498.21,-304.63 490.64,-312.04 496.91,-315.15"/>
</g>
<!-- compact_int__seq&#45;&gt;compact_int__seq -->
<g id="edge7" class="edge">
<title>compact_int__seq:mode_type-&gt;compact_int__seq:extra_size</title>
<path fill="none" stroke="#404040" d="M766.83,-323.41C812.67,-353.99 795.74,-407 629,-407 474.69,-407 448.69,-347.08 482.01,-311.17"/>
<polygon fill="#404040" stroke="#404040" points="483.95,-314.23 488.99,-304.91 479.24,-309.05 483.95,-314.23"/>
</g>
<!-- compact_int__seq&#45;&gt;compact_int__seq -->
<g id="edge8" class="edge">
<title>compact_int__seq:mode_type-&gt;compact_int__seq:extra_size</title>
<path fill="none" stroke="#404040" d="M766.76,-320.97C846.47,-357.02 833.3,-425 629,-425 439.99,-425 414.57,-351.08 474.94,-309.59"/>
<polygon fill="#404040" stroke="#404040" points="476.37,-312.21 483.02,-303.96 472.68,-306.26 476.37,-312.21"/>
</g>
<!-- compact_int__seq&#45;&gt;compact_int__seq -->
<g id="edge9" class="edge">
<title>compact_int__seq:data_type-&gt;compact_int__seq:extra_size</title>
<path fill="none" stroke="#404040" d="M766.76,-340.24C846.47,-361.28 833.3,-389 629,-389 449.95,-389 417.71,-338.8 466.12,-308.97"/>
<polygon fill="#404040" stroke="#404040" points="467.55,-311.64 474.7,-303.83 464.24,-305.47 467.55,-311.64"/>
</g>
<!-- compact_int__inst__value -->
<g id="node6" class="node">
<title>compact_int__inst__value</title>
<polygon fill="#e6007a4f" stroke="none" points="819,-304 819,-325 855,-325 855,-304 819,-304"/>
<polygon fill="none" stroke="black" points="819,-304 819,-325 855,-325 855,-304 819,-304"/>
<text text-anchor="start" x="831.5" y="-310.8" font-family="Times,serif" font-size="14.00">id</text>
<polygon fill="#e6007a4f" stroke="none" points="855,-304 855,-325 1963,-325 1963,-304 855,-304"/>
<polygon fill="none" stroke="black" points="855,-304 855,-325 1963,-325 1963,-304 855,-304"/>
<text text-anchor="start" x="1394" y="-310.8" font-family="Times,serif" font-size="14.00">value</text>
<polygon fill="none" stroke="black" points="819,-283 819,-304 855,-304 855,-283 819,-283"/>
<text text-anchor="start" x="822" y="-289.8" font-family="Times,serif" font-size="14.00">value</text>
<polygon fill="none" stroke="black" points="855,-283 855,-304 1963,-304 1963,-283 855,-283"/>
<text text-anchor="start" x="858" y="-289.8" font-family="Times,serif" font-size="14.00">((((((((data + (extra[0].ord &lt;&lt; 6)) + (extra[1].ord &lt;&lt; 14)) + (extra[2].ord &lt;&lt; 22)) + (extra[3].ord &lt;&lt; 30)) + (extra[4].ord &lt;&lt; 38)) + (extra[5].ord &lt;&lt; 46)) + (extra[6].ord &lt;&lt; 54)) + (extra[7].ord &lt;&lt; 62))</text>
</g>
<!-- compact_int__seq&#45;&gt;compact_int__inst__value -->
<g id="edge10" class="edge">
<title>compact_int__seq:data_type-&gt;compact_int__inst__value</title>
<path fill="none" stroke="#404040" d="M768,-336C848.07,-336 933.86,-333.32 1015.36,-329.52"/>
<polygon fill="#404040" stroke="#404040" points="1015.49,-332.97 1025.32,-329 1015.16,-325.97 1015.49,-332.97"/>
</g>
<!-- compact_int__seq&#45;&gt;compact_int__inst__value -->
<g id="edge11" class="edge">
<title>compact_int__seq:extra_type-&gt;compact_int__inst__value</title>
<path fill="none" stroke="#404040" d="M768,-293C993.7,-241.57 1265.4,-239.46 1357.6,-274.68"/>
<polygon fill="#404040" stroke="#404040" points="1356.12,-278.29 1366.69,-279.04 1358.9,-271.86 1356.12,-278.29"/>
</g>
<!-- compact_int__seq&#45;&gt;compact_int__inst__value -->
<g id="edge12" class="edge">
<title>compact_int__seq:extra_type-&gt;compact_int__inst__value</title>
<path fill="none" stroke="#404040" d="M768.41,-292.93C975.83,-259.22 1221.97,-257.01 1331.92,-277.01"/>
<polygon fill="#404040" stroke="#404040" points="1330.96,-280.58 1341.45,-279.08 1332.31,-273.72 1330.96,-280.58"/>
</g>
<!-- compact_int__seq&#45;&gt;compact_int__inst__value -->
<g id="edge13" class="edge">
<title>compact_int__seq:extra_type-&gt;compact_int__inst__value</title>
<path fill="none" stroke="#404040" d="M768.41,-292.96C913.06,-278.86 1076.55,-275.15 1199.54,-278.68"/>
<polygon fill="#404040" stroke="#404040" points="1199.09,-282.2 1209.19,-279.01 1199.3,-275.2 1199.09,-282.2"/>
</g>
<!-- compact_int__seq&#45;&gt;compact_int__inst__value -->
<g id="edge14" class="edge">
<title>compact_int__seq:extra_type-&gt;compact_int__inst__value</title>
<path fill="none" stroke="#404040" d="M768.41,-292.99C779.03,-292.64 789.76,-292.33 800.57,-292.04"/>
<polygon fill="#404040" stroke="#404040" points="800.5,-295.52 810.41,-291.76 800.32,-288.52 800.5,-295.52"/>
</g>
<!-- compact_int__seq&#45;&gt;compact_int__inst__value -->
<g id="edge15" class="edge">
<title>compact_int__seq:extra_type-&gt;compact_int__inst__value</title>
<path fill="none" stroke="#404040" d="M768.41,-293.01C779.03,-293.36 789.76,-293.71 800.57,-294.06"/>
<polygon fill="#404040" stroke="#404040" points="800.3,-297.58 810.41,-294.41 800.53,-290.59 800.3,-297.58"/>
</g>
<!-- compact_int__seq&#45;&gt;compact_int__inst__value -->
<g id="edge16" class="edge">
<title>compact_int__seq:extra_type-&gt;compact_int__inst__value</title>
<path fill="none" stroke="#404040" d="M768.41,-293.04C779.03,-294.08 789.76,-295.09 800.57,-296.08"/>
<polygon fill="#404040" stroke="#404040" points="800.13,-299.64 810.41,-297.06 800.76,-292.67 800.13,-299.64"/>
</g>
<!-- compact_int__seq&#45;&gt;compact_int__inst__value -->
<g id="edge17" class="edge">
<title>compact_int__seq:extra_type-&gt;compact_int__inst__value</title>
<path fill="none" stroke="#404040" d="M768.41,-293.07C962.11,-324.56 1189.59,-339.37 1308.38,-329.94"/>
<polygon fill="#404040" stroke="#404040" points="1308.53,-333.35 1318.18,-328.98 1307.91,-326.38 1308.53,-333.35"/>
</g>
<!-- compact_int__seq&#45;&gt;compact_int__inst__value -->
<g id="edge18" class="edge">
<title>compact_int__seq:extra_type-&gt;compact_int__inst__value</title>
<path fill="none" stroke="#404040" d="M768.41,-293.09C991.42,-343.85 1259.19,-360.8 1354.33,-332.38"/>
<polygon fill="#404040" stroke="#404040" points="1355.22,-335.43 1363.55,-328.89 1352.96,-328.81 1355.22,-335.43"/>
</g>
<!-- compact_int__inst__value&#45;&gt;string__seq -->
<g id="edge2" class="edge">
<title>compact_int__inst__value:value_type-&gt;string__seq:value_size</title>
<path fill="none" stroke="#404040" d="M1348.26,-279C1172.49,-175.9 500.97,195.46 487.21,-140.33"/>
<polygon fill="#404040" stroke="#404040" points="483.7,-139.93 487,-150 490.7,-140.07 483.7,-139.93"/>
</g>
<!-- compact_int__inst__value&#45;&gt;bytes__seq -->
<g id="edge4" class="edge">
<title>compact_int__inst__value:value_type-&gt;bytes__seq:value_size</title>
<path fill="none" stroke="#404040" d="M1312.44,-328.93C1196.84,-364.65 971.84,-428.65 775,-452 555.21,-478.07 498.3,-455.95 277,-452 259.48,-451.69 136.55,-435.38 102.33,-443.74"/>
<polygon fill="#404040" stroke="#404040" points="100.63,-441.36 94.5,-450 104.68,-447.07 100.63,-441.36"/>
</g>
<!-- string_list__seq -->
<g id="node8" class="node">
<title>string_list__seq</title>
<polygon fill="#e6007a4f" stroke="none" points="38,-256 38,-277 63,-277 63,-256 38,-256"/>
<polygon fill="none" stroke="black" points="38,-256 38,-277 63,-277 63,-256 38,-256"/>
<text text-anchor="start" x="41" y="-262.8" font-family="Times,serif" font-size="14.00">pos</text>
<polygon fill="#e6007a4f" stroke="none" points="63,-256 63,-277 91,-277 91,-256 63,-256"/>
<polygon fill="none" stroke="black" points="63,-256 63,-277 91,-277 91,-256 63,-256"/>
<text text-anchor="start" x="66" y="-262.8" font-family="Times,serif" font-size="14.00">size</text>
<polygon fill="#e6007a4f" stroke="none" points="91,-256 91,-277 162,-277 162,-256 91,-256"/>
<polygon fill="none" stroke="black" points="91,-256 91,-277 162,-277 162,-256 91,-256"/>
<text text-anchor="start" x="114.5" y="-262.8" font-family="Times,serif" font-size="14.00">type</text>
<polygon fill="#e6007a4f" stroke="none" points="162,-256 162,-277 235,-277 235,-256 162,-256"/>
<polygon fill="none" stroke="black" points="162,-256 162,-277 235,-277 235,-256 162,-256"/>
<text text-anchor="start" x="193" y="-262.8" font-family="Times,serif" font-size="14.00">id</text>
<polygon fill="none" stroke="black" points="38,-235 38,-256 63,-256 63,-235 38,-235"/>
<text text-anchor="start" x="47" y="-241.8" font-family="Times,serif" font-size="14.00">0</text>
<polygon fill="none" stroke="black" points="63,-235 63,-256 91,-256 91,-235 63,-235"/>
<text text-anchor="start" x="71" y="-241.8" font-family="Times,serif" font-size="14.00">...</text>
<polygon fill="none" stroke="black" points="91,-235 91,-256 162,-256 162,-235 91,-235"/>
<text text-anchor="start" x="94" y="-241.8" font-family="Times,serif" font-size="14.00">CompactInt</text>
<polygon fill="none" stroke="black" points="162,-235 162,-256 235,-256 235,-235 162,-235"/>
<text text-anchor="start" x="165" y="-241.8" font-family="Times,serif" font-size="14.00">num_values</text>
<polygon fill="none" stroke="black" points="38,-214 38,-235 63,-235 63,-214 38,-214"/>
<text text-anchor="start" x="44.5" y="-220.8" font-family="Times,serif" font-size="14.00">...</text>
<polygon fill="none" stroke="black" points="63,-214 63,-235 91,-235 91,-214 63,-214"/>
<text text-anchor="start" x="71" y="-220.8" font-family="Times,serif" font-size="14.00">...</text>
<polygon fill="none" stroke="black" points="91,-214 91,-235 162,-235 162,-214 91,-214"/>
<text text-anchor="start" x="109.5" y="-220.8" font-family="Times,serif" font-size="14.00">String</text>
<polygon fill="none" stroke="black" points="162,-214 162,-235 235,-235 235,-214 162,-214"/>
<text text-anchor="start" x="181" y="-220.8" font-family="Times,serif" font-size="14.00">values</text>
<polygon fill="none" stroke="black" points="38,-193 38,-214 235,-214 235,-193 38,-193"/>
<text text-anchor="start" x="51.5" y="-199.8" font-family="Times,serif" font-size="14.00">repeat num_values.value times</text>
</g>
<!-- compact_int__inst__value&#45;&gt;string_list__seq -->
<g id="edge22" class="edge">
<title>compact_int__inst__value:value_type-&gt;string_list__seq:values__repeat</title>
<path fill="none" stroke="#404040" d="M963.28,-279.02C900.16,-275.73 835.9,-272.6 775,-270 747.35,-268.82 301.68,-267.53 277,-255 254.75,-243.71 262.27,-213.94 246.9,-205.35"/>
<polygon fill="#404040" stroke="#404040" points="248.03,-201.79 237.5,-203 246.48,-208.62 248.03,-201.79"/>
</g>
<!-- maybe_compact_int__seq -->
<g id="node7" class="node">
<title>maybe_compact_int__seq</title>
<polygon fill="#e6007a4f" stroke="none" points="44,-374.5 44,-395.5 69,-395.5 69,-374.5 44,-374.5"/>
<polygon fill="none" stroke="black" points="44,-374.5 44,-395.5 69,-395.5 69,-374.5 44,-374.5"/>
<text text-anchor="start" x="47" y="-381.3" font-family="Times,serif" font-size="14.00">pos</text>
<polygon fill="#e6007a4f" stroke="none" points="69,-374.5 69,-395.5 97,-395.5 97,-374.5 69,-374.5"/>
<polygon fill="none" stroke="black" points="69,-374.5 69,-395.5 97,-395.5 97,-374.5 69,-374.5"/>
<text text-anchor="start" x="72" y="-381.3" font-family="Times,serif" font-size="14.00">size</text>
<polygon fill="#e6007a4f" stroke="none" points="97,-374.5 97,-395.5 168,-395.5 168,-374.5 97,-374.5"/>
<polygon fill="none" stroke="black" points="97,-374.5 97,-395.5 168,-395.5 168,-374.5 97,-374.5"/>
<text text-anchor="start" x="120.5" y="-381.3" font-family="Times,serif" font-size="14.00">type</text>
<polygon fill="#e6007a4f" stroke="none" points="168,-374.5 168,-395.5 229,-395.5 229,-374.5 168,-374.5"/>
<polygon fill="none" stroke="black" points="168,-374.5 168,-395.5 229,-395.5 229,-374.5 168,-374.5"/>
<text text-anchor="start" x="193" y="-381.3" font-family="Times,serif" font-size="14.00">id</text>
<polygon fill="none" stroke="black" points="44,-353.5 44,-374.5 69,-374.5 69,-353.5 44,-353.5"/>
<text text-anchor="start" x="53" y="-360.3" font-family="Times,serif" font-size="14.00">0</text>
<polygon fill="none" stroke="black" points="69,-353.5 69,-374.5 97,-374.5 97,-353.5 69,-353.5"/>
<text text-anchor="start" x="79.5" y="-360.3" font-family="Times,serif" font-size="14.00">1</text>
<polygon fill="none" stroke="black" points="97,-353.5 97,-374.5 168,-374.5 168,-353.5 97,-353.5"/>
<text text-anchor="start" x="125.5" y="-360.3" font-family="Times,serif" font-size="14.00">u1</text>
<polygon fill="none" stroke="black" points="168,-353.5 168,-374.5 229,-374.5 229,-353.5 168,-353.5"/>
<text text-anchor="start" x="171" y="-360.3" font-family="Times,serif" font-size="14.00">has_value</text>
<polygon fill="none" stroke="black" points="44,-332.5 44,-353.5 69,-353.5 69,-332.5 44,-332.5"/>
<text text-anchor="start" x="53" y="-339.3" font-family="Times,serif" font-size="14.00">1</text>
<polygon fill="none" stroke="black" points="69,-332.5 69,-353.5 97,-353.5 97,-332.5 69,-332.5"/>
<text text-anchor="start" x="77" y="-339.3" font-family="Times,serif" font-size="14.00">...</text>
<polygon fill="none" stroke="black" points="97,-332.5 97,-353.5 168,-353.5 168,-332.5 97,-332.5"/>
<text text-anchor="start" x="100" y="-339.3" font-family="Times,serif" font-size="14.00">CompactInt</text>
<polygon fill="none" stroke="black" points="168,-332.5 168,-353.5 229,-353.5 229,-332.5 168,-332.5"/>
<text text-anchor="start" x="183.5" y="-339.3" font-family="Times,serif" font-size="14.00">value</text>
</g>
<!-- maybe_compact_int__seq&#45;&gt;compact_int__seq -->
<g id="edge19" class="edge">
<title>maybe_compact_int__seq:value_type-&gt;compact_int__seq</title>
<path fill="none" stroke="black" stroke-width="2" d="M230.5,-343C244.81,-343 259.5,-342.79 274.31,-342.42"/>
<polygon fill="black" stroke="black" stroke-width="2" points="272.23,-345.9 282.13,-342.12 272.03,-338.9 272.23,-345.9"/>
</g>
<!-- string_list__seq&#45;&gt;string__seq -->
<g id="edge21" class="edge">
<title>string_list__seq:values_type-&gt;string__seq</title>
<path fill="none" stroke="black" stroke-width="2" d="M236.5,-224C292.84,-224 354.73,-216.62 407.01,-208.21"/>
<polygon fill="black" stroke="black" stroke-width="2" points="406.38,-211.53 415.68,-206.46 405.24,-204.62 406.38,-211.53"/>
</g>
<!-- string_list__seq&#45;&gt;compact_int__seq -->
<g id="edge20" class="edge">
<title>string_list__seq:num_values_type-&gt;compact_int__seq</title>
<path fill="none" stroke="black" stroke-width="2" d="M236.5,-246C256.38,-246 258.23,-258.44 277,-265 287.89,-268.81 299.13,-272.45 310.53,-275.93"/>
<polygon fill="black" stroke="black" stroke-width="2" points="308.46,-279.56 319.05,-279.08 310.47,-272.86 308.46,-279.56"/>
</g>
</g>
</svg>
