<?xml version="1.0" encoding="UTF-8" standalone="no"?>
<!DOCTYPE svg PUBLIC "-//W3C//DTD SVG 1.1//EN"
 "http://www.w3.org/Graphics/SVG/1.1/DTD/svg11.dtd">
<!-- Generated by graphviz version 7.1.0 (20230121.1956)
 -->
<!-- Pages: 1 -->
<svg width="2003pt" height="597pt"
 viewBox="0.00 0.00 2003.00 597.00" xmlns="http://www.w3.org/2000/svg" xmlns:xlink="http://www.w3.org/1999/xlink">
<g id="graph0" class="graph" transform="scale(1 1) rotate(0) translate(4 593)">
<polygon fill="white" stroke="none" points="-4,4 -4,-593 1999,-593 1999,4 -4,4"/>
<g id="clust1" class="cluster">
<title>cluster__scale</title>
<polygon fill="none" stroke="black" stroke-dasharray="1,5" points="8,-8 8,-581 1987,-581 1987,-8 8,-8"/>
<text text-anchor="middle" x="997.5" y="-565.8" font-family="Times,serif" font-size="14.00">Scale</text>
</g>
<g id="clust6" class="cluster">
<title>cluster__maybe_compact_int</title>
<polygon fill="none" stroke="black" stroke-dasharray="1,5" points="28,-320 28,-431 245,-431 245,-320 28,-320"/>
<text text-anchor="middle" x="136.5" y="-415.8" font-family="Times,serif" font-size="14.00">Scale::MaybeCompactInt</text>
</g>
<g id="clust2" class="cluster">
<title>cluster__string</title>
<polygon fill="none" stroke="black" stroke-dasharray="1,5" points="409.5,-139 409.5,-250 650.5,-250 650.5,-139 409.5,-139"/>
<text text-anchor="middle" x="530" y="-234.8" font-family="Times,serif" font-size="14.00">Scale::String</text>
</g>
<g id="clust3" class="cluster">
<title>cluster__bytes</title>
<polygon fill="none" stroke="black" stroke-dasharray="1,5" points="16,-439 16,-550 257,-550 257,-439 16,-439"/>
<text text-anchor="middle" x="136.5" y="-534.8" font-family="Times,serif" font-size="14.00">Scale::Bytes</text>
</g>
<g id="clust4" class="cluster">
<title>cluster__maybe_string</title>
<polygon fill="none" stroke="black" stroke-dasharray="1,5" points="43.5,-62 43.5,-173 229.5,-173 229.5,-62 43.5,-62"/>
<text text-anchor="middle" x="136.5" y="-157.8" font-family="Times,serif" font-size="14.00">Scale::MaybeString</text>
</g>
<g id="clust5" class="cluster">
<title>cluster__compact_int</title>
<polygon fill="none" stroke="black" stroke-dasharray="1,5" points="277,-270 277,-473 1979,-473 1979,-270 277,-270"/>
<text text-anchor="middle" x="1128" y="-457.8" font-family="Times,serif" font-size="14.00">Scale::CompactInt</text>
</g>
<g id="clust7" class="cluster">
<title>cluster__string_list</title>
<polygon fill="none" stroke="black" stroke-dasharray="1,5" points="22,-181 22,-312 251,-312 251,-181 22,-181"/>
<text text-anchor="middle" x="136.5" y="-296.8" font-family="Times,serif" font-size="14.00">Scale::StringList</text>
</g>
<!-- scale__seq -->
<g id="node1" class="node">
<title>scale__seq</title>
<polygon fill="#e0ffe0" stroke="none" points="86.5,-23 86.5,-44 111.5,-44 111.5,-23 86.5,-23"/>
<polygon fill="none" stroke="black" points="86.5,-23 86.5,-44 111.5,-44 111.5,-23 86.5,-23"/>
<text text-anchor="start" x="89.5" y="-29.8" font-family="Times,serif" font-size="14.00">pos</text>
<polygon fill="#e0ffe0" stroke="none" points="111.5,-23 111.5,-44 139.5,-44 139.5,-23 111.5,-23"/>
<polygon fill="none" stroke="black" points="111.5,-23 111.5,-44 139.5,-44 139.5,-23 111.5,-23"/>
<text text-anchor="start" x="114.5" y="-29.8" font-family="Times,serif" font-size="14.00">size</text>
<polygon fill="#e0ffe0" stroke="none" points="139.5,-23 139.5,-44 169.5,-44 169.5,-23 139.5,-23"/>
<polygon fill="none" stroke="black" points="139.5,-23 139.5,-44 169.5,-44 169.5,-23 139.5,-23"/>
<text text-anchor="start" x="142.5" y="-29.8" font-family="Times,serif" font-size="14.00">type</text>
<polygon fill="#e0ffe0" stroke="none" points="169.5,-23 169.5,-44 186.5,-44 186.5,-23 169.5,-23"/>
<polygon fill="none" stroke="black" points="169.5,-23 169.5,-44 186.5,-44 186.5,-23 169.5,-23"/>
<text text-anchor="start" x="172.5" y="-29.8" font-family="Times,serif" font-size="14.00">id</text>
</g>
<!-- string__seq -->
<g id="node2" class="node">
<title>string__seq</title>
<polygon fill="#e0ffe0" stroke="none" points="426,-193 426,-214 451,-214 451,-193 426,-193"/>
<polygon fill="none" stroke="black" points="426,-193 426,-214 451,-214 451,-193 426,-193"/>
<text text-anchor="start" x="429" y="-199.8" font-family="Times,serif" font-size="14.00">pos</text>
<polygon fill="#e0ffe0" stroke="none" points="451,-193 451,-214 524,-214 524,-193 451,-193"/>
<polygon fill="none" stroke="black" points="451,-193 451,-214 524,-214 524,-193 451,-193"/>
<text text-anchor="start" x="476.5" y="-199.8" font-family="Times,serif" font-size="14.00">size</text>
<polygon fill="#e0ffe0" stroke="none" points="524,-193 524,-214 595,-214 595,-193 524,-193"/>
<polygon fill="none" stroke="black" points="524,-193 524,-214 595,-214 595,-193 524,-193"/>
<text text-anchor="start" x="547.5" y="-199.8" font-family="Times,serif" font-size="14.00">type</text>
<polygon fill="#e0ffe0" stroke="none" points="595,-193 595,-214 635,-214 635,-193 595,-193"/>
<polygon fill="none" stroke="black" points="595,-193 595,-214 635,-214 635,-193 595,-193"/>
<text text-anchor="start" x="609.5" y="-199.8" font-family="Times,serif" font-size="14.00">id</text>
<polygon fill="none" stroke="black" points="426,-172 426,-193 451,-193 451,-172 426,-172"/>
<text text-anchor="start" x="435" y="-178.8" font-family="Times,serif" font-size="14.00">0</text>
<polygon fill="none" stroke="black" points="451,-172 451,-193 524,-193 524,-172 451,-172"/>
<text text-anchor="start" x="481.5" y="-178.8" font-family="Times,serif" font-size="14.00">...</text>
<polygon fill="none" stroke="black" points="524,-172 524,-193 595,-193 595,-172 524,-172"/>
<text text-anchor="start" x="527" y="-178.8" font-family="Times,serif" font-size="14.00">CompactInt</text>
<polygon fill="none" stroke="black" points="595,-172 595,-193 635,-193 635,-172 595,-172"/>
<text text-anchor="start" x="598" y="-178.8" font-family="Times,serif" font-size="14.00">length</text>
<polygon fill="none" stroke="black" points="426,-151 426,-172 451,-172 451,-151 426,-151"/>
<text text-anchor="start" x="432.5" y="-157.8" font-family="Times,serif" font-size="14.00">...</text>
<polygon fill="none" stroke="black" points="451,-151 451,-172 524,-172 524,-151 451,-151"/>
<text text-anchor="start" x="454" y="-157.8" font-family="Times,serif" font-size="14.00">length.value</text>
<polygon fill="none" stroke="black" points="524,-151 524,-172 595,-172 595,-151 524,-151"/>
<text text-anchor="start" x="529.5" y="-157.8" font-family="Times,serif" font-size="14.00">str(UTF&#45;8)</text>
<polygon fill="none" stroke="black" points="595,-151 595,-172 635,-172 635,-151 595,-151"/>
<text text-anchor="start" x="600" y="-157.8" font-family="Times,serif" font-size="14.00">value</text>
</g>
<!-- compact_int__seq -->
<g id="node5" class="node">
<title>compact_int__seq</title>
<polygon fill="#e0ffe0" stroke="none" points="293,-345 293,-366 318,-366 318,-345 293,-345"/>
<polygon fill="none" stroke="black" points="293,-345 293,-366 318,-366 318,-345 293,-345"/>
<text text-anchor="start" x="296" y="-351.8" font-family="Times,serif" font-size="14.00">pos</text>
<polygon fill="#e0ffe0" stroke="none" points="318,-345 318,-366 700,-366 700,-345 318,-345"/>
<polygon fill="none" stroke="black" points="318,-345 318,-366 700,-366 700,-345 318,-345"/>
<text text-anchor="start" x="498" y="-351.8" font-family="Times,serif" font-size="14.00">size</text>
<polygon fill="#e0ffe0" stroke="none" points="700,-345 700,-366 730,-366 730,-345 700,-345"/>
<polygon fill="none" stroke="black" points="700,-345 700,-366 730,-366 730,-345 700,-345"/>
<text text-anchor="start" x="703" y="-351.8" font-family="Times,serif" font-size="14.00">type</text>
<polygon fill="#e0ffe0" stroke="none" points="730,-345 730,-366 767,-366 767,-345 730,-345"/>
<polygon fill="none" stroke="black" points="730,-345 730,-366 767,-366 767,-345 730,-345"/>
<text text-anchor="start" x="743" y="-351.8" font-family="Times,serif" font-size="14.00">id</text>
<polygon fill="none" stroke="black" points="293,-324 293,-345 318,-345 318,-324 293,-324"/>
<text text-anchor="start" x="302" y="-330.8" font-family="Times,serif" font-size="14.00">0</text>
<polygon fill="none" stroke="black" points="318,-324 318,-345 700,-345 700,-324 318,-324"/>
<text text-anchor="start" x="502" y="-330.8" font-family="Times,serif" font-size="14.00">6b</text>
<polygon fill="none" stroke="black" points="700,-324 700,-345 730,-345 730,-324 700,-324"/>
<text text-anchor="start" x="708" y="-330.8" font-family="Times,serif" font-size="14.00">b6</text>
<polygon fill="none" stroke="black" points="730,-324 730,-345 767,-345 767,-324 730,-324"/>
<text text-anchor="start" x="737" y="-330.8" font-family="Times,serif" font-size="14.00">data</text>
<polygon fill="none" stroke="black" points="293,-303 293,-324 318,-324 318,-303 293,-303"/>
<text text-anchor="start" x="296.5" y="-309.8" font-family="Times,serif" font-size="14.00">0:6</text>
<polygon fill="none" stroke="black" points="318,-303 318,-324 700,-324 700,-303 318,-303"/>
<text text-anchor="start" x="502" y="-309.8" font-family="Times,serif" font-size="14.00">2b</text>
<polygon fill="none" stroke="black" points="700,-303 700,-324 730,-324 730,-303 700,-303"/>
<text text-anchor="start" x="708" y="-309.8" font-family="Times,serif" font-size="14.00">b2</text>
<polygon fill="none" stroke="black" points="730,-303 730,-324 767,-324 767,-303 730,-303"/>
<text text-anchor="start" x="733" y="-309.8" font-family="Times,serif" font-size="14.00">mode</text>
<polygon fill="none" stroke="black" points="293,-282 293,-303 318,-303 318,-282 293,-282"/>
<text text-anchor="start" x="302" y="-288.8" font-family="Times,serif" font-size="14.00">1</text>
<polygon fill="none" stroke="black" points="318,-282 318,-303 700,-303 700,-282 318,-282"/>
<text text-anchor="start" x="321" y="-288.8" font-family="Times,serif" font-size="14.00">(((mode &amp; 1) + (((mode &amp; 2) / 2) * 3)) + (((mode &amp; 3) / 3) * data))</text>
<polygon fill="none" stroke="black" points="700,-282 700,-303 730,-303 730,-282 700,-282"/>
<polygon fill="none" stroke="black" points="730,-282 730,-303 767,-303 767,-282 730,-282"/>
<text text-anchor="start" x="734.5" y="-288.8" font-family="Times,serif" font-size="14.00">extra</text>
</g>
<!-- string__seq&#45;&gt;compact_int__seq -->
<g id="edge1" class="edge">
<title>string__seq:length_type&#45;&gt;compact_int__seq</title>
<path fill="none" stroke="black" stroke-width="2" d="M592.82,-270.75C637.46,-230.61 682.03,-182 636,-182"/>
<polygon fill="black" stroke="black" stroke-width="2" points="591.63,-267.12 586.48,-276.38 596.28,-272.36 591.63,-267.12"/>
</g>
<!-- bytes__seq -->
<g id="node3" class="node">
<title>bytes__seq</title>
<polygon fill="#e0ffe0" stroke="none" points="32.5,-493 32.5,-514 57.5,-514 57.5,-493 32.5,-493"/>
<polygon fill="none" stroke="black" points="32.5,-493 32.5,-514 57.5,-514 57.5,-493 32.5,-493"/>
<text text-anchor="start" x="35.5" y="-499.8" font-family="Times,serif" font-size="14.00">pos</text>
<polygon fill="#e0ffe0" stroke="none" points="57.5,-493 57.5,-514 130.5,-514 130.5,-493 57.5,-493"/>
<polygon fill="none" stroke="black" points="57.5,-493 57.5,-514 130.5,-514 130.5,-493 57.5,-493"/>
<text text-anchor="start" x="83" y="-499.8" font-family="Times,serif" font-size="14.00">size</text>
<polygon fill="#e0ffe0" stroke="none" points="130.5,-493 130.5,-514 201.5,-514 201.5,-493 130.5,-493"/>
<polygon fill="none" stroke="black" points="130.5,-493 130.5,-514 201.5,-514 201.5,-493 130.5,-493"/>
<text text-anchor="start" x="154" y="-499.8" font-family="Times,serif" font-size="14.00">type</text>
<polygon fill="#e0ffe0" stroke="none" points="201.5,-493 201.5,-514 241.5,-514 241.5,-493 201.5,-493"/>
<polygon fill="none" stroke="black" points="201.5,-493 201.5,-514 241.5,-514 241.5,-493 201.5,-493"/>
<text text-anchor="start" x="216" y="-499.8" font-family="Times,serif" font-size="14.00">id</text>
<polygon fill="none" stroke="black" points="32.5,-472 32.5,-493 57.5,-493 57.5,-472 32.5,-472"/>
<text text-anchor="start" x="41.5" y="-478.8" font-family="Times,serif" font-size="14.00">0</text>
<polygon fill="none" stroke="black" points="57.5,-472 57.5,-493 130.5,-493 130.5,-472 57.5,-472"/>
<text text-anchor="start" x="88" y="-478.8" font-family="Times,serif" font-size="14.00">...</text>
<polygon fill="none" stroke="black" points="130.5,-472 130.5,-493 201.5,-493 201.5,-472 130.5,-472"/>
<text text-anchor="start" x="133.5" y="-478.8" font-family="Times,serif" font-size="14.00">CompactInt</text>
<polygon fill="none" stroke="black" points="201.5,-472 201.5,-493 241.5,-493 241.5,-472 201.5,-472"/>
<text text-anchor="start" x="204.5" y="-478.8" font-family="Times,serif" font-size="14.00">length</text>
<polygon fill="none" stroke="black" points="32.5,-451 32.5,-472 57.5,-472 57.5,-451 32.5,-451"/>
<text text-anchor="start" x="39" y="-457.8" font-family="Times,serif" font-size="14.00">...</text>
<polygon fill="none" stroke="black" points="57.5,-451 57.5,-472 130.5,-472 130.5,-451 57.5,-451"/>
<text text-anchor="start" x="60.5" y="-457.8" font-family="Times,serif" font-size="14.00">length.value</text>
<polygon fill="none" stroke="black" points="130.5,-451 130.5,-472 201.5,-472 201.5,-451 130.5,-451"/>
<polygon fill="none" stroke="black" points="201.5,-451 201.5,-472 241.5,-472 241.5,-451 201.5,-451"/>
<text text-anchor="start" x="206.5" y="-457.8" font-family="Times,serif" font-size="14.00">value</text>
</g>
<!-- bytes__seq&#45;&gt;compact_int__seq -->
<g id="edge3" class="edge">
<title>bytes__seq:length_type&#45;&gt;compact_int__seq</title>
<path fill="none" stroke="black" stroke-width="2" d="M242.5,-482C261.7,-482 260.78,-466.27 277,-456 323.17,-426.78 376.5,-398.17 422.18,-375.09"/>
<polygon fill="black" stroke="black" stroke-width="2" points="422.34,-378.93 429.7,-371.31 419.19,-372.67 422.34,-378.93"/>
</g>
<!-- maybe_string__seq -->
<g id="node4" class="node">
<title>maybe_string__seq</title>
<polygon fill="#e0ffe0" stroke="none" points="59.5,-116 59.5,-137 84.5,-137 84.5,-116 59.5,-116"/>
<polygon fill="none" stroke="black" points="59.5,-116 59.5,-137 84.5,-137 84.5,-116 59.5,-116"/>
<text text-anchor="start" x="62.5" y="-122.8" font-family="Times,serif" font-size="14.00">pos</text>
<polygon fill="#e0ffe0" stroke="none" points="84.5,-116 84.5,-137 112.5,-137 112.5,-116 84.5,-116"/>
<polygon fill="none" stroke="black" points="84.5,-116 84.5,-137 112.5,-137 112.5,-116 84.5,-116"/>
<text text-anchor="start" x="87.5" y="-122.8" font-family="Times,serif" font-size="14.00">size</text>
<polygon fill="#e0ffe0" stroke="none" points="112.5,-116 112.5,-137 152.5,-137 152.5,-116 112.5,-116"/>
<polygon fill="none" stroke="black" points="112.5,-116 112.5,-137 152.5,-137 152.5,-116 112.5,-116"/>
<text text-anchor="start" x="120.5" y="-122.8" font-family="Times,serif" font-size="14.00">type</text>
<polygon fill="#e0ffe0" stroke="none" points="152.5,-116 152.5,-137 213.5,-137 213.5,-116 152.5,-116"/>
<polygon fill="none" stroke="black" points="152.5,-116 152.5,-137 213.5,-137 213.5,-116 152.5,-116"/>
<text text-anchor="start" x="177.5" y="-122.8" font-family="Times,serif" font-size="14.00">id</text>
<polygon fill="none" stroke="black" points="59.5,-95 59.5,-116 84.5,-116 84.5,-95 59.5,-95"/>
<text text-anchor="start" x="68.5" y="-101.8" font-family="Times,serif" font-size="14.00">0</text>
<polygon fill="none" stroke="black" points="84.5,-95 84.5,-116 112.5,-116 112.5,-95 84.5,-95"/>
<text text-anchor="start" x="95" y="-101.8" font-family="Times,serif" font-size="14.00">1</text>
<polygon fill="none" stroke="black" points="112.5,-95 112.5,-116 152.5,-116 152.5,-95 112.5,-95"/>
<text text-anchor="start" x="125.5" y="-101.8" font-family="Times,serif" font-size="14.00">u1</text>
<polygon fill="none" stroke="black" points="152.5,-95 152.5,-116 213.5,-116 213.5,-95 152.5,-95"/>
<text text-anchor="start" x="155.5" y="-101.8" font-family="Times,serif" font-size="14.00">has_value</text>
<polygon fill="none" stroke="black" points="59.5,-74 59.5,-95 84.5,-95 84.5,-74 59.5,-74"/>
<text text-anchor="start" x="68.5" y="-80.8" font-family="Times,serif" font-size="14.00">1</text>
<polygon fill="none" stroke="black" points="84.5,-74 84.5,-95 112.5,-95 112.5,-74 84.5,-74"/>
<text text-anchor="start" x="92.5" y="-80.8" font-family="Times,serif" font-size="14.00">...</text>
<polygon fill="none" stroke="black" points="112.5,-74 112.5,-95 152.5,-95 152.5,-74 112.5,-74"/>
<text text-anchor="start" x="115.5" y="-80.8" font-family="Times,serif" font-size="14.00">String</text>
<polygon fill="none" stroke="black" points="152.5,-74 152.5,-95 213.5,-95 213.5,-74 152.5,-74"/>
<text text-anchor="start" x="168" y="-80.8" font-family="Times,serif" font-size="14.00">value</text>
</g>
<!-- maybe_string__seq&#45;&gt;string__seq -->
<g id="edge5" class="edge">
<title>maybe_string__seq:value_type&#45;&gt;string__seq</title>
<path fill="none" stroke="black" stroke-width="2" d="M214.5,-84C297.19,-84 386.7,-115.52 449.01,-142.99"/>
<polygon fill="black" stroke="black" stroke-width="2" points="445.83,-145.41 456.39,-146.3 448.69,-139.02 445.83,-145.41"/>
</g>
<!-- compact_int__seq&#45;&gt;compact_int__seq -->
<g id="edge6" class="edge">
<title>compact_int__seq:mode_type&#45;&gt;compact_int__seq:extra_size</title>
<path fill="none" stroke="#404040" d="M760.55,-323.68C778.77,-348.37 760.31,-388 629,-388 510.46,-388 483.89,-343.06 493.24,-312.95"/>
<polygon fill="#404040" stroke="#404040" points="496.37,-314.53 497.55,-304 490.06,-311.49 496.37,-314.53"/>
</g>
<!-- compact_int__seq&#45;&gt;compact_int__seq -->
<g id="edge7" class="edge">
<title>compact_int__seq:mode_type&#45;&gt;compact_int__seq:extra_size</title>
<path fill="none" stroke="#404040" d="M766.83,-322.41C812.67,-352.99 795.74,-406 629,-406 475.34,-406 448.91,-346.58 481.59,-310.63"/>
<polygon fill="#404040" stroke="#404040" points="483.88,-313.27 488.88,-303.93 479.15,-308.12 483.88,-313.27"/>
</g>
<!-- compact_int__seq&#45;&gt;compact_int__seq -->
<g id="edge8" class="edge">
<title>compact_int__seq:mode_type&#45;&gt;compact_int__seq:extra_size</title>
<path fill="none" stroke="#404040" d="M766.76,-319.97C846.47,-356.02 833.3,-424 629,-424 440.37,-424 414.68,-350.39 474.58,-308.85"/>
<polygon fill="#404040" stroke="#404040" points="476.1,-312.02 482.74,-303.76 472.4,-306.08 476.1,-312.02"/>
</g>
<!-- compact_int__seq&#45;&gt;compact_int__seq -->
<g id="edge9" class="edge">
<title>compact_int__seq:data_type&#45;&gt;compact_int__seq:extra_size</title>
<path fill="none" stroke="#404040" d="M766.76,-339.24C846.47,-360.28 833.3,-388 629,-388 450.32,-388 417.84,-338.01 465.82,-308.15"/>
<polygon fill="#404040" stroke="#404040" points="467.23,-311.37 474.37,-303.55 463.91,-305.21 467.23,-311.37"/>
</g>
<!-- compact_int__inst__value -->
<g id="node6" class="node">
<title>compact_int__inst__value</title>
<polygon fill="#e0ffe0" stroke="none" points="819,-303 819,-324 855,-324 855,-303 819,-303"/>
<polygon fill="none" stroke="black" points="819,-303 819,-324 855,-324 855,-303 819,-303"/>
<text text-anchor="start" x="831.5" y="-309.8" font-family="Times,serif" font-size="14.00">id</text>
<polygon fill="#e0ffe0" stroke="none" points="855,-303 855,-324 1963,-324 1963,-303 855,-303"/>
<polygon fill="none" stroke="black" points="855,-303 855,-324 1963,-324 1963,-303 855,-303"/>
<text text-anchor="start" x="1394" y="-309.8" font-family="Times,serif" font-size="14.00">value</text>
<polygon fill="none" stroke="black" points="819,-282 819,-303 855,-303 855,-282 819,-282"/>
<text text-anchor="start" x="822" y="-288.8" font-family="Times,serif" font-size="14.00">value</text>
<polygon fill="none" stroke="black" points="855,-282 855,-303 1963,-303 1963,-282 855,-282"/>
<text text-anchor="start" x="858" y="-288.8" font-family="Times,serif" font-size="14.00">((((((((data + (extra[0].ord &lt;&lt; 6)) + (extra[1].ord &lt;&lt; 14)) + (extra[2].ord &lt;&lt; 22)) + (extra[3].ord &lt;&lt; 30)) + (extra[4].ord &lt;&lt; 38)) + (extra[5].ord &lt;&lt; 46)) + (extra[6].ord &lt;&lt; 54)) + (extra[7].ord &lt;&lt; 62))</text>
</g>
<!-- compact_int__seq&#45;&gt;compact_int__inst__value -->
<g id="edge10" class="edge">
<title>compact_int__seq:data_type&#45;&gt;compact_int__inst__value</title>
<path fill="none" stroke="#404040" d="M768,-335C847.91,-335 933.51,-332.33 1014.87,-328.54"/>
<polygon fill="#404040" stroke="#404040" points="1014.98,-332.04 1024.8,-328.07 1014.65,-325.05 1014.98,-332.04"/>
</g>
<!-- compact_int__seq&#45;&gt;compact_int__inst__value -->
<g id="edge11" class="edge">
<title>compact_int__seq:extra_type&#45;&gt;compact_int__inst__value</title>
<path fill="none" stroke="#404040" d="M768,-292C993.47,-240.62 1264.84,-238.46 1357.31,-273.58"/>
<polygon fill="#404040" stroke="#404040" points="1355.73,-276.7 1366.3,-277.44 1358.5,-270.27 1355.73,-276.7"/>
</g>
<!-- compact_int__seq&#45;&gt;compact_int__inst__value -->
<g id="edge12" class="edge">
<title>compact_int__seq:extra_type&#45;&gt;compact_int__inst__value</title>
<path fill="none" stroke="#404040" d="M768.41,-291.93C975.41,-258.29 1220.98,-256.02 1331.26,-275.89"/>
<polygon fill="#404040" stroke="#404040" points="1330.48,-279.3 1340.96,-277.79 1331.82,-272.43 1330.48,-279.3"/>
</g>
<!-- compact_int__seq&#45;&gt;compact_int__inst__value -->
<g id="edge13" class="edge">
<title>compact_int__seq:extra_type&#45;&gt;compact_int__inst__value</title>
<path fill="none" stroke="#404040" d="M768.41,-291.96C912.77,-277.89 1075.89,-274.16 1198.8,-277.66"/>
<polygon fill="#404040" stroke="#404040" points="1198.57,-281.16 1208.68,-277.96 1198.79,-274.16 1198.57,-281.16"/>
</g>
<!-- compact_int__seq&#45;&gt;compact_int__inst__value -->
<g id="edge14" class="edge">
<title>compact_int__seq:extra_type&#45;&gt;compact_int__inst__value</title>
<path fill="none" stroke="#404040" d="M768.41,-291.99C778.81,-291.65 789.32,-291.34 799.9,-291.06"/>
<polygon fill="#404040" stroke="#404040" points="799.99,-294.56 809.89,-290.8 799.81,-287.56 799.99,-294.56"/>
</g>
<!-- compact_int__seq&#45;&gt;compact_int__inst__value -->
<g id="edge15" class="edge">
<title>compact_int__seq:extra_type&#45;&gt;compact_int__inst__value</title>
<path fill="none" stroke="#404040" d="M768.41,-292.01C778.92,-292.36 789.54,-292.7 800.24,-293.05"/>
<polygon fill="#404040" stroke="#404040" points="799.79,-296.53 809.89,-293.36 800.01,-289.54 799.79,-296.53"/>
</g>
<!-- compact_int__seq&#45;&gt;compact_int__inst__value -->
<g id="edge16" class="edge">
<title>compact_int__seq:extra_type&#45;&gt;compact_int__inst__value</title>
<path fill="none" stroke="#404040" d="M768.41,-292.04C778.92,-293.07 789.54,-294.07 800.24,-295.05"/>
<polygon fill="#404040" stroke="#404040" points="799.63,-298.51 809.9,-295.92 800.26,-291.54 799.63,-298.51"/>
</g>
<!-- compact_int__seq&#45;&gt;compact_int__inst__value -->
<g id="edge17" class="edge">
<title>compact_int__seq:extra_type&#45;&gt;compact_int__inst__value</title>
<path fill="none" stroke="#404040" d="M768.41,-292.07C961.92,-323.53 1189.13,-338.34 1308.02,-328.97"/>
<polygon fill="#404040" stroke="#404040" points="1308.02,-332.48 1317.67,-328.11 1307.4,-325.51 1308.02,-332.48"/>
</g>
<!-- compact_int__seq&#45;&gt;compact_int__inst__value -->
<g id="edge18" class="edge">
<title>compact_int__seq:extra_type&#45;&gt;compact_int__inst__value</title>
<path fill="none" stroke="#404040" d="M768.41,-292.09C990.97,-342.75 1258.1,-359.73 1353.75,-331.55"/>
<polygon fill="#404040" stroke="#404040" points="1354.77,-334.9 1363.12,-328.37 1352.52,-328.27 1354.77,-334.9"/>
</g>
<!-- compact_int__inst__value&#45;&gt;string__seq -->
<g id="edge2" class="edge">
<title>compact_int__inst__value:value_type&#45;&gt;string__seq:value_size</title>
<path fill="none" stroke="#404040" d="M1348.26,-278C1172.57,-174.95 501.63,196.09 487.24,-138.84"/>
<polygon fill="#404040" stroke="#404040" points="483.74,-138.42 487.03,-148.49 490.74,-138.56 483.74,-138.42"/>
</g>
<!-- compact_int__inst__value&#45;&gt;bytes__seq -->
<g id="edge4" class="edge">
<title>compact_int__inst__value:value_type&#45;&gt;bytes__seq:value_size</title>
<path fill="none" stroke="#404040" d="M1312.44,-327.93C1196.84,-363.65 971.84,-427.65 775,-451 555.21,-477.07 498.33,-451.6 277,-451 259.56,-450.95 137.67,-435.33 102.8,-443.58"/>
<polygon fill="#404040" stroke="#404040" points="100.99,-440.58 94.75,-449.14 104.96,-446.34 100.99,-440.58"/>
</g>
<!-- string_list__seq -->
<g id="node8" class="node">
<title>string_list__seq</title>
<polygon fill="#e0ffe0" stroke="none" points="38.5,-256 38.5,-277 63.5,-277 63.5,-256 38.5,-256"/>
<polygon fill="none" stroke="black" points="38.5,-256 38.5,-277 63.5,-277 63.5,-256 38.5,-256"/>
<text text-anchor="start" x="41.5" y="-262.8" font-family="Times,serif" font-size="14.00">pos</text>
<polygon fill="#e0ffe0" stroke="none" points="63.5,-256 63.5,-277 91.5,-277 91.5,-256 63.5,-256"/>
<polygon fill="none" stroke="black" points="63.5,-256 63.5,-277 91.5,-277 91.5,-256 63.5,-256"/>
<text text-anchor="start" x="66.5" y="-262.8" font-family="Times,serif" font-size="14.00">size</text>
<polygon fill="#e0ffe0" stroke="none" points="91.5,-256 91.5,-277 162.5,-277 162.5,-256 91.5,-256"/>
<polygon fill="none" stroke="black" points="91.5,-256 91.5,-277 162.5,-277 162.5,-256 91.5,-256"/>
<text text-anchor="start" x="115" y="-262.8" font-family="Times,serif" font-size="14.00">type</text>
<polygon fill="#e0ffe0" stroke="none" points="162.5,-256 162.5,-277 235.5,-277 235.5,-256 162.5,-256"/>
<polygon fill="none" stroke="black" points="162.5,-256 162.5,-277 235.5,-277 235.5,-256 162.5,-256"/>
<text text-anchor="start" x="193.5" y="-262.8" font-family="Times,serif" font-size="14.00">id</text>
<polygon fill="none" stroke="black" points="38.5,-235 38.5,-256 63.5,-256 63.5,-235 38.5,-235"/>
<text text-anchor="start" x="47.5" y="-241.8" font-family="Times,serif" font-size="14.00">0</text>
<polygon fill="none" stroke="black" points="63.5,-235 63.5,-256 91.5,-256 91.5,-235 63.5,-235"/>
<text text-anchor="start" x="71.5" y="-241.8" font-family="Times,serif" font-size="14.00">...</text>
<polygon fill="none" stroke="black" points="91.5,-235 91.5,-256 162.5,-256 162.5,-235 91.5,-235"/>
<text text-anchor="start" x="94.5" y="-241.8" font-family="Times,serif" font-size="14.00">CompactInt</text>
<polygon fill="none" stroke="black" points="162.5,-235 162.5,-256 235.5,-256 235.5,-235 162.5,-235"/>
<text text-anchor="start" x="165.5" y="-241.8" font-family="Times,serif" font-size="14.00">num_values</text>
<polygon fill="none" stroke="black" points="38.5,-214 38.5,-235 63.5,-235 63.5,-214 38.5,-214"/>
<text text-anchor="start" x="45" y="-220.8" font-family="Times,serif" font-size="14.00">...</text>
<polygon fill="none" stroke="black" points="63.5,-214 63.5,-235 91.5,-235 91.5,-214 63.5,-214"/>
<text text-anchor="start" x="71.5" y="-220.8" font-family="Times,serif" font-size="14.00">...</text>
<polygon fill="none" stroke="black" points="91.5,-214 91.5,-235 162.5,-235 162.5,-214 91.5,-214"/>
<text text-anchor="start" x="110" y="-220.8" font-family="Times,serif" font-size="14.00">String</text>
<polygon fill="none" stroke="black" points="162.5,-214 162.5,-235 235.5,-235 235.5,-214 162.5,-214"/>
<text text-anchor="start" x="181.5" y="-220.8" font-family="Times,serif" font-size="14.00">values</text>
<polygon fill="none" stroke="black" points="38.5,-193 38.5,-214 235.5,-214 235.5,-193 38.5,-193"/>
<text text-anchor="start" x="52" y="-199.8" font-family="Times,serif" font-size="14.00">repeat num_values.value times</text>
</g>
<!-- compact_int__inst__value&#45;&gt;string_list__seq -->
<g id="edge22" class="edge">
<title>compact_int__inst__value:value_type&#45;&gt;string_list__seq:values__repeat</title>
<path fill="none" stroke="#404040" d="M963.28,-278.02C900.16,-274.73 835.9,-271.6 775,-269 747.35,-267.82 301.74,-266.41 277,-254 255.37,-243.15 261.83,-214.8 247.62,-205.79"/>
<polygon fill="#404040" stroke="#404040" points="248.52,-202.41 237.97,-203.37 246.81,-209.2 248.52,-202.41"/>
</g>
<!-- maybe_compact_int__seq -->
<g id="node7" class="node">
<title>maybe_compact_int__seq</title>
<polygon fill="#e0ffe0" stroke="none" points="44.5,-374 44.5,-395 69.5,-395 69.5,-374 44.5,-374"/>
<polygon fill="none" stroke="black" points="44.5,-374 44.5,-395 69.5,-395 69.5,-374 44.5,-374"/>
<text text-anchor="start" x="47.5" y="-380.8" font-family="Times,serif" font-size="14.00">pos</text>
<polygon fill="#e0ffe0" stroke="none" points="69.5,-374 69.5,-395 97.5,-395 97.5,-374 69.5,-374"/>
<polygon fill="none" stroke="black" points="69.5,-374 69.5,-395 97.5,-395 97.5,-374 69.5,-374"/>
<text text-anchor="start" x="72.5" y="-380.8" font-family="Times,serif" font-size="14.00">size</text>
<polygon fill="#e0ffe0" stroke="none" points="97.5,-374 97.5,-395 168.5,-395 168.5,-374 97.5,-374"/>
<polygon fill="none" stroke="black" points="97.5,-374 97.5,-395 168.5,-395 168.5,-374 97.5,-374"/>
<text text-anchor="start" x="121" y="-380.8" font-family="Times,serif" font-size="14.00">type</text>
<polygon fill="#e0ffe0" stroke="none" points="168.5,-374 168.5,-395 229.5,-395 229.5,-374 168.5,-374"/>
<polygon fill="none" stroke="black" points="168.5,-374 168.5,-395 229.5,-395 229.5,-374 168.5,-374"/>
<text text-anchor="start" x="193.5" y="-380.8" font-family="Times,serif" font-size="14.00">id</text>
<polygon fill="none" stroke="black" points="44.5,-353 44.5,-374 69.5,-374 69.5,-353 44.5,-353"/>
<text text-anchor="start" x="53.5" y="-359.8" font-family="Times,serif" font-size="14.00">0</text>
<polygon fill="none" stroke="black" points="69.5,-353 69.5,-374 97.5,-374 97.5,-353 69.5,-353"/>
<text text-anchor="start" x="80" y="-359.8" font-family="Times,serif" font-size="14.00">1</text>
<polygon fill="none" stroke="black" points="97.5,-353 97.5,-374 168.5,-374 168.5,-353 97.5,-353"/>
<text text-anchor="start" x="126" y="-359.8" font-family="Times,serif" font-size="14.00">u1</text>
<polygon fill="none" stroke="black" points="168.5,-353 168.5,-374 229.5,-374 229.5,-353 168.5,-353"/>
<text text-anchor="start" x="171.5" y="-359.8" font-family="Times,serif" font-size="14.00">has_value</text>
<polygon fill="none" stroke="black" points="44.5,-332 44.5,-353 69.5,-353 69.5,-332 44.5,-332"/>
<text text-anchor="start" x="53.5" y="-338.8" font-family="Times,serif" font-size="14.00">1</text>
<polygon fill="none" stroke="black" points="69.5,-332 69.5,-353 97.5,-353 97.5,-332 69.5,-332"/>
<text text-anchor="start" x="77.5" y="-338.8" font-family="Times,serif" font-size="14.00">...</text>
<polygon fill="none" stroke="black" points="97.5,-332 97.5,-353 168.5,-353 168.5,-332 97.5,-332"/>
<text text-anchor="start" x="100.5" y="-338.8" font-family="Times,serif" font-size="14.00">CompactInt</text>
<polygon fill="none" stroke="black" points="168.5,-332 168.5,-353 229.5,-353 229.5,-332 168.5,-332"/>
<text text-anchor="start" x="184" y="-338.8" font-family="Times,serif" font-size="14.00">value</text>
</g>
<!-- maybe_compact_int__seq&#45;&gt;compact_int__seq -->
<g id="edge19" class="edge">
<title>maybe_compact_int__seq:value_type&#45;&gt;compact_int__seq</title>
<path fill="none" stroke="black" stroke-width="2" d="M230.5,-342C244.67,-342 259.21,-341.8 273.88,-341.43"/>
<polygon fill="black" stroke="black" stroke-width="2" points="272.2,-344.98 282.1,-341.2 272.01,-337.98 272.2,-344.98"/>
</g>
<!-- string_list__seq&#45;&gt;string__seq -->
<g id="edge21" class="edge">
<title>string_list__seq:values_type&#45;&gt;string__seq</title>
<path fill="none" stroke="black" stroke-width="2" d="M236.5,-224C292.63,-224 354.24,-216.5 406.38,-207.92"/>
<polygon fill="black" stroke="black" stroke-width="2" points="405.44,-211.63 414.72,-206.52 404.27,-204.73 405.44,-211.63"/>
</g>
<!-- string_list__seq&#45;&gt;compact_int__seq -->
<g id="edge20" class="edge">
<title>string_list__seq:num_values_type&#45;&gt;compact_int__seq</title>
<path fill="none" stroke="black" stroke-width="2" d="M236.5,-246C256.2,-246 258.34,-257.69 277,-264 288.17,-267.78 299.7,-271.41 311.39,-274.89"/>
<polygon fill="black" stroke="black" stroke-width="2" points="308.69,-277.74 319.27,-277.19 310.65,-271.02 308.69,-277.74"/>
</g>
</g>
</svg>
