<?xml version="1.0" encoding="UTF-8" standalone="no"?>
<!DOCTYPE svg PUBLIC "-//W3C//DTD SVG 1.1//EN"
 "http://www.w3.org/Graphics/SVG/1.1/DTD/svg11.dtd">
<!-- Generated by graphviz version 7.1.0 (20230121.1956)
 -->
<!-- Pages: 1 -->
<svg width="2003pt" height="597pt" viewBox="0.00 0.00 2003.00 597.00" xmlns="http://www.w3.org/2000/svg" xmlns:xlink="http://www.w3.org/1999/xlink">
<g id="graph0" class="graph" transform="scale(1 1) rotate(0) translate(4 593)">
<polygon fill="white" stroke="none" points="-4,4 -4,-593 1999,-593 1999,4 -4,4"/>
<g id="clust1" class="cluster">
<title>cluster__scale</title>
<polygon fill="none" stroke="black" stroke-dasharray="1,5" points="8,-8 8,-581 1987,-581 1987,-8 8,-8"/>
<text text-anchor="middle" x="997.5" y="-565.8" font-family="Times,serif" font-size="14.00">Scale</text>
</g>
<g id="clust2" class="cluster">
<title>cluster__string</title>
<polygon fill="none" stroke="black" stroke-dasharray="1,5" points="409.5,-241 409.5,-352 650.5,-352 650.5,-241 409.5,-241"/>
<text text-anchor="middle" x="530" y="-336.8" font-family="Times,serif" font-size="14.00">Scale::String</text>
</g>
<g id="clust3" class="cluster">
<title>cluster__bytes</title>
<polygon fill="none" stroke="black" stroke-dasharray="1,5" points="16,-320 16,-431 257,-431 257,-320 16,-320"/>
<text text-anchor="middle" x="136.5" y="-415.8" font-family="Times,serif" font-size="14.00">Scale::Bytes</text>
</g>
<g id="clust4" class="cluster">
<title>cluster__maybe_string</title>
<polygon fill="none" stroke="black" stroke-dasharray="1,5" points="43.5,-439 43.5,-550 229.5,-550 229.5,-439 43.5,-439"/>
<text text-anchor="middle" x="136.5" y="-534.8" font-family="Times,serif" font-size="14.00">Scale::MaybeString</text>
</g>
<g id="clust5" class="cluster">
<title>cluster__compact_int</title>
<polygon fill="none" stroke="black" stroke-dasharray="1,5" points="277,-30 277,-233 1979,-233 1979,-30 277,-30"/>
<text text-anchor="middle" x="1128" y="-217.8" font-family="Times,serif" font-size="14.00">Scale::CompactInt</text>
</g>
<g id="clust7" class="cluster">
<title>cluster__string_list</title>
<polygon fill="none" stroke="black" stroke-dasharray="1,5" points="22,-181 22,-312 251,-312 251,-181 22,-181"/>
<text text-anchor="middle" x="136.5" y="-296.8" font-family="Times,serif" font-size="14.00">Scale::StringList</text>
</g>
<g id="clust6" class="cluster">
<title>cluster__maybe_compact_int</title>
<polygon fill="none" stroke="black" stroke-dasharray="1,5" points="28,-62 28,-173 245,-173 245,-62 28,-62"/>
<text text-anchor="middle" x="136.5" y="-157.8" font-family="Times,serif" font-size="14.00">Scale::MaybeCompactInt</text>
</g>
<!-- scale__seq -->
<g id="node1" class="node">
<title>scale__seq</title>
<polygon fill="#e0ffe0" stroke="none" points="86.5,-23 86.5,-44 111.5,-44 111.5,-23 86.5,-23"/>
<polygon fill="none" stroke="black" points="86.5,-23 86.5,-44 111.5,-44 111.5,-23 86.5,-23"/>
<text text-anchor="start" x="89.5" y="-29.8" font-family="Times,serif" font-size="14.00">pos</text>
<polygon fill="#e0ffe0" stroke="none" points="111.5,-23 111.5,-44 139.5,-44 139.5,-23 111.5,-23"/>
<polygon fill="none" stroke="black" points="111.5,-23 111.5,-44 139.5,-44 139.5,-23 111.5,-23"/>
<text text-anchor="start" x="114.5" y="-29.8" font-family="Times,serif" font-size="14.00">size</text>
<polygon fill="#e0ffe0" stroke="none" points="139.5,-23 139.5,-44 169.5,-44 169.5,-23 139.5,-23"/>
<polygon fill="none" stroke="black" points="139.5,-23 139.5,-44 169.5,-44 169.5,-23 139.5,-23"/>
<text text-anchor="start" x="142.5" y="-29.8" font-family="Times,serif" font-size="14.00">type</text>
<polygon fill="#e0ffe0" stroke="none" points="169.5,-23 169.5,-44 186.5,-44 186.5,-23 169.5,-23"/>
<polygon fill="none" stroke="black" points="169.5,-23 169.5,-44 186.5,-44 186.5,-23 169.5,-23"/>
<text text-anchor="start" x="172.5" y="-29.8" font-family="Times,serif" font-size="14.00">id</text>
</g>
<!-- string__seq -->
<g id="node2" class="node">
<title>string__seq</title>
<polygon fill="#e0ffe0" stroke="none" points="426,-295 426,-316 451,-316 451,-295 426,-295"/>
<polygon fill="none" stroke="black" points="426,-295 426,-316 451,-316 451,-295 426,-295"/>
<text text-anchor="start" x="429" y="-301.8" font-family="Times,serif" font-size="14.00">pos</text>
<polygon fill="#e0ffe0" stroke="none" points="451,-295 451,-316 524,-316 524,-295 451,-295"/>
<polygon fill="none" stroke="black" points="451,-295 451,-316 524,-316 524,-295 451,-295"/>
<text text-anchor="start" x="476.5" y="-301.8" font-family="Times,serif" font-size="14.00">size</text>
<polygon fill="#e0ffe0" stroke="none" points="524,-295 524,-316 595,-316 595,-295 524,-295"/>
<polygon fill="none" stroke="black" points="524,-295 524,-316 595,-316 595,-295 524,-295"/>
<text text-anchor="start" x="547.5" y="-301.8" font-family="Times,serif" font-size="14.00">type</text>
<polygon fill="#e0ffe0" stroke="none" points="595,-295 595,-316 635,-316 635,-295 595,-295"/>
<polygon fill="none" stroke="black" points="595,-295 595,-316 635,-316 635,-295 595,-295"/>
<text text-anchor="start" x="609.5" y="-301.8" font-family="Times,serif" font-size="14.00">id</text>
<polygon fill="none" stroke="black" points="426,-274 426,-295 451,-295 451,-274 426,-274"/>
<text text-anchor="start" x="435" y="-280.8" font-family="Times,serif" font-size="14.00">0</text>
<polygon fill="none" stroke="black" points="451,-274 451,-295 524,-295 524,-274 451,-274"/>
<text text-anchor="start" x="481.5" y="-280.8" font-family="Times,serif" font-size="14.00">...</text>
<polygon fill="none" stroke="black" points="524,-274 524,-295 595,-295 595,-274 524,-274"/>
<text text-anchor="start" x="527" y="-280.8" font-family="Times,serif" font-size="14.00">CompactInt</text>
<polygon fill="none" stroke="black" points="595,-274 595,-295 635,-295 635,-274 595,-274"/>
<text text-anchor="start" x="598" y="-280.8" font-family="Times,serif" font-size="14.00">length</text>
<polygon fill="none" stroke="black" points="426,-253 426,-274 451,-274 451,-253 426,-253"/>
<text text-anchor="start" x="432.5" y="-259.8" font-family="Times,serif" font-size="14.00">...</text>
<polygon fill="none" stroke="black" points="451,-253 451,-274 524,-274 524,-253 451,-253"/>
<text text-anchor="start" x="454" y="-259.8" font-family="Times,serif" font-size="14.00">length.value</text>
<polygon fill="none" stroke="black" points="524,-253 524,-274 595,-274 595,-253 524,-253"/>
<text text-anchor="start" x="529.5" y="-259.8" font-family="Times,serif" font-size="14.00">str(UTF-8)</text>
<polygon fill="none" stroke="black" points="595,-253 595,-274 635,-274 635,-253 595,-253"/>
<text text-anchor="start" x="600" y="-259.8" font-family="Times,serif" font-size="14.00">value</text>
</g>
<!-- compact_int__seq -->
<g id="node5" class="node">
<title>compact_int__seq</title>
<polygon fill="#e0ffe0" stroke="none" points="293,-105 293,-126 318,-126 318,-105 293,-105"/>
<polygon fill="none" stroke="black" points="293,-105 293,-126 318,-126 318,-105 293,-105"/>
<text text-anchor="start" x="296" y="-111.8" font-family="Times,serif" font-size="14.00">pos</text>
<polygon fill="#e0ffe0" stroke="none" points="318,-105 318,-126 700,-126 700,-105 318,-105"/>
<polygon fill="none" stroke="black" points="318,-105 318,-126 700,-126 700,-105 318,-105"/>
<text text-anchor="start" x="498" y="-111.8" font-family="Times,serif" font-size="14.00">size</text>
<polygon fill="#e0ffe0" stroke="none" points="700,-105 700,-126 730,-126 730,-105 700,-105"/>
<polygon fill="none" stroke="black" points="700,-105 700,-126 730,-126 730,-105 700,-105"/>
<text text-anchor="start" x="703" y="-111.8" font-family="Times,serif" font-size="14.00">type</text>
<polygon fill="#e0ffe0" stroke="none" points="730,-105 730,-126 767,-126 767,-105 730,-105"/>
<polygon fill="none" stroke="black" points="730,-105 730,-126 767,-126 767,-105 730,-105"/>
<text text-anchor="start" x="743" y="-111.8" font-family="Times,serif" font-size="14.00">id</text>
<polygon fill="none" stroke="black" points="293,-84 293,-105 318,-105 318,-84 293,-84"/>
<text text-anchor="start" x="302" y="-90.8" font-family="Times,serif" font-size="14.00">0</text>
<polygon fill="none" stroke="black" points="318,-84 318,-105 700,-105 700,-84 318,-84"/>
<text text-anchor="start" x="502" y="-90.8" font-family="Times,serif" font-size="14.00">6b</text>
<polygon fill="none" stroke="black" points="700,-84 700,-105 730,-105 730,-84 700,-84"/>
<text text-anchor="start" x="708" y="-90.8" font-family="Times,serif" font-size="14.00">b6</text>
<polygon fill="none" stroke="black" points="730,-84 730,-105 767,-105 767,-84 730,-84"/>
<text text-anchor="start" x="737" y="-90.8" font-family="Times,serif" font-size="14.00">data</text>
<polygon fill="none" stroke="black" points="293,-63 293,-84 318,-84 318,-63 293,-63"/>
<text text-anchor="start" x="296.5" y="-69.8" font-family="Times,serif" font-size="14.00">0:6</text>
<polygon fill="none" stroke="black" points="318,-63 318,-84 700,-84 700,-63 318,-63"/>
<text text-anchor="start" x="502" y="-69.8" font-family="Times,serif" font-size="14.00">2b</text>
<polygon fill="none" stroke="black" points="700,-63 700,-84 730,-84 730,-63 700,-63"/>
<text text-anchor="start" x="708" y="-69.8" font-family="Times,serif" font-size="14.00">b2</text>
<polygon fill="none" stroke="black" points="730,-63 730,-84 767,-84 767,-63 730,-63"/>
<text text-anchor="start" x="733" y="-69.8" font-family="Times,serif" font-size="14.00">mode</text>
<polygon fill="none" stroke="black" points="293,-42 293,-63 318,-63 318,-42 293,-42"/>
<text text-anchor="start" x="302" y="-48.8" font-family="Times,serif" font-size="14.00">1</text>
<polygon fill="none" stroke="black" points="318,-42 318,-63 700,-63 700,-42 318,-42"/>
<text text-anchor="start" x="321" y="-48.8" font-family="Times,serif" font-size="14.00">(((mode &amp; 1) + (((mode &amp; 2) / 2) * 3)) + (((mode &amp; 3) / 3) * data))</text>
<polygon fill="none" stroke="black" points="700,-42 700,-63 730,-63 730,-42 700,-42"/>
<polygon fill="none" stroke="black" points="730,-42 730,-63 767,-63 767,-42 730,-42"/>
<text text-anchor="start" x="734.5" y="-48.8" font-family="Times,serif" font-size="14.00">extra</text>
</g>
<!-- string__seq&#45;&gt;compact_int__seq -->
<g id="edge1" class="edge">
<title>string__seq:length_type-&gt;compact_int__seq</title>
<path fill="none" stroke="black" stroke-width="2" d="M575.11,-138.14C626.66,-197.09 696.28,-284 636,-284"/>
<polygon fill="black" stroke="black" stroke-width="2" points="578.88,-137.13 569.65,-131.93 573.62,-141.75 578.88,-137.13"/>
</g>
<!-- bytes__seq -->
<g id="node3" class="node">
<title>bytes__seq</title>
<polygon fill="#e0ffe0" stroke="none" points="32.5,-374 32.5,-395 57.5,-395 57.5,-374 32.5,-374"/>
<polygon fill="none" stroke="black" points="32.5,-374 32.5,-395 57.5,-395 57.5,-374 32.5,-374"/>
<text text-anchor="start" x="35.5" y="-380.8" font-family="Times,serif" font-size="14.00">pos</text>
<polygon fill="#e0ffe0" stroke="none" points="57.5,-374 57.5,-395 130.5,-395 130.5,-374 57.5,-374"/>
<polygon fill="none" stroke="black" points="57.5,-374 57.5,-395 130.5,-395 130.5,-374 57.5,-374"/>
<text text-anchor="start" x="83" y="-380.8" font-family="Times,serif" font-size="14.00">size</text>
<polygon fill="#e0ffe0" stroke="none" points="130.5,-374 130.5,-395 201.5,-395 201.5,-374 130.5,-374"/>
<polygon fill="none" stroke="black" points="130.5,-374 130.5,-395 201.5,-395 201.5,-374 130.5,-374"/>
<text text-anchor="start" x="154" y="-380.8" font-family="Times,serif" font-size="14.00">type</text>
<polygon fill="#e0ffe0" stroke="none" points="201.5,-374 201.5,-395 241.5,-395 241.5,-374 201.5,-374"/>
<polygon fill="none" stroke="black" points="201.5,-374 201.5,-395 241.5,-395 241.5,-374 201.5,-374"/>
<text text-anchor="start" x="216" y="-380.8" font-family="Times,serif" font-size="14.00">id</text>
<polygon fill="none" stroke="black" points="32.5,-353 32.5,-374 57.5,-374 57.5,-353 32.5,-353"/>
<text text-anchor="start" x="41.5" y="-359.8" font-family="Times,serif" font-size="14.00">0</text>
<polygon fill="none" stroke="black" points="57.5,-353 57.5,-374 130.5,-374 130.5,-353 57.5,-353"/>
<text text-anchor="start" x="88" y="-359.8" font-family="Times,serif" font-size="14.00">...</text>
<polygon fill="none" stroke="black" points="130.5,-353 130.5,-374 201.5,-374 201.5,-353 130.5,-353"/>
<text text-anchor="start" x="133.5" y="-359.8" font-family="Times,serif" font-size="14.00">CompactInt</text>
<polygon fill="none" stroke="black" points="201.5,-353 201.5,-374 241.5,-374 241.5,-353 201.5,-353"/>
<text text-anchor="start" x="204.5" y="-359.8" font-family="Times,serif" font-size="14.00">length</text>
<polygon fill="none" stroke="black" points="32.5,-332 32.5,-353 57.5,-353 57.5,-332 32.5,-332"/>
<text text-anchor="start" x="39" y="-338.8" font-family="Times,serif" font-size="14.00">...</text>
<polygon fill="none" stroke="black" points="57.5,-332 57.5,-353 130.5,-353 130.5,-332 57.5,-332"/>
<text text-anchor="start" x="60.5" y="-338.8" font-family="Times,serif" font-size="14.00">length.value</text>
<polygon fill="none" stroke="black" points="130.5,-332 130.5,-353 201.5,-353 201.5,-332 130.5,-332"/>
<polygon fill="none" stroke="black" points="201.5,-332 201.5,-353 241.5,-353 241.5,-332 201.5,-332"/>
<text text-anchor="start" x="206.5" y="-338.8" font-family="Times,serif" font-size="14.00">value</text>
</g>
<!-- bytes__seq&#45;&gt;compact_int__seq -->
<g id="edge3" class="edge">
<title>bytes__seq:length_type-&gt;compact_int__seq</title>
<path fill="none" stroke="black" stroke-width="2" d="M242.5,-363C300.56,-363 242.49,-283.69 277,-237 309.24,-193.38 357.97,-159.66 404.02,-135.11"/>
<polygon fill="black" stroke="black" stroke-width="2" points="404.17,-138.98 411.42,-131.25 400.93,-132.77 404.17,-138.98"/>
</g>
<!-- maybe_string__seq -->
<g id="node4" class="node">
<title>maybe_string__seq</title>
<polygon fill="#e0ffe0" stroke="none" points="59.5,-493 59.5,-514 84.5,-514 84.5,-493 59.5,-493"/>
<polygon fill="none" stroke="black" points="59.5,-493 59.5,-514 84.5,-514 84.5,-493 59.5,-493"/>
<text text-anchor="start" x="62.5" y="-499.8" font-family="Times,serif" font-size="14.00">pos</text>
<polygon fill="#e0ffe0" stroke="none" points="84.5,-493 84.5,-514 112.5,-514 112.5,-493 84.5,-493"/>
<polygon fill="none" stroke="black" points="84.5,-493 84.5,-514 112.5,-514 112.5,-493 84.5,-493"/>
<text text-anchor="start" x="87.5" y="-499.8" font-family="Times,serif" font-size="14.00">size</text>
<polygon fill="#e0ffe0" stroke="none" points="112.5,-493 112.5,-514 152.5,-514 152.5,-493 112.5,-493"/>
<polygon fill="none" stroke="black" points="112.5,-493 112.5,-514 152.5,-514 152.5,-493 112.5,-493"/>
<text text-anchor="start" x="120.5" y="-499.8" font-family="Times,serif" font-size="14.00">type</text>
<polygon fill="#e0ffe0" stroke="none" points="152.5,-493 152.5,-514 213.5,-514 213.5,-493 152.5,-493"/>
<polygon fill="none" stroke="black" points="152.5,-493 152.5,-514 213.5,-514 213.5,-493 152.5,-493"/>
<text text-anchor="start" x="177.5" y="-499.8" font-family="Times,serif" font-size="14.00">id</text>
<polygon fill="none" stroke="black" points="59.5,-472 59.5,-493 84.5,-493 84.5,-472 59.5,-472"/>
<text text-anchor="start" x="68.5" y="-478.8" font-family="Times,serif" font-size="14.00">0</text>
<polygon fill="none" stroke="black" points="84.5,-472 84.5,-493 112.5,-493 112.5,-472 84.5,-472"/>
<text text-anchor="start" x="95" y="-478.8" font-family="Times,serif" font-size="14.00">1</text>
<polygon fill="none" stroke="black" points="112.5,-472 112.5,-493 152.5,-493 152.5,-472 112.5,-472"/>
<text text-anchor="start" x="125.5" y="-478.8" font-family="Times,serif" font-size="14.00">u1</text>
<polygon fill="none" stroke="black" points="152.5,-472 152.5,-493 213.5,-493 213.5,-472 152.5,-472"/>
<text text-anchor="start" x="155.5" y="-478.8" font-family="Times,serif" font-size="14.00">has_value</text>
<polygon fill="none" stroke="black" points="59.5,-451 59.5,-472 84.5,-472 84.5,-451 59.5,-451"/>
<text text-anchor="start" x="68.5" y="-457.8" font-family="Times,serif" font-size="14.00">1</text>
<polygon fill="none" stroke="black" points="84.5,-451 84.5,-472 112.5,-472 112.5,-451 84.5,-451"/>
<text text-anchor="start" x="92.5" y="-457.8" font-family="Times,serif" font-size="14.00">...</text>
<polygon fill="none" stroke="black" points="112.5,-451 112.5,-472 152.5,-472 152.5,-451 112.5,-451"/>
<text text-anchor="start" x="115.5" y="-457.8" font-family="Times,serif" font-size="14.00">String</text>
<polygon fill="none" stroke="black" points="152.5,-451 152.5,-472 213.5,-472 213.5,-451 152.5,-451"/>
<text text-anchor="start" x="168" y="-457.8" font-family="Times,serif" font-size="14.00">value</text>
</g>
<!-- maybe_string__seq&#45;&gt;string__seq -->
<g id="edge5" class="edge">
<title>maybe_string__seq:value_type-&gt;string__seq</title>
<path fill="none" stroke="black" stroke-width="2" d="M214.5,-461C323.11,-461 429.03,-380.08 485.97,-327.97"/>
<polygon fill="black" stroke="black" stroke-width="2" points="487.19,-331.62 492.13,-322.25 482.42,-326.5 487.19,-331.62"/>
</g>
<!-- compact_int__seq&#45;&gt;compact_int__seq -->
<g id="edge6" class="edge">
<title>compact_int__seq:mode_type-&gt;compact_int__seq:extra_size</title>
<path fill="none" stroke="#404040" d="M760.55,-83.68C778.77,-108.37 760.31,-148 629,-148 510.46,-148 483.89,-103.06 493.24,-72.95"/>
<polygon fill="#404040" stroke="#404040" points="496.37,-74.53 497.55,-64 490.06,-71.49 496.37,-74.53"/>
</g>
<!-- compact_int__seq&#45;&gt;compact_int__seq -->
<g id="edge7" class="edge">
<title>compact_int__seq:mode_type-&gt;compact_int__seq:extra_size</title>
<path fill="none" stroke="#404040" d="M766.83,-82.41C812.67,-112.99 795.74,-166 629,-166 475.34,-166 448.91,-106.58 481.59,-70.63"/>
<polygon fill="#404040" stroke="#404040" points="483.88,-73.27 488.88,-63.93 479.15,-68.12 483.88,-73.27"/>
</g>
<!-- compact_int__seq&#45;&gt;compact_int__seq -->
<g id="edge8" class="edge">
<title>compact_int__seq:mode_type-&gt;compact_int__seq:extra_size</title>
<path fill="none" stroke="#404040" d="M766.76,-79.97C846.47,-116.02 833.3,-184 629,-184 440.37,-184 414.68,-110.39 474.58,-68.85"/>
<polygon fill="#404040" stroke="#404040" points="476.1,-72.02 482.74,-63.76 472.4,-66.08 476.1,-72.02"/>
</g>
<!-- compact_int__seq&#45;&gt;compact_int__seq -->
<g id="edge9" class="edge">
<title>compact_int__seq:data_type-&gt;compact_int__seq:extra_size</title>
<path fill="none" stroke="#404040" d="M766.76,-99.24C846.47,-120.28 833.3,-148 629,-148 450.32,-148 417.84,-98.01 465.82,-68.15"/>
<polygon fill="#404040" stroke="#404040" points="467.23,-71.37 474.37,-63.55 463.91,-65.21 467.23,-71.37"/>
</g>
<!-- compact_int__inst__value -->
<g id="node6" class="node">
<title>compact_int__inst__value</title>
<polygon fill="#e0ffe0" stroke="none" points="819,-63 819,-84 855,-84 855,-63 819,-63"/>
<polygon fill="none" stroke="black" points="819,-63 819,-84 855,-84 855,-63 819,-63"/>
<text text-anchor="start" x="831.5" y="-69.8" font-family="Times,serif" font-size="14.00">id</text>
<polygon fill="#e0ffe0" stroke="none" points="855,-63 855,-84 1963,-84 1963,-63 855,-63"/>
<polygon fill="none" stroke="black" points="855,-63 855,-84 1963,-84 1963,-63 855,-63"/>
<text text-anchor="start" x="1394" y="-69.8" font-family="Times,serif" font-size="14.00">value</text>
<polygon fill="none" stroke="black" points="819,-42 819,-63 855,-63 855,-42 819,-42"/>
<text text-anchor="start" x="822" y="-48.8" font-family="Times,serif" font-size="14.00">value</text>
<polygon fill="none" stroke="black" points="855,-42 855,-63 1963,-63 1963,-42 855,-42"/>
<text text-anchor="start" x="858" y="-48.8" font-family="Times,serif" font-size="14.00">((((((((data + (extra[0].ord &lt;&lt; 6)) + (extra[1].ord &lt;&lt; 14)) + (extra[2].ord &lt;&lt; 22)) + (extra[3].ord &lt;&lt; 30)) + (extra[4].ord &lt;&lt; 38)) + (extra[5].ord &lt;&lt; 46)) + (extra[6].ord &lt;&lt; 54)) + (extra[7].ord &lt;&lt; 62))</text>
</g>
<!-- compact_int__seq&#45;&gt;compact_int__inst__value -->
<g id="edge10" class="edge">
<title>compact_int__seq:data_type-&gt;compact_int__inst__value</title>
<path fill="none" stroke="#404040" d="M768,-95C847.91,-95 933.51,-92.33 1014.87,-88.54"/>
<polygon fill="#404040" stroke="#404040" points="1014.98,-92.04 1024.8,-88.07 1014.65,-85.05 1014.98,-92.04"/>
</g>
<!-- compact_int__seq&#45;&gt;compact_int__inst__value -->
<g id="edge11" class="edge">
<title>compact_int__seq:extra_type-&gt;compact_int__inst__value</title>
<path fill="none" stroke="#404040" d="M768,-52C993.47,-0.62 1264.84,1.54 1357.31,-33.58"/>
<polygon fill="#404040" stroke="#404040" points="1355.73,-36.7 1366.3,-37.44 1358.5,-30.27 1355.73,-36.7"/>
</g>
<!-- compact_int__seq&#45;&gt;compact_int__inst__value -->
<g id="edge12" class="edge">
<title>compact_int__seq:extra_type-&gt;compact_int__inst__value</title>
<path fill="none" stroke="#404040" d="M768.41,-51.93C975.41,-18.29 1220.98,-16.02 1331.26,-35.89"/>
<polygon fill="#404040" stroke="#404040" points="1330.48,-39.3 1340.96,-37.79 1331.82,-32.43 1330.48,-39.3"/>
</g>
<!-- compact_int__seq&#45;&gt;compact_int__inst__value -->
<g id="edge13" class="edge">
<title>compact_int__seq:extra_type-&gt;compact_int__inst__value</title>
<path fill="none" stroke="#404040" d="M768.41,-51.96C912.77,-37.89 1075.89,-34.16 1198.8,-37.66"/>
<polygon fill="#404040" stroke="#404040" points="1198.57,-41.16 1208.68,-37.96 1198.79,-34.16 1198.57,-41.16"/>
</g>
<!-- compact_int__seq&#45;&gt;compact_int__inst__value -->
<g id="edge14" class="edge">
<title>compact_int__seq:extra_type-&gt;compact_int__inst__value</title>
<path fill="none" stroke="#404040" d="M768.41,-51.99C778.81,-51.65 789.32,-51.34 799.9,-51.06"/>
<polygon fill="#404040" stroke="#404040" points="799.99,-54.56 809.89,-50.8 799.81,-47.56 799.99,-54.56"/>
</g>
<!-- compact_int__seq&#45;&gt;compact_int__inst__value -->
<g id="edge15" class="edge">
<title>compact_int__seq:extra_type-&gt;compact_int__inst__value</title>
<path fill="none" stroke="#404040" d="M768.41,-52.01C778.92,-52.36 789.54,-52.7 800.24,-53.05"/>
<polygon fill="#404040" stroke="#404040" points="799.79,-56.53 809.89,-53.36 800.01,-49.54 799.79,-56.53"/>
</g>
<!-- compact_int__seq&#45;&gt;compact_int__inst__value -->
<g id="edge16" class="edge">
<title>compact_int__seq:extra_type-&gt;compact_int__inst__value</title>
<path fill="none" stroke="#404040" d="M768.41,-52.04C778.92,-53.07 789.54,-54.07 800.24,-55.05"/>
<polygon fill="#404040" stroke="#404040" points="799.63,-58.51 809.9,-55.92 800.26,-51.54 799.63,-58.51"/>
</g>
<!-- compact_int__seq&#45;&gt;compact_int__inst__value -->
<g id="edge17" class="edge">
<title>compact_int__seq:extra_type-&gt;compact_int__inst__value</title>
<path fill="none" stroke="#404040" d="M768.41,-52.07C961.92,-83.53 1189.13,-98.34 1308.02,-88.97"/>
<polygon fill="#404040" stroke="#404040" points="1308.02,-92.48 1317.67,-88.11 1307.4,-85.51 1308.02,-92.48"/>
</g>
<!-- compact_int__seq&#45;&gt;compact_int__inst__value -->
<g id="edge18" class="edge">
<title>compact_int__seq:extra_type-&gt;compact_int__inst__value</title>
<path fill="none" stroke="#404040" d="M768.41,-52.09C990.97,-102.75 1258.1,-119.73 1353.75,-91.55"/>
<polygon fill="#404040" stroke="#404040" points="1354.77,-94.9 1363.12,-88.37 1352.52,-88.27 1354.77,-94.9"/>
</g>
<!-- compact_int__inst__value&#45;&gt;string__seq -->
<g id="edge2" class="edge">
<title>compact_int__inst__value:value_type-&gt;string__seq:value_size</title>
<path fill="none" stroke="#404040" d="M1321.06,-88C1208.51,-127.55 977.53,-203.51 775,-237 761.05,-239.31 547.27,-236.74 497.36,-247.14"/>
<polygon fill="#404040" stroke="#404040" points="495.94,-243.94 488.37,-251.36 498.91,-250.28 495.94,-243.94"/>
</g>
<!-- compact_int__inst__value&#45;&gt;bytes__seq -->
<g id="edge4" class="edge">
<title>compact_int__inst__value:value_type-&gt;bytes__seq:value_size</title>
<path fill="none" stroke="#404040" d="M1352.97,-87.99C1260.52,-148.71 1010.04,-302.87 775,-356 559.11,-404.8 484.59,-432.79 277,-356 261.63,-350.31 264.35,-337.74 249,-332 235.41,-326.92 134.97,-317.48 103.14,-324.82"/>
<polygon fill="#404040" stroke="#404040" points="101.31,-321.84 94.77,-330.18 105.08,-327.74 101.31,-321.84"/>
</g>
<!-- string_list__seq -->
<g id="node8" class="node">
<title>string_list__seq</title>
<polygon fill="#e0ffe0" stroke="none" points="38.5,-256 38.5,-277 63.5,-277 63.5,-256 38.5,-256"/>
<polygon fill="none" stroke="black" points="38.5,-256 38.5,-277 63.5,-277 63.5,-256 38.5,-256"/>
<text text-anchor="start" x="41.5" y="-262.8" font-family="Times,serif" font-size="14.00">pos</text>
<polygon fill="#e0ffe0" stroke="none" points="63.5,-256 63.5,-277 91.5,-277 91.5,-256 63.5,-256"/>
<polygon fill="none" stroke="black" points="63.5,-256 63.5,-277 91.5,-277 91.5,-256 63.5,-256"/>
<text text-anchor="start" x="66.5" y="-262.8" font-family="Times,serif" font-size="14.00">size</text>
<polygon fill="#e0ffe0" stroke="none" points="91.5,-256 91.5,-277 162.5,-277 162.5,-256 91.5,-256"/>
<polygon fill="none" stroke="black" points="91.5,-256 91.5,-277 162.5,-277 162.5,-256 91.5,-256"/>
<text text-anchor="start" x="115" y="-262.8" font-family="Times,serif" font-size="14.00">type</text>
<polygon fill="#e0ffe0" stroke="none" points="162.5,-256 162.5,-277 235.5,-277 235.5,-256 162.5,-256"/>
<polygon fill="none" stroke="black" points="162.5,-256 162.5,-277 235.5,-277 235.5,-256 162.5,-256"/>
<text text-anchor="start" x="193.5" y="-262.8" font-family="Times,serif" font-size="14.00">id</text>
<polygon fill="none" stroke="black" points="38.5,-235 38.5,-256 63.5,-256 63.5,-235 38.5,-235"/>
<text text-anchor="start" x="47.5" y="-241.8" font-family="Times,serif" font-size="14.00">0</text>
<polygon fill="none" stroke="black" points="63.5,-235 63.5,-256 91.5,-256 91.5,-235 63.5,-235"/>
<text text-anchor="start" x="71.5" y="-241.8" font-family="Times,serif" font-size="14.00">...</text>
<polygon fill="none" stroke="black" points="91.5,-235 91.5,-256 162.5,-256 162.5,-235 91.5,-235"/>
<text text-anchor="start" x="94.5" y="-241.8" font-family="Times,serif" font-size="14.00">CompactInt</text>
<polygon fill="none" stroke="black" points="162.5,-235 162.5,-256 235.5,-256 235.5,-235 162.5,-235"/>
<text text-anchor="start" x="165.5" y="-241.8" font-family="Times,serif" font-size="14.00">num_values</text>
<polygon fill="none" stroke="black" points="38.5,-214 38.5,-235 63.5,-235 63.5,-214 38.5,-214"/>
<text text-anchor="start" x="45" y="-220.8" font-family="Times,serif" font-size="14.00">...</text>
<polygon fill="none" stroke="black" points="63.5,-214 63.5,-235 91.5,-235 91.5,-214 63.5,-214"/>
<text text-anchor="start" x="71.5" y="-220.8" font-family="Times,serif" font-size="14.00">...</text>
<polygon fill="none" stroke="black" points="91.5,-214 91.5,-235 162.5,-235 162.5,-214 91.5,-214"/>
<text text-anchor="start" x="110" y="-220.8" font-family="Times,serif" font-size="14.00">String</text>
<polygon fill="none" stroke="black" points="162.5,-214 162.5,-235 235.5,-235 235.5,-214 162.5,-214"/>
<text text-anchor="start" x="181.5" y="-220.8" font-family="Times,serif" font-size="14.00">values</text>
<polygon fill="none" stroke="black" points="38.5,-193 38.5,-214 235.5,-214 235.5,-193 38.5,-193"/>
<text text-anchor="start" x="52" y="-199.8" font-family="Times,serif" font-size="14.00">repeat num_values.value times</text>
</g>
<!-- compact_int__inst__value&#45;&gt;string_list__seq -->
<g id="edge22" class="edge">
<title>compact_int__inst__value:value_type-&gt;string_list__seq:values__repeat</title>
<path fill="none" stroke="#404040" d="M1312.44,-87.93C1196.84,-123.65 971.84,-187.65 775,-211 555.21,-237.07 497.28,-232.55 277,-211 263.16,-209.65 257.58,-205.75 247.7,-203.94"/>
<polygon fill="#404040" stroke="#404040" points="248.27,-200.48 238.01,-203.13 247.68,-207.45 248.27,-200.48"/>
</g>
<!-- maybe_compact_int__seq -->
<g id="node7" class="node">
<title>maybe_compact_int__seq</title>
<polygon fill="#e0ffe0" stroke="none" points="44.5,-116 44.5,-137 69.5,-137 69.5,-116 44.5,-116"/>
<polygon fill="none" stroke="black" points="44.5,-116 44.5,-137 69.5,-137 69.5,-116 44.5,-116"/>
<text text-anchor="start" x="47.5" y="-122.8" font-family="Times,serif" font-size="14.00">pos</text>
<polygon fill="#e0ffe0" stroke="none" points="69.5,-116 69.5,-137 97.5,-137 97.5,-116 69.5,-116"/>
<polygon fill="none" stroke="black" points="69.5,-116 69.5,-137 97.5,-137 97.5,-116 69.5,-116"/>
<text text-anchor="start" x="72.5" y="-122.8" font-family="Times,serif" font-size="14.00">size</text>
<polygon fill="#e0ffe0" stroke="none" points="97.5,-116 97.5,-137 168.5,-137 168.5,-116 97.5,-116"/>
<polygon fill="none" stroke="black" points="97.5,-116 97.5,-137 168.5,-137 168.5,-116 97.5,-116"/>
<text text-anchor="start" x="121" y="-122.8" font-family="Times,serif" font-size="14.00">type</text>
<polygon fill="#e0ffe0" stroke="none" points="168.5,-116 168.5,-137 229.5,-137 229.5,-116 168.5,-116"/>
<polygon fill="none" stroke="black" points="168.5,-116 168.5,-137 229.5,-137 229.5,-116 168.5,-116"/>
<text text-anchor="start" x="193.5" y="-122.8" font-family="Times,serif" font-size="14.00">id</text>
<polygon fill="none" stroke="black" points="44.5,-95 44.5,-116 69.5,-116 69.5,-95 44.5,-95"/>
<text text-anchor="start" x="53.5" y="-101.8" font-family="Times,serif" font-size="14.00">0</text>
<polygon fill="none" stroke="black" points="69.5,-95 69.5,-116 97.5,-116 97.5,-95 69.5,-95"/>
<text text-anchor="start" x="80" y="-101.8" font-family="Times,serif" font-size="14.00">1</text>
<polygon fill="none" stroke="black" points="97.5,-95 97.5,-116 168.5,-116 168.5,-95 97.5,-95"/>
<text text-anchor="start" x="126" y="-101.8" font-family="Times,serif" font-size="14.00">u1</text>
<polygon fill="none" stroke="black" points="168.5,-95 168.5,-116 229.5,-116 229.5,-95 168.5,-95"/>
<text text-anchor="start" x="171.5" y="-101.8" font-family="Times,serif" font-size="14.00">has_value</text>
<polygon fill="none" stroke="black" points="44.5,-74 44.5,-95 69.5,-95 69.5,-74 44.5,-74"/>
<text text-anchor="start" x="53.5" y="-80.8" font-family="Times,serif" font-size="14.00">1</text>
<polygon fill="none" stroke="black" points="69.5,-74 69.5,-95 97.5,-95 97.5,-74 69.5,-74"/>
<text text-anchor="start" x="77.5" y="-80.8" font-family="Times,serif" font-size="14.00">...</text>
<polygon fill="none" stroke="black" points="97.5,-74 97.5,-95 168.5,-95 168.5,-74 97.5,-74"/>
<text text-anchor="start" x="100.5" y="-80.8" font-family="Times,serif" font-size="14.00">CompactInt</text>
<polygon fill="none" stroke="black" points="168.5,-74 168.5,-95 229.5,-95 229.5,-74 168.5,-74"/>
<text text-anchor="start" x="184" y="-80.8" font-family="Times,serif" font-size="14.00">value</text>
</g>
<!-- maybe_compact_int__seq&#45;&gt;compact_int__seq -->
<g id="edge19" class="edge">
<title>maybe_compact_int__seq:value_type-&gt;compact_int__seq</title>
<path fill="none" stroke="black" stroke-width="2" d="M230.5,-84C244.64,-84 259.17,-84 273.82,-84"/>
<polygon fill="black" stroke="black" stroke-width="2" points="272.03,-87.5 282.03,-84 272.03,-80.5 272.03,-87.5"/>
</g>
<!-- string_list__seq&#45;&gt;string__seq -->
<g id="edge21" class="edge">
<title>string_list__seq:values_type-&gt;string__seq</title>
<path fill="none" stroke="black" stroke-width="2" d="M236.5,-224C255.4,-224 258.68,-232.33 277,-237 318.81,-247.65 365.06,-257.11 406.4,-264.76"/>
<polygon fill="black" stroke="black" stroke-width="2" points="404.2,-267.92 414.66,-266.27 405.46,-261.03 404.2,-267.92"/>
</g>
<!-- string_list__seq&#45;&gt;compact_int__seq -->
<g id="edge20" class="edge">
<title>string_list__seq:num_values_type-&gt;compact_int__seq</title>
<path fill="none" stroke="black" stroke-width="2" d="M236.5,-246C258.9,-246 258.02,-227.9 277,-216 323.39,-186.91 376.86,-158.26 422.58,-135.13"/>
<polygon fill="black" stroke="black" stroke-width="2" points="422.75,-138.96 430.11,-131.34 419.61,-132.71 422.75,-138.96"/>
</g>
</g>
</svg>
