<?xml version="1.0" encoding="UTF-8" standalone="no"?>
<!DOCTYPE svg PUBLIC "-//W3C//DTD SVG 1.1//EN"
 "http://www.w3.org/Graphics/SVG/1.1/DTD/svg11.dtd">
<!-- Generated by graphviz version 8.0.2 (20230410.1723)
 -->
<!-- Pages: 1 -->
<svg width="875pt" height="369pt" viewBox="0.00 0.00 875.00 369.00" xmlns="http://www.w3.org/2000/svg" xmlns:xlink="http://www.w3.org/1999/xlink">
<g id="graph0" class="graph" transform="scale(1 1) rotate(0) translate(4 365)">
<polygon fill="white" stroke="none" points="-4,4 -4,-365 871,-365 871,4 -4,4"/>
<g id="clust1" class="cluster">
<title>cluster__storage_definition</title>
<polygon fill="white" stroke="black" stroke-dasharray="1,5" points="8,-44 8,-353 731,-353 731,-44 8,-44"/>
<text text-anchor="middle" x="369.5" y="-337.8" font-family="Times,serif" font-size="14.00">StorageDefinition</text>
</g>
<g id="clust2" class="cluster">
<title>cluster__plain</title>
<polygon fill="white" stroke="black" stroke-dasharray="1,5" points="478.5,-233 478.5,-322 701.5,-322 701.5,-233 478.5,-233"/>
<text text-anchor="middle" x="590" y="-306.8" font-family="Times,serif" font-size="14.00">StorageDefinition::Plain</text>
</g>
<g id="clust3" class="cluster">
<title>cluster__map</title>
<polygon fill="white" stroke="black" stroke-dasharray="1,5" points="457,-52 457,-225 723,-225 723,-52 457,-52"/>
<text text-anchor="middle" x="590" y="-209.8" font-family="Times,serif" font-size="14.00">StorageDefinition::Map</text>
</g>
<!-- storage_definition__seq -->
<g id="node1" class="node">
<title>storage_definition__seq</title>
<polygon fill="#e6007a4f" stroke="none" points="24,-228.5 24,-249.5 49,-249.5 49,-228.5 24,-228.5"/>
<polygon fill="none" stroke="black" points="24,-228.5 24,-249.5 49,-249.5 49,-228.5 24,-228.5"/>
<text text-anchor="start" x="27" y="-235.3" font-family="Times,serif" font-size="14.00">pos</text>
<polygon fill="#e6007a4f" stroke="none" points="49,-228.5 49,-249.5 77,-249.5 77,-228.5 49,-228.5"/>
<polygon fill="none" stroke="black" points="49,-228.5 49,-249.5 77,-249.5 77,-228.5 49,-228.5"/>
<text text-anchor="start" x="52" y="-235.3" font-family="Times,serif" font-size="14.00">size</text>
<polygon fill="#e6007a4f" stroke="none" points="77,-228.5 77,-249.5 180,-249.5 180,-228.5 77,-228.5"/>
<polygon fill="none" stroke="black" points="77,-228.5 77,-249.5 180,-249.5 180,-228.5 77,-228.5"/>
<text text-anchor="start" x="116.5" y="-235.3" font-family="Times,serif" font-size="14.00">type</text>
<polygon fill="#e6007a4f" stroke="none" points="180,-228.5 180,-249.5 222,-249.5 222,-228.5 180,-228.5"/>
<polygon fill="none" stroke="black" points="180,-228.5 180,-249.5 222,-249.5 222,-228.5 180,-228.5"/>
<text text-anchor="start" x="195.5" y="-235.3" font-family="Times,serif" font-size="14.00">id</text>
<polygon fill="none" stroke="black" points="24,-207.5 24,-228.5 49,-228.5 49,-207.5 24,-207.5"/>
<text text-anchor="start" x="33" y="-214.3" font-family="Times,serif" font-size="14.00">0</text>
<polygon fill="none" stroke="black" points="49,-207.5 49,-228.5 77,-228.5 77,-207.5 49,-207.5"/>
<text text-anchor="start" x="59.5" y="-214.3" font-family="Times,serif" font-size="14.00">1</text>
<polygon fill="none" stroke="black" points="77,-207.5 77,-228.5 180,-228.5 180,-207.5 77,-207.5"/>
<text text-anchor="start" x="80" y="-214.3" font-family="Times,serif" font-size="14.00">u1&#x2192;StorageType</text>
<polygon fill="none" stroke="black" points="180,-207.5 180,-228.5 222,-228.5 222,-207.5 180,-207.5"/>
<text text-anchor="start" x="189" y="-214.3" font-family="Times,serif" font-size="14.00">type</text>
<polygon fill="none" stroke="black" points="24,-186.5 24,-207.5 49,-207.5 49,-186.5 24,-186.5"/>
<text text-anchor="start" x="33" y="-193.3" font-family="Times,serif" font-size="14.00">1</text>
<polygon fill="none" stroke="black" points="49,-186.5 49,-207.5 77,-207.5 77,-186.5 49,-186.5"/>
<text text-anchor="start" x="57" y="-193.3" font-family="Times,serif" font-size="14.00">...</text>
<polygon fill="none" stroke="black" points="77,-186.5 77,-207.5 180,-207.5 180,-186.5 77,-186.5"/>
<text text-anchor="start" x="92.5" y="-193.3" font-family="Times,serif" font-size="14.00">switch (type)</text>
<polygon fill="none" stroke="black" points="180,-186.5 180,-207.5 222,-207.5 222,-186.5 180,-186.5"/>
<text text-anchor="start" x="183" y="-193.3" font-family="Times,serif" font-size="14.00">details</text>
</g>
<!-- storage_definition__seq&#45;&gt;storage_definition__seq -->
<g id="edge4" class="edge">
<title>storage_definition__seq:type_type-&gt;storage_definition__seq:details_type</title>
<path fill="none" stroke="#404040" d="M180.18,-226.69C146.05,-245.4 152.99,-271.5 201,-271.5 244.51,-271.5 254.29,-237.44 230.34,-213.82"/>
<polygon fill="#404040" stroke="#404040" points="232.78,-210.48 222.82,-206.88 228.36,-215.91 232.78,-210.48"/>
</g>
<!-- storage_definition__seq_details_switch -->
<g id="node2" class="node">
<title>storage_definition__seq_details_switch</title>
<polygon fill="#e6007a4f" stroke="none" points="274,-207.5 274,-228.5 387,-228.5 387,-207.5 274,-207.5"/>
<polygon fill="none" stroke="black" points="274,-207.5 274,-228.5 387,-228.5 387,-207.5 274,-207.5"/>
<text text-anchor="start" x="318.5" y="-214.3" font-family="Times,serif" font-size="14.00">case</text>
<polygon fill="#e6007a4f" stroke="none" points="387,-207.5 387,-228.5 421,-228.5 421,-207.5 387,-207.5"/>
<polygon fill="none" stroke="black" points="387,-207.5 387,-228.5 421,-228.5 421,-207.5 387,-207.5"/>
<text text-anchor="start" x="392" y="-214.3" font-family="Times,serif" font-size="14.00">type</text>
<polygon fill="none" stroke="black" points="274,-186.5 274,-207.5 387,-207.5 387,-186.5 274,-186.5"/>
<text text-anchor="start" x="277" y="-193.3" font-family="Times,serif" font-size="14.00">:storage_type_plain</text>
<polygon fill="none" stroke="black" points="387,-186.5 387,-207.5 421,-207.5 421,-186.5 387,-186.5"/>
<text text-anchor="start" x="390" y="-193.3" font-family="Times,serif" font-size="14.00">Plain</text>
<polygon fill="none" stroke="black" points="274,-165.5 274,-186.5 387,-186.5 387,-165.5 274,-165.5"/>
<text text-anchor="start" x="278.5" y="-172.3" font-family="Times,serif" font-size="14.00">:storage_type_map</text>
<polygon fill="none" stroke="black" points="387,-165.5 387,-186.5 421,-186.5 421,-165.5 387,-165.5"/>
<text text-anchor="start" x="391" y="-172.3" font-family="Times,serif" font-size="14.00">Map</text>
</g>
<!-- storage_definition__seq&#45;&gt;storage_definition__seq_details_switch -->
<g id="edge1" class="edge">
<title>storage_definition__seq:details_type-&gt;storage_definition__seq_details_switch</title>
<path fill="none" stroke="black" stroke-width="2" d="M223,-197C233.45,-197 244.4,-197 255.28,-197"/>
<polygon fill="black" stroke="black" stroke-width="2" points="253.12,-200.5 263.12,-197 253.12,-193.5 253.12,-200.5"/>
</g>
<!-- plain__seq -->
<g id="node3" class="node">
<title>plain__seq</title>
<polygon fill="#e6007a4f" stroke="none" points="494.5,-266 494.5,-287 519.5,-287 519.5,-266 494.5,-266"/>
<polygon fill="none" stroke="black" points="494.5,-266 494.5,-287 519.5,-287 519.5,-266 494.5,-266"/>
<text text-anchor="start" x="497.5" y="-272.8" font-family="Times,serif" font-size="14.00">pos</text>
<polygon fill="#e6007a4f" stroke="none" points="519.5,-266 519.5,-287 547.5,-287 547.5,-266 519.5,-266"/>
<polygon fill="none" stroke="black" points="519.5,-266 519.5,-287 547.5,-287 547.5,-266 519.5,-266"/>
<text text-anchor="start" x="522.5" y="-272.8" font-family="Times,serif" font-size="14.00">size</text>
<polygon fill="#e6007a4f" stroke="none" points="547.5,-266 547.5,-287 655.5,-287 655.5,-266 547.5,-266"/>
<polygon fill="none" stroke="black" points="547.5,-266 547.5,-287 655.5,-287 655.5,-266 547.5,-266"/>
<text text-anchor="start" x="589.5" y="-272.8" font-family="Times,serif" font-size="14.00">type</text>
<polygon fill="#e6007a4f" stroke="none" points="655.5,-266 655.5,-287 685.5,-287 685.5,-266 655.5,-266"/>
<polygon fill="none" stroke="black" points="655.5,-266 655.5,-287 685.5,-287 685.5,-266 655.5,-266"/>
<text text-anchor="start" x="665" y="-272.8" font-family="Times,serif" font-size="14.00">id</text>
<polygon fill="none" stroke="black" points="494.5,-245 494.5,-266 519.5,-266 519.5,-245 494.5,-245"/>
<text text-anchor="start" x="503.5" y="-251.8" font-family="Times,serif" font-size="14.00">0</text>
<polygon fill="none" stroke="black" points="519.5,-245 519.5,-266 547.5,-266 547.5,-245 519.5,-245"/>
<text text-anchor="start" x="527.5" y="-251.8" font-family="Times,serif" font-size="14.00">...</text>
<polygon fill="none" stroke="black" points="547.5,-245 547.5,-266 655.5,-266 655.5,-245 547.5,-245"/>
<text text-anchor="start" x="550.5" y="-251.8" font-family="Times,serif" font-size="14.00">Scale::CompactInt</text>
<polygon fill="none" stroke="black" points="655.5,-245 655.5,-266 685.5,-266 685.5,-245 655.5,-245"/>
<text text-anchor="start" x="658.5" y="-251.8" font-family="Times,serif" font-size="14.00">type</text>
</g>
<!-- storage_definition__seq_details_switch&#45;&gt;plain__seq -->
<g id="edge2" class="edge">
<title>storage_definition__seq_details_switch:case0-&gt;plain__seq</title>
<path fill="none" stroke="black" stroke-width="2" d="M422.5,-197C443.41,-197 438.75,-218.78 457,-229 463.21,-232.48 469.77,-235.65 476.51,-238.53"/>
<polygon fill="black" stroke="black" stroke-width="2" points="473.92,-241.07 484.5,-241.56 476.54,-234.58 473.92,-241.07"/>
</g>
<!-- map__seq -->
<g id="node4" class="node">
<title>map__seq</title>
<polygon fill="#e6007a4f" stroke="none" points="473,-169 473,-190 498,-190 498,-169 473,-169"/>
<polygon fill="none" stroke="black" points="473,-169 473,-190 498,-190 498,-169 473,-169"/>
<text text-anchor="start" x="476" y="-175.8" font-family="Times,serif" font-size="14.00">pos</text>
<polygon fill="#e6007a4f" stroke="none" points="498,-169 498,-190 526,-190 526,-169 498,-169"/>
<polygon fill="none" stroke="black" points="498,-169 498,-190 526,-190 526,-169 498,-169"/>
<text text-anchor="start" x="501" y="-175.8" font-family="Times,serif" font-size="14.00">size</text>
<polygon fill="#e6007a4f" stroke="none" points="526,-169 526,-190 634,-190 634,-169 526,-169"/>
<polygon fill="none" stroke="black" points="526,-169 526,-190 634,-190 634,-169 526,-169"/>
<text text-anchor="start" x="568" y="-175.8" font-family="Times,serif" font-size="14.00">type</text>
<polygon fill="#e6007a4f" stroke="none" points="634,-169 634,-190 707,-190 707,-169 634,-169"/>
<polygon fill="none" stroke="black" points="634,-169 634,-190 707,-190 707,-169 634,-169"/>
<text text-anchor="start" x="665" y="-175.8" font-family="Times,serif" font-size="14.00">id</text>
<polygon fill="none" stroke="black" points="473,-148 473,-169 498,-169 498,-148 473,-148"/>
<text text-anchor="start" x="482" y="-154.8" font-family="Times,serif" font-size="14.00">0</text>
<polygon fill="none" stroke="black" points="498,-148 498,-169 526,-169 526,-148 498,-148"/>
<text text-anchor="start" x="506" y="-154.8" font-family="Times,serif" font-size="14.00">...</text>
<polygon fill="none" stroke="black" points="526,-148 526,-169 634,-169 634,-148 526,-148"/>
<text text-anchor="start" x="529" y="-154.8" font-family="Times,serif" font-size="14.00">Scale::CompactInt</text>
<polygon fill="none" stroke="black" points="634,-148 634,-169 707,-169 707,-148 634,-148"/>
<text text-anchor="start" x="637" y="-154.8" font-family="Times,serif" font-size="14.00">num_hasher</text>
<polygon fill="none" stroke="black" points="473,-127 473,-148 498,-148 498,-127 473,-127"/>
<text text-anchor="start" x="479.5" y="-133.8" font-family="Times,serif" font-size="14.00">...</text>
<polygon fill="none" stroke="black" points="498,-127 498,-148 526,-148 526,-127 498,-127"/>
<text text-anchor="start" x="508.5" y="-133.8" font-family="Times,serif" font-size="14.00">1</text>
<polygon fill="none" stroke="black" points="526,-127 526,-148 634,-148 634,-127 526,-127"/>
<text text-anchor="start" x="533" y="-133.8" font-family="Times,serif" font-size="14.00">u1&#x2192;HasherType</text>
<polygon fill="none" stroke="black" points="634,-127 634,-148 707,-148 707,-127 634,-127"/>
<text text-anchor="start" x="652.5" y="-133.8" font-family="Times,serif" font-size="14.00">hasher</text>
<polygon fill="none" stroke="black" points="473,-106 473,-127 707,-127 707,-106 473,-106"/>
<text text-anchor="start" x="505" y="-112.8" font-family="Times,serif" font-size="14.00">repeat num_hasher.value times</text>
<polygon fill="none" stroke="black" points="473,-85 473,-106 498,-106 498,-85 473,-85"/>
<text text-anchor="start" x="479.5" y="-91.8" font-family="Times,serif" font-size="14.00">...</text>
<polygon fill="none" stroke="black" points="498,-85 498,-106 526,-106 526,-85 498,-85"/>
<text text-anchor="start" x="506" y="-91.8" font-family="Times,serif" font-size="14.00">...</text>
<polygon fill="none" stroke="black" points="526,-85 526,-106 634,-106 634,-85 526,-85"/>
<text text-anchor="start" x="529" y="-91.8" font-family="Times,serif" font-size="14.00">Scale::CompactInt</text>
<polygon fill="none" stroke="black" points="634,-85 634,-106 707,-106 707,-85 634,-85"/>
<text text-anchor="start" x="660.5" y="-91.8" font-family="Times,serif" font-size="14.00">key</text>
<polygon fill="none" stroke="black" points="473,-64 473,-85 498,-85 498,-64 473,-64"/>
<text text-anchor="start" x="479.5" y="-70.8" font-family="Times,serif" font-size="14.00">...</text>
<polygon fill="none" stroke="black" points="498,-64 498,-85 526,-85 526,-64 498,-64"/>
<text text-anchor="start" x="506" y="-70.8" font-family="Times,serif" font-size="14.00">...</text>
<polygon fill="none" stroke="black" points="526,-64 526,-85 634,-85 634,-64 526,-64"/>
<text text-anchor="start" x="529" y="-70.8" font-family="Times,serif" font-size="14.00">Scale::CompactInt</text>
<polygon fill="none" stroke="black" points="634,-64 634,-85 707,-85 707,-64 634,-64"/>
<text text-anchor="start" x="655.5" y="-70.8" font-family="Times,serif" font-size="14.00">value</text>
</g>
<!-- storage_definition__seq_details_switch&#45;&gt;map__seq -->
<g id="edge3" class="edge">
<title>storage_definition__seq_details_switch:case1-&gt;map__seq</title>
<path fill="none" stroke="black" stroke-width="2" d="M422.5,-176C433.01,-176 443.74,-175.09 454.45,-173.52"/>
<polygon fill="black" stroke="black" stroke-width="2" points="453.85,-176.83 463.14,-171.74 452.7,-169.93 453.85,-176.83"/>
</g>
<!-- compact_int__seq -->

<!-- plain__seq&#45;&gt;compact_int__seq -->

<!-- map__seq&#45;&gt;compact_int__seq -->

<!-- map__seq&#45;&gt;compact_int__seq -->

<!-- map__seq&#45;&gt;compact_int__seq -->

<!-- compact_int__inst__value -->

<!-- compact_int__inst__value&#45;&gt;map__seq -->

</g>
</svg>
