<?xml version="1.0" encoding="UTF-8" standalone="no"?>
<!DOCTYPE svg PUBLIC "-//W3C//DTD SVG 1.1//EN"
 "http://www.w3.org/Graphics/SVG/1.1/DTD/svg11.dtd">
<!-- Generated by graphviz version 7.1.0 (20230121.1956)
 -->
<!-- Pages: 1 -->
<svg width="875pt" height="369pt"
 viewBox="0.00 0.00 875.00 369.00" xmlns="http://www.w3.org/2000/svg" xmlns:xlink="http://www.w3.org/1999/xlink">
<g id="graph0" class="graph" transform="scale(1 1) rotate(0) translate(4 365)">
<polygon fill="white" stroke="none" points="-4,4 -4,-365 871,-365 871,4 -4,4"/>
<g id="clust1" class="cluster">
<title>cluster__storage_definition</title>
<polygon fill="none" stroke="black" stroke-dasharray="1,5" points="8,-44 8,-353 731,-353 731,-44 8,-44"/>
<text text-anchor="middle" x="369.5" y="-337.8" font-family="Times,serif" font-size="14.00">StorageDefinition</text>
</g>
<g id="clust2" class="cluster">
<title>cluster__plain</title>
<polygon fill="none" stroke="black" stroke-dasharray="1,5" points="478.5,-233 478.5,-322 701.5,-322 701.5,-233 478.5,-233"/>
<text text-anchor="middle" x="590" y="-306.8" font-family="Times,serif" font-size="14.00">StorageDefinition::Plain</text>
</g>
<g id="clust3" class="cluster">
<title>cluster__map</title>
<polygon fill="none" stroke="black" stroke-dasharray="1,5" points="457,-52 457,-225 723,-225 723,-52 457,-52"/>
<text text-anchor="middle" x="590" y="-209.8" font-family="Times,serif" font-size="14.00">StorageDefinition::Map</text>
</g>
<!-- storage_definition__seq -->
<g id="node1" class="node">
<title>storage_definition__seq</title>
<polygon fill="#e0ffe0" stroke="none" points="24,-229 24,-250 49,-250 49,-229 24,-229"/>
<polygon fill="none" stroke="black" points="24,-229 24,-250 49,-250 49,-229 24,-229"/>
<text text-anchor="start" x="27" y="-235.8" font-family="Times,serif" font-size="14.00">pos</text>
<polygon fill="#e0ffe0" stroke="none" points="49,-229 49,-250 77,-250 77,-229 49,-229"/>
<polygon fill="none" stroke="black" points="49,-229 49,-250 77,-250 77,-229 49,-229"/>
<text text-anchor="start" x="52" y="-235.8" font-family="Times,serif" font-size="14.00">size</text>
<polygon fill="#e0ffe0" stroke="none" points="77,-229 77,-250 180,-250 180,-229 77,-229"/>
<polygon fill="none" stroke="black" points="77,-229 77,-250 180,-250 180,-229 77,-229"/>
<text text-anchor="start" x="116.5" y="-235.8" font-family="Times,serif" font-size="14.00">type</text>
<polygon fill="#e0ffe0" stroke="none" points="180,-229 180,-250 222,-250 222,-229 180,-229"/>
<polygon fill="none" stroke="black" points="180,-229 180,-250 222,-250 222,-229 180,-229"/>
<text text-anchor="start" x="195.5" y="-235.8" font-family="Times,serif" font-size="14.00">id</text>
<polygon fill="none" stroke="black" points="24,-208 24,-229 49,-229 49,-208 24,-208"/>
<text text-anchor="start" x="33" y="-214.8" font-family="Times,serif" font-size="14.00">0</text>
<polygon fill="none" stroke="black" points="49,-208 49,-229 77,-229 77,-208 49,-208"/>
<text text-anchor="start" x="59.5" y="-214.8" font-family="Times,serif" font-size="14.00">1</text>
<polygon fill="none" stroke="black" points="77,-208 77,-229 180,-229 180,-208 77,-208"/>
<text text-anchor="start" x="80" y="-214.8" font-family="Times,serif" font-size="14.00">u1→StorageType</text>
<polygon fill="none" stroke="black" points="180,-208 180,-229 222,-229 222,-208 180,-208"/>
<text text-anchor="start" x="189" y="-214.8" font-family="Times,serif" font-size="14.00">type</text>
<polygon fill="none" stroke="black" points="24,-187 24,-208 49,-208 49,-187 24,-187"/>
<text text-anchor="start" x="33" y="-193.8" font-family="Times,serif" font-size="14.00">1</text>
<polygon fill="none" stroke="black" points="49,-187 49,-208 77,-208 77,-187 49,-187"/>
<text text-anchor="start" x="57" y="-193.8" font-family="Times,serif" font-size="14.00">...</text>
<polygon fill="none" stroke="black" points="77,-187 77,-208 180,-208 180,-187 77,-187"/>
<text text-anchor="start" x="92.5" y="-193.8" font-family="Times,serif" font-size="14.00">switch (type)</text>
<polygon fill="none" stroke="black" points="180,-187 180,-208 222,-208 222,-187 180,-187"/>
<text text-anchor="start" x="183" y="-193.8" font-family="Times,serif" font-size="14.00">details</text>
</g>
<!-- storage_definition__seq&#45;&gt;storage_definition__seq -->
<g id="edge4" class="edge">
<title>storage_definition__seq:type_type&#45;&gt;storage_definition__seq:details_type</title>
<path fill="none" stroke="#404040" d="M180.18,-226.75C146.05,-245.67 152.99,-272.5 201,-272.5 244.32,-272.5 254.21,-238.14 230.64,-214.26"/>
<polygon fill="#404040" stroke="#404040" points="232.91,-211.6 222.98,-207.9 228.44,-216.98 232.91,-211.6"/>
</g>
<!-- storage_definition__seq_details_switch -->
<g id="node2" class="node">
<title>storage_definition__seq_details_switch</title>
<polygon fill="#f0f2e4" stroke="none" points="274.5,-207 274.5,-228 387.5,-228 387.5,-207 274.5,-207"/>
<polygon fill="none" stroke="black" points="274.5,-207 274.5,-228 387.5,-228 387.5,-207 274.5,-207"/>
<text text-anchor="start" x="319" y="-213.8" font-family="Times,serif" font-size="14.00">case</text>
<polygon fill="#f0f2e4" stroke="none" points="387.5,-207 387.5,-228 421.5,-228 421.5,-207 387.5,-207"/>
<polygon fill="none" stroke="black" points="387.5,-207 387.5,-228 421.5,-228 421.5,-207 387.5,-207"/>
<text text-anchor="start" x="392.5" y="-213.8" font-family="Times,serif" font-size="14.00">type</text>
<polygon fill="none" stroke="black" points="274.5,-186 274.5,-207 387.5,-207 387.5,-186 274.5,-186"/>
<text text-anchor="start" x="277.5" y="-192.8" font-family="Times,serif" font-size="14.00">:storage_type_plain</text>
<polygon fill="none" stroke="black" points="387.5,-186 387.5,-207 421.5,-207 421.5,-186 387.5,-186"/>
<text text-anchor="start" x="390.5" y="-192.8" font-family="Times,serif" font-size="14.00">Plain</text>
<polygon fill="none" stroke="black" points="274.5,-165 274.5,-186 387.5,-186 387.5,-165 274.5,-165"/>
<text text-anchor="start" x="279" y="-171.8" font-family="Times,serif" font-size="14.00">:storage_type_map</text>
<polygon fill="none" stroke="black" points="387.5,-165 387.5,-186 421.5,-186 421.5,-165 387.5,-165"/>
<text text-anchor="start" x="391.5" y="-171.8" font-family="Times,serif" font-size="14.00">Map</text>
</g>
<!-- storage_definition__seq&#45;&gt;storage_definition__seq_details_switch -->
<g id="edge1" class="edge">
<title>storage_definition__seq:details_type&#45;&gt;storage_definition__seq_details_switch</title>
<path fill="none" stroke="black" stroke-width="2" d="M223,-197C233.34,-197 244.17,-197 254.94,-197"/>
<polygon fill="black" stroke="black" stroke-width="2" points="253.09,-200.5 263.09,-197 253.09,-193.5 253.09,-200.5"/>
</g>
<!-- plain__seq -->
<g id="node3" class="node">
<title>plain__seq</title>
<polygon fill="#e0ffe0" stroke="none" points="495,-266 495,-287 520,-287 520,-266 495,-266"/>
<polygon fill="none" stroke="black" points="495,-266 495,-287 520,-287 520,-266 495,-266"/>
<text text-anchor="start" x="498" y="-272.8" font-family="Times,serif" font-size="14.00">pos</text>
<polygon fill="#e0ffe0" stroke="none" points="520,-266 520,-287 548,-287 548,-266 520,-266"/>
<polygon fill="none" stroke="black" points="520,-266 520,-287 548,-287 548,-266 520,-266"/>
<text text-anchor="start" x="523" y="-272.8" font-family="Times,serif" font-size="14.00">size</text>
<polygon fill="#e0ffe0" stroke="none" points="548,-266 548,-287 656,-287 656,-266 548,-266"/>
<polygon fill="none" stroke="black" points="548,-266 548,-287 656,-287 656,-266 548,-266"/>
<text text-anchor="start" x="590" y="-272.8" font-family="Times,serif" font-size="14.00">type</text>
<polygon fill="#e0ffe0" stroke="none" points="656,-266 656,-287 686,-287 686,-266 656,-266"/>
<polygon fill="none" stroke="black" points="656,-266 656,-287 686,-287 686,-266 656,-266"/>
<text text-anchor="start" x="665.5" y="-272.8" font-family="Times,serif" font-size="14.00">id</text>
<polygon fill="none" stroke="black" points="495,-245 495,-266 520,-266 520,-245 495,-245"/>
<text text-anchor="start" x="504" y="-251.8" font-family="Times,serif" font-size="14.00">0</text>
<polygon fill="none" stroke="black" points="520,-245 520,-266 548,-266 548,-245 520,-245"/>
<text text-anchor="start" x="528" y="-251.8" font-family="Times,serif" font-size="14.00">...</text>
<polygon fill="none" stroke="black" points="548,-245 548,-266 656,-266 656,-245 548,-245"/>
<text text-anchor="start" x="551" y="-251.8" font-family="Times,serif" font-size="14.00">Scale::CompactInt</text>
<polygon fill="none" stroke="black" points="656,-245 656,-266 686,-266 686,-245 656,-245"/>
<text text-anchor="start" x="659" y="-251.8" font-family="Times,serif" font-size="14.00">type</text>
</g>
<!-- storage_definition__seq_details_switch&#45;&gt;plain__seq -->
<g id="edge2" class="edge">
<title>storage_definition__seq_details_switch:case0&#45;&gt;plain__seq</title>
<path fill="none" stroke="black" stroke-width="2" d="M422.5,-196C443.72,-196 438.57,-218.49 457,-229 463.11,-232.48 469.56,-235.65 476.2,-238.54"/>
<polygon fill="black" stroke="black" stroke-width="2" points="473.38,-241.17 483.96,-241.7 476.02,-234.68 473.38,-241.17"/>
</g>
<!-- map__seq -->
<g id="node4" class="node">
<title>map__seq</title>
<polygon fill="#e0ffe0" stroke="none" points="473,-169 473,-190 498,-190 498,-169 473,-169"/>
<polygon fill="none" stroke="black" points="473,-169 473,-190 498,-190 498,-169 473,-169"/>
<text text-anchor="start" x="476" y="-175.8" font-family="Times,serif" font-size="14.00">pos</text>
<polygon fill="#e0ffe0" stroke="none" points="498,-169 498,-190 526,-190 526,-169 498,-169"/>
<polygon fill="none" stroke="black" points="498,-169 498,-190 526,-190 526,-169 498,-169"/>
<text text-anchor="start" x="501" y="-175.8" font-family="Times,serif" font-size="14.00">size</text>
<polygon fill="#e0ffe0" stroke="none" points="526,-169 526,-190 634,-190 634,-169 526,-169"/>
<polygon fill="none" stroke="black" points="526,-169 526,-190 634,-190 634,-169 526,-169"/>
<text text-anchor="start" x="568" y="-175.8" font-family="Times,serif" font-size="14.00">type</text>
<polygon fill="#e0ffe0" stroke="none" points="634,-169 634,-190 707,-190 707,-169 634,-169"/>
<polygon fill="none" stroke="black" points="634,-169 634,-190 707,-190 707,-169 634,-169"/>
<text text-anchor="start" x="665" y="-175.8" font-family="Times,serif" font-size="14.00">id</text>
<polygon fill="none" stroke="black" points="473,-148 473,-169 498,-169 498,-148 473,-148"/>
<text text-anchor="start" x="482" y="-154.8" font-family="Times,serif" font-size="14.00">0</text>
<polygon fill="none" stroke="black" points="498,-148 498,-169 526,-169 526,-148 498,-148"/>
<text text-anchor="start" x="506" y="-154.8" font-family="Times,serif" font-size="14.00">...</text>
<polygon fill="none" stroke="black" points="526,-148 526,-169 634,-169 634,-148 526,-148"/>
<text text-anchor="start" x="529" y="-154.8" font-family="Times,serif" font-size="14.00">Scale::CompactInt</text>
<polygon fill="none" stroke="black" points="634,-148 634,-169 707,-169 707,-148 634,-148"/>
<text text-anchor="start" x="637" y="-154.8" font-family="Times,serif" font-size="14.00">num_hasher</text>
<polygon fill="none" stroke="black" points="473,-127 473,-148 498,-148 498,-127 473,-127"/>
<text text-anchor="start" x="479.5" y="-133.8" font-family="Times,serif" font-size="14.00">...</text>
<polygon fill="none" stroke="black" points="498,-127 498,-148 526,-148 526,-127 498,-127"/>
<text text-anchor="start" x="508.5" y="-133.8" font-family="Times,serif" font-size="14.00">1</text>
<polygon fill="none" stroke="black" points="526,-127 526,-148 634,-148 634,-127 526,-127"/>
<text text-anchor="start" x="533" y="-133.8" font-family="Times,serif" font-size="14.00">u1→HasherType</text>
<polygon fill="none" stroke="black" points="634,-127 634,-148 707,-148 707,-127 634,-127"/>
<text text-anchor="start" x="652.5" y="-133.8" font-family="Times,serif" font-size="14.00">hasher</text>
<polygon fill="none" stroke="black" points="473,-106 473,-127 707,-127 707,-106 473,-106"/>
<text text-anchor="start" x="505" y="-112.8" font-family="Times,serif" font-size="14.00">repeat num_hasher.value times</text>
<polygon fill="none" stroke="black" points="473,-85 473,-106 498,-106 498,-85 473,-85"/>
<text text-anchor="start" x="479.5" y="-91.8" font-family="Times,serif" font-size="14.00">...</text>
<polygon fill="none" stroke="black" points="498,-85 498,-106 526,-106 526,-85 498,-85"/>
<text text-anchor="start" x="506" y="-91.8" font-family="Times,serif" font-size="14.00">...</text>
<polygon fill="none" stroke="black" points="526,-85 526,-106 634,-106 634,-85 526,-85"/>
<text text-anchor="start" x="529" y="-91.8" font-family="Times,serif" font-size="14.00">Scale::CompactInt</text>
<polygon fill="none" stroke="black" points="634,-85 634,-106 707,-106 707,-85 634,-85"/>
<text text-anchor="start" x="660.5" y="-91.8" font-family="Times,serif" font-size="14.00">key</text>
<polygon fill="none" stroke="black" points="473,-64 473,-85 498,-85 498,-64 473,-64"/>
<text text-anchor="start" x="479.5" y="-70.8" font-family="Times,serif" font-size="14.00">...</text>
<polygon fill="none" stroke="black" points="498,-64 498,-85 526,-85 526,-64 498,-64"/>
<text text-anchor="start" x="506" y="-70.8" font-family="Times,serif" font-size="14.00">...</text>
<polygon fill="none" stroke="black" points="526,-64 526,-85 634,-85 634,-64 526,-64"/>
<text text-anchor="start" x="529" y="-70.8" font-family="Times,serif" font-size="14.00">Scale::CompactInt</text>
<polygon fill="none" stroke="black" points="634,-64 634,-85 707,-85 707,-64 634,-64"/>
<text text-anchor="start" x="655.5" y="-70.8" font-family="Times,serif" font-size="14.00">value</text>
</g>
<!-- storage_definition__seq_details_switch&#45;&gt;map__seq -->
<g id="edge3" class="edge">
<title>storage_definition__seq_details_switch:case1&#45;&gt;map__seq</title>
<path fill="none" stroke="black" stroke-width="2" d="M422.5,-175C432.77,-175 443.27,-174.15 453.74,-172.67"/>
<polygon fill="black" stroke="black" stroke-width="2" points="452.79,-176.37 462.1,-171.31 451.67,-169.46 452.79,-176.37"/>
</g>
<!-- compact_int__seq -->
<g id="node5" class="node">
<title>compact_int__seq</title>
<text text-anchor="middle" x="809" y="-123.3" font-family="Times,serif" font-size="14.00">compact_int__seq</text>
</g>
<!-- plain__seq&#45;&gt;compact_int__seq -->
<g id="edge5" class="edge">
<title>plain__seq:type_type&#45;&gt;compact_int__seq</title>
<path fill="none" stroke="black" stroke-width="2" d="M687,-255C741.55,-255 778.83,-192.85 796.42,-155.16"/>
<polygon fill="black" stroke="black" stroke-width="2" points="798.93,-158.12 799.82,-147.56 792.54,-155.26 798.93,-158.12"/>
</g>
<!-- map__seq&#45;&gt;compact_int__seq -->
<g id="edge6" class="edge">
<title>map__seq:num_hasher_type&#45;&gt;compact_int__seq</title>
<path fill="none" stroke="black" stroke-width="2" d="M708,-159C725.64,-159 744.24,-154.42 760.55,-148.73"/>
<polygon fill="black" stroke="black" stroke-width="2" points="759.92,-152.7 768.07,-145.93 757.48,-146.15 759.92,-152.7"/>
</g>
<!-- map__seq&#45;&gt;compact_int__seq -->
<g id="edge8" class="edge">
<title>map__seq:key_type&#45;&gt;compact_int__seq</title>
<path fill="none" stroke="black" stroke-width="2" d="M708,-95C725.64,-95 744.24,-99.58 760.55,-105.27"/>
<polygon fill="black" stroke="black" stroke-width="2" points="757.48,-107.85 768.07,-108.07 759.92,-101.3 757.48,-107.85"/>
</g>
<!-- map__seq&#45;&gt;compact_int__seq -->
<g id="edge9" class="edge">
<title>map__seq:value_type&#45;&gt;compact_int__seq</title>
<path fill="none" stroke="black" stroke-width="2" d="M708,-74C734.22,-74 760.28,-88.4 779.22,-102.19"/>
<polygon fill="black" stroke="black" stroke-width="2" points="775.71,-103.91 785.77,-107.22 779.97,-98.35 775.71,-103.91"/>
</g>
<!-- compact_int__inst__value -->
<g id="node6" class="node">
<title>compact_int__inst__value</title>
<text text-anchor="middle" x="347.5" y="-14.3" font-family="Times,serif" font-size="14.00">compact_int__inst__value</text>
</g>
<!-- compact_int__inst__value&#45;&gt;map__seq -->
<g id="edge7" class="edge">
<title>compact_int__inst__value:value_type&#45;&gt;map__seq:hasher__repeat</title>
<path fill="none" stroke="#404040" d="M423.27,-36C425.26,-37.24 427.17,-38.58 429,-40 456.04,-61.04 438.6,-104.16 460.85,-113.98"/>
<polygon fill="#404040" stroke="#404040" points="460.05,-117.39 470.51,-115.73 461.29,-110.5 460.05,-117.39"/>
</g>
</g>
</svg>
