<?xml version="1.0" encoding="UTF-8" standalone="no"?>
<!DOCTYPE svg PUBLIC "-//W3C//DTD SVG 1.1//EN"
 "http://www.w3.org/Graphics/SVG/1.1/DTD/svg11.dtd">
<!-- Generated by graphviz version 8.0.2 (20230410.1723)
 -->
<!-- Pages: 1 -->
<svg width="615pt" height="239pt" viewBox="0.00 0.00 615.00 239.00" xmlns="http://www.w3.org/2000/svg" xmlns:xlink="http://www.w3.org/1999/xlink">
<g id="graph0" class="graph" transform="scale(1 1) rotate(0) translate(4 235)">
<polygon fill="white" stroke="none" points="-4,4 -4,-235 611,-235 611,4 -4,4"/>
<g id="clust1" class="cluster">
<title>cluster__block_header</title>
<polygon fill="white" stroke="black" stroke-dasharray="1,5" points="188,-8 188,-223 463,-223 463,-8 188,-8"/>
<text text-anchor="middle" x="325.5" y="-207.8" font-family="Times,serif" font-size="14.00">BlockHeader</text>
</g>
<!-- block_header__seq -->
<g id="node1" class="node">
<title>block_header__seq</title>
<polygon fill="#e6007a4f" stroke="none" points="204,-167 204,-188 229,-188 229,-167 204,-167"/>
<polygon fill="none" stroke="black" points="204,-167 204,-188 229,-188 229,-167 204,-167"/>
<text text-anchor="start" x="207" y="-173.8" font-family="Times,serif" font-size="14.00">pos</text>
<polygon fill="#e6007a4f" stroke="none" points="229,-167 229,-188 257,-188 257,-167 229,-167"/>
<polygon fill="none" stroke="black" points="229,-167 229,-188 257,-188 257,-167 229,-167"/>
<text text-anchor="start" x="232" y="-173.8" font-family="Times,serif" font-size="14.00">size</text>
<polygon fill="#e6007a4f" stroke="none" points="257,-167 257,-188 365,-188 365,-167 257,-167"/>
<polygon fill="none" stroke="black" points="257,-167 257,-188 365,-188 365,-167 257,-167"/>
<text text-anchor="start" x="299" y="-173.8" font-family="Times,serif" font-size="14.00">type</text>
<polygon fill="#e6007a4f" stroke="none" points="365,-167 365,-188 447,-188 447,-167 365,-167"/>
<polygon fill="none" stroke="black" points="365,-167 365,-188 447,-188 447,-167 365,-167"/>
<text text-anchor="start" x="400.5" y="-173.8" font-family="Times,serif" font-size="14.00">id</text>
<polygon fill="none" stroke="black" points="204,-146 204,-167 229,-167 229,-146 204,-146"/>
<text text-anchor="start" x="213" y="-152.8" font-family="Times,serif" font-size="14.00">0</text>
<polygon fill="none" stroke="black" points="229,-146 229,-167 257,-167 257,-146 229,-146"/>
<text text-anchor="start" x="236" y="-152.8" font-family="Times,serif" font-size="14.00">32</text>
<polygon fill="none" stroke="black" points="257,-146 257,-167 365,-167 365,-146 257,-146"/>
<polygon fill="none" stroke="black" points="365,-146 365,-167 447,-167 447,-146 365,-146"/>
<text text-anchor="start" x="373" y="-152.8" font-family="Times,serif" font-size="14.00">parent_hash</text>
<polygon fill="none" stroke="black" points="204,-125 204,-146 229,-146 229,-125 204,-125"/>
<text text-anchor="start" x="209.5" y="-131.8" font-family="Times,serif" font-size="14.00">32</text>
<polygon fill="none" stroke="black" points="229,-125 229,-146 257,-146 257,-125 229,-125"/>
<text text-anchor="start" x="237" y="-131.8" font-family="Times,serif" font-size="14.00">...</text>
<polygon fill="none" stroke="black" points="257,-125 257,-146 365,-146 365,-125 257,-125"/>
<text text-anchor="start" x="260" y="-131.8" font-family="Times,serif" font-size="14.00">Scale::CompactInt</text>
<polygon fill="none" stroke="black" points="365,-125 365,-146 447,-146 447,-125 365,-125"/>
<text text-anchor="start" x="384.5" y="-131.8" font-family="Times,serif" font-size="14.00">number</text>
<polygon fill="none" stroke="black" points="204,-104 204,-125 229,-125 229,-104 204,-104"/>
<text text-anchor="start" x="210.5" y="-110.8" font-family="Times,serif" font-size="14.00">...</text>
<polygon fill="none" stroke="black" points="229,-104 229,-125 257,-125 257,-104 229,-104"/>
<text text-anchor="start" x="236" y="-110.8" font-family="Times,serif" font-size="14.00">32</text>
<polygon fill="none" stroke="black" points="257,-104 257,-125 365,-125 365,-104 257,-104"/>
<polygon fill="none" stroke="black" points="365,-104 365,-125 447,-125 447,-104 365,-104"/>
<text text-anchor="start" x="379" y="-110.8" font-family="Times,serif" font-size="14.00">state_root</text>
<polygon fill="none" stroke="black" points="204,-83 204,-104 229,-104 229,-83 204,-83"/>
<text text-anchor="start" x="210.5" y="-89.8" font-family="Times,serif" font-size="14.00">...</text>
<polygon fill="none" stroke="black" points="229,-83 229,-104 257,-104 257,-83 229,-83"/>
<text text-anchor="start" x="236" y="-89.8" font-family="Times,serif" font-size="14.00">32</text>
<polygon fill="none" stroke="black" points="257,-83 257,-104 365,-104 365,-83 257,-83"/>
<polygon fill="none" stroke="black" points="365,-83 365,-104 447,-104 447,-83 365,-83"/>
<text text-anchor="start" x="368" y="-89.8" font-family="Times,serif" font-size="14.00">extrinsic_root</text>
<polygon fill="none" stroke="black" points="204,-62 204,-83 229,-83 229,-62 204,-62"/>
<text text-anchor="start" x="210.5" y="-68.8" font-family="Times,serif" font-size="14.00">...</text>
<polygon fill="none" stroke="black" points="229,-62 229,-83 257,-83 257,-62 229,-62"/>
<text text-anchor="start" x="237" y="-68.8" font-family="Times,serif" font-size="14.00">...</text>
<polygon fill="none" stroke="black" points="257,-62 257,-83 365,-83 365,-62 257,-62"/>
<text text-anchor="start" x="260" y="-68.8" font-family="Times,serif" font-size="14.00">Scale::CompactInt</text>
<polygon fill="none" stroke="black" points="365,-62 365,-83 447,-83 447,-62 365,-62"/>
<text text-anchor="start" x="371" y="-68.8" font-family="Times,serif" font-size="14.00">num_digests</text>
<polygon fill="none" stroke="black" points="204,-41 204,-62 229,-62 229,-41 204,-41"/>
<text text-anchor="start" x="210.5" y="-47.8" font-family="Times,serif" font-size="14.00">...</text>
<polygon fill="none" stroke="black" points="229,-41 229,-62 257,-62 257,-41 229,-41"/>
<text text-anchor="start" x="237" y="-47.8" font-family="Times,serif" font-size="14.00">...</text>
<polygon fill="none" stroke="black" points="257,-41 257,-62 365,-62 365,-41 257,-41"/>
<text text-anchor="start" x="293" y="-47.8" font-family="Times,serif" font-size="14.00">Digest</text>
<polygon fill="none" stroke="black" points="365,-41 365,-62 447,-62 447,-41 365,-41"/>
<text text-anchor="start" x="387" y="-47.8" font-family="Times,serif" font-size="14.00">digests</text>
<polygon fill="none" stroke="black" points="204,-20 204,-41 447,-41 447,-20 204,-20"/>
<text text-anchor="start" x="239" y="-26.8" font-family="Times,serif" font-size="14.00">repeat num_digests.value times</text>
</g>
<!-- compact_int__seq -->

<!-- block_header__seq&#45;&gt;compact_int__seq -->

<!-- block_header__seq&#45;&gt;compact_int__seq -->

<!-- digest__seq -->
<g id="node3" class="node">
<title>digest__seq</title>
<text text-anchor="middle" x="549" y="-47.3" font-family="Times,serif" font-size="14.00">
              <a xlink:href="chap-state#img-digest" xlink:title="Digest">
                Digest
              </a>
            </text>
</g>
<!-- block_header__seq&#45;&gt;digest__seq -->
<g id="edge3" class="edge">
<title>block_header__seq:digests_type-&gt;digest__seq</title>
<path fill="none" stroke="black" stroke-width="2" d="M448.5,-51C464.78,-51 482.56,-51 498.53,-51"/>
<polygon fill="black" stroke="black" stroke-width="2" points="496.25,-54.5 506.25,-51 496.25,-47.5 496.25,-54.5"/>
</g>
<!-- compact_int__inst__value -->

<!-- compact_int__inst__value&#45;&gt;block_header__seq -->

</g>
</svg>
