<?xml version="1.0" encoding="UTF-8" standalone="no"?>
<!DOCTYPE svg PUBLIC "-//W3C//DTD SVG 1.1//EN"
 "http://www.w3.org/Graphics/SVG/1.1/DTD/svg11.dtd">
<!-- Generated by graphviz version 8.0.2 (20230410.1723)
 -->
<!-- Pages: 1 -->
<svg width="864pt" height="547pt" viewBox="0.00 0.00 864.00 547.00" xmlns="http://www.w3.org/2000/svg" xmlns:xlink="http://www.w3.org/1999/xlink">
<g id="graph0" class="graph" transform="scale(1 1) rotate(0) translate(4 543)">
<polygon fill="white" stroke="none" points="-4,4 -4,-543 860,-543 860,4 -4,4"/>
<g id="clust1" class="cluster">
<title>cluster__metadata_pallet</title>
<polygon fill="white" stroke="black" stroke-dasharray="1,5" points="188,-190 188,-531 720,-531 720,-190 188,-190"/>
<text text-anchor="middle" x="454" y="-515.8" font-family="Times,serif" font-size="14.00">MetadataPallet</text>
</g>
<g id="clust2" class="cluster">
<title>cluster__calls</title>
<polygon fill="white" stroke="black" stroke-dasharray="1,5" points="489,-393 489,-482 712,-482 712,-393 489,-393"/>
<text text-anchor="middle" x="600.5" y="-466.8" font-family="Times,serif" font-size="14.00">MetadataPallet::Calls</text>
</g>
<g id="clust3" class="cluster">
<title>cluster__events</title>
<polygon fill="white" stroke="black" stroke-dasharray="1,5" points="489,-296 489,-385 712,-385 712,-296 489,-296"/>
<text text-anchor="middle" x="600.5" y="-369.8" font-family="Times,serif" font-size="14.00">MetadataPallet::Events</text>
</g>
<g id="clust4" class="cluster">
<title>cluster__errors</title>
<polygon fill="white" stroke="black" stroke-dasharray="1,5" points="489,-199 489,-288 712,-288 712,-199 489,-199"/>
<text text-anchor="middle" x="600.5" y="-272.8" font-family="Times,serif" font-size="14.00">MetadataPallet::Errors</text>
</g>
<!-- metadata_pallet__seq -->
<g id="node1" class="node">
<title>metadata_pallet__seq</title>
<polygon fill="#e6007a4f" stroke="none" points="204,-475 204,-496 229,-496 229,-475 204,-475"/>
<polygon fill="none" stroke="black" points="204,-475 204,-496 229,-496 229,-475 204,-475"/>
<text text-anchor="start" x="207" y="-481.8" font-family="Times,serif" font-size="14.00">pos</text>
<polygon fill="#e6007a4f" stroke="none" points="229,-475 229,-496 257,-496 257,-475 229,-475"/>
<polygon fill="none" stroke="black" points="229,-475 229,-496 257,-496 257,-475 229,-475"/>
<text text-anchor="start" x="232" y="-481.8" font-family="Times,serif" font-size="14.00">size</text>
<polygon fill="#e6007a4f" stroke="none" points="257,-475 257,-496 365,-496 365,-475 257,-475"/>
<polygon fill="none" stroke="black" points="257,-475 257,-496 365,-496 365,-475 257,-475"/>
<text text-anchor="start" x="299" y="-481.8" font-family="Times,serif" font-size="14.00">type</text>
<polygon fill="#e6007a4f" stroke="none" points="365,-475 365,-496 453,-496 453,-475 365,-475"/>
<polygon fill="none" stroke="black" points="365,-475 365,-496 453,-496 453,-475 365,-475"/>
<text text-anchor="start" x="403.5" y="-481.8" font-family="Times,serif" font-size="14.00">id</text>
<polygon fill="none" stroke="black" points="204,-454 204,-475 229,-475 229,-454 204,-454"/>
<text text-anchor="start" x="213" y="-460.8" font-family="Times,serif" font-size="14.00">0</text>
<polygon fill="none" stroke="black" points="229,-454 229,-475 257,-475 257,-454 229,-454"/>
<text text-anchor="start" x="237" y="-460.8" font-family="Times,serif" font-size="14.00">...</text>
<polygon fill="none" stroke="black" points="257,-454 257,-475 365,-475 365,-454 257,-454"/>
<text text-anchor="start" x="276" y="-460.8" font-family="Times,serif" font-size="14.00">Scale::String</text>
<polygon fill="none" stroke="black" points="365,-454 365,-475 453,-475 453,-454 365,-454"/>
<text text-anchor="start" x="393.5" y="-460.8" font-family="Times,serif" font-size="14.00">name</text>
<polygon fill="none" stroke="black" points="204,-433 204,-454 229,-454 229,-433 204,-433"/>
<text text-anchor="start" x="210.5" y="-439.8" font-family="Times,serif" font-size="14.00">...</text>
<polygon fill="none" stroke="black" points="229,-433 229,-454 257,-454 257,-433 229,-433"/>
<text text-anchor="start" x="239.5" y="-439.8" font-family="Times,serif" font-size="14.00">1</text>
<polygon fill="none" stroke="black" points="257,-433 257,-454 365,-454 365,-433 257,-433"/>
<text text-anchor="start" x="304" y="-439.8" font-family="Times,serif" font-size="14.00">u1</text>
<polygon fill="none" stroke="black" points="365,-433 365,-454 453,-454 453,-433 365,-433"/>
<text text-anchor="start" x="377" y="-439.8" font-family="Times,serif" font-size="14.00">has_storage</text>
<polygon fill="none" stroke="black" points="204,-412 204,-433 229,-433 229,-412 204,-412"/>
<text text-anchor="start" x="210.5" y="-418.8" font-family="Times,serif" font-size="14.00">...</text>
<polygon fill="none" stroke="black" points="229,-412 229,-433 257,-433 257,-412 229,-412"/>
<text text-anchor="start" x="237" y="-418.8" font-family="Times,serif" font-size="14.00">...</text>
<polygon fill="none" stroke="black" points="257,-412 257,-433 365,-433 365,-412 257,-412"/>
<text text-anchor="start" x="274.5" y="-418.8" font-family="Times,serif" font-size="14.00">PalletStorage</text>
<polygon fill="none" stroke="black" points="365,-412 365,-433 453,-433 453,-412 365,-412"/>
<text text-anchor="start" x="389" y="-418.8" font-family="Times,serif" font-size="14.00">storage</text>
<polygon fill="none" stroke="black" points="204,-391 204,-412 229,-412 229,-391 204,-391"/>
<text text-anchor="start" x="210.5" y="-397.8" font-family="Times,serif" font-size="14.00">...</text>
<polygon fill="none" stroke="black" points="229,-391 229,-412 257,-412 257,-391 229,-391"/>
<text text-anchor="start" x="239.5" y="-397.8" font-family="Times,serif" font-size="14.00">1</text>
<polygon fill="none" stroke="black" points="257,-391 257,-412 365,-412 365,-391 257,-391"/>
<text text-anchor="start" x="304" y="-397.8" font-family="Times,serif" font-size="14.00">u1</text>
<polygon fill="none" stroke="black" points="365,-391 365,-412 453,-412 453,-391 365,-391"/>
<text text-anchor="start" x="384" y="-397.8" font-family="Times,serif" font-size="14.00">has_calls</text>
<polygon fill="none" stroke="black" points="204,-370 204,-391 229,-391 229,-370 204,-370"/>
<text text-anchor="start" x="210.5" y="-376.8" font-family="Times,serif" font-size="14.00">...</text>
<polygon fill="none" stroke="black" points="229,-370 229,-391 257,-391 257,-370 229,-370"/>
<text text-anchor="start" x="237" y="-376.8" font-family="Times,serif" font-size="14.00">...</text>
<polygon fill="none" stroke="black" points="257,-370 257,-391 365,-391 365,-370 257,-370"/>
<text text-anchor="start" x="297" y="-376.8" font-family="Times,serif" font-size="14.00">Calls</text>
<polygon fill="none" stroke="black" points="365,-370 365,-391 453,-391 453,-370 365,-370"/>
<text text-anchor="start" x="396.5" y="-376.8" font-family="Times,serif" font-size="14.00">calls</text>
<polygon fill="none" stroke="black" points="204,-349 204,-370 229,-370 229,-349 204,-349"/>
<text text-anchor="start" x="210.5" y="-355.8" font-family="Times,serif" font-size="14.00">...</text>
<polygon fill="none" stroke="black" points="229,-349 229,-370 257,-370 257,-349 229,-349"/>
<text text-anchor="start" x="239.5" y="-355.8" font-family="Times,serif" font-size="14.00">1</text>
<polygon fill="none" stroke="black" points="257,-349 257,-370 365,-370 365,-349 257,-349"/>
<text text-anchor="start" x="304" y="-355.8" font-family="Times,serif" font-size="14.00">u1</text>
<polygon fill="none" stroke="black" points="365,-349 365,-370 453,-370 453,-349 365,-349"/>
<text text-anchor="start" x="379" y="-355.8" font-family="Times,serif" font-size="14.00">has_events</text>
<polygon fill="none" stroke="black" points="204,-328 204,-349 229,-349 229,-328 204,-328"/>
<text text-anchor="start" x="210.5" y="-334.8" font-family="Times,serif" font-size="14.00">...</text>
<polygon fill="none" stroke="black" points="229,-328 229,-349 257,-349 257,-328 229,-328"/>
<text text-anchor="start" x="237" y="-334.8" font-family="Times,serif" font-size="14.00">...</text>
<polygon fill="none" stroke="black" points="257,-328 257,-349 365,-349 365,-328 257,-328"/>
<text text-anchor="start" x="292.5" y="-334.8" font-family="Times,serif" font-size="14.00">Events</text>
<polygon fill="none" stroke="black" points="365,-328 365,-349 453,-349 453,-328 365,-328"/>
<text text-anchor="start" x="391.5" y="-334.8" font-family="Times,serif" font-size="14.00">events</text>
<polygon fill="none" stroke="black" points="204,-307 204,-328 229,-328 229,-307 204,-307"/>
<text text-anchor="start" x="210.5" y="-313.8" font-family="Times,serif" font-size="14.00">...</text>
<polygon fill="none" stroke="black" points="229,-307 229,-328 257,-328 257,-307 229,-307"/>
<text text-anchor="start" x="237" y="-313.8" font-family="Times,serif" font-size="14.00">...</text>
<polygon fill="none" stroke="black" points="257,-307 257,-328 365,-328 365,-307 257,-307"/>
<text text-anchor="start" x="260" y="-313.8" font-family="Times,serif" font-size="14.00">Scale::CompactInt</text>
<polygon fill="none" stroke="black" points="365,-307 365,-328 453,-328 453,-307 365,-307"/>
<text text-anchor="start" x="368" y="-313.8" font-family="Times,serif" font-size="14.00">num_constants</text>
<polygon fill="none" stroke="black" points="204,-286 204,-307 229,-307 229,-286 204,-286"/>
<text text-anchor="start" x="210.5" y="-292.8" font-family="Times,serif" font-size="14.00">...</text>
<polygon fill="none" stroke="black" points="229,-286 229,-307 257,-307 257,-286 229,-286"/>
<text text-anchor="start" x="237" y="-292.8" font-family="Times,serif" font-size="14.00">...</text>
<polygon fill="none" stroke="black" points="257,-286 257,-307 365,-307 365,-286 257,-286"/>
<text text-anchor="start" x="271.5" y="-292.8" font-family="Times,serif" font-size="14.00">PalletConstant</text>
<polygon fill="none" stroke="black" points="365,-286 365,-307 453,-307 453,-286 365,-286"/>
<text text-anchor="start" x="383.5" y="-292.8" font-family="Times,serif" font-size="14.00">constants</text>
<polygon fill="none" stroke="black" points="204,-265 204,-286 453,-286 453,-265 204,-265"/>
<text text-anchor="start" x="235.5" y="-271.8" font-family="Times,serif" font-size="14.00">repeat num_constants.value times</text>
<polygon fill="none" stroke="black" points="204,-244 204,-265 229,-265 229,-244 204,-244"/>
<text text-anchor="start" x="210.5" y="-250.8" font-family="Times,serif" font-size="14.00">...</text>
<polygon fill="none" stroke="black" points="229,-244 229,-265 257,-265 257,-244 229,-244"/>
<text text-anchor="start" x="239.5" y="-250.8" font-family="Times,serif" font-size="14.00">1</text>
<polygon fill="none" stroke="black" points="257,-244 257,-265 365,-265 365,-244 257,-244"/>
<text text-anchor="start" x="304" y="-250.8" font-family="Times,serif" font-size="14.00">u1</text>
<polygon fill="none" stroke="black" points="365,-244 365,-265 453,-265 453,-244 365,-244"/>
<text text-anchor="start" x="380.5" y="-250.8" font-family="Times,serif" font-size="14.00">has_errors</text>
<polygon fill="none" stroke="black" points="204,-223 204,-244 229,-244 229,-223 204,-223"/>
<text text-anchor="start" x="210.5" y="-229.8" font-family="Times,serif" font-size="14.00">...</text>
<polygon fill="none" stroke="black" points="229,-223 229,-244 257,-244 257,-223 229,-223"/>
<text text-anchor="start" x="237" y="-229.8" font-family="Times,serif" font-size="14.00">...</text>
<polygon fill="none" stroke="black" points="257,-223 257,-244 365,-244 365,-223 257,-223"/>
<text text-anchor="start" x="294" y="-229.8" font-family="Times,serif" font-size="14.00">Errors</text>
<polygon fill="none" stroke="black" points="365,-223 365,-244 453,-244 453,-223 365,-223"/>
<text text-anchor="start" x="393" y="-229.8" font-family="Times,serif" font-size="14.00">errors</text>
<polygon fill="none" stroke="black" points="204,-202 204,-223 229,-223 229,-202 204,-202"/>
<text text-anchor="start" x="210.5" y="-208.8" font-family="Times,serif" font-size="14.00">...</text>
<polygon fill="none" stroke="black" points="229,-202 229,-223 257,-223 257,-202 229,-202"/>
<text text-anchor="start" x="239.5" y="-208.8" font-family="Times,serif" font-size="14.00">1</text>
<polygon fill="none" stroke="black" points="257,-202 257,-223 365,-223 365,-202 257,-202"/>
<text text-anchor="start" x="304" y="-208.8" font-family="Times,serif" font-size="14.00">u1</text>
<polygon fill="none" stroke="black" points="365,-202 365,-223 453,-223 453,-202 365,-202"/>
<text text-anchor="start" x="393.5" y="-208.8" font-family="Times,serif" font-size="14.00">index</text>
</g>
<!-- calls__seq -->
<g id="node2" class="node">
<title>calls__seq</title>
<polygon fill="#e6007a4f" stroke="none" points="505,-426 505,-447 530,-447 530,-426 505,-426"/>
<polygon fill="none" stroke="black" points="505,-426 505,-447 530,-447 530,-426 505,-426"/>
<text text-anchor="start" x="508" y="-432.8" font-family="Times,serif" font-size="14.00">pos</text>
<polygon fill="#e6007a4f" stroke="none" points="530,-426 530,-447 558,-447 558,-426 530,-426"/>
<polygon fill="none" stroke="black" points="530,-426 530,-447 558,-447 558,-426 530,-426"/>
<text text-anchor="start" x="533" y="-432.8" font-family="Times,serif" font-size="14.00">size</text>
<polygon fill="#e6007a4f" stroke="none" points="558,-426 558,-447 666,-447 666,-426 558,-426"/>
<polygon fill="none" stroke="black" points="558,-426 558,-447 666,-447 666,-426 558,-426"/>
<text text-anchor="start" x="600" y="-432.8" font-family="Times,serif" font-size="14.00">type</text>
<polygon fill="#e6007a4f" stroke="none" points="666,-426 666,-447 696,-447 696,-426 666,-426"/>
<polygon fill="none" stroke="black" points="666,-426 666,-447 696,-447 696,-426 666,-426"/>
<text text-anchor="start" x="675.5" y="-432.8" font-family="Times,serif" font-size="14.00">id</text>
<polygon fill="none" stroke="black" points="505,-405 505,-426 530,-426 530,-405 505,-405"/>
<text text-anchor="start" x="514" y="-411.8" font-family="Times,serif" font-size="14.00">0</text>
<polygon fill="none" stroke="black" points="530,-405 530,-426 558,-426 558,-405 530,-405"/>
<text text-anchor="start" x="538" y="-411.8" font-family="Times,serif" font-size="14.00">...</text>
<polygon fill="none" stroke="black" points="558,-405 558,-426 666,-426 666,-405 558,-405"/>
<text text-anchor="start" x="561" y="-411.8" font-family="Times,serif" font-size="14.00">Scale::CompactInt</text>
<polygon fill="none" stroke="black" points="666,-405 666,-426 696,-426 696,-405 666,-405"/>
<text text-anchor="start" x="669" y="-411.8" font-family="Times,serif" font-size="14.00">type</text>
</g>
<!-- metadata_pallet__seq&#45;&gt;calls__seq -->
<g id="edge3" class="edge">
<title>metadata_pallet__seq:calls_type-&gt;calls__seq</title>
<path fill="none" stroke="black" stroke-width="2" d="M454.5,-381C461.48,-381 487.54,-388.71 515.67,-397.75"/>
<polygon fill="black" stroke="black" stroke-width="2" points="513.51,-401.38 524.1,-401.13 515.67,-394.72 513.51,-401.38"/>
</g>
<!-- events__seq -->
<g id="node3" class="node">
<title>events__seq</title>
<polygon fill="#e6007a4f" stroke="none" points="505,-329 505,-350 530,-350 530,-329 505,-329"/>
<polygon fill="none" stroke="black" points="505,-329 505,-350 530,-350 530,-329 505,-329"/>
<text text-anchor="start" x="508" y="-335.8" font-family="Times,serif" font-size="14.00">pos</text>
<polygon fill="#e6007a4f" stroke="none" points="530,-329 530,-350 558,-350 558,-329 530,-329"/>
<polygon fill="none" stroke="black" points="530,-329 530,-350 558,-350 558,-329 530,-329"/>
<text text-anchor="start" x="533" y="-335.8" font-family="Times,serif" font-size="14.00">size</text>
<polygon fill="#e6007a4f" stroke="none" points="558,-329 558,-350 666,-350 666,-329 558,-329"/>
<polygon fill="none" stroke="black" points="558,-329 558,-350 666,-350 666,-329 558,-329"/>
<text text-anchor="start" x="600" y="-335.8" font-family="Times,serif" font-size="14.00">type</text>
<polygon fill="#e6007a4f" stroke="none" points="666,-329 666,-350 696,-350 696,-329 666,-329"/>
<polygon fill="none" stroke="black" points="666,-329 666,-350 696,-350 696,-329 666,-329"/>
<text text-anchor="start" x="675.5" y="-335.8" font-family="Times,serif" font-size="14.00">id</text>
<polygon fill="none" stroke="black" points="505,-308 505,-329 530,-329 530,-308 505,-308"/>
<text text-anchor="start" x="514" y="-314.8" font-family="Times,serif" font-size="14.00">0</text>
<polygon fill="none" stroke="black" points="530,-308 530,-329 558,-329 558,-308 530,-308"/>
<text text-anchor="start" x="538" y="-314.8" font-family="Times,serif" font-size="14.00">...</text>
<polygon fill="none" stroke="black" points="558,-308 558,-329 666,-329 666,-308 558,-308"/>
<text text-anchor="start" x="561" y="-314.8" font-family="Times,serif" font-size="14.00">Scale::CompactInt</text>
<polygon fill="none" stroke="black" points="666,-308 666,-329 696,-329 696,-308 666,-308"/>
<text text-anchor="start" x="669" y="-314.8" font-family="Times,serif" font-size="14.00">type</text>
</g>
<!-- metadata_pallet__seq&#45;&gt;events__seq -->
<g id="edge4" class="edge">
<title>metadata_pallet__seq:events_type-&gt;events__seq</title>
<path fill="none" stroke="black" stroke-width="2" d="M454.5,-338C464.9,-338 475.72,-337.77 486.55,-337.37"/>
<polygon fill="black" stroke="black" stroke-width="2" points="484.51,-340.84 494.36,-336.93 484.22,-333.84 484.51,-340.84"/>
</g>
<!-- errors__seq -->
<g id="node4" class="node">
<title>errors__seq</title>
<polygon fill="#e6007a4f" stroke="none" points="505,-232 505,-253 530,-253 530,-232 505,-232"/>
<polygon fill="none" stroke="black" points="505,-232 505,-253 530,-253 530,-232 505,-232"/>
<text text-anchor="start" x="508" y="-238.8" font-family="Times,serif" font-size="14.00">pos</text>
<polygon fill="#e6007a4f" stroke="none" points="530,-232 530,-253 558,-253 558,-232 530,-232"/>
<polygon fill="none" stroke="black" points="530,-232 530,-253 558,-253 558,-232 530,-232"/>
<text text-anchor="start" x="533" y="-238.8" font-family="Times,serif" font-size="14.00">size</text>
<polygon fill="#e6007a4f" stroke="none" points="558,-232 558,-253 666,-253 666,-232 558,-232"/>
<polygon fill="none" stroke="black" points="558,-232 558,-253 666,-253 666,-232 558,-232"/>
<text text-anchor="start" x="600" y="-238.8" font-family="Times,serif" font-size="14.00">type</text>
<polygon fill="#e6007a4f" stroke="none" points="666,-232 666,-253 696,-253 696,-232 666,-232"/>
<polygon fill="none" stroke="black" points="666,-232 666,-253 696,-253 696,-232 666,-232"/>
<text text-anchor="start" x="675.5" y="-238.8" font-family="Times,serif" font-size="14.00">id</text>
<polygon fill="none" stroke="black" points="505,-211 505,-232 530,-232 530,-211 505,-211"/>
<text text-anchor="start" x="514" y="-217.8" font-family="Times,serif" font-size="14.00">0</text>
<polygon fill="none" stroke="black" points="530,-211 530,-232 558,-232 558,-211 530,-211"/>
<text text-anchor="start" x="538" y="-217.8" font-family="Times,serif" font-size="14.00">...</text>
<polygon fill="none" stroke="black" points="558,-211 558,-232 666,-232 666,-211 558,-211"/>
<text text-anchor="start" x="561" y="-217.8" font-family="Times,serif" font-size="14.00">Scale::CompactInt</text>
<polygon fill="none" stroke="black" points="666,-211 666,-232 696,-232 696,-211 666,-211"/>
<text text-anchor="start" x="669" y="-217.8" font-family="Times,serif" font-size="14.00">type</text>
</g>
<!-- metadata_pallet__seq&#45;&gt;errors__seq -->
<g id="edge8" class="edge">
<title>metadata_pallet__seq:errors_type-&gt;errors__seq</title>
<path fill="none" stroke="black" stroke-width="2" d="M454.5,-233C464.88,-233 475.69,-232.97 486.5,-232.93"/>
<polygon fill="black" stroke="black" stroke-width="2" points="484.33,-236.43 494.31,-232.88 484.29,-229.43 484.33,-236.43"/>
</g>
<!-- string__seq -->

<!-- metadata_pallet__seq&#45;&gt;string__seq -->

<!-- pallet_storage__seq -->
<g id="node6" class="node">
<title>pallet_storage__seq</title>
<text text-anchor="middle" x="600.5" y="-106.3" font-family="Times,serif" font-size="14.00">
              <a xlink:href="sect-metadata#img-pallet-storage" xlink:title="PalletStorage">
                PalletStorage
              </a>
            </text>
</g>
<!-- metadata_pallet__seq&#45;&gt;pallet_storage__seq -->
<g id="edge2" class="edge">
<title>metadata_pallet__seq:storage_type-&gt;pallet_storage__seq</title>
<path fill="none" stroke="black" stroke-width="2" d="M454.5,-423C518.52,-423 446.52,-184.89 489,-137 499.22,-125.48 513.47,-118.47 528.35,-114.29"/>
<polygon fill="black" stroke="black" stroke-width="2" points="527.78,-117.55 536.71,-111.84 526.17,-110.74 527.78,-117.55"/>
</g>
<!-- compact_int__seq -->

<!-- metadata_pallet__seq&#45;&gt;compact_int__seq -->

<!-- pallet_constant__seq -->
<g id="node8" class="node">
<title>pallet_constant__seq</title>
<text text-anchor="middle" x="600.5" y="-14.3" font-family="Times,serif" font-size="14.00">
              <a xlink:href="sect-metadata#img-pallet-constant" xlink:title="PalletConstant">
                PalletConstant
              </a>
            </text>
</g>
<!-- metadata_pallet__seq&#45;&gt;pallet_constant__seq -->
<g id="edge6" class="edge">
<title>metadata_pallet__seq:constants_type-&gt;pallet_constant__seq</title>
<path fill="none" stroke="black" stroke-width="2" d="M454.5,-296C509.7,-296 452.85,-91.71 489,-50 498.53,-39.01 511.57,-31.68 525.37,-26.82"/>
<polygon fill="black" stroke="black" stroke-width="2" points="524.98,-29.99 533.51,-23.7 522.92,-23.3 524.98,-29.99"/>
</g>
<!-- calls__seq&#45;&gt;compact_int__seq -->

<!-- events__seq&#45;&gt;compact_int__seq -->

<!-- errors__seq&#45;&gt;compact_int__seq -->

<!-- compact_int__inst__value -->

<!-- compact_int__inst__value&#45;&gt;metadata_pallet__seq -->

</g>
</svg>
