<?xml version="1.0" encoding="UTF-8" standalone="no"?>
<!DOCTYPE svg PUBLIC "-//W3C//DTD SVG 1.1//EN"
 "http://www.w3.org/Graphics/SVG/1.1/DTD/svg11.dtd">
<!-- Generated by graphviz version 8.0.2 (20230410.1723)
 -->
<!-- Pages: 1 -->
<svg width="390pt" height="213pt" viewBox="0.00 0.00 390.00 213.00" xmlns="http://www.w3.org/2000/svg" xmlns:xlink="http://www.w3.org/1999/xlink">
<g id="graph0" class="graph" transform="scale(1 1) rotate(0) translate(4 209)">
<polygon fill="white" stroke="none" points="-4,4 -4,-209 386,-209 386,4 -4,4"/>
<g id="clust1" class="cluster">
<title>cluster__pallet_constant</title>
<polygon fill="white" stroke="black" stroke-dasharray="1,5" points="8,-44 8,-197 238,-197 238,-44 8,-44"/>
<text text-anchor="middle" x="123" y="-181.8" font-family="Times,serif" font-size="14.00">PalletConstant</text>
</g>
<!-- pallet_constant__seq -->
<g id="node1" class="node">
<title>pallet_constant__seq</title>
<polygon fill="#e6007a4f" stroke="none" points="24,-140.5 24,-161.5 49,-161.5 49,-140.5 24,-140.5"/>
<polygon fill="none" stroke="black" points="24,-140.5 24,-161.5 49,-161.5 49,-140.5 24,-140.5"/>
<text text-anchor="start" x="27" y="-147.3" font-family="Times,serif" font-size="14.00">pos</text>
<polygon fill="#e6007a4f" stroke="none" points="49,-140.5 49,-161.5 77,-161.5 77,-140.5 49,-140.5"/>
<polygon fill="none" stroke="black" points="49,-140.5 49,-161.5 77,-161.5 77,-140.5 49,-140.5"/>
<text text-anchor="start" x="52" y="-147.3" font-family="Times,serif" font-size="14.00">size</text>
<polygon fill="#e6007a4f" stroke="none" points="77,-140.5 77,-161.5 185,-161.5 185,-140.5 77,-140.5"/>
<polygon fill="none" stroke="black" points="77,-140.5 77,-161.5 185,-161.5 185,-140.5 77,-140.5"/>
<text text-anchor="start" x="119" y="-147.3" font-family="Times,serif" font-size="14.00">type</text>
<polygon fill="#e6007a4f" stroke="none" points="185,-140.5 185,-161.5 222,-161.5 222,-140.5 185,-140.5"/>
<polygon fill="none" stroke="black" points="185,-140.5 185,-161.5 222,-161.5 222,-140.5 185,-140.5"/>
<text text-anchor="start" x="198" y="-147.3" font-family="Times,serif" font-size="14.00">id</text>
<polygon fill="none" stroke="black" points="24,-119.5 24,-140.5 49,-140.5 49,-119.5 24,-119.5"/>
<text text-anchor="start" x="33" y="-126.3" font-family="Times,serif" font-size="14.00">0</text>
<polygon fill="none" stroke="black" points="49,-119.5 49,-140.5 77,-140.5 77,-119.5 49,-119.5"/>
<text text-anchor="start" x="57" y="-126.3" font-family="Times,serif" font-size="14.00">...</text>
<polygon fill="none" stroke="black" points="77,-119.5 77,-140.5 185,-140.5 185,-119.5 77,-119.5"/>
<text text-anchor="start" x="96" y="-126.3" font-family="Times,serif" font-size="14.00">Scale::String</text>
<polygon fill="none" stroke="black" points="185,-119.5 185,-140.5 222,-140.5 222,-119.5 185,-119.5"/>
<text text-anchor="start" x="188" y="-126.3" font-family="Times,serif" font-size="14.00">name</text>
<polygon fill="none" stroke="black" points="24,-98.5 24,-119.5 49,-119.5 49,-98.5 24,-98.5"/>
<text text-anchor="start" x="30.5" y="-105.3" font-family="Times,serif" font-size="14.00">...</text>
<polygon fill="none" stroke="black" points="49,-98.5 49,-119.5 77,-119.5 77,-98.5 49,-98.5"/>
<text text-anchor="start" x="57" y="-105.3" font-family="Times,serif" font-size="14.00">...</text>
<polygon fill="none" stroke="black" points="77,-98.5 77,-119.5 185,-119.5 185,-98.5 77,-98.5"/>
<text text-anchor="start" x="80" y="-105.3" font-family="Times,serif" font-size="14.00">Scale::CompactInt</text>
<polygon fill="none" stroke="black" points="185,-98.5 185,-119.5 222,-119.5 222,-98.5 185,-98.5"/>
<text text-anchor="start" x="191.5" y="-105.3" font-family="Times,serif" font-size="14.00">type</text>
<polygon fill="none" stroke="black" points="24,-77.5 24,-98.5 49,-98.5 49,-77.5 24,-77.5"/>
<text text-anchor="start" x="30.5" y="-84.3" font-family="Times,serif" font-size="14.00">...</text>
<polygon fill="none" stroke="black" points="49,-77.5 49,-98.5 77,-98.5 77,-77.5 49,-77.5"/>
<text text-anchor="start" x="57" y="-84.3" font-family="Times,serif" font-size="14.00">...</text>
<polygon fill="none" stroke="black" points="77,-77.5 77,-98.5 185,-98.5 185,-77.5 77,-77.5"/>
<text text-anchor="start" x="97" y="-84.3" font-family="Times,serif" font-size="14.00">Scale::Bytes</text>
<polygon fill="none" stroke="black" points="185,-77.5 185,-98.5 222,-98.5 222,-77.5 185,-77.5"/>
<text text-anchor="start" x="188.5" y="-84.3" font-family="Times,serif" font-size="14.00">value</text>
<polygon fill="none" stroke="black" points="24,-56.5 24,-77.5 49,-77.5 49,-56.5 24,-56.5"/>
<text text-anchor="start" x="30.5" y="-63.3" font-family="Times,serif" font-size="14.00">...</text>
<polygon fill="none" stroke="black" points="49,-56.5 49,-77.5 77,-77.5 77,-56.5 49,-56.5"/>
<text text-anchor="start" x="57" y="-63.3" font-family="Times,serif" font-size="14.00">...</text>
<polygon fill="none" stroke="black" points="77,-56.5 77,-77.5 185,-77.5 185,-56.5 77,-56.5"/>
<text text-anchor="start" x="85.5" y="-63.3" font-family="Times,serif" font-size="14.00">Scale::StringList</text>
<polygon fill="none" stroke="black" points="185,-56.5 185,-77.5 222,-77.5 222,-56.5 185,-56.5"/>
<text text-anchor="start" x="191" y="-63.3" font-family="Times,serif" font-size="14.00">docs</text>
</g>
<!-- string__seq -->

<!-- pallet_constant__seq&#45;&gt;string__seq -->

<!-- compact_int__seq -->

<!-- pallet_constant__seq&#45;&gt;compact_int__seq -->

<!-- bytes__seq -->

<!-- pallet_constant__seq&#45;&gt;bytes__seq -->

<!-- string_list__seq -->

<!-- pallet_constant__seq&#45;&gt;string_list__seq -->

</g>
</svg>
